<svg id="svg" version="1.1" xmlns="http://www.w3.org/2000/svg" xmlns:xlink="http://www.w3.org/1999/xlink" width="400" height="530.3834808259587" viewBox="0, 0, 400,530.3834808259587"><g id="svgg"><path id="path0" d="M206.000 13.376 C 199.501 15.021,197.489 16.001,194.742 18.860 C 192.596 21.094,191.833 23.392,192.116 26.769 C 192.510 31.469,193.767 33.265,200.800 39.180 C 209.017 46.090,210.015 51.103,206.819 69.400 C 206.038 73.871,205.433 77.718,204.775 82.400 C 204.012 87.822,203.487 91.208,202.388 97.800 C 200.566 108.716,200.439 109.520,199.605 115.400 C 199.169 118.480,198.540 122.440,198.208 124.200 C 197.876 125.960,197.243 129.740,196.801 132.600 C 196.359 135.460,195.737 139.330,195.417 141.200 C 195.098 143.070,194.636 145.860,194.390 147.400 C 194.144 148.940,193.677 151.730,193.352 153.600 C 193.028 155.470,192.424 159.070,192.011 161.600 C 191.598 164.130,190.990 167.820,190.661 169.800 C 189.904 174.351,189.300 178.853,188.596 185.200 C 188.291 187.950,187.665 192.360,187.205 195.000 C 186.746 197.640,186.205 200.790,186.004 202.000 C 185.803 203.210,185.360 205.685,185.019 207.500 C 184.679 209.315,184.139 212.248,183.819 214.018 C 183.500 215.788,183.055 217.813,182.830 218.518 C 182.606 219.223,182.039 221.150,181.572 222.800 C 179.934 228.583,178.438 233.019,177.423 235.098 C 176.861 236.252,176.400 237.337,176.400 237.508 C 176.400 239.708,167.207 253.947,165.000 255.166 C 164.560 255.408,163.120 256.519,161.800 257.633 C 149.390 268.109,126.511 265.942,119.262 253.605 C 116.424 248.775,115.597 246.112,115.316 240.906 C 114.890 232.990,119.058 225.266,126.200 220.737 C 132.290 216.876,132.603 216.744,139.400 215.199 C 145.249 213.869,149.726 211.535,150.781 209.264 C 152.872 204.763,153.900 194.539,152.563 191.549 C 148.819 183.178,143.270 179.312,133.007 177.924 C 123.942 176.698,107.871 179.388,101.000 183.280 C 100.560 183.529,99.120 184.306,97.800 185.005 C 94.144 186.943,89.141 189.986,87.800 191.086 C 84.067 194.151,76.800 201.884,76.800 202.792 C 76.800 202.985,76.515 203.428,76.166 203.777 C 75.123 204.819,71.293 211.420,70.655 213.275 C 70.328 214.224,69.699 215.810,69.257 216.800 C 68.814 217.790,67.855 220.580,67.126 223.000 L 65.800 227.400 65.800 236.600 C 65.800 246.414,66.450 251.001,68.492 255.600 C 68.931 256.590,69.645 258.210,70.078 259.200 C 72.587 264.944,74.571 267.813,79.260 272.479 C 81.418 274.627,84.186 276.973,85.411 277.692 C 93.780 282.608,97.367 284.289,104.779 286.769 C 126.521 294.041,163.062 294.650,184.600 288.098 C 195.094 284.906,204.446 281.183,208.000 278.781 C 208.550 278.409,209.450 277.966,210.000 277.796 C 213.856 276.607,223.515 269.036,229.038 262.874 C 232.228 259.316,232.934 258.389,236.491 253.088 C 240.340 247.351,245.674 233.489,248.070 223.000 C 250.016 214.481,251.571 206.294,253.427 194.800 C 254.805 186.264,255.976 178.552,256.190 176.600 C 256.335 175.280,256.612 173.660,256.805 173.000 C 257.159 171.792,257.557 169.402,258.568 162.400 C 259.265 157.570,261.023 147.085,262.256 140.400 C 262.560 138.750,263.072 135.249,263.392 132.620 C 263.713 129.992,264.083 127.562,264.214 127.220 C 264.426 126.667,265.615 119.127,266.802 110.800 C 267.856 103.402,268.129 101.605,268.653 98.600 C 268.960 96.840,269.470 93.330,269.788 90.800 C 270.106 88.270,270.644 84.220,270.985 81.800 C 271.326 79.380,271.785 75.870,272.005 74.000 C 272.225 72.130,272.583 69.790,272.800 68.800 C 273.017 67.810,273.389 66.100,273.625 65.000 C 275.077 58.245,275.459 57.006,277.577 52.200 C 277.965 51.320,278.397 50.330,278.539 50.000 C 280.454 45.517,291.234 34.000,293.515 34.000 C 293.721 34.000,294.590 33.446,295.445 32.769 C 301.472 27.996,301.266 17.600,295.096 15.187 C 294.383 14.908,293.260 14.456,292.600 14.182 C 289.302 12.813,286.711 12.682,270.096 13.044 C 250.631 13.469,232.780 13.489,218.600 13.103 C 210.298 12.876,207.756 12.931,206.000 13.376 M282.800 251.614 C 280.751 252.345,276.185 255.194,275.497 256.170 C 272.996 259.717,272.110 261.719,271.605 264.969 C 268.231 286.658,296.189 294.864,305.510 274.921 C 308.378 268.784,306.109 258.528,301.169 255.307 C 300.416 254.816,299.620 254.274,299.400 254.104 C 295.234 250.875,287.938 249.780,282.800 251.614 M294.115 254.263 C 307.144 258.239,307.650 277.517,294.855 282.445 C 282.890 287.053,271.271 276.988,274.273 264.616 C 275.534 259.420,278.636 255.846,283.075 254.475 C 288.194 252.893,289.542 252.867,294.115 254.263 M282.698 258.663 C 282.206 259.511,281.962 266.266,282.222 271.853 L 282.507 278.000 283.654 278.000 L 284.800 278.000 284.800 273.880 C 284.800 269.425,285.048 268.800,286.818 268.800 C 288.128 268.800,288.541 269.257,291.517 274.000 C 293.749 277.558,293.993 277.808,295.350 277.924 C 297.188 278.081,297.208 278.184,294.594 274.174 C 291.927 270.081,291.696 269.055,293.400 268.870 C 297.677 268.406,299.094 261.304,295.292 259.389 C 293.686 258.580,283.100 257.969,282.698 258.663 M293.673 261.406 C 294.656 261.784,295.240 263.443,294.798 264.606 C 294.253 266.040,292.793 266.445,288.637 266.314 L 285.000 266.200 284.878 263.837 C 284.795 262.228,284.923 261.359,285.278 261.112 C 285.812 260.742,292.556 260.978,293.673 261.406 M16.400 334.600 L 16.400 359.600 171.000 359.600 L 325.600 359.600 325.600 334.600 L 325.600 309.600 171.000 309.600 L 16.400 309.600 16.400 334.600 M75.800 385.207 C 74.700 385.598,71.370 387.163,68.400 388.685 C 62.135 391.895,52.266 395.126,43.600 396.804 C 34.203 398.623,31.338 400.306,30.891 404.266 C 30.446 408.214,32.490 409.198,41.149 409.204 C 53.225 409.213,54.348 410.445,52.839 422.035 C 51.839 429.711,51.166 434.168,50.002 440.800 C 49.327 444.650,48.513 449.420,48.194 451.400 C 47.875 453.380,47.328 456.440,46.977 458.200 C 45.820 464.013,45.291 467.415,43.399 481.200 C 42.780 485.712,41.809 490.504,41.252 491.800 C 38.402 498.433,37.346 499.157,28.694 500.405 C 20.269 501.619,18.469 502.343,17.059 505.080 C 15.529 508.052,16.841 510.839,20.400 512.174 C 23.911 513.492,81.349 513.348,85.365 512.012 C 89.486 510.640,91.079 508.026,89.880 504.600 C 89.108 502.394,87.841 501.776,81.726 500.624 C 71.799 498.753,70.636 496.161,73.193 481.600 C 73.676 478.850,74.309 474.980,74.601 473.000 C 75.766 465.081,76.627 459.853,78.451 449.600 C 78.902 447.070,79.438 443.740,79.643 442.200 C 79.848 440.660,80.118 439.130,80.243 438.800 C 80.368 438.470,80.722 436.580,81.028 434.600 C 81.335 432.620,81.869 429.560,82.214 427.800 C 82.559 426.040,83.091 423.070,83.396 421.200 C 84.241 416.017,85.100 411.303,86.857 402.200 C 88.589 393.226,88.789 389.765,87.699 387.630 C 86.990 386.241,86.862 386.138,84.439 385.025 C 82.643 384.201,78.378 384.290,75.800 385.207 M173.600 385.086 C 172.610 385.408,170.990 386.095,170.000 386.612 C 159.870 391.906,153.249 394.287,142.200 396.610 C 136.417 397.826,135.299 398.097,133.600 398.697 C 128.972 400.329,126.952 403.613,128.607 406.813 C 129.758 409.040,130.994 409.338,139.200 409.371 C 150.590 409.416,151.808 410.932,149.984 422.800 C 149.765 424.230,149.326 427.380,149.010 429.800 C 148.441 434.160,145.228 453.552,144.438 457.400 C 144.212 458.500,143.754 461.110,143.422 463.200 C 143.089 465.290,142.618 468.170,142.375 469.600 C 142.132 471.030,141.685 474.090,141.380 476.400 C 138.631 497.272,137.658 498.745,125.384 500.608 C 116.059 502.024,114.000 503.277,114.000 507.539 C 114.000 509.957,114.894 511.128,117.600 512.252 C 119.574 513.072,171.723 513.516,179.055 512.775 C 184.760 512.199,187.597 510.148,187.597 506.600 C 187.597 503.017,186.026 502.031,177.779 500.441 C 169.712 498.886,168.454 496.502,169.948 485.600 C 170.559 481.150,173.564 462.428,175.053 453.800 C 176.181 447.259,176.935 442.851,177.823 437.600 C 178.139 435.730,178.666 432.670,178.994 430.800 C 179.322 428.930,179.773 426.230,179.997 424.800 C 180.220 423.370,180.663 420.940,180.981 419.400 C 181.729 415.779,182.569 411.204,183.404 406.200 C 183.772 404.000,184.340 400.940,184.666 399.400 C 185.801 394.052,185.834 388.814,184.742 387.250 C 182.957 384.694,177.855 383.703,173.600 385.086 M273.541 384.592 C 273.412 384.722,272.157 385.002,270.753 385.215 C 268.074 385.622,264.759 386.488,262.400 387.396 C 261.630 387.692,259.920 388.347,258.600 388.852 C 247.276 393.177,236.165 402.129,233.094 409.400 C 227.033 423.752,230.493 433.833,241.773 434.687 C 252.663 435.510,259.535 428.669,256.148 420.376 C 249.479 404.046,277.112 388.120,287.808 402.129 C 291.871 407.450,291.312 412.779,285.358 425.501 C 284.611 427.097,284.000 428.505,284.000 428.630 C 284.000 428.755,283.775 429.102,283.500 429.401 C 283.225 429.700,282.407 430.999,281.682 432.288 C 277.565 439.606,264.754 452.292,243.396 470.200 C 237.678 474.995,238.139 474.591,232.041 480.131 C 224.608 486.885,219.609 492.778,218.606 495.971 C 218.438 496.505,217.529 498.485,216.585 500.371 C 212.724 508.086,212.750 510.136,216.733 512.064 L 218.517 512.928 258.035 512.887 C 293.063 512.850,297.690 512.774,298.763 512.219 C 300.921 511.103,303.246 508.199,305.503 503.800 C 307.322 500.256,307.613 499.553,311.463 489.408 C 314.863 480.450,306.444 479.043,297.200 487.024 C 295.800 488.233,291.560 489.964,288.400 490.616 C 284.120 491.500,253.601 491.769,253.600 490.923 C 253.600 490.075,258.074 485.573,263.030 481.434 C 269.263 476.228,269.650 475.913,274.450 472.162 C 287.558 461.918,290.569 459.415,297.400 453.080 C 308.950 442.370,315.702 433.447,318.799 424.800 C 319.311 423.370,319.873 422.011,320.047 421.781 C 320.848 420.720,321.362 412.436,320.871 408.505 C 319.387 396.646,308.951 387.834,293.200 385.142 C 290.403 384.663,273.930 384.203,273.541 384.592 " stroke="none" fill="#334463" fill-rule="evenodd"></path><path id="path1" d="M0.000 265.000 L 0.000 530.000 200.000 530.000 L 400.000 530.000 400.000 265.000 L 400.000 0.000 200.000 0.000 L 0.000 0.000 0.000 265.000 M292.035 13.479 C 298.251 15.797,300.185 18.102,300.195 23.200 C 300.205 28.362,297.975 32.338,294.000 34.246 C 288.647 36.815,280.501 46.140,277.793 52.800 C 277.212 54.230,276.492 55.940,276.194 56.600 C 275.895 57.260,275.447 58.700,275.198 59.800 C 274.949 60.900,274.481 62.970,274.159 64.400 C 272.951 69.759,271.622 78.702,270.623 88.200 C 270.078 93.380,269.662 96.079,268.588 101.400 C 268.278 102.940,267.918 105.370,267.788 106.800 C 267.580 109.093,266.707 114.843,265.206 123.800 C 264.948 125.340,264.496 128.310,264.202 130.400 C 263.501 135.384,262.588 140.985,261.790 145.200 C 261.435 147.070,260.988 149.894,260.795 151.474 C 260.602 153.055,260.269 155.035,260.054 155.874 C 259.839 156.714,259.550 158.570,259.411 160.000 C 259.272 161.430,258.909 163.860,258.604 165.400 C 257.495 171.002,254.918 187.136,254.355 192.000 C 254.164 193.650,253.826 195.413,253.604 195.919 C 253.382 196.424,253.196 197.594,253.190 198.519 C 253.185 199.443,252.997 200.920,252.772 201.800 C 252.548 202.680,252.111 205.020,251.801 207.000 C 251.492 208.980,250.962 211.770,250.624 213.200 C 250.285 214.630,249.818 216.956,249.586 218.368 C 249.353 219.781,249.036 221.131,248.881 221.368 C 248.727 221.606,248.391 222.970,248.135 224.400 C 247.195 229.660,243.604 240.083,240.586 246.314 C 239.384 248.797,238.400 250.914,238.400 251.018 C 238.400 251.199,237.636 252.317,233.764 257.800 C 227.692 266.399,219.273 273.493,208.594 279.008 C 206.177 280.257,204.020 281.408,203.800 281.568 C 202.222 282.711,194.058 285.661,183.800 288.796 C 179.663 290.061,171.647 291.370,160.318 292.632 C 153.590 293.381,135.953 293.264,130.000 292.432 C 128.130 292.170,124.620 291.695,122.200 291.377 C 112.259 290.068,98.718 285.894,91.829 282.015 C 85.258 278.314,80.256 274.573,77.342 271.179 C 76.482 270.177,75.288 268.829,74.689 268.183 C 74.090 267.537,73.600 266.879,73.600 266.722 C 73.600 266.564,73.135 265.753,72.567 264.918 C 71.639 263.555,70.921 262.118,68.906 257.600 C 68.563 256.830,68.098 255.840,67.872 255.400 C 66.025 251.802,64.416 237.222,65.169 230.917 C 65.608 227.237,67.438 219.604,68.021 219.020 C 68.229 218.811,68.406 218.361,68.414 218.020 C 68.421 217.679,68.775 216.680,69.200 215.800 C 69.625 214.920,69.979 213.948,69.986 213.639 C 69.997 213.194,71.918 209.521,73.918 206.121 C 76.303 202.067,85.480 191.617,86.667 191.605 C 86.923 191.602,87.193 191.464,87.267 191.297 C 87.487 190.797,90.683 188.400,91.129 188.400 C 91.357 188.400,91.782 188.161,92.075 187.868 C 92.367 187.576,93.087 187.081,93.675 186.768 C 94.262 186.456,96.241 185.365,98.072 184.344 C 101.073 182.670,105.279 180.836,107.400 180.277 C 107.840 180.161,109.493 179.694,111.073 179.239 C 123.701 175.604,138.369 176.792,146.000 182.066 C 151.333 185.752,153.397 190.264,153.380 198.200 C 153.357 209.162,150.215 213.326,140.400 215.404 C 117.043 220.347,107.594 241.819,122.388 256.331 C 132.991 266.732,149.503 266.829,162.476 256.567 C 166.435 253.435,172.717 245.446,173.883 242.060 C 174.106 241.412,175.228 238.909,177.384 234.249 C 177.982 232.956,178.712 231.066,179.006 230.049 C 179.299 229.032,179.921 226.940,180.388 225.400 C 182.182 219.477,185.180 206.165,185.194 204.057 C 185.197 203.539,185.463 201.919,185.784 200.457 C 186.595 196.770,187.126 193.401,187.779 187.800 C 188.086 185.160,188.521 181.830,188.745 180.400 C 188.968 178.970,189.358 176.090,189.612 174.000 C 189.865 171.910,190.247 169.300,190.461 168.200 C 190.674 167.100,191.020 165.030,191.228 163.600 C 191.437 162.170,191.800 159.920,192.036 158.600 C 194.310 145.857,195.975 135.712,196.435 131.800 C 196.641 130.040,196.913 128.330,197.038 128.000 C 197.352 127.172,198.310 121.445,198.978 116.400 C 199.283 114.090,199.724 111.120,199.956 109.800 C 200.189 108.480,200.657 105.600,200.996 103.400 C 201.335 101.200,201.779 98.680,201.981 97.800 C 202.183 96.920,202.727 93.500,203.190 90.200 C 203.652 86.900,204.217 83.030,204.446 81.600 C 204.674 80.170,205.103 77.290,205.398 75.200 C 205.692 73.110,206.334 69.330,206.823 66.800 C 207.509 63.253,207.723 60.643,207.756 55.400 L 207.800 48.600 206.299 45.933 C 204.694 43.081,204.240 42.595,199.600 38.763 C 186.311 27.786,189.649 15.848,206.900 12.656 C 210.428 12.003,290.144 12.773,292.035 13.479 M294.777 251.192 C 311.397 256.791,311.368 279.078,294.732 285.733 C 286.002 289.224,274.839 283.913,271.756 274.800 C 266.757 260.025,280.169 246.271,294.777 251.192 M284.800 254.368 C 272.245 257.729,270.071 274.111,281.262 281.031 L 283.800 282.600 288.800 282.600 C 293.972 282.600,294.585 282.442,297.726 280.296 C 299.404 279.149,302.000 276.524,302.000 275.973 C 302.000 275.646,302.315 274.933,302.700 274.389 C 303.703 272.972,303.693 264.372,302.687 262.600 C 302.312 261.940,302.004 261.217,302.002 260.993 C 301.997 260.131,298.383 256.506,296.733 255.708 C 292.326 253.577,289.107 253.215,284.800 254.368 M294.488 258.624 C 299.245 260.244,299.240 266.754,294.481 268.990 C 292.328 270.001,292.345 270.130,295.179 274.268 C 296.488 276.179,297.468 277.891,297.356 278.071 C 296.633 279.241,292.400 277.766,292.400 276.345 C 292.400 276.177,291.835 275.176,291.143 274.120 C 290.452 273.064,289.507 271.616,289.043 270.903 C 288.379 269.880,287.925 269.605,286.900 269.603 L 285.600 269.600 285.600 273.367 C 285.600 278.159,285.502 278.400,283.557 278.400 L 282.000 278.400 282.000 268.467 C 282.000 263.003,282.120 258.413,282.267 258.267 C 282.833 257.701,292.619 257.987,294.488 258.624 M285.555 261.700 C 285.181 265.905,285.261 265.998,289.200 265.954 C 293.701 265.903,294.200 265.687,294.200 263.782 C 294.200 262.332,294.084 262.160,292.800 261.723 C 290.860 261.061,285.614 261.045,285.555 261.700 M325.903 334.700 L 326.006 360.000 324.703 360.000 C 323.986 360.000,254.550 360.001,170.400 360.002 C 86.250 360.003,17.085 360.003,16.700 360.002 C 16.041 360.000,16.000 358.523,16.000 334.599 L 16.000 309.199 170.900 309.299 L 325.800 309.400 325.903 334.700 M291.800 384.567 C 308.237 387.154,319.451 395.849,321.262 407.410 C 322.053 412.463,321.039 422.196,319.556 423.780 C 319.360 423.989,319.200 424.449,319.200 424.801 C 319.200 426.207,314.766 434.374,311.926 438.200 C 306.799 445.105,292.244 459.035,282.459 466.400 C 281.729 466.950,280.921 467.587,280.665 467.815 C 280.409 468.043,277.770 470.107,274.800 472.400 C 271.830 474.693,269.199 476.757,268.953 476.985 C 267.913 477.951,266.015 479.533,263.233 481.751 C 259.408 484.800,254.400 489.729,254.400 490.444 C 254.400 491.154,280.894 491.102,286.800 490.381 C 291.077 489.859,294.503 488.514,297.776 486.071 C 304.756 480.862,309.992 479.751,312.028 483.045 C 312.942 484.524,312.956 487.377,312.057 489.069 C 311.844 489.471,311.090 491.420,310.382 493.400 C 308.935 497.451,307.874 500.059,306.989 501.742 C 304.021 507.390,303.169 508.754,301.600 510.374 C 298.420 513.657,302.119 513.400,258.039 513.400 L 218.600 513.400 216.711 512.503 C 212.848 510.669,212.558 507.349,215.704 501.000 C 216.685 499.020,217.965 496.410,218.547 495.200 C 221.160 489.777,228.671 482.034,243.000 469.993 C 252.211 462.253,255.916 459.008,262.592 452.832 C 267.607 448.194,276.293 439.279,277.680 437.349 C 278.370 436.387,279.085 435.600,279.268 435.600 C 279.451 435.600,279.600 435.429,279.600 435.220 C 279.600 435.011,280.095 434.066,280.700 433.120 C 281.305 432.174,282.027 431.040,282.305 430.600 C 283.156 429.252,285.852 423.537,286.835 421.000 C 287.346 419.680,287.882 418.420,288.027 418.200 C 289.775 415.542,290.396 407.352,289.043 404.800 C 286.460 399.930,279.598 396.079,275.054 396.951 C 270.585 397.808,269.534 398.121,267.200 399.294 C 265.770 400.012,264.420 400.794,264.200 401.031 C 263.980 401.268,263.031 402.051,262.091 402.771 C 256.359 407.165,254.284 414.218,256.740 420.962 C 261.807 434.877,236.399 441.443,230.531 427.735 C 229.138 424.479,230.039 415.515,232.295 410.200 C 234.856 404.165,241.275 397.369,247.653 393.939 C 248.612 393.422,249.488 392.899,249.599 392.775 C 251.588 390.546,265.677 385.513,273.000 384.416 C 274.760 384.152,276.470 383.868,276.800 383.785 C 278.013 383.481,288.308 384.017,291.800 384.567 M85.395 385.008 C 88.925 386.761,89.582 390.146,87.958 398.200 C 87.514 400.400,86.978 403.460,86.768 405.000 C 86.557 406.540,86.284 408.070,86.161 408.400 C 86.039 408.730,85.670 410.530,85.342 412.400 C 85.013 414.270,84.476 417.330,84.147 419.200 C 83.818 421.070,83.309 424.040,83.017 425.800 C 82.424 429.372,81.827 432.734,80.991 437.200 C 80.682 438.850,80.138 442.000,79.782 444.200 C 79.426 446.400,78.886 449.550,78.583 451.200 C 78.280 452.850,77.668 456.450,77.223 459.200 C 76.778 461.950,76.232 465.280,76.009 466.600 C 75.787 467.920,75.246 471.340,74.808 474.200 C 74.370 477.060,73.829 480.300,73.606 481.400 C 72.827 485.252,72.413 491.824,72.800 494.202 C 73.388 497.810,74.529 498.694,80.000 499.773 C 88.379 501.426,89.660 502.053,90.422 504.880 C 91.415 508.571,89.441 511.367,84.952 512.624 C 80.841 513.775,24.326 513.825,20.756 512.680 C 17.860 511.752,16.372 510.220,16.110 507.897 C 15.595 503.331,18.570 501.436,28.536 499.980 C 36.401 498.831,37.789 498.131,39.594 494.400 C 40.072 493.410,40.630 492.287,40.832 491.905 C 41.034 491.523,41.200 490.871,41.200 490.456 C 41.200 490.040,41.454 488.981,41.764 488.101 C 42.075 487.222,42.527 484.904,42.770 482.951 C 43.799 474.676,45.349 464.297,46.197 460.000 C 47.138 455.232,48.657 446.456,49.554 440.600 C 49.790 439.060,50.248 436.360,50.571 434.600 C 52.490 424.153,53.288 413.813,52.314 412.000 C 51.222 409.969,47.106 409.088,41.253 409.633 C 33.896 410.319,30.397 408.670,30.401 404.520 C 30.405 400.574,33.766 398.354,42.400 396.595 C 44.270 396.214,46.430 395.729,47.200 395.518 C 47.970 395.306,49.590 394.890,50.800 394.594 C 55.568 393.425,56.623 393.133,57.213 392.824 C 57.550 392.647,58.450 392.373,59.213 392.216 C 60.786 391.892,62.791 391.031,67.400 388.702 C 69.160 387.812,71.478 386.642,72.552 386.102 C 77.052 383.836,82.161 383.401,85.395 385.008 M182.857 385.137 C 185.797 386.570,186.978 391.397,185.614 396.400 C 185.236 397.786,184.287 403.373,183.576 408.400 C 183.373 409.830,183.092 411.270,182.949 411.600 C 182.807 411.930,182.454 413.640,182.164 415.400 C 181.874 417.160,181.355 420.040,181.011 421.800 C 180.668 423.560,180.137 426.530,179.831 428.400 C 179.525 430.270,179.071 432.970,178.822 434.400 C 178.573 435.830,178.098 438.620,177.765 440.600 C 177.119 444.447,176.152 449.859,175.585 452.800 C 175.394 453.790,174.863 457.030,174.404 460.000 C 172.532 472.142,172.315 473.482,171.918 475.400 C 170.158 483.881,169.550 494.348,170.694 496.445 C 171.694 498.277,174.165 499.433,178.772 500.222 C 186.206 501.494,187.815 502.690,187.758 506.902 C 187.718 509.871,186.264 511.456,182.463 512.674 C 178.929 513.807,120.383 513.791,117.527 512.656 C 112.962 510.843,112.026 506.839,115.361 503.392 C 117.154 501.540,119.049 500.956,126.400 499.991 C 134.392 498.941,136.213 497.548,138.408 490.800 C 138.802 489.590,139.239 487.790,139.380 486.800 C 139.522 485.810,139.809 484.190,140.019 483.200 C 140.230 482.210,140.574 479.960,140.785 478.200 C 141.390 473.153,142.382 466.287,142.609 465.570 C 142.724 465.211,142.976 463.765,143.171 462.358 C 143.366 460.951,144.095 456.740,144.791 453.000 C 146.594 443.310,148.312 432.452,149.222 425.000 C 149.436 423.240,149.789 420.822,150.006 419.627 C 151.485 411.470,149.706 409.742,140.000 409.902 C 130.263 410.063,127.908 409.068,127.908 404.792 C 127.908 400.428,130.667 398.587,140.200 396.590 C 141.960 396.221,144.210 395.685,145.200 395.399 C 146.190 395.113,147.630 394.754,148.400 394.600 C 149.818 394.317,152.164 393.667,155.800 392.548 C 158.775 391.632,163.437 389.616,166.600 387.877 C 173.863 383.886,178.639 383.080,182.857 385.137 M389.382 445.049 C 391.701 445.938,391.688 456.672,389.365 459.239 C 387.806 460.962,383.600 459.212,383.600 456.841 C 383.600 456.066,381.079 453.555,379.438 452.695 C 377.940 451.910,377.066 451.826,369.200 451.701 C 359.303 451.544,358.782 451.664,358.298 454.212 C 357.720 457.252,355.200 472.962,355.200 473.523 C 355.200 473.998,356.594 474.061,363.900 473.921 L 372.600 473.755 375.000 472.437 C 376.320 471.712,377.684 470.867,378.031 470.559 C 380.136 468.695,381.599 470.301,381.601 474.474 C 381.605 482.347,377.638 487.661,374.370 484.162 C 372.357 482.008,371.624 481.851,362.738 481.675 C 352.995 481.481,353.898 480.943,352.970 487.491 C 352.393 491.567,351.890 494.899,350.756 502.147 C 350.006 506.944,351.022 507.457,360.548 507.089 C 370.735 506.696,373.883 505.833,378.117 502.276 C 385.203 496.322,387.911 497.915,385.421 506.570 C 383.115 514.583,385.545 514.000,354.439 514.000 L 328.845 514.000 328.223 513.111 C 327.062 511.453,327.931 509.823,331.000 507.899 C 334.266 505.852,334.623 505.043,335.986 496.600 C 336.448 493.740,337.103 489.780,337.443 487.800 C 338.082 484.066,339.337 475.864,340.012 471.000 C 340.226 469.460,340.575 467.210,340.786 466.000 C 343.190 452.276,343.188 452.336,341.201 451.001 C 338.641 449.280,338.255 446.114,340.494 445.215 C 341.500 444.811,388.347 444.651,389.382 445.049 " stroke="none" fill="#fbfbfb" fill-rule="evenodd"></path><path id="path2" d="M206.900 12.656 C 189.649 15.848,186.311 27.786,199.600 38.763 C 204.240 42.595,204.694 43.081,206.299 45.933 L 207.800 48.600 207.772 56.000 C 207.750 61.978,207.812 62.862,208.093 60.600 C 209.438 49.772,207.851 45.110,200.800 39.180 C 193.767 33.265,192.510 31.469,192.116 26.769 C 191.646 21.160,195.480 16.300,201.785 14.511 C 207.956 12.760,208.564 12.708,219.000 13.057 C 230.494 13.441,246.466 13.485,271.000 13.200 C 280.460 13.090,289.010 13.139,290.000 13.310 C 291.583 13.582,291.679 13.560,290.800 13.126 C 289.991 12.727,208.968 12.273,206.900 12.656 M292.200 13.889 C 292.420 14.097,293.444 14.578,294.475 14.957 C 297.131 15.934,299.008 18.147,299.600 21.002 C 300.028 23.064,299.993 23.940,299.347 27.200 C 299.160 28.145,299.178 28.156,299.659 27.400 C 301.893 23.890,299.435 16.950,295.200 14.810 C 293.432 13.917,291.652 13.370,292.200 13.889 M298.642 29.081 C 298.283 30.196,294.961 33.496,293.843 33.848 C 290.813 34.802,279.600 46.138,279.600 48.247 C 279.600 48.407,279.351 48.821,279.047 49.169 C 278.743 49.516,278.375 50.250,278.228 50.800 C 277.985 51.713,278.003 51.730,278.429 51.000 C 282.761 43.580,289.371 36.467,294.000 34.246 C 296.378 33.104,299.452 29.742,299.089 28.680 C 298.999 28.416,298.798 28.597,298.642 29.081 M277.171 53.045 C 275.870 56.370,275.583 57.431,276.204 56.624 C 276.532 56.196,276.800 55.603,276.800 55.304 C 276.800 55.005,277.083 54.212,277.429 53.543 C 277.776 52.873,277.961 52.227,277.841 52.107 C 277.721 51.987,277.419 52.409,277.171 53.045 M275.062 58.300 C 274.610 59.948,274.397 62.178,274.747 61.600 C 275.175 60.892,275.764 57.600,275.462 57.600 C 275.348 57.600,275.167 57.915,275.062 58.300 M273.882 63.332 C 273.527 64.256,273.076 67.820,273.346 67.569 C 273.653 67.285,274.462 63.129,274.251 62.918 C 274.167 62.834,274.001 63.020,273.882 63.332 M206.481 68.680 C 205.983 71.496,205.405 75.060,205.197 76.600 C 204.988 78.140,204.655 80.210,204.455 81.200 C 203.987 83.524,203.468 89.064,203.744 88.788 C 203.861 88.672,204.237 86.512,204.580 83.988 C 205.448 77.589,205.922 74.517,206.870 69.136 C 207.321 66.571,207.622 64.267,207.539 64.017 C 207.455 63.766,206.979 65.864,206.481 68.680 M272.678 69.281 C 272.293 70.900,271.891 75.008,272.141 74.776 C 272.435 74.502,273.277 68.744,273.055 68.522 C 272.968 68.434,272.798 68.776,272.678 69.281 M271.460 78.100 C 270.922 82.071,270.807 83.802,271.149 82.775 C 271.556 81.554,272.144 76.400,271.877 76.400 C 271.775 76.400,271.587 77.165,271.460 78.100 M270.383 85.500 C 270.352 86.706,269.242 95.237,268.627 98.986 C 267.987 102.890,268.073 104.176,268.744 100.731 C 270.058 93.982,271.148 84.800,270.634 84.800 C 270.505 84.800,270.392 85.115,270.383 85.500 M202.800 92.600 C 202.531 94.494,202.401 96.134,202.511 96.244 C 202.621 96.354,202.940 94.903,203.220 93.020 C 203.500 91.137,203.630 89.497,203.509 89.376 C 203.388 89.255,203.069 90.706,202.800 92.600 M201.890 98.003 C 201.755 98.551,201.551 99.990,201.437 101.200 C 201.236 103.329,201.248 103.309,201.816 100.605 C 202.366 97.987,202.427 95.820,201.890 98.003 M267.444 105.700 C 266.857 111.362,266.795 112.707,267.190 111.200 C 267.630 109.525,268.196 103.200,267.907 103.200 C 267.795 103.200,267.587 104.325,267.444 105.700 M200.635 105.500 C 200.006 110.162,199.978 110.644,200.388 109.693 C 200.830 108.668,201.423 103.600,201.101 103.600 C 200.985 103.600,200.776 104.455,200.635 105.500 M199.461 112.481 C 199.093 114.549,198.669 120.222,198.899 120.000 C 199.180 119.728,200.101 111.567,199.875 111.342 C 199.777 111.243,199.590 111.756,199.461 112.481 M266.301 114.000 C 265.643 117.374,265.563 120.024,266.209 117.000 C 266.539 115.460,266.755 113.840,266.691 113.400 C 266.615 112.886,266.476 113.100,266.301 114.000 M198.272 120.956 C 197.955 121.783,197.448 126.644,197.705 126.400 C 197.964 126.154,198.826 120.692,198.635 120.502 C 198.560 120.427,198.397 120.631,198.272 120.956 M264.925 123.394 C 264.666 125.150,264.516 126.650,264.592 126.725 C 264.861 126.994,265.652 122.395,265.525 121.306 C 265.452 120.681,265.191 121.588,264.925 123.394 M197.063 127.693 C 196.913 128.291,196.709 129.909,196.610 131.290 L 196.430 133.800 197.008 130.600 C 197.571 127.481,197.608 125.520,197.063 127.693 M263.846 129.100 C 263.327 133.418,263.205 135.870,263.584 134.400 C 264.037 132.645,264.566 127.200,264.285 127.200 C 264.169 127.200,263.972 128.055,263.846 129.100 M195.868 135.681 C 195.359 138.629,195.111 140.987,195.332 140.783 C 195.650 140.490,196.520 134.787,196.284 134.550 C 196.180 134.447,195.994 134.956,195.868 135.681 M262.670 137.681 C 262.271 139.306,261.884 143.007,262.137 142.776 C 262.414 142.522,263.237 137.103,263.030 136.897 C 262.956 136.823,262.795 137.176,262.670 137.681 M194.429 144.700 C 194.179 146.625,193.813 148.830,193.615 149.600 C 193.416 150.370,193.140 151.900,193.000 153.000 C 192.861 154.100,192.504 156.080,192.208 157.400 C 191.699 159.667,191.032 166.258,191.399 165.400 C 191.492 165.180,191.851 163.110,192.196 160.800 C 192.840 156.486,193.609 151.875,194.332 148.000 C 194.885 145.037,195.301 141.200,195.070 141.200 C 194.967 141.200,194.678 142.775,194.429 144.700 M261.208 145.759 C 260.938 147.186,260.800 148.589,260.899 148.877 C 260.999 149.165,261.306 148.083,261.581 146.474 C 261.856 144.865,261.995 143.461,261.889 143.356 C 261.784 143.250,261.477 144.332,261.208 145.759 M260.058 153.360 C 259.799 155.098,259.661 156.595,259.753 156.686 C 260.018 156.951,260.926 151.378,260.718 150.760 C 260.615 150.452,260.318 151.622,260.058 153.360 M259.072 158.700 C 258.607 161.736,258.397 165.423,258.749 164.371 C 259.145 163.187,259.760 157.200,259.485 157.200 C 259.385 157.200,259.199 157.875,259.072 158.700 M190.672 166.556 C 190.548 166.880,190.351 168.283,190.235 169.673 L 190.024 172.200 190.599 169.220 C 191.142 166.402,191.174 165.248,190.672 166.556 M257.860 166.588 C 257.517 167.480,257.044 172.642,257.329 172.383 C 257.571 172.163,258.380 166.297,258.198 166.083 C 258.144 166.018,257.991 166.246,257.860 166.588 M189.407 175.500 C 189.267 176.985,189.071 178.740,188.974 179.400 C 188.818 180.452,188.844 180.490,189.180 179.714 C 189.621 178.696,190.224 172.800,189.887 172.800 C 189.764 172.800,189.548 174.015,189.407 175.500 M256.660 173.470 C 256.543 173.871,256.332 175.280,256.191 176.600 C 256.049 177.920,255.581 181.136,255.149 183.747 C 254.451 187.972,254.270 191.536,254.933 188.000 C 256.154 181.482,257.415 170.879,256.660 173.470 M116.600 178.006 C 112.445 178.774,108.482 179.785,108.092 180.175 C 107.697 180.570,108.492 180.421,113.400 179.183 C 131.614 174.586,148.794 179.802,152.188 190.957 C 152.600 192.311,152.790 191.396,152.392 189.978 C 149.695 180.374,133.349 174.906,116.600 178.006 M103.574 181.592 C 102.129 182.201,99.553 183.486,97.849 184.449 C 96.145 185.412,94.268 186.456,93.678 186.768 C 93.089 187.081,92.367 187.576,92.075 187.868 C 91.782 188.161,91.368 188.400,91.155 188.400 C 90.593 188.400,87.234 190.932,87.216 191.370 C 87.207 191.573,87.605 191.371,88.100 190.920 C 89.047 190.057,96.980 185.200,97.442 185.200 C 97.590 185.200,98.543 184.688,99.560 184.063 C 100.577 183.437,102.125 182.689,103.002 182.399 C 103.878 182.110,105.316 181.546,106.197 181.146 C 108.771 179.977,106.486 180.366,103.574 181.592 M188.259 183.700 C 187.756 188.236,187.612 191.448,187.975 190.036 C 188.393 188.407,188.969 181.600,188.689 181.600 C 188.581 181.600,188.387 182.545,188.259 183.700 M253.808 192.300 C 253.670 193.565,253.475 195.050,253.373 195.600 C 253.231 196.371,253.278 196.455,253.576 195.968 C 254.012 195.257,254.635 190.000,254.284 190.000 C 254.159 190.000,253.945 191.035,253.808 192.300 M83.571 194.305 C 79.591 198.386,75.580 203.295,73.918 206.121 C 71.918 209.521,69.997 213.194,69.986 213.639 C 69.979 213.948,69.625 214.920,69.200 215.800 C 68.775 216.680,68.425 217.670,68.422 218.000 C 68.417 218.699,69.796 215.781,70.657 213.275 C 71.293 211.422,75.121 204.821,76.166 203.777 C 76.515 203.428,76.800 203.000,76.800 202.826 C 76.800 202.226,79.237 199.387,83.089 195.500 C 85.215 193.355,86.784 191.602,86.577 191.605 C 86.370 191.607,85.017 192.822,83.571 194.305 M152.992 197.923 C 152.996 201.291,153.117 203.631,153.260 203.123 C 153.596 201.932,153.584 194.564,153.245 193.000 C 153.101 192.340,152.988 194.555,152.992 197.923 M187.063 192.893 C 186.913 193.491,186.709 195.109,186.610 196.490 L 186.430 199.000 187.008 195.800 C 187.571 192.681,187.608 190.720,187.063 192.893 M252.536 200.200 C 252.281 202.180,252.131 203.859,252.201 203.932 C 252.493 204.230,253.241 199.519,253.125 198.116 C 253.036 197.032,252.868 197.625,252.536 200.200 M185.639 201.192 C 185.188 203.293,185.051 205.482,185.391 205.142 C 185.639 204.894,186.408 199.474,186.221 199.288 C 186.142 199.209,185.881 200.066,185.639 201.192 M152.014 205.873 C 150.363 211.286,147.588 213.338,139.400 215.199 C 132.603 216.744,132.290 216.876,126.200 220.737 C 119.384 225.060,115.130 232.598,115.268 240.108 L 115.336 243.800 115.604 239.600 C 116.399 227.156,125.131 218.635,140.400 215.404 C 147.136 213.978,150.559 211.572,151.994 207.253 C 152.459 205.853,152.759 204.626,152.660 204.527 C 152.561 204.427,152.270 205.033,152.014 205.873 M251.249 207.416 C 250.715 211.002,250.701 211.616,251.168 210.800 C 251.548 210.136,252.195 204.400,251.889 204.400 C 251.784 204.400,251.495 205.757,251.249 207.416 M184.631 207.500 C 184.489 208.325,184.281 209.540,184.169 210.200 C 184.026 211.043,184.076 211.221,184.338 210.800 C 184.749 210.139,185.390 206.000,185.082 206.000 C 184.976 206.000,184.773 206.675,184.631 207.500 M183.224 214.500 C 182.947 216.095,182.457 218.300,182.136 219.400 C 181.815 220.500,181.269 222.390,180.922 223.600 C 180.576 224.810,179.939 226.825,179.506 228.078 C 179.073 229.331,178.791 230.572,178.879 230.836 C 179.048 231.343,180.514 226.710,182.940 218.000 C 183.583 215.689,184.198 211.600,183.902 211.600 C 183.806 211.600,183.501 212.905,183.224 214.500 M250.259 212.270 C 249.909 213.466,249.480 217.016,249.712 216.800 C 250.002 216.529,250.840 211.906,250.635 211.702 C 250.546 211.613,250.377 211.868,250.259 212.270 M249.027 218.681 C 248.879 219.517,248.658 220.538,248.536 220.950 C 248.399 221.415,248.474 221.601,248.734 221.441 C 249.183 221.163,249.831 217.698,249.496 217.363 C 249.386 217.253,249.175 217.846,249.027 218.681 M67.862 219.100 C 67.503 219.681,65.917 226.050,66.089 226.222 C 66.176 226.309,66.714 224.720,67.285 222.690 C 68.241 219.288,68.415 218.205,67.862 219.100 M247.655 224.667 C 247.120 227.333,247.096 228.025,247.568 227.200 C 247.953 226.527,248.576 222.400,248.293 222.400 C 248.192 222.400,247.906 223.420,247.655 224.667 M65.329 229.100 C 64.940 231.819,65.050 242.650,65.492 245.138 C 65.674 246.166,65.800 242.779,65.800 236.838 C 65.800 225.805,65.800 225.804,65.329 229.100 M244.605 234.889 C 242.110 242.346,238.964 249.402,236.491 253.088 C 232.934 258.389,232.228 259.316,229.038 262.874 C 223.515 269.036,213.856 276.607,210.000 277.796 C 209.450 277.966,208.550 278.412,208.000 278.787 C 206.732 279.652,200.930 282.410,197.828 283.624 C 196.523 284.134,195.656 284.619,195.901 284.700 C 196.316 284.839,202.907 282.228,203.800 281.572 C 204.020 281.410,206.177 280.257,208.594 279.008 C 219.273 273.493,227.692 266.399,233.764 257.800 C 237.636 252.317,238.400 251.199,238.400 251.018 C 238.400 250.914,239.384 248.797,240.586 246.314 C 243.202 240.913,247.567 228.634,247.054 228.120 C 246.978 228.045,245.876 231.090,244.605 234.889 M177.720 233.493 C 177.239 234.542,176.205 236.778,175.423 238.462 C 174.640 240.145,174.001 241.675,174.001 241.862 C 174.004 242.537,175.574 239.601,176.637 236.933 C 177.235 235.430,177.984 233.801,178.300 233.313 C 178.616 232.825,178.812 232.237,178.735 232.006 C 178.658 231.775,178.202 232.444,177.720 233.493 M171.591 245.908 C 160.876 262.825,144.507 268.522,128.658 260.851 C 124.402 258.791,119.984 254.581,118.113 250.800 C 117.405 249.370,116.820 248.435,116.813 248.723 C 116.801 249.189,117.593 250.768,119.254 253.592 C 126.518 265.943,149.382 268.115,161.800 257.633 C 163.120 256.519,164.560 255.412,165.000 255.174 C 166.447 254.391,174.469 243.135,173.950 242.617 C 173.858 242.524,172.796 244.005,171.591 245.908 M115.656 244.600 C 115.659 245.040,115.916 246.030,116.227 246.800 L 116.793 248.200 116.545 246.800 C 116.408 246.030,116.151 245.040,115.973 244.600 L 115.651 243.800 115.656 244.600 M66.242 249.000 C 66.371 250.100,66.643 251.270,66.846 251.600 C 67.263 252.275,66.896 249.662,66.342 248.000 C 66.122 247.343,66.088 247.686,66.242 249.000 M285.600 250.372 C 279.876 251.369,273.564 256.292,272.215 260.810 C 272.053 261.355,272.657 260.630,273.557 259.200 C 274.457 257.770,275.330 256.406,275.497 256.170 C 279.704 250.201,292.895 249.061,299.400 254.104 C 299.620 254.274,300.422 254.818,301.183 255.311 C 301.944 255.805,303.182 257.248,303.936 258.518 C 304.689 259.788,305.388 260.745,305.488 260.645 C 305.589 260.545,305.203 259.684,304.631 258.731 C 301.069 252.800,292.719 249.132,285.600 250.372 M67.246 253.138 C 67.221 253.654,67.450 254.554,67.755 255.138 C 68.060 255.722,68.517 256.718,68.770 257.352 C 69.023 257.985,69.321 258.412,69.432 258.301 C 69.543 258.190,69.196 257.132,68.659 255.949 C 68.123 254.767,67.596 253.440,67.488 253.000 C 67.318 252.301,67.287 252.319,67.246 253.138 M284.600 254.037 C 283.060 254.473,281.407 254.931,280.927 255.056 C 280.447 255.181,279.965 255.514,279.857 255.796 C 279.710 256.178,279.969 256.155,280.874 255.703 C 284.496 253.896,289.639 253.226,292.400 254.200 C 293.335 254.530,294.393 254.782,294.750 254.759 C 295.108 254.736,294.410 254.387,293.200 253.983 C 290.371 253.039,288.082 253.053,284.600 254.037 M297.229 255.907 C 299.263 257.225,301.743 260.065,302.200 261.600 C 302.364 262.150,302.701 262.853,302.949 263.161 C 303.229 263.510,303.400 265.591,303.400 268.647 C 303.400 271.355,303.522 273.262,303.672 272.885 C 305.884 267.311,301.470 256.460,296.400 255.008 C 295.763 254.826,296.064 255.153,297.229 255.907 M278.134 257.300 C 276.449 259.184,274.832 262.039,274.628 263.491 L 274.416 265.000 274.965 263.360 C 275.500 261.762,276.696 259.733,278.418 257.500 C 279.441 256.174,279.257 256.045,278.134 257.300 M282.267 258.267 C 282.120 258.413,282.029 259.538,282.065 260.767 L 282.130 263.000 282.365 260.800 L 282.600 258.600 288.016 258.600 C 294.542 258.600,296.476 259.206,297.228 261.485 C 298.282 264.677,296.269 268.559,293.400 268.870 C 291.696 269.055,291.927 270.081,294.594 274.174 C 297.208 278.184,297.188 278.081,295.350 277.924 C 293.993 277.808,293.749 277.558,291.517 274.000 C 288.541 269.257,288.128 268.800,286.818 268.800 C 285.048 268.800,284.800 269.425,284.800 273.880 L 284.800 278.000 283.616 278.000 L 282.431 278.000 282.298 274.500 L 282.165 271.000 282.082 274.700 L 282.000 278.400 283.557 278.400 C 285.502 278.400,285.600 278.159,285.600 273.367 L 285.600 269.600 286.900 269.603 C 287.925 269.605,288.379 269.880,289.043 270.903 C 289.507 271.616,290.452 273.064,291.143 274.120 C 291.835 275.176,292.400 276.177,292.400 276.345 C 292.400 277.766,296.633 279.241,297.356 278.071 C 297.468 277.891,296.488 276.179,295.179 274.268 C 292.345 270.130,292.328 270.001,294.481 268.990 C 299.240 266.754,299.245 260.244,294.488 258.624 C 292.619 257.987,282.833 257.701,282.267 258.267 M69.600 259.038 C 69.600 259.602,71.663 263.670,71.853 263.480 C 71.960 263.373,71.677 262.594,71.224 261.749 C 70.771 260.903,70.400 259.995,70.400 259.730 C 70.400 259.464,70.220 259.136,70.000 259.000 C 69.780 258.864,69.600 258.881,69.600 259.038 M285.278 261.143 C 284.920 261.370,284.795 262.218,284.878 263.837 L 285.000 266.200 288.637 266.314 C 290.637 266.377,292.755 266.245,293.344 266.021 C 295.998 265.012,295.244 261.182,292.400 261.229 C 291.543 261.243,291.600 261.313,292.800 261.723 C 294.084 262.160,294.200 262.332,294.200 263.782 C 294.200 265.687,293.701 265.903,289.200 265.954 C 285.268 265.998,285.170 265.884,285.555 261.718 C 285.584 261.410,286.572 261.186,288.300 261.097 L 291.000 260.957 288.400 260.884 C 286.970 260.845,285.565 260.961,285.278 261.143 M305.803 262.000 C 306.280 263.625,306.892 264.396,306.597 263.000 C 306.457 262.340,306.156 261.620,305.927 261.400 C 305.640 261.124,305.601 261.311,305.803 262.000 M271.326 263.459 C 270.854 265.690,271.010 272.828,271.556 274.000 C 271.990 274.934,272.006 274.907,271.797 273.600 C 271.193 269.823,271.137 267.452,271.596 265.022 C 272.125 262.217,271.884 260.820,271.326 263.459 M72.555 264.900 C 72.914 265.395,73.369 266.160,73.566 266.600 C 73.762 267.040,74.342 267.842,74.854 268.383 C 75.366 268.923,76.487 270.183,77.346 271.183 C 80.256 274.573,85.261 278.315,91.829 282.015 C 97.957 285.465,113.108 290.333,119.800 291.000 C 120.900 291.110,119.100 290.591,115.800 289.848 C 112.500 289.104,107.370 287.674,104.400 286.670 C 97.392 284.302,93.657 282.536,85.411 277.692 C 82.624 276.055,75.818 269.327,73.873 266.287 C 73.068 265.029,72.296 264.000,72.156 264.000 C 72.017 264.000,72.196 264.405,72.555 264.900 M306.940 268.000 C 306.940 269.870,307.009 270.635,307.093 269.700 C 307.177 268.765,307.177 267.235,307.093 266.300 C 307.009 265.365,306.940 266.130,306.940 268.000 M273.852 266.100 C 273.527 267.313,273.586 270.422,273.952 271.353 C 274.115 271.768,274.237 270.553,274.224 268.653 C 274.197 264.837,274.195 264.820,273.852 266.100 M305.910 273.894 C 304.681 277.378,301.855 280.960,298.531 283.248 C 297.548 283.924,296.830 284.563,296.935 284.668 C 298.308 286.042,307.228 274.993,306.724 272.543 C 306.656 272.211,306.290 272.819,305.910 273.894 M274.641 273.600 C 275.824 280.724,286.816 285.541,294.838 282.451 C 298.382 281.086,303.293 276.145,303.187 274.051 C 303.160 273.520,302.000 275.385,302.000 275.960 C 302.000 276.521,299.420 279.138,297.726 280.296 C 294.585 282.442,293.972 282.600,288.800 282.600 L 283.800 282.600 281.262 281.031 C 278.268 279.179,276.070 276.699,275.104 274.085 C 274.504 272.461,274.440 272.394,274.641 273.600 M272.204 276.050 C 274.467 283.487,286.429 288.873,294.213 285.961 C 297.261 284.820,296.721 284.547,293.547 285.624 C 288.414 287.366,280.950 285.695,277.230 281.971 C 275.202 279.940,272.800 276.805,272.800 276.188 C 272.800 275.890,272.601 275.524,272.357 275.374 C 272.054 275.186,272.005 275.399,272.204 276.050 M190.800 286.087 C 184.039 288.471,174.822 290.558,168.000 291.251 C 162.456 291.814,159.426 292.442,163.600 292.162 C 169.000 291.800,179.786 290.008,183.800 288.806 C 187.724 287.630,194.289 285.458,194.800 285.167 C 196.037 284.461,194.239 284.875,190.800 286.087 M123.600 291.561 C 126.292 292.050,132.128 292.425,130.400 291.998 C 129.630 291.808,127.380 291.558,125.400 291.443 C 122.899 291.298,122.350 291.334,123.600 291.561 M134.200 292.857 C 137.342 293.193,155.571 293.195,158.400 292.860 C 159.610 292.717,154.120 292.600,146.200 292.600 C 138.280 292.600,132.880 292.715,134.200 292.857 M16.000 334.599 C 16.000 358.523,16.041 360.000,16.700 360.002 C 17.085 360.003,86.250 360.003,170.400 360.002 C 254.550 360.001,323.986 360.000,324.703 360.000 L 326.006 360.000 325.903 334.700 L 325.800 309.400 170.900 309.299 L 16.000 309.199 16.000 334.599 M325.600 334.600 L 325.600 359.600 171.000 359.600 L 16.400 359.600 16.400 334.600 L 16.400 309.600 171.000 309.600 L 325.600 309.600 325.600 334.600 M275.600 384.000 C 274.580 384.159,277.179 384.280,281.600 384.281 C 286.892 384.282,288.628 384.187,287.000 383.985 C 284.036 383.617,278.012 383.625,275.600 384.000 M76.152 384.599 C 74.463 385.132,72.943 385.853,67.464 388.721 C 65.739 389.623,63.716 390.564,62.969 390.810 C 62.222 391.057,61.507 391.427,61.379 391.634 C 60.989 392.265,65.161 390.472,69.800 388.015 C 75.021 385.250,76.430 384.770,80.400 384.407 L 83.400 384.132 80.600 384.106 C 79.060 384.091,77.058 384.313,76.152 384.599 M176.707 384.290 C 177.426 384.379,178.506 384.377,179.107 384.286 C 179.708 384.195,179.120 384.122,177.800 384.124 C 176.480 384.126,175.988 384.201,176.707 384.290 M83.729 384.650 C 83.909 384.843,84.620 385.193,85.307 385.428 C 87.723 386.257,88.205 387.490,88.162 392.736 C 88.135 396.004,88.218 396.921,88.439 395.800 C 89.412 390.858,88.601 386.903,86.319 385.463 C 85.214 384.766,83.261 384.153,83.729 384.650 M172.856 384.859 C 172.117 385.072,171.604 385.337,171.716 385.449 C 171.945 385.679,175.200 384.871,175.200 384.585 C 175.200 384.320,174.403 384.414,172.856 384.859 M181.000 384.821 C 181.440 385.022,182.295 385.366,182.900 385.584 C 185.095 386.375,185.682 388.060,185.482 393.000 C 185.383 395.420,185.442 396.950,185.612 396.400 C 187.363 390.725,184.743 384.240,180.774 384.427 C 180.418 384.444,180.503 384.593,181.000 384.821 M270.026 384.854 C 268.830 385.052,267.750 385.319,267.626 385.446 C 267.319 385.760,271.998 385.172,273.000 384.771 L 273.800 384.451 273.000 384.472 C 272.560 384.484,271.222 384.656,270.026 384.854 M290.600 384.761 C 291.040 384.940,292.570 385.194,294.000 385.325 C 295.482 385.460,296.170 385.426,295.600 385.246 C 294.206 384.803,289.610 384.358,290.600 384.761 M168.960 386.647 C 162.824 389.924,159.818 391.297,156.600 392.293 C 155.500 392.633,154.818 392.989,155.084 393.084 C 155.733 393.315,162.846 390.437,166.040 388.651 C 167.448 387.864,169.185 386.954,169.900 386.630 C 170.615 386.306,171.200 385.942,171.200 385.820 C 171.200 385.476,171.044 385.533,168.960 386.647 M265.200 386.014 C 264.430 386.197,262.990 386.723,262.000 387.182 C 260.053 388.086,260.643 388.022,263.800 386.988 C 267.534 385.764,268.203 385.299,265.200 386.014 M296.800 385.753 C 296.800 385.872,297.565 386.169,298.500 386.413 C 304.195 387.898,313.218 392.889,314.700 395.374 C 315.362 396.483,318.063 399.333,317.598 398.430 C 316.718 396.725,311.481 391.818,309.000 390.374 C 305.103 388.106,296.800 384.961,296.800 385.753 M258.800 388.261 C 257.353 388.739,249.600 392.619,249.600 392.865 C 249.600 393.015,251.355 392.276,253.500 391.222 C 255.645 390.169,258.030 389.024,258.800 388.679 C 260.118 388.088,260.118 387.826,258.800 388.261 M58.600 392.285 C 58.160 392.391,57.620 392.653,57.400 392.867 C 56.984 393.273,58.660 392.972,60.200 392.366 L 61.000 392.051 60.200 392.072 C 59.760 392.083,59.040 392.179,58.600 392.285 M54.000 393.688 C 53.230 393.916,52.783 394.171,53.006 394.254 C 53.229 394.336,54.219 394.151,55.206 393.841 C 56.193 393.532,56.640 393.278,56.200 393.276 C 55.760 393.274,54.770 393.459,54.000 393.688 M151.600 393.688 C 150.830 393.916,150.383 394.171,150.606 394.254 C 150.829 394.336,151.819 394.151,152.806 393.841 C 153.793 393.532,154.240 393.278,153.800 393.276 C 153.360 393.274,152.370 393.459,151.600 393.688 M247.192 394.112 C 241.937 397.426,236.863 402.203,234.460 406.100 C 233.019 408.436,233.739 407.866,235.722 405.100 C 238.086 401.802,241.428 398.663,245.600 395.825 C 249.460 393.198,249.464 393.196,248.967 393.212 C 248.765 393.219,247.966 393.624,247.192 394.112 M49.680 394.795 C 48.954 394.967,48.234 395.234,48.080 395.389 C 47.756 395.716,50.616 395.239,51.800 394.768 L 52.600 394.451 51.800 394.466 C 51.360 394.475,50.406 394.623,49.680 394.795 M147.400 394.829 C 146.740 395.020,144.946 395.461,143.413 395.809 C 141.879 396.157,140.529 396.547,140.413 396.676 C 139.915 397.226,144.772 396.178,149.200 394.779 C 150.638 394.325,148.983 394.371,147.400 394.829 M44.400 396.131 C 42.913 396.426,42.524 396.609,43.200 396.694 C 43.750 396.764,45.010 396.564,46.000 396.250 C 48.132 395.574,47.462 395.524,44.400 396.131 M40.000 397.074 C 32.818 398.260,28.737 402.824,30.981 407.164 C 31.542 408.249,33.781 409.553,34.260 409.073 C 34.389 408.944,34.020 408.720,33.441 408.575 C 27.401 407.059,31.785 398.820,39.173 397.804 C 40.948 397.560,43.047 396.744,41.600 396.861 C 41.270 396.887,40.550 396.983,40.000 397.074 M137.800 397.081 C 133.207 397.696,127.993 400.859,128.001 403.025 C 128.002 403.231,128.345 402.840,128.762 402.155 C 130.090 399.978,132.877 398.557,137.700 397.600 C 138.965 397.349,140.000 397.066,140.000 396.972 C 140.000 396.796,139.879 396.802,137.800 397.081 M271.496 397.184 C 270.668 397.344,269.865 397.602,269.711 397.756 C 269.376 398.091,272.656 397.618,273.800 397.166 L 274.600 396.851 273.800 396.871 C 273.360 396.883,272.323 397.023,271.496 397.184 M278.800 397.251 C 287.112 399.756,290.389 403.880,289.887 411.200 C 289.766 412.957,289.818 413.869,290.012 413.400 C 292.672 406.979,286.735 398.050,279.146 397.058 C 277.421 396.832,277.416 396.834,278.800 397.251 M87.432 398.800 C 86.838 401.873,86.771 402.590,87.133 402.000 C 87.544 401.329,88.157 397.600,87.856 397.600 C 87.750 397.600,87.559 398.140,87.432 398.800 M184.462 400.082 C 183.759 404.141,183.550 406.308,183.947 405.400 C 184.343 404.495,185.282 397.949,185.049 397.716 C 184.966 397.632,184.701 398.697,184.462 400.082 M266.260 399.246 C 260.342 402.299,255.055 409.628,255.038 414.800 C 255.030 417.136,256.566 422.767,257.073 422.261 C 257.160 422.173,256.925 421.314,256.551 420.351 C 254.241 414.402,256.573 407.001,262.091 402.771 C 263.031 402.051,263.980 401.267,264.200 401.030 C 264.420 400.792,265.635 400.082,266.900 399.451 C 269.050 398.379,269.617 397.973,268.900 398.019 C 268.735 398.030,267.547 398.582,266.260 399.246 M319.213 402.224 C 319.206 402.456,319.464 402.996,319.787 403.424 C 320.110 403.851,320.380 404.009,320.387 403.776 C 320.394 403.544,320.136 403.004,319.813 402.576 C 319.490 402.149,319.220 401.991,319.213 402.224 M86.225 405.100 C 85.565 409.825,85.563 409.851,85.970 408.927 C 86.409 407.930,87.009 403.200,86.697 403.200 C 86.584 403.200,86.371 404.055,86.225 405.100 M320.704 406.600 C 321.078 409.635,321.085 415.478,320.717 418.600 C 320.486 420.568,320.518 420.820,320.894 420.000 C 321.523 418.628,321.512 406.537,320.880 405.200 C 320.487 404.368,320.457 404.604,320.704 406.600 M128.016 406.456 C 127.993 407.385,129.222 408.686,130.400 408.980 C 131.380 409.224,131.378 409.217,130.308 408.606 C 129.708 408.264,128.950 407.492,128.624 406.892 C 128.241 406.185,128.026 406.031,128.016 406.456 M183.030 408.300 C 182.887 409.345,182.679 410.740,182.567 411.400 C 182.407 412.351,182.452 412.461,182.786 411.930 C 183.234 411.216,183.858 406.400,183.502 406.400 C 183.386 406.400,183.174 407.255,183.030 408.300 M232.474 409.725 C 232.039 410.710,231.573 412.120,231.440 412.858 C 231.173 414.337,231.325 414.055,232.742 410.429 C 233.779 407.779,233.573 407.240,232.474 409.725 M36.030 409.619 C 36.816 409.806,38.976 409.812,40.830 409.634 L 44.200 409.309 39.400 409.295 C 35.943 409.284,35.000 409.375,36.030 409.619 M47.264 409.576 C 48.290 409.767,49.550 410.051,50.064 410.207 C 50.725 410.407,50.881 410.363,50.595 410.060 C 50.372 409.823,49.112 409.539,47.795 409.428 C 45.545 409.240,45.513 409.249,47.264 409.576 M131.845 409.577 C 131.968 409.700,135.248 409.800,139.134 409.800 C 147.343 409.800,148.686 410.171,149.749 412.731 C 150.163 413.728,150.365 413.939,150.379 413.389 C 150.408 412.265,149.389 410.925,147.876 410.098 C 146.643 409.423,131.186 408.922,131.845 409.577 M85.009 411.700 C 84.413 415.570,84.367 416.242,84.756 415.365 C 85.194 414.376,85.786 410.000,85.481 410.000 C 85.365 410.000,85.153 410.765,85.009 411.700 M51.815 411.147 C 52.810 412.346,52.845 420.470,51.881 426.400 C 51.020 431.701,50.700 434.633,51.019 434.315 C 51.168 434.166,51.539 432.099,51.845 429.722 C 52.151 427.345,52.598 423.886,52.839 422.035 C 53.547 416.591,53.218 412.224,52.015 411.111 L 51.030 410.200 51.815 411.147 M181.816 414.900 C 181.674 416.055,181.469 417.540,181.361 418.200 C 181.222 419.055,181.274 419.227,181.543 418.800 C 181.959 418.139,182.619 412.800,182.284 412.800 C 182.169 412.800,181.959 413.745,181.816 414.900 M230.460 416.320 C 230.207 417.486,230.021 418.926,230.047 419.520 C 230.072 420.114,230.343 419.342,230.648 417.805 C 231.300 414.521,231.135 413.215,230.460 416.320 M288.776 416.100 C 288.526 417.035,288.196 417.980,288.043 418.200 C 287.889 418.420,287.345 419.680,286.832 421.000 C 285.935 423.311,284.295 427.044,283.536 428.500 C 283.302 428.951,283.319 429.200,283.586 429.200 C 283.814 429.200,284.000 429.021,284.000 428.801 C 284.000 428.582,284.611 427.097,285.358 425.501 C 287.178 421.612,289.117 416.851,289.431 415.500 C 289.845 413.718,289.273 414.243,288.776 416.100 M83.809 418.500 C 83.213 422.370,83.167 423.042,83.556 422.165 C 83.994 421.176,84.586 416.800,84.281 416.800 C 84.165 416.800,83.953 417.565,83.809 418.500 M149.672 421.617 C 149.177 425.160,149.083 426.651,149.373 426.361 C 149.652 426.081,150.488 419.264,150.309 418.726 C 150.218 418.455,149.932 419.756,149.672 421.617 M180.441 422.133 C 179.933 425.048,179.906 426.161,180.371 425.000 C 180.760 424.029,181.333 419.600,181.070 419.600 C 180.967 419.600,180.684 420.740,180.441 422.133 M229.693 422.800 C 229.693 423.570,229.775 423.885,229.876 423.500 C 229.976 423.115,229.976 422.485,229.876 422.100 C 229.775 421.715,229.693 422.030,229.693 422.800 M319.600 422.600 C 319.368 423.211,319.268 423.801,319.378 423.911 C 319.488 424.021,319.768 423.611,320.000 423.000 C 320.232 422.389,320.332 421.799,320.222 421.689 C 320.112 421.579,319.832 421.989,319.600 422.600 M257.309 424.400 C 257.309 425.390,257.387 425.795,257.482 425.300 C 257.578 424.805,257.578 423.995,257.482 423.500 C 257.387 423.005,257.309 423.410,257.309 424.400 M82.441 426.533 C 81.933 429.448,81.906 430.561,82.371 429.400 C 82.760 428.429,83.333 424.000,83.070 424.000 C 82.967 424.000,82.684 425.140,82.441 426.533 M318.411 425.800 C 315.452 434.905,304.128 448.055,287.177 462.070 C 283.949 464.738,270.677 475.174,269.869 475.678 C 269.624 475.831,269.508 476.034,269.612 476.130 C 269.767 476.272,275.528 471.951,280.084 468.275 C 280.680 467.794,281.758 466.950,282.478 466.400 C 292.746 458.561,306.803 445.100,311.926 438.200 C 314.989 434.074,319.440 425.717,319.105 424.720 C 319.009 424.434,318.697 424.920,318.411 425.800 M230.036 425.513 C 229.925 428.348,235.688 435.246,237.039 433.894 C 237.150 433.783,236.451 433.309,235.486 432.841 C 233.396 431.830,231.319 429.126,230.585 426.464 C 230.284 425.372,230.057 424.978,230.036 425.513 M256.382 427.687 C 255.514 429.858,253.691 431.885,251.770 432.814 C 250.774 433.297,250.040 433.774,250.140 433.874 C 250.531 434.264,253.543 432.371,254.788 430.953 C 256.063 429.501,257.420 426.887,257.077 426.544 C 256.984 426.451,256.671 426.965,256.382 427.687 M179.447 427.900 C 178.988 430.229,178.787 433.001,179.135 432.200 C 179.326 431.760,179.600 430.365,179.745 429.100 C 180.016 426.722,179.828 425.965,179.447 427.900 M148.664 428.881 C 148.243 431.277,147.890 435.404,148.125 435.189 C 148.416 434.923,149.294 427.961,149.065 427.732 C 148.972 427.639,148.792 428.156,148.664 428.881 M282.480 430.080 C 282.216 430.344,282.000 430.723,282.000 430.922 C 282.000 431.121,281.452 432.097,280.781 433.090 C 280.111 434.083,279.635 434.968,279.723 435.056 C 279.908 435.241,281.566 432.803,282.549 430.900 C 283.266 429.512,283.249 429.311,282.480 430.080 M81.473 431.281 C 81.086 432.868,80.682 437.411,80.949 437.165 C 81.242 436.894,82.073 430.740,81.847 430.513 C 81.764 430.431,81.595 430.776,81.473 431.281 M178.273 434.481 C 177.914 435.953,177.473 440.619,177.712 440.400 C 177.989 440.147,178.864 433.930,178.653 433.719 C 178.567 433.633,178.395 433.976,178.273 434.481 M237.933 434.493 C 238.638 435.198,247.889 435.198,249.000 434.492 C 249.690 434.053,249.580 434.026,248.200 434.292 C 246.139 434.689,240.602 434.689,238.813 434.293 C 237.692 434.044,237.523 434.083,237.933 434.493 M50.321 435.800 C 50.178 436.460,49.963 438.170,49.842 439.600 L 49.624 442.200 50.214 439.200 C 50.789 436.280,50.886 433.186,50.321 435.800 M147.180 438.980 C 146.900 440.863,146.761 442.494,146.871 442.604 C 146.981 442.714,147.300 441.263,147.580 439.380 C 147.860 437.497,147.999 435.866,147.889 435.756 C 147.779 435.646,147.460 437.097,147.180 438.980 M277.680 437.349 C 274.497 441.780,259.784 455.833,247.427 466.242 C 235.230 476.518,226.497 484.485,223.359 488.200 C 220.931 491.075,218.649 494.383,218.913 494.646 C 219.017 494.751,219.559 494.057,220.117 493.106 C 221.749 490.321,226.690 484.952,232.239 479.933 C 238.192 474.550,237.781 474.908,243.396 470.200 C 261.477 455.039,281.643 435.600,279.290 435.600 C 279.095 435.600,278.370 436.387,277.680 437.349 M80.243 438.571 C 79.930 439.818,79.523 444.751,79.778 444.200 C 80.034 443.649,80.790 437.856,80.627 437.694 C 80.555 437.622,80.382 438.017,80.243 438.571 M177.061 441.698 C 176.671 443.252,176.271 447.416,176.535 447.176 C 176.833 446.905,177.680 441.147,177.455 440.922 C 177.368 440.834,177.190 441.184,177.061 441.698 M49.053 443.471 C 48.602 445.756,48.315 448.400,48.518 448.400 C 48.809 448.400,49.728 442.795,49.479 442.545 C 49.367 442.434,49.176 442.851,49.053 443.471 M79.046 445.871 C 78.291 449.571,77.833 453.501,78.200 453.134 C 78.465 452.868,79.626 445.093,79.430 444.896 C 79.345 444.812,79.172 445.251,79.046 445.871 M340.494 445.215 C 338.255 446.114,338.641 449.280,341.201 451.001 C 343.028 452.228,343.059 452.973,341.625 461.200 C 341.376 462.630,340.998 464.790,340.786 466.000 C 340.575 467.210,340.226 469.460,340.012 471.000 C 339.337 475.864,338.082 484.066,337.443 487.800 C 337.103 489.780,336.448 493.740,335.986 496.600 C 334.623 505.043,334.266 505.852,331.000 507.899 C 327.931 509.823,327.062 511.453,328.223 513.111 L 328.845 514.000 354.439 514.000 C 385.545 514.000,383.115 514.583,385.421 506.570 C 387.911 497.915,385.203 496.322,378.117 502.276 C 373.883 505.833,370.735 506.696,360.548 507.089 C 351.022 507.457,350.006 506.944,350.756 502.147 C 351.890 494.899,352.393 491.567,352.970 487.491 C 353.898 480.943,352.995 481.481,362.738 481.675 C 371.624 481.851,372.357 482.008,374.370 484.162 C 377.638 487.661,381.605 482.347,381.601 474.474 C 381.599 470.301,380.136 468.695,378.031 470.559 C 377.684 470.867,376.320 471.712,375.000 472.437 L 372.600 473.755 363.900 473.921 C 356.594 474.061,355.200 473.998,355.200 473.523 C 355.200 472.962,357.720 457.252,358.298 454.212 C 358.782 451.664,359.303 451.544,369.200 451.701 C 377.066 451.826,377.940 451.910,379.438 452.695 C 381.079 453.555,383.600 456.066,383.600 456.841 C 383.600 459.212,387.806 460.962,389.365 459.239 C 391.688 456.672,391.701 445.938,389.382 445.049 C 388.347 444.651,341.500 444.811,340.494 445.215 M146.000 445.843 C 146.000 446.051,145.550 448.786,145.000 451.921 C 143.955 457.881,143.828 459.005,144.428 457.000 C 145.031 454.983,146.472 445.939,146.229 445.695 C 146.103 445.570,146.000 445.636,146.000 445.843 M175.657 449.857 C 175.188 452.191,175.062 453.872,175.378 453.555 C 175.636 453.298,176.462 447.928,176.273 447.740 C 176.186 447.652,175.909 448.605,175.657 449.857 M47.861 450.498 C 47.497 451.948,47.063 456.224,47.303 456.000 C 47.586 455.735,48.471 449.937,48.260 449.727 C 48.170 449.637,47.990 449.984,47.861 450.498 M77.205 456.368 C 76.944 457.920,76.804 459.412,76.895 459.686 C 76.986 459.959,77.288 458.777,77.565 457.059 C 77.842 455.341,77.981 453.848,77.875 453.742 C 77.768 453.635,77.467 454.817,77.205 456.368 M174.193 458.593 C 173.807 461.141,173.574 463.307,173.673 463.407 C 173.773 463.507,174.180 461.513,174.578 458.978 C 174.975 456.442,175.209 454.276,175.097 454.164 C 174.985 454.051,174.578 456.044,174.193 458.593 M46.677 457.281 C 46.267 458.999,45.908 462.000,46.114 462.000 C 46.379 462.000,47.294 456.760,47.068 456.535 C 46.973 456.440,46.797 456.776,46.677 457.281 M143.469 460.000 C 142.998 462.821,142.756 465.200,142.939 465.200 C 143.234 465.200,144.093 459.672,143.886 459.106 C 143.785 458.828,143.597 459.230,143.469 460.000 M76.260 462.100 C 75.722 466.071,75.607 467.802,75.949 466.775 C 76.356 465.554,76.944 460.400,76.677 460.400 C 76.575 460.400,76.387 461.165,76.260 462.100 M45.436 463.700 C 44.956 466.811,44.821 468.975,45.154 468.200 C 45.579 467.215,46.162 462.400,45.857 462.400 C 45.736 462.400,45.546 462.985,45.436 463.700 M172.288 470.565 C 171.687 474.285,171.271 477.404,171.363 477.496 C 171.695 477.828,173.736 465.592,173.526 464.533 C 173.445 464.130,172.888 466.844,172.288 470.565 M142.260 467.300 C 141.674 471.625,141.592 473.049,142.000 471.800 C 142.463 470.382,143.003 465.600,142.701 465.600 C 142.585 465.600,142.387 466.365,142.260 467.300 M75.054 469.471 C 74.656 471.495,74.303 475.200,74.508 475.200 C 74.780 475.200,75.704 468.770,75.466 468.532 C 75.361 468.428,75.176 468.851,75.054 469.471 M44.008 473.342 C 43.744 475.204,43.599 477.059,43.686 477.464 C 43.773 477.869,44.074 476.430,44.355 474.266 C 44.636 472.103,44.781 470.248,44.678 470.144 C 44.574 470.041,44.273 471.479,44.008 473.342 M141.040 475.700 C 140.450 480.487,140.397 481.371,140.738 480.800 C 140.935 480.470,141.217 478.805,141.365 477.100 C 141.647 473.844,141.399 472.779,141.040 475.700 M73.872 477.300 C 73.435 479.132,73.183 482.211,73.536 481.400 C 73.929 480.498,74.520 476.400,74.257 476.400 C 74.163 476.400,73.990 476.805,73.872 477.300 M263.589 480.955 C 258.144 485.512,253.600 490.046,253.600 490.923 C 253.601 491.631,283.532 491.523,287.502 490.800 C 291.377 490.094,290.920 489.850,286.746 490.395 C 281.366 491.098,254.400 491.138,254.400 490.444 C 254.400 489.715,259.445 484.768,263.371 481.649 C 265.078 480.292,266.737 478.920,267.057 478.600 C 267.377 478.280,268.025 477.748,268.496 477.418 C 268.966 477.088,269.268 476.734,269.165 476.632 C 269.062 476.529,266.553 478.474,263.589 480.955 M170.623 480.500 C 170.482 481.875,170.284 483.720,170.182 484.600 C 170.041 485.814,170.086 485.995,170.366 485.352 C 170.786 484.388,171.416 478.000,171.091 478.000 C 170.974 478.000,170.763 479.125,170.623 480.500 M43.034 480.700 C 42.893 481.965,42.691 483.720,42.587 484.600 C 42.453 485.724,42.500 485.962,42.745 485.400 C 43.134 484.507,43.775 478.400,43.480 478.400 C 43.377 478.400,43.176 479.435,43.034 480.700 M308.508 481.573 C 311.724 482.021,312.963 484.605,311.801 488.440 C 311.586 489.151,311.628 489.288,311.966 488.969 C 312.922 488.065,312.971 484.570,312.047 483.077 C 311.130 481.592,310.219 481.183,308.000 481.259 C 306.795 481.300,306.866 481.344,308.508 481.573 M303.810 482.225 C 301.808 483.270,299.894 484.489,297.778 486.069 C 296.665 486.899,294.595 488.115,293.178 488.771 C 291.760 489.427,290.835 489.972,291.122 489.982 C 291.897 490.009,296.274 487.762,297.945 486.479 C 300.655 484.397,302.967 483.029,305.200 482.185 C 306.128 481.835,306.330 481.648,305.800 481.631 C 305.360 481.617,304.465 481.884,303.810 482.225 M139.865 483.700 C 139.367 486.586,139.192 488.991,139.537 488.200 C 139.729 487.760,140.011 486.275,140.163 484.900 C 140.453 482.280,140.250 481.465,139.865 483.700 M72.563 485.400 C 71.149 496.885,72.328 498.853,81.679 500.615 C 87.842 501.776,89.107 502.391,89.880 504.600 C 91.076 508.019,89.485 510.641,85.386 512.005 C 82.673 512.908,26.492 513.519,22.200 512.692 C 20.820 512.426,20.710 512.453,21.400 512.892 C 22.909 513.850,81.466 513.606,84.952 512.626 C 89.441 511.365,91.415 508.570,90.422 504.880 C 89.660 502.053,88.379 501.426,80.000 499.773 C 73.036 498.399,71.953 496.578,72.843 487.739 C 73.317 483.025,73.090 481.123,72.563 485.400 M41.664 488.344 C 41.409 489.196,41.200 490.266,41.200 490.723 C 41.200 491.179,41.040 491.652,40.844 491.773 C 40.649 491.894,40.372 492.459,40.228 493.029 C 39.803 494.725,38.062 497.174,36.686 498.013 C 35.979 498.444,35.585 498.798,35.811 498.799 C 37.055 498.803,38.835 496.956,40.052 494.400 C 41.391 491.586,41.558 491.128,42.007 489.047 C 42.520 486.664,42.301 486.216,41.664 488.344 M169.466 489.700 C 169.332 491.295,169.378 493.230,169.570 494.000 C 169.838 495.077,169.928 494.407,169.959 491.100 C 170.007 486.113,169.814 485.567,169.466 489.700 M138.556 490.300 C 137.032 496.780,134.307 498.953,126.400 499.991 C 115.946 501.363,112.662 503.575,113.491 508.686 C 113.832 510.786,114.213 510.205,114.064 507.813 C 113.787 503.370,115.854 502.055,125.384 500.608 C 134.975 499.153,137.550 497.239,138.986 490.500 C 139.322 488.927,138.923 488.742,138.556 490.300 M311.024 490.400 C 310.859 490.950,310.102 492.996,309.342 494.947 C 308.582 496.898,308.055 498.589,308.171 498.704 C 308.287 498.820,308.471 498.664,308.580 498.357 C 308.690 498.051,309.419 496.106,310.201 494.035 C 310.983 491.964,311.556 490.074,311.474 489.835 C 311.392 489.596,311.190 489.850,311.024 490.400 M218.002 496.195 C 217.771 496.803,216.803 498.868,215.851 500.784 C 214.899 502.699,214.008 504.792,213.871 505.433 C 213.625 506.583,213.628 506.585,214.086 505.600 C 214.341 505.050,215.531 502.569,216.729 500.088 C 217.928 497.606,218.799 495.466,218.666 495.332 C 218.532 495.198,218.233 495.587,218.002 496.195 M170.000 495.753 C 170.000 497.894,173.021 499.636,178.400 500.598 C 183.909 501.583,185.991 502.370,186.864 503.800 C 187.267 504.460,187.598 504.799,187.599 504.554 C 187.605 502.640,184.174 501.060,177.717 500.005 C 174.357 499.455,171.588 498.180,170.961 496.893 C 170.464 495.872,170.000 495.322,170.000 495.753 M29.800 499.684 C 23.902 500.622,20.281 501.501,19.325 502.224 C 18.866 502.571,19.335 502.500,20.600 502.030 C 21.700 501.622,25.300 500.899,28.600 500.423 C 31.900 499.947,34.771 499.387,34.980 499.179 C 35.220 498.940,35.220 498.822,34.980 498.860 C 34.771 498.893,32.440 499.263,29.800 499.684 M307.197 500.245 C 306.964 500.880,306.214 502.480,305.532 503.800 C 304.849 505.120,304.476 506.020,304.702 505.800 C 305.440 505.082,308.133 499.599,307.874 499.341 C 307.736 499.202,307.431 499.609,307.197 500.245 M17.237 503.844 C 14.943 506.760,16.737 512.513,19.894 512.367 C 20.326 512.347,20.092 512.113,19.291 511.763 C 16.215 510.418,15.493 505.227,18.144 503.522 C 18.382 503.369,18.468 503.134,18.334 503.001 C 18.200 502.867,17.707 503.247,17.237 503.844 M303.259 507.705 C 302.801 508.446,302.060 509.384,301.613 509.788 C 301.166 510.193,300.800 510.701,300.800 510.917 C 300.800 511.132,301.216 510.880,301.724 510.355 C 303.027 509.009,304.525 506.791,304.289 506.556 C 304.180 506.447,303.717 506.964,303.259 507.705 M186.753 509.553 C 186.405 510.159,185.329 511.038,184.360 511.507 C 183.392 511.976,182.888 512.369,183.240 512.380 C 184.036 512.405,187.155 510.181,187.468 509.367 C 187.879 508.296,187.403 508.420,186.753 509.553 M213.626 509.331 C 213.596 510.169,215.675 512.405,216.469 512.389 C 216.761 512.384,216.523 512.083,215.940 511.721 C 215.357 511.359,214.604 510.509,214.266 509.832 C 213.835 508.969,213.643 508.819,213.626 509.331 M114.801 510.955 C 116.749 513.457,115.930 513.400,150.000 513.400 C 174.083 513.400,181.179 513.289,181.800 512.901 C 182.481 512.476,182.332 512.443,180.800 512.684 C 179.810 512.839,165.680 512.974,149.400 512.983 C 117.381 513.001,117.680 513.020,115.007 510.845 C 114.253 510.232,114.243 510.237,114.801 510.955 M298.925 512.055 C 297.587 512.884,220.610 513.418,218.000 512.617 C 217.164 512.360,217.085 512.399,217.520 512.855 C 219.256 514.674,300.400 513.427,300.400 511.581 C 300.400 511.118,300.482 511.092,298.925 512.055 " stroke="none" fill="#a6b0bc" fill-rule="evenodd"></path></g></svg>