<svg id="svg" version="1.1" xmlns="http://www.w3.org/2000/svg" xmlns:xlink="http://www.w3.org/1999/xlink" width="400" height="398.3550376970528" viewBox="0, 0, 400,398.3550376970528"><g id="svgg"><path id="path0" d="M47.978 7.399 C 26.443 11.005,10.564 27.079,6.942 48.938 C 6.285 52.905,6.148 342.298,6.802 346.539 C 10.288 369.167,26.159 385.468,48.179 389.038 C 53.460 389.894,342.153 389.894,347.434 389.038 C 369.454 385.468,385.325 369.167,388.812 346.539 C 389.465 342.298,389.328 52.905,388.671 48.938 C 385.032 26.970,369.087 10.908,347.434 7.398 C 342.485 6.595,52.771 6.597,47.978 7.399 M346.127 32.174 C 356.128 35.221,363.217 43.471,364.353 53.384 C 364.733 56.702,364.734 339.696,364.354 343.112 C 363.206 353.426,355.966 361.706,345.716 364.426 L 343.386 365.045 197.807 365.045 L 52.228 365.045 49.897 364.426 C 39.483 361.662,32.314 353.336,31.249 342.768 C 30.660 336.926,31.025 52.910,31.624 50.583 C 34.081 41.040,42.179 33.382,51.476 31.811 C 54.620 31.279,344.363 31.636,346.127 32.174 M103.907 105.856 C 91.219 107.879,81.432 116.860,78.247 129.404 C 77.433 132.606,77.433 211.191,78.247 214.393 C 80.785 224.390,87.629 232.317,96.916 236.017 C 102.030 238.055,102.022 238.055,118.401 238.172 L 133.033 238.276 132.898 243.401 C 132.671 252.027,129.811 257.344,123.018 261.771 C 117.518 265.355,113.148 266.197,100.000 266.205 L 92.940 266.210 92.940 278.547 L 92.940 290.884 102.056 290.884 C 115.224 290.884,119.001 290.420,126.752 287.853 C 144.923 281.836,157.889 267.401,160.236 250.574 C 160.607 247.913,160.658 238.973,160.658 176.550 L 160.658 105.552 133.036 105.584 C 117.844 105.601,104.736 105.724,103.907 105.856 M179.301 171.899 L 179.301 238.245 193.146 238.245 L 206.991 238.245 206.991 184.236 L 206.991 130.226 220.973 130.226 L 234.955 130.226 234.955 184.236 L 234.955 238.245 248.801 238.245 L 262.646 238.245 262.646 184.218 L 262.646 130.191 272.995 130.277 L 283.345 130.363 284.917 131.100 C 287.052 132.101,288.996 134.099,289.817 136.137 L 290.473 137.766 290.547 188.005 L 290.621 238.245 304.461 238.245 L 318.300 238.245 318.300 187.125 C 318.300 151.476,318.208 135.151,317.995 133.184 C 316.431 118.717,305.005 107.316,290.588 105.837 C 288.766 105.650,269.140 105.552,233.556 105.552 L 179.301 105.552 179.301 171.899 M132.968 172.036 L 132.968 213.845 123.989 213.844 C 112.343 213.841,110.464 213.501,107.923 210.935 C 104.872 207.854,104.971 209.249,105.062 170.665 L 105.141 137.766 105.797 136.137 C 107.863 131.009,109.979 130.298,123.304 130.256 L 132.968 130.226 132.968 172.036 M179.301 278.547 L 179.301 290.884 247.156 290.884 L 315.010 290.884 315.010 278.547 L 315.010 266.210 247.156 266.210 L 179.301 266.210 179.301 278.547 " stroke="none" fill="#0474dc" fill-rule="evenodd"></path><path id="path1" d="M0.000 199.178 L 0.000 398.355 200.000 398.355 L 400.000 398.355 400.000 199.178 L 400.000 0.000 200.000 0.000 L 0.000 0.000 0.000 199.178 M347.434 7.398 C 369.087 10.908,385.032 26.970,388.671 48.938 C 389.328 52.905,389.465 342.298,388.812 346.539 C 385.325 369.167,369.454 385.468,347.434 389.038 C 342.153 389.894,53.460 389.894,48.179 389.038 C 26.159 385.468,10.288 369.167,6.802 346.539 C 6.148 342.298,6.285 52.905,6.942 48.938 C 10.564 27.079,26.443 11.005,47.978 7.399 C 52.771 6.597,342.485 6.595,347.434 7.398 M51.476 31.811 C 42.179 33.382,34.081 41.040,31.624 50.583 C 31.025 52.910,30.660 336.926,31.249 342.768 C 32.314 353.336,39.483 361.662,49.897 364.426 L 52.228 365.045 197.807 365.045 L 343.386 365.045 345.716 364.426 C 355.966 361.706,363.206 353.426,364.354 343.112 C 364.734 339.696,364.733 56.702,364.353 53.384 C 363.217 43.471,356.128 35.221,346.127 32.174 C 344.363 31.636,54.620 31.279,51.476 31.811 M160.658 176.550 C 160.658 238.973,160.607 247.913,160.236 250.574 C 157.889 267.401,144.923 281.836,126.752 287.853 C 119.001 290.420,115.224 290.884,102.056 290.884 L 92.940 290.884 92.940 278.547 L 92.940 266.210 100.000 266.205 C 113.148 266.197,117.518 265.355,123.018 261.771 C 129.811 257.344,132.671 252.027,132.898 243.401 L 133.033 238.276 118.401 238.172 C 102.022 238.055,102.030 238.055,96.916 236.017 C 87.629 232.317,80.785 224.390,78.247 214.393 C 77.433 211.191,77.433 132.606,78.247 129.404 C 81.432 116.860,91.219 107.879,103.907 105.856 C 104.736 105.724,117.844 105.601,133.036 105.584 L 160.658 105.552 160.658 176.550 M290.588 105.837 C 305.005 107.316,316.431 118.717,317.995 133.184 C 318.208 135.151,318.300 151.476,318.300 187.125 L 318.300 238.245 304.461 238.245 L 290.621 238.245 290.547 188.005 L 290.473 137.766 289.817 136.137 C 288.996 134.099,287.052 132.101,284.917 131.100 L 283.345 130.363 272.995 130.277 L 262.646 130.191 262.646 184.218 L 262.646 238.245 248.801 238.245 L 234.955 238.245 234.955 184.236 L 234.955 130.226 220.973 130.226 L 206.991 130.226 206.991 184.236 L 206.991 238.245 193.146 238.245 L 179.301 238.245 179.301 171.899 L 179.301 105.552 233.556 105.552 C 269.140 105.552,288.766 105.650,290.588 105.837 M112.500 130.512 C 109.685 131.069,106.895 133.409,105.797 136.137 L 105.141 137.766 105.062 170.665 C 104.971 209.249,104.872 207.854,107.923 210.935 C 110.464 213.501,112.343 213.841,123.989 213.844 L 132.968 213.845 132.968 172.036 L 132.968 130.226 123.304 130.256 C 117.988 130.273,113.127 130.388,112.500 130.512 M315.010 278.547 L 315.010 290.884 247.156 290.884 L 179.301 290.884 179.301 278.547 L 179.301 266.210 247.156 266.210 L 315.010 266.210 315.010 278.547 " stroke="none" fill="#fbfbfc" fill-rule="evenodd"></path></g></svg>