<svg id="svg" version="1.1" xmlns="http://www.w3.org/2000/svg" xmlns:xlink="http://www.w3.org/1999/xlink" width="400" height="55.46930134086097" viewBox="0, 0, 400,55.46930134086097"><g id="svgg"><path id="path0" d="M21.167 21.675 C 17.276 21.775,17.500 21.754,17.500 22.016 C 17.500 22.182,14.842 27.751,14.484 28.333 C 14.400 28.471,14.247 28.771,14.145 29.000 C 13.855 29.648,12.172 33.160,11.730 34.039 C 11.512 34.472,11.333 34.929,11.333 35.054 C 11.333 35.179,11.183 35.417,11.000 35.583 C 10.817 35.749,10.667 35.988,10.667 36.114 C 10.667 36.240,10.217 37.213,9.667 38.277 C 8.667 40.210,8.483 40.811,8.875 40.859 C 9.742 40.967,13.139 40.934,13.362 40.816 C 13.515 40.735,14.185 39.562,14.850 38.210 C 15.515 36.857,16.196 35.551,16.363 35.308 C 16.530 35.064,16.667 34.717,16.667 34.536 C 16.667 34.355,16.776 34.117,16.910 34.005 C 17.044 33.894,17.205 33.641,17.268 33.443 C 17.385 33.073,18.299 31.096,19.616 28.363 C 20.722 26.067,20.426 26.168,26.047 26.167 C 31.185 26.167,31.116 26.150,30.602 27.235 C 30.454 27.546,30.333 27.916,30.333 28.057 C 30.333 28.198,30.256 28.362,30.161 28.420 C 29.988 28.527,28.156 32.262,26.934 35.000 C 26.791 35.321,26.607 35.696,26.526 35.833 C 26.109 36.539,24.333 40.277,24.333 40.448 C 24.333 40.818,24.746 40.910,26.583 40.946 C 29.370 41.002,29.095 41.182,30.397 38.452 C 31.019 37.149,31.609 35.933,31.709 35.750 C 32.140 34.955,32.858 33.475,33.489 32.083 C 33.863 31.258,34.318 30.306,34.501 29.967 C 34.684 29.628,34.833 29.246,34.833 29.118 C 34.833 28.990,34.972 28.760,35.141 28.606 C 35.310 28.453,35.537 28.035,35.644 27.676 C 35.751 27.318,36.073 26.828,36.358 26.588 L 36.877 26.151 41.285 26.201 L 45.693 26.250 46.263 26.873 C 46.914 27.584,46.976 27.986,46.500 28.417 C 46.317 28.583,46.167 28.786,46.167 28.869 C 46.167 29.027,42.259 37.090,41.235 39.043 C 40.301 40.827,40.490 40.996,43.414 40.979 C 45.744 40.966,45.342 41.428,48.030 35.667 C 48.307 35.071,48.599 34.471,48.676 34.333 C 49.118 33.554,51.333 29.000,51.333 28.871 C 51.333 28.787,51.483 28.583,51.667 28.417 C 53.013 27.198,51.321 23.267,48.950 22.107 L 48.026 21.655 36.388 21.619 C 29.987 21.599,23.137 21.625,21.167 21.675 M58.250 21.667 C 57.995 21.712,57.732 21.863,57.665 22.000 C 57.599 22.137,57.357 22.662,57.127 23.167 C 56.495 24.552,54.813 28.049,54.641 28.333 C 54.558 28.471,54.446 28.717,54.391 28.879 C 54.337 29.042,53.862 30.020,53.335 31.052 C 52.809 32.084,52.320 33.113,52.250 33.339 C 52.179 33.565,51.981 33.929,51.810 34.147 C 51.640 34.366,51.500 34.673,51.500 34.830 C 51.500 34.987,51.350 35.251,51.167 35.417 C 50.983 35.583,50.833 35.793,50.833 35.885 C 50.833 36.076,50.230 37.411,49.404 39.046 C 48.475 40.884,48.587 40.993,51.395 40.975 C 53.341 40.962,54.167 40.715,54.167 40.144 C 54.167 39.923,55.938 36.122,56.486 35.167 C 56.894 34.454,59.500 29.021,59.500 28.881 C 59.500 28.792,59.650 28.583,59.833 28.417 C 60.017 28.251,60.167 28.009,60.167 27.879 C 60.167 27.654,61.991 23.694,62.338 23.167 C 63.192 21.868,62.980 21.684,60.562 21.627 C 59.546 21.603,58.506 21.621,58.250 21.667 M69.528 21.779 C 69.215 21.887,68.878 22.056,68.779 22.154 C 68.681 22.253,68.402 22.333,68.160 22.333 C 66.591 22.333,64.977 23.811,63.812 26.316 C 63.359 27.288,62.916 28.196,62.827 28.333 C 62.737 28.471,62.580 28.771,62.478 29.000 C 62.375 29.229,61.894 30.242,61.408 31.250 C 60.922 32.258,60.480 33.242,60.425 33.436 C 60.370 33.631,60.177 33.923,59.996 34.087 C 59.709 34.347,59.667 34.604,59.667 36.095 L 59.667 37.805 60.614 38.824 C 61.136 39.384,61.980 40.074,62.489 40.358 L 63.417 40.873 72.833 40.913 C 83.874 40.960,82.738 41.156,85.110 38.795 C 87.861 36.057,88.824 36.333,76.534 36.333 L 66.068 36.333 65.450 35.701 C 64.721 34.954,64.700 34.774,65.250 33.964 C 65.479 33.627,65.667 33.296,65.667 33.229 C 65.667 33.162,66.117 32.184,66.667 31.057 C 67.217 29.929,67.667 28.948,67.667 28.878 C 67.667 28.596,68.961 27.359,69.648 26.983 C 70.050 26.763,70.537 26.490,70.731 26.377 C 70.999 26.220,73.085 26.172,79.409 26.176 L 87.734 26.181 89.821 24.094 C 91.351 22.564,91.858 21.958,91.722 21.822 C 91.451 21.551,70.313 21.509,69.528 21.779 M95.653 21.633 C 95.093 21.698,91.254 25.554,91.392 25.913 C 91.472 26.122,92.858 26.163,101.147 26.203 C 110.650 26.249,110.817 26.256,111.280 26.598 C 112.286 27.344,112.398 28.522,111.549 29.438 L 111.106 29.917 98.594 30.004 C 91.713 30.051,86.065 30.108,86.042 30.129 C 85.789 30.359,86.315 31.063,87.972 32.708 L 89.943 34.667 98.366 34.667 C 106.709 34.667,106.793 34.670,107.240 35.022 C 107.876 35.522,108.061 36.090,107.767 36.640 C 106.289 39.407,105.851 40.555,106.194 40.767 C 106.511 40.963,110.302 41.028,110.646 40.844 C 111.321 40.483,113.167 36.243,113.167 35.054 C 113.167 33.889,113.362 33.333,113.772 33.333 C 114.233 33.333,116.338 31.143,116.851 30.130 C 118.181 27.502,116.829 22.989,114.490 22.247 C 114.275 22.179,113.996 22.020,113.871 21.895 C 113.745 21.769,113.517 21.664,113.363 21.661 C 111.300 21.621,95.969 21.597,95.653 21.633 M126.695 21.779 C 126.381 21.887,126.044 22.056,125.946 22.154 C 125.847 22.253,125.569 22.333,125.327 22.333 C 123.766 22.333,122.145 23.801,120.999 26.250 C 120.527 27.258,120.070 28.196,119.983 28.333 C 119.896 28.471,119.634 28.996,119.399 29.500 C 119.165 30.004,118.485 31.412,117.888 32.630 L 116.801 34.842 116.859 36.416 L 116.917 37.989 117.833 38.920 C 118.337 39.431,119.162 40.090,119.667 40.383 L 120.583 40.917 130.765 40.963 L 140.946 41.010 142.015 40.487 C 143.463 39.780,144.727 38.521,145.351 37.167 C 145.626 36.571,145.921 35.952,146.008 35.792 C 146.095 35.631,146.237 35.369,146.323 35.208 C 146.410 35.048,146.792 34.242,147.174 33.417 C 147.555 32.592,148.160 31.314,148.517 30.577 C 149.782 27.969,149.343 24.597,147.526 22.958 C 147.144 22.615,146.755 22.333,146.659 22.333 C 146.564 22.333,146.276 22.178,146.018 21.987 C 145.453 21.569,127.856 21.380,126.695 21.779 M326.684 21.667 C 326.272 21.713,325.893 21.860,325.819 22.000 C 325.747 22.137,325.409 22.850,325.069 23.583 C 324.729 24.317,324.391 25.029,324.319 25.167 C 324.247 25.304,323.725 26.354,323.159 27.500 C 322.593 28.646,322.048 29.733,321.950 29.917 C 321.679 30.419,321.123 31.580,320.352 33.250 C 319.971 34.075,319.551 34.938,319.418 35.167 C 319.286 35.396,319.092 35.771,318.989 36.000 C 318.886 36.229,318.395 37.242,317.899 38.250 C 316.564 40.960,316.581 40.991,319.426 40.979 C 321.645 40.970,322.069 40.825,322.246 40.017 C 322.306 39.745,322.462 39.434,322.594 39.324 C 322.726 39.215,322.833 39.061,322.833 38.981 C 322.833 38.901,323.312 37.841,323.898 36.626 C 324.483 35.411,325.319 33.667,325.756 32.750 C 326.527 31.134,327.597 28.930,327.941 28.250 C 328.034 28.067,328.222 27.692,328.359 27.417 C 328.496 27.142,328.689 26.767,328.789 26.583 C 328.888 26.400,329.321 25.500,329.751 24.583 C 330.181 23.667,330.645 22.791,330.781 22.637 C 331.486 21.844,329.423 21.355,326.684 21.667 M334.637 21.635 C 334.069 21.701,334.100 21.654,332.834 24.417 C 332.247 25.700,331.631 26.929,331.466 27.147 C 331.301 27.366,331.167 27.675,331.167 27.833 C 331.167 27.992,331.021 28.306,330.844 28.532 C 330.666 28.758,330.470 29.144,330.409 29.390 C 330.347 29.635,330.233 29.875,330.157 29.923 C 329.987 30.028,328.502 33.136,328.496 33.397 C 328.494 33.500,328.346 33.771,328.167 34.000 C 327.987 34.229,327.839 34.542,327.837 34.696 C 327.835 34.849,327.646 35.197,327.417 35.470 C 327.188 35.742,327.000 36.051,327.000 36.157 C 327.000 36.262,326.737 36.909,326.417 37.595 C 326.096 38.280,325.832 38.895,325.830 38.962 C 325.828 39.029,325.679 39.271,325.500 39.500 C 324.630 40.612,325.017 40.871,327.642 40.934 C 330.012 40.991,329.963 41.011,330.590 39.701 C 331.731 37.319,333.232 34.201,334.397 31.795 C 335.095 30.352,335.667 29.105,335.667 29.023 C 335.667 28.941,335.775 28.784,335.908 28.674 C 336.041 28.564,336.237 28.198,336.345 27.862 C 336.452 27.525,336.770 27.006,337.052 26.708 L 337.565 26.167 344.944 26.167 L 352.322 26.167 352.912 26.685 C 353.667 27.348,353.797 27.847,353.372 28.451 C 353.191 28.707,352.987 29.104,352.918 29.333 C 352.849 29.563,352.733 29.825,352.661 29.917 C 352.440 30.198,350.167 34.798,350.167 34.965 C 350.167 35.051,350.016 35.313,349.832 35.547 C 349.648 35.781,349.451 36.202,349.395 36.483 C 349.339 36.763,349.190 37.078,349.063 37.183 C 348.937 37.288,348.833 37.447,348.833 37.536 C 348.833 37.625,348.526 38.307,348.151 39.051 L 347.468 40.405 347.845 40.709 C 348.231 41.022,349.741 41.091,351.708 40.885 L 352.500 40.802 353.102 39.526 C 354.092 37.426,356.139 33.215,357.186 31.122 C 357.725 30.044,358.167 29.062,358.167 28.940 C 358.167 28.818,358.317 28.583,358.500 28.417 C 359.849 27.196,358.241 23.299,355.916 22.154 L 354.896 21.652 344.990 21.618 C 339.541 21.599,334.883 21.607,334.637 21.635 M368.531 21.682 C 368.265 21.737,367.870 21.906,367.653 22.057 C 367.436 22.209,367.023 22.333,366.735 22.333 C 366.447 22.333,366.027 22.479,365.801 22.656 C 365.575 22.834,365.189 23.030,364.943 23.092 C 364.525 23.197,363.167 24.544,363.167 24.854 C 363.167 24.931,362.829 25.697,362.417 26.557 C 362.004 27.416,361.667 28.173,361.667 28.238 C 361.667 28.304,361.554 28.470,361.417 28.607 C 361.280 28.744,361.119 29.058,361.059 29.303 C 361.000 29.549,360.812 29.949,360.642 30.192 C 360.472 30.436,360.333 30.688,360.333 30.753 C 360.333 30.922,358.895 33.773,358.589 34.209 C 358.395 34.486,358.333 35.038,358.333 36.507 L 358.333 38.440 358.916 39.121 C 359.283 39.550,359.945 40.017,360.708 40.384 L 361.917 40.968 371.791 40.941 L 381.665 40.913 383.666 38.918 C 386.552 36.039,387.510 36.333,375.256 36.333 L 364.845 36.333 364.264 35.823 C 363.515 35.165,363.394 34.767,363.773 34.200 C 364.150 33.637,366.333 29.223,366.333 29.025 C 366.333 28.944,366.479 28.694,366.656 28.468 C 366.834 28.242,367.028 27.865,367.087 27.630 C 367.165 27.318,367.472 27.062,368.222 26.681 L 369.250 26.160 377.250 26.166 C 381.650 26.170,385.379 26.171,385.537 26.170 C 386.323 26.161,390.229 21.678,389.464 21.662 C 386.087 21.596,368.875 21.612,368.531 21.682 M143.107 26.515 C 144.076 27.113,144.389 28.985,143.686 29.974 C 143.513 30.218,143.259 30.679,143.122 31.000 C 142.880 31.566,141.503 34.529,141.125 35.297 C 140.610 36.343,140.702 36.333,131.564 36.332 L 123.250 36.330 122.625 35.738 C 121.928 35.077,121.854 34.678,122.308 34.026 C 122.477 33.782,122.900 32.983,123.249 32.250 C 124.096 30.468,125.063 28.494,125.291 28.083 C 125.393 27.900,125.515 27.621,125.564 27.464 C 125.612 27.306,125.899 27.070,126.201 26.940 C 126.503 26.809,126.900 26.584,127.083 26.440 C 127.677 25.972,142.341 26.041,143.107 26.515 " stroke="none" fill="#0b0c0c" fill-rule="evenodd"></path><path id="path1" d="M8.667 7.133 L 8.667 7.599 200.292 7.591 C 305.685 7.587,392.015 7.520,392.136 7.442 C 392.312 7.328,392.298 7.238,392.068 6.983 C 391.787 6.673,388.235 6.667,200.224 6.667 L 8.667 6.667 8.667 7.133 M163.332 13.906 C 163.103 14.005,162.599 14.292,162.212 14.543 C 161.824 14.794,161.476 15.000,161.438 15.000 C 161.291 15.000,160.333 15.975,160.333 16.124 C 160.333 16.211,160.188 16.414,160.009 16.575 C 159.831 16.736,159.638 17.086,159.579 17.352 C 159.521 17.619,159.381 17.930,159.268 18.043 C 158.971 18.344,158.500 19.338,158.500 19.666 C 158.500 19.821,158.313 20.166,158.084 20.432 C 157.854 20.699,157.667 20.977,157.667 21.051 C 157.666 21.345,156.981 22.667,156.829 22.667 C 156.740 22.667,156.667 22.884,156.667 23.149 C 156.667 23.424,156.559 23.672,156.417 23.727 C 156.279 23.780,156.167 23.975,156.167 24.161 C 156.167 24.348,156.092 24.500,156.000 24.500 C 155.908 24.500,155.833 24.657,155.833 24.849 C 155.833 25.041,155.683 25.388,155.500 25.621 C 155.317 25.854,155.167 26.180,155.167 26.346 C 155.167 26.512,155.092 26.693,155.000 26.750 C 154.908 26.807,154.833 27.024,154.833 27.234 C 154.833 27.444,154.683 27.751,154.500 27.917 C 154.317 28.083,154.166 28.338,154.164 28.484 C 154.163 28.630,154.055 28.938,153.924 29.167 C 153.794 29.396,153.547 29.846,153.375 30.167 C 152.831 31.185,152.619 31.577,152.473 31.833 C 152.395 31.971,152.289 32.196,152.237 32.333 C 152.185 32.471,152.072 32.696,151.987 32.833 C 151.901 32.971,151.747 33.271,151.644 33.500 C 151.541 33.729,151.166 34.517,150.810 35.250 C 150.273 36.359,150.164 36.756,150.165 37.611 L 150.167 38.638 151.283 39.819 C 151.897 40.469,152.516 41.002,152.658 41.004 C 152.800 41.006,153.104 41.154,153.333 41.333 C 153.740 41.651,154.123 41.659,169.109 41.663 L 184.467 41.667 186.609 39.480 C 187.786 38.277,188.950 37.086,189.194 36.832 C 189.439 36.579,189.776 36.269,189.944 36.144 C 190.546 35.697,190.702 35.385,190.492 35.050 C 190.306 34.751,189.746 34.740,174.987 34.762 C 163.925 34.778,159.569 34.733,159.296 34.597 C 158.767 34.335,158.696 33.434,159.154 32.815 C 159.344 32.557,159.500 32.236,159.500 32.100 C 159.500 31.964,159.575 31.807,159.667 31.750 C 159.758 31.693,159.833 31.472,159.833 31.258 C 159.833 31.044,159.946 30.826,160.083 30.773 C 160.221 30.720,160.333 30.533,160.333 30.356 C 160.333 30.180,160.446 29.992,160.583 29.940 C 160.721 29.887,160.833 29.724,160.833 29.577 C 160.833 29.430,160.939 29.204,161.068 29.075 C 161.197 28.946,161.354 28.538,161.416 28.170 C 161.478 27.801,161.598 27.500,161.681 27.500 C 161.765 27.500,161.833 27.420,161.833 27.321 C 161.833 27.223,161.952 27.025,162.096 26.880 C 162.241 26.735,162.324 26.482,162.281 26.318 C 162.238 26.153,162.345 25.891,162.518 25.734 C 162.691 25.577,162.833 25.347,162.833 25.224 C 162.833 25.101,162.908 25.000,163.000 25.000 C 163.092 25.000,163.167 24.811,163.167 24.580 C 163.167 24.349,163.343 23.880,163.559 23.538 C 163.775 23.196,164.010 22.730,164.083 22.502 C 164.155 22.274,164.447 21.807,164.732 21.463 L 165.250 20.839 178.765 20.836 L 192.280 20.833 192.884 20.375 C 193.216 20.123,193.492 19.842,193.497 19.750 C 193.509 19.523,194.928 18.167,195.153 18.167 C 195.252 18.167,195.333 18.088,195.333 17.992 C 195.333 17.896,196.083 17.063,197.000 16.142 C 198.647 14.488,198.866 14.148,198.458 13.885 C 198.127 13.671,163.828 13.692,163.332 13.906 M204.247 13.886 C 203.974 13.976,203.690 14.150,203.617 14.274 C 203.543 14.398,203.333 14.500,203.148 14.500 C 202.676 14.500,200.769 16.507,200.335 17.461 C 199.973 18.257,199.866 18.475,199.540 19.083 C 199.442 19.267,199.240 19.696,199.092 20.036 C 198.944 20.377,198.724 20.715,198.603 20.786 C 198.483 20.858,198.338 21.207,198.282 21.562 C 198.227 21.917,198.071 22.330,197.937 22.479 C 197.802 22.628,197.641 22.956,197.578 23.208 C 197.515 23.460,197.397 23.667,197.315 23.667 C 197.234 23.667,197.167 23.819,197.167 24.005 C 197.167 24.191,197.054 24.387,196.917 24.440 C 196.779 24.492,196.667 24.651,196.667 24.791 C 196.667 24.932,196.442 25.412,196.167 25.859 C 195.892 26.306,195.667 26.811,195.667 26.982 C 195.667 27.153,195.558 27.383,195.425 27.493 C 195.292 27.603,195.094 27.969,194.984 28.305 C 194.875 28.641,194.740 28.954,194.684 29.000 C 194.444 29.198,194.164 29.861,194.256 30.010 C 194.312 30.100,194.164 30.403,193.929 30.683 C 193.693 30.963,193.500 31.374,193.500 31.596 C 193.500 31.818,193.444 32.000,193.375 32.001 C 193.207 32.002,192.667 32.966,192.667 33.264 C 192.667 33.394,192.546 33.500,192.399 33.500 C 192.229 33.500,192.166 33.592,192.227 33.750 C 192.279 33.887,192.156 34.281,191.953 34.625 C 191.563 35.285,191.436 38.744,191.793 38.983 C 191.876 39.038,192.162 39.477,192.430 39.958 C 192.715 40.471,193.032 40.833,193.196 40.833 C 193.349 40.833,193.697 41.021,193.970 41.250 L 194.465 41.667 209.545 41.667 C 222.503 41.667,224.654 41.633,224.826 41.425 C 224.936 41.293,225.358 41.058,225.763 40.903 C 226.168 40.748,226.500 40.563,226.500 40.493 C 226.500 40.422,226.837 40.018,227.248 39.594 C 227.659 39.171,228.042 38.639,228.099 38.412 C 228.156 38.186,228.258 38.000,228.325 38.000 C 228.392 38.000,228.545 37.701,228.666 37.336 C 228.786 36.970,229.023 36.546,229.193 36.393 C 229.362 36.240,229.500 35.991,229.500 35.840 C 229.500 35.689,229.688 35.311,229.917 35.000 C 230.146 34.689,230.333 34.274,230.333 34.076 C 230.333 33.878,230.546 33.424,230.805 33.065 C 231.065 32.707,231.331 32.199,231.397 31.936 C 231.463 31.672,231.701 31.187,231.925 30.857 C 232.150 30.526,232.333 30.090,232.333 29.888 C 232.333 29.685,232.403 29.477,232.488 29.424 C 232.629 29.337,233.761 27.113,234.402 25.667 C 234.544 25.346,234.724 24.971,234.802 24.833 C 235.166 24.193,235.500 23.457,235.500 23.297 C 235.500 23.200,235.725 22.755,236.000 22.308 C 236.275 21.861,236.500 21.395,236.500 21.273 C 236.500 21.151,236.650 20.916,236.833 20.750 C 237.247 20.376,237.330 17.854,236.942 17.466 C 236.818 17.342,236.626 16.964,236.514 16.626 C 236.252 15.833,234.973 14.570,234.295 14.434 C 234.007 14.376,233.628 14.199,233.452 14.040 C 233.080 13.703,205.256 13.557,204.247 13.886 M243.850 13.860 C 243.655 13.932,243.421 14.162,243.331 14.371 C 243.154 14.781,242.806 15.366,242.659 15.500 C 242.608 15.546,242.470 15.921,242.350 16.333 C 242.231 16.746,242.036 17.196,241.917 17.333 C 241.797 17.471,241.603 17.910,241.485 18.309 C 241.367 18.708,241.172 19.072,241.052 19.119 C 240.932 19.165,240.833 19.295,240.833 19.409 C 240.833 19.729,240.303 20.735,240.055 20.883 C 239.933 20.957,239.833 21.158,239.833 21.331 C 239.833 21.715,239.624 22.208,239.089 23.083 C 238.865 23.450,238.678 23.871,238.674 24.018 C 238.670 24.166,238.479 24.563,238.250 24.901 C 238.021 25.239,237.833 25.625,237.833 25.761 C 237.833 25.896,237.661 26.286,237.450 26.628 C 236.910 27.503,235.667 30.117,235.667 30.376 C 235.667 30.495,235.517 30.721,235.333 30.878 C 235.150 31.035,235.000 31.352,235.000 31.582 C 235.000 31.812,234.925 32.000,234.833 32.000 C 234.742 32.000,234.667 32.088,234.667 32.195 C 234.667 32.303,234.567 32.509,234.445 32.654 C 234.324 32.798,234.128 33.253,234.010 33.664 C 233.893 34.075,233.655 34.510,233.482 34.632 C 233.294 34.763,233.167 35.051,233.167 35.343 C 233.167 35.613,233.093 35.833,233.002 35.833 C 232.812 35.833,232.333 36.903,232.333 37.328 C 232.333 37.486,232.186 37.748,232.006 37.911 C 231.826 38.074,231.551 38.555,231.395 38.979 C 231.239 39.403,230.965 39.870,230.785 40.016 C 230.572 40.190,230.452 40.508,230.438 40.933 L 230.417 41.583 247.892 41.626 L 265.367 41.668 265.863 41.251 C 266.136 41.021,266.509 40.833,266.692 40.833 C 267.147 40.833,268.624 39.252,269.026 38.333 C 269.628 36.962,270.415 35.417,270.542 35.361 C 270.610 35.331,270.667 35.171,270.667 35.007 C 270.667 34.842,270.779 34.614,270.917 34.500 C 271.054 34.386,271.167 34.122,271.167 33.914 C 271.167 33.706,271.279 33.492,271.417 33.440 C 271.554 33.387,271.666 33.248,271.665 33.130 C 271.664 32.865,273.037 30.104,273.208 30.028 C 273.277 29.997,273.333 29.865,273.333 29.734 C 273.333 29.603,273.402 29.365,273.486 29.206 C 273.570 29.047,273.729 28.673,273.840 28.375 C 273.950 28.077,274.106 27.833,274.187 27.833 C 274.267 27.833,274.333 27.727,274.333 27.597 C 274.333 27.467,274.406 27.336,274.495 27.306 C 274.584 27.275,274.678 27.063,274.703 26.834 C 274.729 26.605,274.872 26.305,275.021 26.167 C 275.170 26.029,275.386 25.560,275.501 25.125 C 275.616 24.690,275.775 24.333,275.855 24.333 C 275.935 24.333,276.000 24.190,276.000 24.014 C 276.000 23.838,276.056 23.669,276.125 23.639 C 276.240 23.588,276.632 22.826,277.441 21.083 C 277.611 20.717,277.806 20.375,277.875 20.324 C 278.147 20.120,277.860 17.557,277.490 16.897 C 276.922 15.884,276.016 14.948,275.235 14.570 C 274.841 14.379,274.391 14.117,274.234 13.987 C 273.915 13.722,244.553 13.600,243.850 13.860 M287.181 13.861 C 286.990 13.931,286.833 14.066,286.833 14.159 C 286.833 14.252,286.505 14.411,286.103 14.512 C 285.598 14.640,285.317 14.820,285.190 15.098 C 285.090 15.319,284.934 15.500,284.844 15.500 C 284.586 15.500,283.942 16.216,283.637 16.843 C 283.176 17.790,282.833 18.624,282.833 18.796 C 282.833 18.886,282.727 19.047,282.598 19.155 C 282.285 19.414,281.167 21.782,281.167 22.184 C 281.167 22.358,281.092 22.500,281.000 22.500 C 280.908 22.500,280.833 22.582,280.833 22.682 C 280.833 22.782,280.683 23.055,280.500 23.288 C 280.317 23.521,280.167 23.883,280.167 24.093 C 280.167 24.303,279.984 24.691,279.761 24.957 C 279.538 25.222,279.304 25.640,279.243 25.886 C 279.181 26.132,279.077 26.333,279.012 26.333 C 278.947 26.333,278.646 26.933,278.344 27.667 C 278.041 28.400,277.727 29.000,277.647 29.000 C 277.566 29.000,277.500 29.146,277.500 29.323 C 277.500 29.501,277.425 29.693,277.333 29.750 C 277.242 29.807,277.167 30.043,277.167 30.275 C 277.167 30.553,277.056 30.727,276.845 30.782 C 276.668 30.828,276.523 30.990,276.524 31.141 C 276.524 31.715,275.878 33.333,275.649 33.333 C 275.567 33.333,275.500 33.550,275.500 33.814 C 275.500 34.143,275.368 34.381,275.083 34.568 C 274.795 34.757,274.667 34.992,274.667 35.330 C 274.667 35.627,274.511 35.970,274.271 36.202 C 273.554 36.893,273.603 38.609,274.351 39.009 C 274.525 39.102,274.667 39.256,274.667 39.351 C 274.667 39.558,275.086 40.000,275.282 40.000 C 275.358 40.000,275.495 40.169,275.585 40.375 C 275.679 40.588,275.930 40.775,276.167 40.807 C 276.396 40.838,276.822 41.044,277.114 41.265 L 277.644 41.667 292.989 41.667 L 308.333 41.667 309.000 41.020 C 309.367 40.664,309.667 40.307,309.668 40.228 C 309.668 40.148,309.893 39.956,310.168 39.799 C 310.442 39.643,310.667 39.400,310.667 39.258 C 310.667 39.116,310.766 39.000,310.889 39.000 C 311.011 39.000,311.211 38.813,311.333 38.583 C 311.456 38.354,311.648 38.167,311.759 38.167 C 311.870 38.167,312.087 37.976,312.240 37.742 C 312.393 37.509,312.970 36.876,313.523 36.337 C 315.283 34.621,316.680 34.774,298.916 34.738 C 290.391 34.721,283.323 34.698,283.208 34.687 C 282.889 34.656,282.954 34.339,283.513 33.193 C 283.795 32.615,283.988 32.041,283.940 31.918 C 283.691 31.269,284.476 31.223,295.333 31.253 L 305.750 31.283 306.458 30.850 C 306.847 30.612,307.166 30.370,307.166 30.313 C 307.167 30.124,308.244 29.055,308.542 28.949 C 308.702 28.891,308.833 28.762,308.833 28.663 C 308.833 28.563,309.621 27.708,310.583 26.762 C 312.376 24.999,312.606 24.609,311.969 24.407 C 311.769 24.343,306.398 24.295,300.033 24.299 L 288.462 24.307 288.567 23.646 C 288.676 22.965,288.984 22.333,289.207 22.333 C 289.276 22.333,289.333 22.120,289.333 21.859 C 289.333 20.786,288.571 20.844,303.286 20.795 L 316.635 20.750 317.059 20.293 C 317.292 20.041,317.543 19.728,317.616 19.597 C 317.772 19.319,319.242 17.803,321.165 15.936 C 322.271 14.863,322.509 14.543,322.467 14.186 L 322.417 13.750 304.973 13.741 C 295.378 13.736,287.372 13.790,287.181 13.861 M228.800 21.033 C 229.020 21.254,229.074 21.833,228.874 21.833 C 228.751 21.833,228.523 22.284,228.179 23.208 C 228.085 23.460,227.931 23.667,227.837 23.667 C 227.744 23.667,227.667 23.854,227.667 24.083 C 227.667 24.313,227.528 24.639,227.357 24.809 C 227.187 24.979,226.997 25.323,226.934 25.574 C 226.767 26.238,226.273 27.333,226.140 27.333 C 226.077 27.333,225.934 27.615,225.822 27.958 C 225.710 28.302,225.483 28.757,225.319 28.969 C 225.154 29.181,224.929 29.631,224.819 29.969 C 224.350 31.413,223.297 33.251,222.501 34.015 L 221.681 34.801 210.932 34.775 C 199.436 34.748,199.826 34.779,199.733 33.904 C 199.677 33.386,200.242 31.783,200.579 31.504 C 200.707 31.397,200.860 31.091,200.919 30.822 C 200.978 30.553,201.164 30.237,201.332 30.120 C 201.500 30.002,201.690 29.627,201.754 29.286 C 201.818 28.945,201.956 28.666,202.060 28.665 C 202.165 28.664,202.392 28.208,202.566 27.651 C 202.740 27.094,202.983 26.599,203.108 26.551 C 203.232 26.503,203.333 26.333,203.333 26.172 C 203.333 26.011,203.563 25.400,203.844 24.815 C 204.619 23.199,204.836 22.833,205.019 22.833 C 205.111 22.833,205.136 22.751,205.074 22.651 C 204.888 22.351,205.549 21.184,206.000 21.015 C 206.663 20.768,228.552 20.785,228.800 21.033 M269.085 22.220 C 269.087 23.400,269.045 23.574,268.634 24.054 C 268.384 24.345,268.177 24.703,268.173 24.849 C 268.165 25.175,267.704 26.124,267.489 26.257 C 267.404 26.310,267.333 26.483,267.333 26.641 C 267.333 26.800,267.111 27.189,266.840 27.506 C 266.561 27.833,266.344 28.283,266.340 28.542 C 266.336 28.794,266.277 29.000,266.207 29.000 C 266.060 29.000,265.620 29.935,265.544 30.408 C 265.515 30.586,265.381 30.855,265.246 31.004 C 265.111 31.154,265.000 31.394,265.000 31.537 C 265.000 31.680,264.898 31.837,264.774 31.885 C 264.649 31.932,264.499 32.213,264.440 32.508 C 264.317 33.126,263.134 34.424,262.506 34.632 C 262.182 34.739,242.674 34.793,241.708 34.689 C 241.461 34.662,241.426 33.732,241.667 33.583 C 241.850 33.470,242.500 32.119,242.500 31.851 C 242.500 31.759,242.598 31.623,242.717 31.550 C 242.836 31.477,243.024 31.106,243.135 30.726 C 243.246 30.345,243.448 29.992,243.585 29.939 C 243.722 29.887,243.833 29.664,243.833 29.444 C 243.833 29.225,243.975 28.865,244.148 28.645 C 244.321 28.425,244.584 27.983,244.731 27.664 C 244.878 27.345,245.147 26.840,245.328 26.544 C 245.509 26.247,245.618 25.900,245.569 25.773 C 245.521 25.647,245.598 25.498,245.740 25.443 C 245.883 25.389,246.000 25.229,246.000 25.089 C 246.000 24.948,246.078 24.833,246.174 24.833 C 246.270 24.833,246.328 24.740,246.303 24.625 C 246.278 24.510,246.417 24.079,246.613 23.667 C 246.809 23.254,247.024 22.729,247.090 22.500 C 247.157 22.271,247.483 21.802,247.814 21.458 L 248.417 20.832 258.750 20.874 L 269.083 20.917 269.085 22.220 M17.536 21.110 C 17.336 21.193,15.667 24.489,15.667 24.803 C 15.667 24.883,15.517 25.084,15.333 25.250 C 15.150 25.416,15.000 25.641,15.000 25.750 C 15.000 26.016,14.518 26.969,14.323 27.090 C 14.237 27.143,14.167 27.355,14.167 27.562 C 14.167 27.768,14.017 28.098,13.833 28.295 C 13.650 28.492,13.500 28.705,13.500 28.769 C 13.500 28.891,12.650 30.628,12.244 31.333 C 12.113 31.563,12.004 31.872,12.002 32.021 C 12.001 32.170,11.887 32.386,11.750 32.500 C 11.612 32.614,11.500 32.839,11.500 33.000 C 11.500 33.161,11.395 33.379,11.267 33.486 C 11.140 33.592,10.989 33.925,10.932 34.227 C 10.875 34.528,10.680 34.935,10.498 35.130 C 10.316 35.326,10.167 35.677,10.167 35.910 C 10.167 36.143,10.109 36.333,10.039 36.333 C 9.901 36.333,9.260 37.661,9.074 38.333 C 9.011 38.563,8.821 38.881,8.654 39.041 C 8.270 39.407,8.072 40.415,8.272 40.984 L 8.424 41.417 11.032 41.462 C 14.027 41.515,14.218 41.438,14.666 40.000 C 14.795 39.587,15.056 39.025,15.246 38.750 C 15.437 38.475,15.617 38.063,15.646 37.833 C 15.675 37.604,15.842 37.282,16.016 37.119 C 16.191 36.955,16.333 36.691,16.333 36.532 C 16.333 36.374,16.521 35.968,16.750 35.631 C 16.979 35.294,17.167 34.957,17.168 34.884 C 17.168 34.810,17.430 34.262,17.749 33.667 C 18.068 33.071,18.373 32.471,18.427 32.333 C 18.480 32.196,18.595 31.971,18.682 31.833 C 18.769 31.696,18.953 31.321,19.092 31.000 C 19.230 30.679,19.454 30.218,19.589 29.974 C 19.723 29.731,19.833 29.412,19.833 29.266 C 19.833 29.120,19.902 29.000,19.987 29.000 C 20.071 29.000,20.262 28.631,20.412 28.180 C 20.879 26.774,20.844 26.779,28.875 26.827 C 30.313 26.835,30.223 27.369,28.169 31.000 C 28.091 31.137,27.907 31.512,27.759 31.833 C 27.503 32.391,27.373 32.640,27.000 33.292 C 26.908 33.452,26.758 33.752,26.666 33.958 C 26.575 34.165,26.425 34.502,26.334 34.708 C 26.242 34.915,26.105 35.196,26.029 35.333 C 25.953 35.471,25.643 36.108,25.340 36.750 C 25.037 37.392,24.724 38.047,24.645 38.206 C 24.565 38.365,24.500 38.582,24.500 38.688 C 24.500 38.793,24.373 38.973,24.218 39.086 C 23.914 39.309,23.788 41.009,24.055 41.277 C 24.131 41.354,25.352 41.441,26.769 41.470 C 29.707 41.531,29.726 41.523,30.249 39.984 C 30.392 39.563,30.695 38.967,30.921 38.660 C 31.148 38.353,31.333 37.978,31.333 37.827 C 31.333 37.675,31.483 37.416,31.667 37.250 C 31.850 37.084,31.999 36.866,31.999 36.766 C 31.998 36.665,32.495 35.571,33.103 34.333 C 35.176 30.115,35.333 29.781,35.333 29.580 C 35.333 29.469,35.474 29.199,35.645 28.981 C 35.816 28.762,36.008 28.350,36.070 28.065 C 36.329 26.879,36.558 26.821,40.937 26.821 C 43.658 26.821,45.034 26.884,45.435 27.029 C 46.151 27.288,46.353 27.867,45.874 28.292 C 45.694 28.452,45.452 28.846,45.337 29.167 C 45.128 29.749,44.781 30.527,44.519 31.000 C 44.324 31.353,43.797 32.369,43.655 32.667 C 42.505 35.082,41.408 37.353,41.205 37.736 C 39.298 41.346,39.401 41.531,43.280 41.463 L 45.885 41.417 46.358 40.583 C 46.619 40.125,46.881 39.637,46.941 39.500 C 47.090 39.155,49.162 34.818,49.349 34.458 C 49.694 33.794,49.806 33.563,49.981 33.167 C 50.082 32.938,50.232 32.637,50.315 32.500 C 50.722 31.823,51.667 29.669,51.667 29.417 C 51.667 29.260,51.854 28.984,52.083 28.804 C 52.718 28.304,52.718 25.338,52.083 24.599 C 51.854 24.333,51.666 23.995,51.665 23.849 C 51.662 23.468,50.028 21.833,49.651 21.833 C 49.476 21.833,49.165 21.665,48.958 21.458 L 48.583 21.083 33.167 21.053 C 24.688 21.036,17.654 21.062,17.536 21.110 M57.555 21.242 C 57.356 21.384,57.145 21.720,57.086 21.989 C 57.027 22.257,56.875 22.563,56.748 22.668 C 56.621 22.773,56.386 23.210,56.226 23.638 C 56.065 24.066,55.889 24.454,55.835 24.500 C 55.750 24.572,54.751 26.598,54.191 27.833 C 54.087 28.063,53.933 28.363,53.849 28.500 C 53.514 29.047,52.500 31.287,52.500 31.482 C 52.500 31.596,52.313 31.935,52.083 32.235 C 51.854 32.536,51.667 32.913,51.667 33.073 C 51.667 33.233,51.517 33.555,51.333 33.788 C 51.150 34.021,51.000 34.377,51.000 34.580 C 51.000 34.783,50.850 35.084,50.667 35.250 C 50.483 35.416,50.333 35.634,50.332 35.734 C 50.332 35.835,50.072 36.404,49.754 37.000 C 47.427 41.372,47.465 41.498,51.104 41.499 C 53.896 41.500,54.136 41.437,54.525 40.600 C 54.700 40.224,54.912 39.804,54.995 39.667 C 55.286 39.185,57.167 35.188,57.167 35.050 C 57.167 34.973,57.354 34.635,57.583 34.298 C 57.813 33.960,58.000 33.557,58.000 33.402 C 58.000 33.247,58.225 32.755,58.500 32.308 C 58.775 31.861,59.000 31.394,59.000 31.271 C 59.000 31.147,59.188 30.770,59.417 30.433 C 59.646 30.095,59.833 29.639,59.833 29.420 C 59.833 29.177,59.955 28.984,60.146 28.923 C 60.345 28.860,60.539 28.536,60.676 28.037 C 60.795 27.604,60.949 27.211,61.020 27.163 C 61.214 27.030,62.667 24.177,62.667 23.929 C 62.667 23.810,62.810 23.529,62.986 23.305 C 63.513 22.636,63.590 21.800,63.161 21.411 C 62.663 20.960,58.142 20.823,57.555 21.242 M68.917 21.412 C 68.532 21.649,67.990 21.825,67.635 21.828 C 67.296 21.831,66.971 21.911,66.912 22.007 C 66.853 22.103,66.511 22.298,66.153 22.442 C 65.411 22.738,63.927 24.271,63.768 24.905 C 63.710 25.137,63.434 25.713,63.156 26.185 C 62.877 26.657,62.607 27.255,62.556 27.513 C 62.504 27.772,62.320 28.111,62.148 28.267 C 61.975 28.424,61.833 28.679,61.833 28.834 C 61.833 28.989,61.610 29.447,61.336 29.850 C 61.063 30.253,60.838 30.688,60.836 30.816 C 60.834 31.024,60.020 32.847,59.639 33.500 C 58.788 34.959,58.805 37.579,59.674 38.676 C 60.384 39.572,61.819 40.833,62.130 40.833 C 62.273 40.833,62.535 40.965,62.713 41.125 C 63.042 41.423,81.873 41.686,83.000 41.409 C 83.573 41.268,87.666 37.021,87.666 36.567 C 87.667 35.646,87.965 35.670,76.651 35.693 C 64.504 35.719,64.943 35.785,65.817 34.047 C 65.991 33.700,66.267 33.117,66.430 32.750 C 66.593 32.383,66.863 31.884,67.030 31.641 C 67.197 31.398,67.333 31.108,67.333 30.998 C 67.333 30.888,67.521 30.575,67.750 30.303 C 67.979 30.031,68.167 29.623,68.167 29.397 C 68.167 28.829,69.930 27.167,70.532 27.167 C 70.661 27.167,70.840 27.094,70.929 27.004 C 71.029 26.905,74.386 26.825,79.642 26.796 C 87.975 26.751,88.200 26.741,88.434 26.417 C 88.566 26.233,89.588 25.165,90.704 24.044 L 92.735 22.004 92.391 21.544 L 92.047 21.083 80.815 21.042 L 69.583 21.000 68.917 21.412 M94.815 21.461 C 94.504 21.714,93.406 22.754,92.375 23.771 C 89.148 26.955,88.813 26.837,101.024 26.825 C 107.569 26.819,110.596 26.871,110.636 26.991 C 110.668 27.088,110.769 27.167,110.859 27.167 C 111.359 27.167,111.710 28.261,111.372 28.767 C 111.007 29.314,110.559 29.333,98.136 29.339 C 84.692 29.344,85.167 29.311,85.167 30.262 C 85.167 30.635,85.436 30.996,86.417 31.943 C 87.104 32.606,87.667 33.219,87.667 33.305 C 87.667 33.391,87.822 33.502,88.012 33.552 C 88.203 33.601,88.399 33.797,88.448 33.988 C 88.498 34.178,88.601 34.333,88.678 34.333 C 88.754 34.333,89.018 34.521,89.266 34.750 C 89.513 34.979,89.836 35.172,89.983 35.178 C 90.130 35.184,93.908 35.180,98.379 35.169 L 106.508 35.149 107.024 35.665 C 107.499 36.140,107.519 36.203,107.275 36.472 C 106.990 36.787,106.006 38.659,106.002 38.893 C 106.001 38.971,105.824 39.244,105.610 39.499 C 104.480 40.841,105.385 41.500,108.360 41.500 C 111.037 41.500,111.358 41.410,111.734 40.555 C 111.888 40.204,112.122 39.729,112.254 39.500 C 112.386 39.271,112.647 38.746,112.833 38.333 C 113.020 37.921,113.323 37.321,113.508 37.000 C 113.756 36.569,113.835 36.155,113.813 35.411 C 113.781 34.349,114.019 33.667,114.419 33.667 C 114.787 33.667,116.839 31.535,117.044 30.940 C 117.143 30.652,117.372 30.215,117.552 29.969 C 118.126 29.187,118.170 25.780,117.618 24.976 C 117.388 24.641,117.145 24.195,117.078 23.984 C 116.899 23.418,115.337 21.833,114.958 21.833 C 114.778 21.833,114.409 21.646,114.136 21.417 L 113.641 21.000 104.510 21.000 L 95.379 21.000 94.815 21.461 M126.667 21.162 C 126.438 21.235,126.025 21.416,125.750 21.563 C 125.475 21.711,125.012 21.832,124.720 21.832 C 124.429 21.833,124.082 21.942,123.949 22.075 C 123.816 22.208,123.523 22.363,123.299 22.419 C 122.841 22.534,121.573 23.773,121.205 24.465 C 120.598 25.606,119.855 27.131,119.671 27.613 C 119.560 27.904,119.326 28.272,119.151 28.430 C 118.976 28.589,118.833 28.896,118.833 29.113 C 118.833 29.330,118.653 29.787,118.432 30.129 C 118.211 30.470,117.980 30.994,117.919 31.292 C 117.857 31.590,117.754 31.833,117.689 31.833 C 117.494 31.833,117.000 32.777,117.000 33.151 C 117.000 33.343,116.921 33.500,116.825 33.500 C 116.424 33.500,116.175 34.638,116.213 36.300 L 116.250 37.963 116.995 38.857 C 117.405 39.348,117.885 39.856,118.061 39.985 C 118.238 40.114,118.500 40.358,118.645 40.526 C 118.789 40.695,118.980 40.833,119.068 40.833 C 119.156 40.833,119.542 40.985,119.927 41.171 C 120.935 41.659,141.578 41.616,142.121 41.125 C 142.298 40.965,142.588 40.833,142.765 40.833 C 143.192 40.833,145.667 38.289,145.667 37.849 C 145.667 37.664,145.808 37.379,145.981 37.215 C 146.153 37.051,146.348 36.665,146.414 36.358 C 146.480 36.051,146.676 35.657,146.850 35.483 C 147.024 35.309,147.167 35.017,147.167 34.833 C 147.167 34.650,147.242 34.500,147.333 34.500 C 147.425 34.500,147.500 34.386,147.500 34.247 C 147.500 34.107,147.688 33.696,147.917 33.333 C 148.146 32.970,148.335 32.541,148.337 32.378 C 148.339 32.216,148.487 31.896,148.667 31.667 C 148.846 31.438,148.994 31.123,148.996 30.968 C 148.998 30.813,149.083 30.635,149.184 30.573 C 151.107 29.384,149.309 22.361,146.958 21.885 C 146.706 21.834,146.500 21.742,146.500 21.682 C 146.500 21.053,128.484 20.581,126.667 21.162 M325.787 21.116 C 325.620 21.159,325.266 21.677,324.973 22.305 C 324.689 22.916,324.203 23.944,323.895 24.588 C 323.586 25.232,323.333 25.859,323.333 25.980 C 323.333 26.102,323.146 26.425,322.917 26.697 C 322.688 26.969,322.500 27.362,322.500 27.570 C 322.500 27.778,322.354 28.080,322.176 28.241 C 321.998 28.403,321.803 28.759,321.743 29.034 C 321.682 29.309,321.415 29.856,321.150 30.249 C 320.884 30.643,320.667 31.080,320.667 31.220 C 320.667 31.360,320.479 31.697,320.250 31.970 C 320.021 32.242,319.833 32.651,319.833 32.879 C 319.833 33.106,319.716 33.390,319.572 33.509 C 319.224 33.798,318.833 34.573,318.833 34.974 C 318.833 35.152,318.735 35.335,318.616 35.381 C 318.496 35.427,318.293 35.791,318.164 36.191 C 318.035 36.590,317.720 37.276,317.465 37.716 C 317.209 38.155,317.000 38.605,316.999 38.716 C 316.998 38.826,316.849 39.142,316.667 39.417 C 315.598 41.031,316.324 41.523,319.685 41.463 L 322.249 41.417 322.464 40.750 C 322.582 40.383,322.788 40.000,322.923 39.898 C 323.057 39.797,323.167 39.641,323.167 39.553 C 323.167 39.292,324.134 37.373,324.325 37.255 C 324.421 37.196,324.500 36.970,324.500 36.753 C 324.500 36.536,324.688 36.136,324.917 35.864 C 325.146 35.591,325.335 35.229,325.336 35.059 C 325.338 34.889,325.563 34.420,325.836 34.017 C 326.110 33.613,326.333 33.181,326.333 33.056 C 326.333 32.823,326.603 32.278,326.939 31.833 C 327.042 31.696,327.184 31.396,327.254 31.167 C 327.324 30.938,327.558 30.518,327.774 30.234 C 327.990 29.951,328.167 29.597,328.167 29.448 C 328.167 29.299,328.310 28.893,328.484 28.547 C 329.214 27.099,330.000 25.370,330.000 25.213 C 330.000 25.121,330.140 24.866,330.310 24.647 C 330.481 24.429,330.679 24.063,330.750 23.833 C 330.821 23.604,331.019 23.238,331.190 23.019 C 331.595 22.500,331.585 21.751,331.167 21.333 C 330.844 21.010,326.818 20.847,325.787 21.116 M333.963 21.114 C 333.727 21.176,332.246 23.929,331.336 26.000 C 331.235 26.229,331.044 26.604,330.912 26.833 C 330.780 27.063,330.670 27.421,330.669 27.630 C 330.668 27.839,330.555 28.053,330.418 28.106 C 330.282 28.158,330.087 28.512,329.986 28.892 C 329.884 29.272,329.724 29.677,329.631 29.791 C 329.405 30.066,328.004 32.877,328.002 33.059 C 328.001 33.138,327.813 33.425,327.583 33.697 C 327.354 33.969,327.167 34.382,327.167 34.614 C 327.167 34.865,326.998 35.168,326.750 35.363 C 326.521 35.543,326.333 35.832,326.333 36.004 C 326.333 36.377,325.994 37.167,325.834 37.167 C 325.772 37.167,325.581 37.579,325.409 38.083 C 325.238 38.587,325.050 39.000,324.992 39.000 C 324.811 39.000,324.500 39.827,324.500 40.309 C 324.500 41.324,324.724 41.412,327.445 41.462 C 330.252 41.514,330.714 41.393,330.806 40.579 C 330.836 40.307,330.956 39.971,331.072 39.833 C 331.188 39.696,331.533 39.058,331.838 38.417 C 332.143 37.775,332.438 37.212,332.495 37.167 C 332.551 37.121,332.701 36.760,332.829 36.365 C 332.956 35.970,333.197 35.573,333.363 35.484 C 333.530 35.395,333.667 35.147,333.667 34.933 C 333.667 34.720,333.817 34.354,334.000 34.121 C 334.183 33.888,334.333 33.611,334.333 33.505 C 334.333 33.189,335.030 31.667,335.174 31.667 C 335.247 31.667,335.360 31.423,335.424 31.125 C 335.489 30.827,335.820 30.057,336.160 29.413 C 336.500 28.769,336.829 28.039,336.892 27.790 C 337.136 26.818,337.127 26.819,344.897 26.830 C 349.881 26.837,352.124 26.897,352.420 27.032 C 352.863 27.234,353.163 27.960,352.878 28.143 C 352.646 28.291,351.167 31.370,351.167 31.703 C 351.167 31.852,350.979 32.197,350.750 32.470 C 350.521 32.742,350.333 33.076,350.333 33.212 C 350.333 33.348,350.226 33.549,350.094 33.658 C 349.962 33.767,349.804 34.095,349.742 34.387 C 349.680 34.678,349.539 35.029,349.428 35.167 C 349.317 35.304,348.959 35.942,348.633 36.583 C 348.307 37.225,347.922 37.975,347.777 38.250 C 346.307 41.044,346.610 41.500,349.943 41.500 C 352.741 41.500,352.836 41.462,353.521 40.052 C 353.824 39.427,354.120 38.879,354.177 38.833 C 354.235 38.787,354.329 38.557,354.387 38.321 C 354.444 38.085,354.681 37.613,354.912 37.272 C 355.144 36.931,355.333 36.536,355.333 36.394 C 355.333 36.252,355.483 35.945,355.667 35.712 C 355.850 35.479,356.000 35.111,356.000 34.894 C 356.000 34.677,356.057 34.500,356.126 34.500 C 356.195 34.500,356.350 34.256,356.470 33.958 C 356.590 33.660,356.759 33.285,356.844 33.125 C 356.930 32.965,357.070 32.702,357.156 32.542 C 357.631 31.657,358.500 29.659,358.500 29.452 C 358.500 29.320,358.682 29.030,358.905 28.807 C 359.625 28.087,359.693 25.358,359.007 24.701 C 358.843 24.545,358.563 24.079,358.383 23.667 C 358.046 22.895,357.005 21.833,356.585 21.833 C 356.455 21.833,356.072 21.646,355.734 21.417 L 355.120 21.000 344.685 21.019 C 338.946 21.030,334.121 21.073,333.963 21.114 M368.087 21.122 C 367.906 21.168,367.677 21.317,367.577 21.453 C 367.478 21.589,367.026 21.740,366.573 21.788 C 366.120 21.835,365.600 22.010,365.417 22.175 C 365.233 22.340,364.865 22.530,364.598 22.596 C 363.831 22.786,362.330 24.727,362.080 25.852 C 362.027 26.092,361.846 26.436,361.678 26.616 C 361.510 26.797,361.322 27.174,361.260 27.455 C 361.198 27.736,361.003 28.096,360.827 28.256 C 360.651 28.415,360.456 28.817,360.395 29.148 C 360.334 29.479,360.108 30.011,359.892 30.330 C 359.676 30.650,359.500 31.007,359.500 31.124 C 359.500 31.345,359.224 31.898,358.895 32.333 C 358.791 32.471,358.649 32.771,358.580 33.000 C 358.511 33.229,358.314 33.596,358.144 33.814 C 357.733 34.341,357.687 38.159,358.083 38.833 C 358.218 39.063,358.375 39.381,358.433 39.542 C 358.491 39.702,358.616 39.833,358.710 39.833 C 358.804 39.833,359.096 40.058,359.358 40.333 C 359.621 40.608,359.923 40.833,360.030 40.833 C 360.137 40.833,360.369 40.965,360.546 41.125 C 360.844 41.395,361.617 41.420,370.809 41.467 C 382.120 41.525,381.872 41.540,382.669 40.745 C 382.988 40.425,383.619 39.808,384.070 39.374 C 384.521 38.939,385.032 38.433,385.204 38.250 C 385.376 38.067,385.693 37.729,385.908 37.500 C 386.481 36.891,386.559 36.460,386.172 36.044 L 385.842 35.690 375.463 35.720 C 368.752 35.739,365.007 35.691,364.867 35.583 C 364.030 34.938,363.990 34.824,364.412 34.269 C 364.630 33.984,364.859 33.543,364.922 33.290 C 364.985 33.037,365.104 32.789,365.185 32.739 C 365.267 32.688,365.333 32.511,365.333 32.344 C 365.333 32.177,365.437 31.955,365.563 31.850 C 365.690 31.745,365.838 31.434,365.893 31.159 C 365.948 30.883,366.182 30.469,366.413 30.238 C 366.644 30.007,366.833 29.646,366.833 29.435 C 366.833 29.224,366.982 28.917,367.163 28.753 C 367.345 28.589,367.541 28.202,367.599 27.894 C 367.675 27.487,367.792 27.333,368.027 27.333 C 368.205 27.333,368.566 27.221,368.831 27.085 C 369.238 26.874,370.585 26.834,377.568 26.827 C 384.564 26.820,385.861 26.781,386.067 26.576 C 386.200 26.442,386.388 26.333,386.483 26.333 C 386.579 26.333,386.822 26.109,387.025 25.835 C 387.228 25.561,387.530 25.293,387.697 25.240 C 387.864 25.188,388.000 25.061,388.000 24.958 C 388.000 24.856,388.608 24.187,389.352 23.472 C 390.827 22.054,390.994 21.513,390.068 21.161 C 389.637 20.997,368.726 20.960,368.087 21.122 M48.950 22.107 C 51.321 23.267,53.013 27.198,51.667 28.417 C 51.483 28.583,51.333 28.787,51.333 28.871 C 51.333 29.000,49.118 33.554,48.676 34.333 C 48.599 34.471,48.307 35.071,48.030 35.667 C 45.342 41.428,45.744 40.966,43.414 40.979 C 40.490 40.996,40.301 40.827,41.235 39.043 C 42.259 37.090,46.167 29.027,46.167 28.869 C 46.167 28.786,46.317 28.583,46.500 28.417 C 46.976 27.986,46.914 27.584,46.263 26.873 L 45.693 26.250 41.285 26.201 L 36.877 26.151 36.358 26.588 C 36.073 26.828,35.751 27.318,35.644 27.676 C 35.537 28.035,35.310 28.453,35.141 28.606 C 34.972 28.760,34.833 28.990,34.833 29.118 C 34.833 29.246,34.684 29.628,34.501 29.967 C 34.318 30.306,33.863 31.258,33.489 32.083 C 32.858 33.475,32.140 34.955,31.709 35.750 C 31.609 35.933,31.019 37.149,30.397 38.452 C 29.095 41.182,29.370 41.002,26.583 40.946 C 24.746 40.910,24.333 40.818,24.333 40.448 C 24.333 40.277,26.109 36.539,26.526 35.833 C 26.607 35.696,26.791 35.321,26.934 35.000 C 28.156 32.262,29.988 28.527,30.161 28.420 C 30.256 28.362,30.333 28.198,30.333 28.057 C 30.333 27.916,30.454 27.546,30.602 27.235 C 31.116 26.150,31.185 26.167,26.047 26.167 C 20.426 26.168,20.722 26.067,19.616 28.363 C 18.299 31.096,17.385 33.073,17.268 33.443 C 17.205 33.641,17.044 33.894,16.910 34.005 C 16.776 34.117,16.667 34.355,16.667 34.536 C 16.667 34.717,16.530 35.064,16.363 35.308 C 16.196 35.551,15.515 36.857,14.850 38.210 C 14.185 39.562,13.515 40.735,13.362 40.816 C 13.139 40.934,9.742 40.967,8.875 40.859 C 8.483 40.811,8.667 40.210,9.667 38.277 C 10.217 37.213,10.667 36.240,10.667 36.114 C 10.667 35.988,10.817 35.749,11.000 35.583 C 11.183 35.417,11.333 35.179,11.333 35.054 C 11.333 34.929,11.512 34.472,11.730 34.039 C 12.172 33.160,13.855 29.648,14.145 29.000 C 14.247 28.771,14.400 28.471,14.484 28.333 C 14.842 27.751,17.500 22.182,17.500 22.016 C 17.500 21.915,17.519 21.818,17.542 21.800 C 17.700 21.674,26.549 21.589,36.388 21.619 L 48.026 21.655 48.950 22.107 M62.651 21.913 C 62.895 22.157,62.829 22.419,62.338 23.167 C 61.991 23.694,60.167 27.654,60.167 27.879 C 60.167 28.009,60.017 28.251,59.833 28.417 C 59.650 28.583,59.500 28.792,59.500 28.881 C 59.500 29.021,56.894 34.454,56.486 35.167 C 55.938 36.122,54.167 39.923,54.167 40.144 C 54.167 40.715,53.341 40.962,51.395 40.975 C 48.587 40.993,48.475 40.884,49.404 39.046 C 50.230 37.411,50.833 36.076,50.833 35.885 C 50.833 35.793,50.983 35.583,51.167 35.417 C 51.350 35.251,51.500 34.987,51.500 34.830 C 51.500 34.673,51.640 34.366,51.810 34.147 C 51.981 33.929,52.179 33.565,52.250 33.339 C 52.320 33.113,52.809 32.084,53.335 31.052 C 53.862 30.020,54.337 29.042,54.391 28.879 C 54.446 28.717,54.558 28.471,54.641 28.333 C 54.813 28.049,56.495 24.552,57.127 23.167 C 57.357 22.662,57.599 22.137,57.665 22.000 C 57.903 21.506,62.169 21.431,62.651 21.913 M91.722 21.822 C 91.858 21.958,91.351 22.564,89.821 24.094 L 87.734 26.181 79.409 26.176 C 73.085 26.172,70.999 26.220,70.731 26.377 C 70.537 26.490,70.050 26.763,69.648 26.983 C 68.961 27.359,67.667 28.596,67.667 28.878 C 67.667 28.948,67.217 29.929,66.667 31.057 C 66.117 32.184,65.667 33.162,65.667 33.229 C 65.667 33.296,65.479 33.627,65.250 33.964 C 64.700 34.774,64.721 34.954,65.450 35.701 L 66.068 36.333 76.534 36.333 C 88.824 36.333,87.861 36.057,85.110 38.795 C 82.738 41.156,83.874 40.960,72.833 40.913 L 63.417 40.873 62.489 40.358 C 61.980 40.074,61.136 39.384,60.614 38.824 L 59.667 37.805 59.667 36.095 C 59.667 34.604,59.709 34.347,59.996 34.087 C 60.177 33.923,60.370 33.631,60.425 33.436 C 60.480 33.242,60.922 32.258,61.408 31.250 C 61.894 30.242,62.375 29.229,62.478 29.000 C 62.580 28.771,62.737 28.471,62.827 28.333 C 62.916 28.196,63.359 27.288,63.812 26.316 C 64.977 23.811,66.591 22.333,68.160 22.333 C 68.402 22.333,68.681 22.253,68.779 22.154 C 69.315 21.618,70.091 21.583,80.818 21.610 C 88.421 21.629,91.591 21.691,91.722 21.822 M113.363 21.661 C 113.517 21.664,113.745 21.769,113.871 21.895 C 113.996 22.020,114.275 22.179,114.490 22.247 C 116.829 22.989,118.181 27.502,116.851 30.130 C 116.338 31.143,114.233 33.333,113.772 33.333 C 113.362 33.333,113.167 33.889,113.167 35.054 C 113.167 36.243,111.321 40.483,110.646 40.844 C 110.302 41.028,106.511 40.963,106.194 40.767 C 105.851 40.555,106.289 39.407,107.767 36.640 C 108.061 36.090,107.876 35.522,107.240 35.022 C 106.793 34.670,106.709 34.667,98.366 34.667 L 89.943 34.667 87.972 32.708 C 86.315 31.063,85.789 30.359,86.042 30.129 C 86.065 30.108,91.713 30.051,98.594 30.004 L 111.106 29.917 111.549 29.438 C 112.398 28.522,112.286 27.344,111.280 26.598 C 110.817 26.256,110.650 26.249,101.147 26.203 C 92.858 26.163,91.472 26.122,91.392 25.913 C 91.254 25.554,95.093 21.698,95.653 21.633 C 95.969 21.597,111.300 21.621,113.363 21.661 M146.018 21.987 C 146.276 22.178,146.564 22.333,146.659 22.333 C 146.755 22.333,147.144 22.615,147.526 22.958 C 149.343 24.597,149.782 27.969,148.517 30.577 C 148.160 31.314,147.555 32.592,147.174 33.417 C 146.792 34.242,146.410 35.048,146.323 35.208 C 146.237 35.369,146.095 35.631,146.008 35.792 C 145.921 35.952,145.626 36.571,145.351 37.167 C 144.727 38.521,143.463 39.780,142.015 40.487 L 140.946 41.010 130.765 40.963 L 120.583 40.917 119.667 40.383 C 119.162 40.090,118.337 39.431,117.833 38.920 L 116.917 37.989 116.859 36.416 L 116.801 34.842 117.888 32.630 C 118.485 31.412,119.165 30.004,119.399 29.500 C 119.634 28.996,119.896 28.471,119.983 28.333 C 120.070 28.196,120.527 27.258,120.999 26.250 C 122.145 23.801,123.766 22.333,125.327 22.333 C 125.569 22.333,125.847 22.253,125.946 22.154 C 126.475 21.625,127.282 21.583,136.407 21.612 C 145.378 21.641,145.559 21.648,146.018 21.987 M330.971 22.054 C 331.003 22.221,330.918 22.484,330.781 22.637 C 330.645 22.791,330.181 23.667,329.751 24.583 C 329.321 25.500,328.888 26.400,328.789 26.583 C 328.689 26.767,328.496 27.142,328.359 27.417 C 328.222 27.692,328.034 28.067,327.941 28.250 C 327.597 28.930,326.527 31.134,325.756 32.750 C 325.319 33.667,324.483 35.411,323.898 36.626 C 323.312 37.841,322.833 38.901,322.833 38.981 C 322.833 39.061,322.726 39.215,322.594 39.324 C 322.462 39.434,322.306 39.745,322.246 40.017 C 322.069 40.825,321.645 40.970,319.426 40.979 C 316.581 40.991,316.564 40.960,317.899 38.250 C 318.395 37.242,318.886 36.229,318.989 36.000 C 319.092 35.771,319.286 35.396,319.418 35.167 C 319.551 34.938,319.971 34.075,320.352 33.250 C 321.123 31.580,321.679 30.419,321.950 29.917 C 322.048 29.733,322.593 28.646,323.159 27.500 C 323.725 26.354,324.247 25.304,324.319 25.167 C 324.391 25.029,324.729 24.317,325.069 23.583 C 325.409 22.850,325.747 22.137,325.819 22.000 C 326.110 21.447,330.865 21.497,330.971 22.054 M355.916 22.154 C 358.241 23.299,359.849 27.196,358.500 28.417 C 358.317 28.583,358.167 28.818,358.167 28.940 C 358.167 29.062,357.725 30.044,357.186 31.122 C 356.139 33.215,354.092 37.426,353.102 39.526 L 352.500 40.802 351.708 40.885 C 349.741 41.091,348.231 41.022,347.845 40.709 L 347.468 40.405 348.151 39.051 C 348.526 38.307,348.833 37.625,348.833 37.536 C 348.833 37.447,348.937 37.288,349.063 37.183 C 349.190 37.078,349.339 36.763,349.395 36.483 C 349.451 36.202,349.648 35.781,349.832 35.547 C 350.016 35.313,350.167 35.051,350.167 34.965 C 350.167 34.798,352.440 30.198,352.661 29.917 C 352.733 29.825,352.849 29.563,352.918 29.333 C 352.987 29.104,353.191 28.707,353.372 28.451 C 353.797 27.847,353.667 27.348,352.912 26.685 L 352.322 26.167 344.944 26.167 L 337.565 26.167 337.052 26.708 C 336.770 27.006,336.452 27.525,336.345 27.862 C 336.237 28.198,336.041 28.564,335.908 28.674 C 335.775 28.784,335.667 28.941,335.667 29.023 C 335.667 29.105,335.095 30.352,334.397 31.795 C 333.232 34.201,331.731 37.319,330.590 39.701 C 329.963 41.011,330.012 40.991,327.642 40.934 C 325.017 40.871,324.630 40.612,325.500 39.500 C 325.679 39.271,325.828 39.029,325.830 38.962 C 325.832 38.895,326.096 38.280,326.417 37.595 C 326.737 36.909,327.000 36.262,327.000 36.157 C 327.000 36.051,327.188 35.742,327.417 35.470 C 327.646 35.197,327.835 34.849,327.837 34.696 C 327.839 34.542,327.987 34.229,328.167 34.000 C 328.346 33.771,328.494 33.500,328.496 33.397 C 328.502 33.136,329.987 30.028,330.157 29.923 C 330.233 29.875,330.347 29.635,330.409 29.390 C 330.470 29.144,330.666 28.758,330.844 28.532 C 331.021 28.306,331.167 27.992,331.167 27.833 C 331.167 27.675,331.301 27.366,331.466 27.147 C 331.631 26.929,332.247 25.700,332.834 24.417 C 334.100 21.654,334.069 21.701,334.637 21.635 C 334.883 21.607,339.541 21.599,344.990 21.618 L 354.896 21.652 355.916 22.154 M389.464 21.662 C 390.229 21.678,386.323 26.161,385.537 26.170 C 385.379 26.171,381.650 26.170,377.250 26.166 L 369.250 26.160 368.222 26.681 C 367.472 27.062,367.165 27.318,367.087 27.630 C 367.028 27.865,366.834 28.242,366.656 28.468 C 366.479 28.694,366.333 28.944,366.333 29.025 C 366.333 29.223,364.150 33.637,363.773 34.200 C 363.394 34.767,363.515 35.165,364.264 35.823 L 364.845 36.333 375.256 36.333 C 387.510 36.333,386.552 36.039,383.666 38.918 L 381.665 40.913 371.791 40.941 L 361.917 40.968 360.708 40.384 C 359.945 40.017,359.283 39.550,358.916 39.121 L 358.333 38.440 358.333 36.507 C 358.333 35.038,358.395 34.486,358.589 34.209 C 358.895 33.773,360.333 30.922,360.333 30.753 C 360.333 30.688,360.472 30.436,360.642 30.192 C 360.812 29.949,361.000 29.549,361.059 29.303 C 361.119 29.058,361.280 28.744,361.417 28.607 C 361.554 28.470,361.667 28.304,361.667 28.238 C 361.667 28.173,362.004 27.416,362.417 26.557 C 362.829 25.697,363.167 24.931,363.167 24.854 C 363.167 24.544,364.525 23.197,364.943 23.092 C 365.189 23.030,365.575 22.834,365.801 22.656 C 366.027 22.479,366.447 22.333,366.735 22.333 C 367.023 22.333,367.436 22.209,367.653 22.057 C 367.870 21.906,368.265 21.737,368.531 21.682 C 368.875 21.612,386.087 21.596,389.464 21.662 M127.083 26.440 C 126.900 26.584,126.503 26.809,126.201 26.940 C 125.899 27.070,125.612 27.306,125.564 27.464 C 125.515 27.621,125.393 27.900,125.291 28.083 C 125.063 28.494,124.096 30.468,123.249 32.250 C 122.900 32.983,122.477 33.782,122.308 34.026 C 121.854 34.678,121.928 35.077,122.625 35.738 L 123.250 36.330 131.564 36.332 C 140.702 36.333,140.610 36.343,141.125 35.297 C 141.503 34.529,142.880 31.566,143.122 31.000 C 143.259 30.679,143.513 30.218,143.686 29.974 C 144.389 28.985,144.076 27.113,143.107 26.515 C 142.341 26.041,127.677 25.972,127.083 26.440 M143.102 27.238 C 143.654 27.772,143.711 28.792,143.229 29.497 C 143.011 29.814,142.833 30.198,142.833 30.350 C 142.833 30.502,142.725 30.716,142.592 30.826 C 142.459 30.936,142.262 31.302,142.154 31.638 C 142.046 31.975,141.873 32.362,141.769 32.500 C 141.552 32.788,141.127 33.674,140.833 34.454 C 140.334 35.774,141.035 35.678,131.800 35.684 C 122.355 35.690,121.634 35.582,122.797 34.334 C 122.961 34.158,123.196 33.733,123.321 33.388 C 123.446 33.043,123.762 32.412,124.024 31.987 C 124.286 31.561,124.500 31.109,124.500 30.982 C 124.500 30.854,124.688 30.532,124.917 30.266 C 125.146 29.999,125.333 29.615,125.333 29.411 C 125.333 29.207,125.434 28.957,125.558 28.855 C 125.681 28.752,125.913 28.379,126.072 28.024 C 126.557 26.949,126.654 26.936,134.833 26.837 C 142.719 26.742,142.583 26.736,143.102 27.238 M8.825 47.408 C 8.738 47.495,8.667 47.664,8.667 47.784 C 8.667 48.141,391.639 48.100,391.776 47.742 C 391.830 47.601,391.825 47.436,391.764 47.376 C 391.584 47.196,9.005 47.228,8.825 47.408 " stroke="none" fill="#b6b6b6" fill-rule="evenodd"></path></g></svg>