<svg id="svg" version="1.1" xmlns="http://www.w3.org/2000/svg" xmlns:xlink="http://www.w3.org/1999/xlink" width="400" height="400" viewBox="0, 0, 400,400"><g id="svgg"><path id="path0" d="M0.000 200.000 L 0.000 400.000 200.000 400.000 L 400.000 400.000 400.000 200.000 L 400.000 0.000 200.000 0.000 L 0.000 0.000 0.000 200.000 M129.884 10.399 C 129.838 11.059,129.646 11.599,129.457 11.599 C 129.269 11.600,129.210 11.848,129.326 12.151 C 129.442 12.454,129.336 12.904,129.089 13.151 C 128.842 13.398,128.811 13.603,129.020 13.606 C 129.229 13.609,129.187 13.748,128.926 13.914 C 128.665 14.079,128.379 14.662,128.289 15.207 C 128.199 15.753,127.904 16.740,127.633 17.400 C 127.362 18.060,124.969 25.080,122.315 33.000 C 119.660 40.920,117.306 47.850,117.083 48.400 C 116.860 48.950,116.615 49.760,116.538 50.200 C 116.461 50.640,116.240 51.360,116.047 51.800 C 115.189 53.754,113.476 58.663,112.768 61.200 C 112.675 61.530,112.483 61.890,112.340 62.000 C 112.197 62.110,111.968 62.906,111.831 63.770 C 111.694 64.633,111.429 65.533,111.242 65.770 C 111.054 66.006,108.149 74.390,104.785 84.400 C 101.420 94.410,97.972 104.670,97.122 107.200 C 96.272 109.730,95.321 112.348,95.008 113.018 C 94.696 113.688,94.333 114.843,94.203 115.584 C 94.072 116.326,93.843 117.128,93.694 117.366 C 93.545 117.605,93.374 117.980,93.315 118.200 C 93.255 118.420,92.297 121.210,91.184 124.400 C 89.291 129.830,87.619 134.885,87.413 135.800 C 87.363 136.020,87.100 136.740,86.828 137.400 C 86.383 138.479,84.934 142.745,79.350 159.400 C 78.392 162.260,77.486 164.870,77.338 165.200 C 77.190 165.530,77.038 165.890,77.000 166.000 C 76.962 166.110,76.798 166.501,76.635 166.869 C 76.472 167.237,76.276 167.867,76.200 168.269 C 76.124 168.671,76.033 169.000,75.998 169.000 C 75.963 169.000,75.847 169.537,75.741 170.193 C 75.635 170.848,75.415 171.478,75.252 171.593 C 74.967 171.793,72.046 179.976,71.823 181.200 C 71.762 181.530,71.535 182.250,71.316 182.800 C 71.098 183.350,68.350 191.450,65.210 200.800 C 62.069 210.150,59.314 218.250,59.087 218.800 C 58.860 219.350,58.603 220.250,58.515 220.800 C 58.427 221.350,57.934 222.727,57.418 223.859 C 56.903 224.992,56.352 226.522,56.195 227.259 C 56.037 227.997,55.478 229.631,54.953 230.890 C 54.428 232.150,53.922 233.590,53.829 234.090 C 53.736 234.591,53.624 235.045,53.580 235.100 C 53.536 235.155,53.475 235.335,53.444 235.500 C 53.413 235.665,53.277 235.980,53.141 236.200 C 53.006 236.420,52.067 239.120,51.056 242.200 C 47.579 252.793,42.774 266.919,42.498 267.359 C 42.347 267.602,42.185 268.048,42.139 268.351 C 41.908 269.879,40.605 273.600,40.301 273.600 C 40.109 273.600,40.060 273.773,40.190 273.984 C 40.320 274.195,40.247 274.690,40.026 275.084 C 39.806 275.478,39.054 277.600,38.357 279.800 C 37.659 282.000,36.937 283.994,36.752 284.231 C 36.567 284.469,36.362 285.009,36.296 285.431 C 36.231 285.854,36.036 286.425,35.865 286.700 C 35.693 286.975,35.664 287.380,35.800 287.600 C 35.936 287.820,35.827 288.000,35.557 288.000 C 35.287 288.000,35.185 288.118,35.330 288.263 C 35.475 288.408,35.434 288.723,35.239 288.963 C 35.044 289.203,34.069 291.920,33.072 295.000 C 31.330 300.384,20.224 333.356,19.600 335.000 C 19.433 335.440,19.259 335.980,19.214 336.200 C 19.169 336.420,18.945 336.825,18.717 337.100 C 18.489 337.375,18.436 337.600,18.600 337.600 C 18.764 337.600,18.700 337.839,18.458 338.130 C 18.216 338.422,17.906 339.367,17.769 340.230 C 17.632 341.094,17.403 341.890,17.260 342.000 C 17.117 342.110,16.960 342.380,16.911 342.600 C 16.863 342.820,15.561 346.668,14.019 351.151 C 12.477 355.634,11.313 359.459,11.432 359.651 C 11.550 359.843,11.479 360.000,11.274 360.000 C 11.068 360.000,10.790 360.552,10.655 361.227 C 10.520 361.901,10.272 362.368,10.105 362.265 C 9.937 362.161,9.845 282.679,9.901 185.638 L 10.002 9.200 69.985 9.200 L 129.968 9.200 129.884 10.399 M284.000 9.703 C 284.000 10.353,283.500 11.953,282.251 15.300 C 281.696 16.785,281.345 18.000,281.470 18.000 C 281.596 18.000,281.520 18.225,281.302 18.500 C 280.905 19.001,279.713 22.394,279.428 23.834 C 279.113 25.422,278.993 25.806,278.751 26.000 C 278.614 26.110,277.675 28.720,276.665 31.800 C 275.079 36.632,267.511 59.270,267.001 60.704 C 266.903 60.982,266.832 61.321,266.845 61.459 C 266.858 61.598,266.691 61.821,266.474 61.955 C 266.257 62.090,265.968 62.906,265.831 63.770 C 265.694 64.633,265.384 65.578,265.142 65.870 C 264.900 66.161,264.836 66.400,265.000 66.400 C 265.164 66.400,265.051 66.698,264.749 67.061 C 264.447 67.425,264.240 67.783,264.289 67.857 C 264.338 67.931,264.293 68.218,264.188 68.496 C 264.083 68.773,263.215 71.340,262.259 74.200 C 255.908 93.191,253.619 99.946,253.178 101.000 C 252.901 101.660,252.603 102.631,252.516 103.159 C 252.428 103.686,251.396 106.836,250.222 110.159 C 249.049 113.481,247.678 117.460,247.178 119.000 C 246.677 120.540,246.128 121.986,245.957 122.212 C 245.787 122.439,245.564 123.069,245.463 123.612 C 245.129 125.400,245.003 125.797,244.702 126.022 C 244.538 126.145,244.364 126.730,244.315 127.322 C 244.266 127.915,244.066 128.400,243.870 128.400 C 243.674 128.400,243.610 128.648,243.726 128.951 C 243.842 129.254,243.736 129.704,243.489 129.951 C 243.242 130.198,243.188 130.400,243.369 130.400 C 243.550 130.400,243.474 130.670,243.200 131.000 C 242.926 131.330,242.836 131.600,243.000 131.600 C 243.164 131.600,243.114 131.825,242.889 132.100 C 242.665 132.375,240.098 139.710,237.186 148.400 C 230.880 167.215,227.337 176.174,225.638 177.600 C 225.507 177.710,225.045 178.496,224.612 179.346 C 224.179 180.197,223.594 180.981,223.312 181.089 C 223.030 181.197,222.800 181.536,222.800 181.843 C 222.800 182.149,222.620 182.400,222.400 182.400 C 222.180 182.400,222.000 182.619,222.000 182.886 C 222.000 183.367,221.414 184.063,218.900 186.564 C 218.185 187.275,217.600 188.043,217.600 188.270 C 217.600 189.348,204.583 200.385,203.300 200.396 C 203.025 200.398,202.800 200.584,202.800 200.809 C 202.800 201.033,202.305 201.436,201.700 201.704 C 201.095 201.972,200.362 202.418,200.071 202.695 C 199.781 202.973,199.301 203.200,199.005 203.200 C 198.709 203.200,198.407 203.342,198.333 203.515 C 197.839 204.683,184.872 210.381,183.458 210.052 C 183.270 210.008,182.860 210.184,182.548 210.443 C 182.236 210.702,181.871 210.805,181.738 210.671 C 181.604 210.537,181.131 210.623,180.687 210.861 C 177.589 212.518,121.955 213.322,122.587 211.700 C 122.738 211.315,123.779 208.210,124.902 204.800 C 126.025 201.390,127.046 198.510,127.172 198.400 C 127.297 198.290,127.455 197.840,127.521 197.400 C 127.683 196.336,128.767 192.899,129.414 191.400 C 130.095 189.822,132.400 182.830,132.400 182.342 C 132.400 182.133,132.767 181.205,133.215 180.281 C 133.664 179.356,134.132 177.970,134.255 177.200 C 134.379 176.430,134.622 175.710,134.796 175.600 C 135.226 175.327,135.976 172.509,135.694 172.227 C 135.569 172.102,135.687 172.000,135.957 172.000 C 136.227 172.000,136.331 171.812,136.189 171.582 C 136.047 171.353,136.149 170.903,136.415 170.582 C 136.680 170.262,136.782 170.000,136.640 170.000 C 136.498 170.000,136.625 169.595,136.922 169.100 C 137.219 168.605,140.148 160.100,143.431 150.200 C 146.714 140.300,149.490 132.110,149.600 132.000 C 149.710 131.890,149.860 131.350,149.933 130.800 C 150.006 130.250,150.476 128.810,150.978 127.600 C 151.479 126.390,152.486 123.510,153.216 121.200 C 153.946 118.890,154.736 116.747,154.971 116.439 C 155.207 116.130,155.378 115.770,155.351 115.639 C 155.324 115.507,155.369 115.220,155.451 115.000 C 155.532 114.780,158.566 105.690,162.192 94.800 C 165.818 83.910,168.964 74.694,169.183 74.320 C 169.402 73.946,169.683 73.062,169.808 72.354 C 169.933 71.646,170.157 70.872,170.306 70.634 C 170.455 70.395,170.614 69.961,170.658 69.669 C 170.702 69.377,170.872 68.837,171.035 68.469 C 171.198 68.101,171.369 67.665,171.415 67.500 C 171.462 67.335,171.536 67.155,171.581 67.100 C 171.625 67.045,171.735 66.730,171.825 66.400 C 171.915 66.070,172.812 63.460,173.819 60.600 C 176.357 53.395,176.797 52.000,176.532 52.000 C 176.405 52.000,176.483 51.775,176.705 51.500 C 176.927 51.225,178.865 45.690,181.012 39.200 C 183.159 32.710,185.497 25.780,186.207 23.800 C 186.918 21.820,187.868 19.030,188.318 17.600 C 188.768 16.170,189.360 14.460,189.635 13.800 C 189.909 13.140,190.171 12.465,190.216 12.300 C 190.262 12.135,190.345 11.910,190.400 11.800 C 190.455 11.690,190.545 11.420,190.600 11.200 C 190.655 10.980,190.745 10.710,190.800 10.600 C 190.855 10.490,190.945 10.220,191.000 10.000 C 191.055 9.780,191.123 9.510,191.150 9.400 C 191.275 8.900,284.000 9.202,284.000 9.703 M390.000 110.617 L 390.000 212.033 353.100 211.917 C 330.944 211.847,315.966 211.650,315.615 211.424 C 315.293 211.217,314.401 210.983,313.632 210.904 C 312.863 210.825,312.002 210.567,311.717 210.331 C 311.433 210.095,311.200 210.036,311.200 210.200 C 311.200 210.364,310.930 210.274,310.600 210.000 C 310.270 209.726,310.000 209.605,310.000 209.731 C 310.000 210.010,307.838 209.137,304.500 207.509 C 303.125 206.839,302.000 206.135,302.000 205.945 C 302.000 205.755,301.749 205.600,301.443 205.600 C 301.136 205.600,300.782 205.330,300.655 205.000 C 300.529 204.670,300.209 204.400,299.944 204.400 C 299.374 204.400,296.245 201.215,295.879 200.263 C 295.740 199.898,295.439 199.600,295.213 199.600 C 294.986 199.600,294.800 199.407,294.800 199.172 C 294.800 198.937,294.291 197.992,293.669 197.072 C 293.046 196.152,292.217 194.590,291.826 193.600 C 291.435 192.610,290.930 191.350,290.704 190.800 C 290.477 190.250,290.241 189.440,290.178 189.000 C 290.114 188.560,289.846 187.030,289.581 185.600 C 288.787 181.309,288.687 179.558,289.152 178.042 C 289.395 177.249,289.655 175.598,289.729 174.373 C 289.802 173.148,290.000 171.924,290.167 171.654 C 290.334 171.383,290.371 170.900,290.248 170.581 C 290.125 170.261,290.165 170.000,290.337 170.000 C 290.508 170.000,290.886 169.055,291.177 167.900 C 291.650 166.018,300.026 140.673,300.662 139.200 C 300.804 138.870,300.970 138.361,301.030 138.069 C 301.089 137.777,301.269 137.237,301.430 136.869 C 301.590 136.501,301.766 135.986,301.822 135.724 C 302.034 134.719,302.917 132.182,303.187 131.800 C 303.343 131.580,304.144 129.240,304.968 126.600 C 305.792 123.960,306.702 121.260,306.990 120.600 C 307.778 118.796,308.376 117.094,308.536 116.200 C 308.615 115.760,308.797 115.130,308.939 114.800 C 309.082 114.470,311.910 106.106,315.222 96.213 C 318.535 86.321,321.431 78.004,321.657 77.731 C 321.884 77.458,321.953 77.047,321.811 76.818 C 321.669 76.588,321.698 76.400,321.876 76.400 C 322.054 76.400,322.228 75.910,322.263 75.312 C 322.298 74.714,322.524 74.159,322.766 74.078 C 323.007 73.998,323.103 73.767,322.979 73.566 C 322.855 73.365,322.893 72.975,323.065 72.700 C 323.237 72.425,323.414 71.961,323.458 71.669 C 323.502 71.377,323.669 70.837,323.829 70.469 C 323.989 70.101,324.183 69.475,324.261 69.079 C 324.338 68.682,324.649 67.872,324.952 67.279 C 325.255 66.685,328.499 57.200,332.162 46.200 C 335.825 35.200,338.984 25.840,339.182 25.400 C 339.380 24.960,340.209 22.530,341.024 20.000 C 341.840 17.470,342.685 15.175,342.903 14.900 C 343.120 14.625,343.164 14.400,343.000 14.400 C 342.836 14.400,342.893 14.169,343.127 13.888 C 343.361 13.606,343.636 12.931,343.737 12.388 C 344.065 10.635,344.193 10.240,344.600 9.731 C 344.911 9.341,349.985 9.227,367.500 9.215 L 390.000 9.200 390.000 110.617 M238.292 239.428 C 238.783 240.293,239.312 241.270,239.469 241.600 C 244.334 251.831,258.179 262.708,272.096 267.231 C 274.793 268.108,277.270 268.931,277.600 269.060 C 277.930 269.190,278.650 269.355,279.200 269.427 C 279.750 269.499,282.090 269.936,284.400 270.398 C 286.710 270.860,289.320 271.302,290.200 271.380 C 291.080 271.458,292.790 271.636,294.000 271.775 C 295.210 271.914,317.256 272.122,342.991 272.238 C 368.727 272.354,389.830 272.497,389.889 272.555 C 389.947 272.614,389.998 299.198,390.003 331.631 L 390.011 390.600 225.805 390.700 C 125.352 390.762,61.600 390.657,61.600 390.431 C 61.600 390.227,62.244 388.202,63.030 385.930 C 63.817 383.659,65.891 377.570,67.639 372.400 C 69.387 367.230,70.981 362.640,71.180 362.200 C 71.380 361.760,71.850 360.410,72.224 359.200 C 72.599 357.990,73.060 356.803,73.249 356.563 C 73.438 356.323,73.475 356.008,73.330 355.863 C 73.185 355.718,73.287 355.600,73.557 355.600 C 73.827 355.600,73.939 355.425,73.807 355.211 C 73.674 354.997,74.006 353.692,74.544 352.311 C 75.082 350.930,75.743 349.080,76.013 348.200 C 76.283 347.320,76.706 346.347,76.952 346.039 C 77.198 345.730,77.377 345.370,77.348 345.239 C 77.319 345.107,77.456 344.580,77.651 344.066 C 77.846 343.553,77.913 342.983,77.800 342.801 C 77.687 342.618,77.732 342.408,77.899 342.334 C 78.067 342.260,78.625 340.940,79.140 339.400 C 79.654 337.860,80.175 336.330,80.296 336.000 C 80.418 335.670,81.195 333.420,82.024 331.000 C 83.326 327.199,85.180 321.801,89.786 308.400 C 90.353 306.750,90.915 305.130,91.034 304.800 C 91.154 304.470,91.265 304.110,91.282 304.000 C 91.346 303.572,92.820 299.357,93.170 298.600 C 93.633 297.599,95.043 293.300,95.854 290.417 C 96.192 289.217,96.803 287.578,97.213 286.775 C 97.622 285.973,98.042 284.795,98.146 284.158 C 98.249 283.521,98.372 282.955,98.417 282.900 C 98.463 282.845,98.525 282.665,98.556 282.500 C 98.587 282.335,98.720 282.020,98.852 281.800 C 98.984 281.580,99.761 279.375,100.579 276.900 L 102.066 272.400 125.133 272.342 C 157.494 272.260,161.261 272.101,170.723 270.413 C 180.496 268.670,195.374 264.340,196.980 262.771 C 197.189 262.567,197.629 262.400,197.958 262.400 C 198.660 262.400,211.567 256.046,212.299 255.340 C 212.574 255.075,213.519 254.541,214.399 254.152 C 215.280 253.764,216.000 253.339,216.000 253.207 C 216.000 253.076,216.990 252.451,218.200 251.818 C 219.410 251.185,220.400 250.517,220.400 250.333 C 220.400 250.150,220.670 250.000,221.000 250.000 C 221.330 250.000,221.600 249.820,221.600 249.600 C 221.600 249.380,221.876 249.200,222.213 249.200 C 222.549 249.200,222.929 248.930,223.055 248.600 C 223.182 248.270,223.536 248.000,223.843 248.000 C 224.149 248.000,224.400 247.820,224.400 247.600 C 224.400 247.380,224.630 247.200,224.911 247.200 C 225.192 247.200,225.704 246.885,226.049 246.500 C 226.393 246.115,227.085 245.530,227.585 245.200 C 230.208 243.469,231.600 242.351,231.600 241.974 C 231.600 241.742,231.771 241.658,231.980 241.788 C 232.189 241.917,232.763 241.477,233.255 240.811 C 233.748 240.145,234.382 239.600,234.666 239.600 C 234.950 239.600,235.481 239.143,235.846 238.585 C 236.689 237.299,237.179 237.468,238.292 239.428 " stroke="none" fill="#f9f9f9" fill-rule="evenodd"></path><path id="path1" d="M9.901 185.638 C 9.845 282.679,9.937 362.161,10.105 362.265 C 10.272 362.368,10.520 361.901,10.655 361.227 C 10.790 360.552,11.068 360.000,11.274 360.000 C 11.479 360.000,11.550 359.843,11.432 359.651 C 11.313 359.459,12.477 355.634,14.019 351.151 C 15.561 346.668,16.863 342.820,16.911 342.600 C 16.960 342.380,17.117 342.110,17.260 342.000 C 17.403 341.890,17.632 341.094,17.769 340.230 C 17.906 339.367,18.216 338.422,18.458 338.130 C 18.700 337.839,18.764 337.600,18.600 337.600 C 18.436 337.600,18.489 337.375,18.717 337.100 C 18.945 336.825,19.169 336.420,19.214 336.200 C 19.259 335.980,19.433 335.440,19.600 335.000 C 20.224 333.356,31.330 300.384,33.072 295.000 C 34.069 291.920,35.044 289.203,35.239 288.963 C 35.434 288.723,35.475 288.408,35.330 288.263 C 35.185 288.118,35.287 288.000,35.557 288.000 C 35.827 288.000,35.936 287.820,35.800 287.600 C 35.664 287.380,35.693 286.975,35.865 286.700 C 36.036 286.425,36.231 285.854,36.296 285.431 C 36.362 285.009,36.567 284.469,36.752 284.231 C 36.937 283.994,37.659 282.000,38.357 279.800 C 39.054 277.600,39.806 275.478,40.026 275.084 C 40.247 274.690,40.320 274.195,40.190 273.984 C 40.060 273.773,40.109 273.600,40.301 273.600 C 40.605 273.600,41.908 269.879,42.139 268.351 C 42.185 268.048,42.347 267.602,42.498 267.359 C 42.774 266.919,47.579 252.793,51.056 242.200 C 52.067 239.120,53.006 236.420,53.141 236.200 C 53.277 235.980,53.413 235.665,53.444 235.500 C 53.475 235.335,53.536 235.155,53.580 235.100 C 53.624 235.045,53.736 234.591,53.829 234.090 C 53.922 233.590,54.428 232.150,54.953 230.890 C 55.478 229.631,56.037 227.997,56.195 227.259 C 56.352 226.522,56.903 224.992,57.418 223.859 C 57.934 222.727,58.427 221.350,58.515 220.800 C 58.603 220.250,58.860 219.350,59.087 218.800 C 59.314 218.250,62.069 210.150,65.210 200.800 C 68.350 191.450,71.098 183.350,71.316 182.800 C 71.535 182.250,71.762 181.530,71.823 181.200 C 72.046 179.976,74.967 171.793,75.252 171.593 C 75.415 171.478,75.635 170.848,75.741 170.193 C 75.847 169.537,75.963 169.000,75.998 169.000 C 76.033 169.000,76.124 168.671,76.200 168.269 C 76.276 167.867,76.472 167.237,76.635 166.869 C 76.798 166.501,76.962 166.110,77.000 166.000 C 77.038 165.890,77.190 165.530,77.338 165.200 C 77.486 164.870,78.392 162.260,79.350 159.400 C 84.934 142.745,86.383 138.479,86.828 137.400 C 87.100 136.740,87.363 136.020,87.413 135.800 C 87.619 134.885,89.291 129.830,91.184 124.400 C 92.297 121.210,93.255 118.420,93.315 118.200 C 93.374 117.980,93.545 117.605,93.694 117.366 C 93.843 117.128,94.072 116.326,94.203 115.584 C 94.333 114.843,94.696 113.688,95.008 113.018 C 95.321 112.348,96.272 109.730,97.122 107.200 C 97.972 104.670,101.420 94.410,104.785 84.400 C 108.149 74.390,111.054 66.006,111.242 65.770 C 111.429 65.533,111.694 64.633,111.831 63.770 C 111.968 62.906,112.197 62.110,112.340 62.000 C 112.483 61.890,112.675 61.530,112.768 61.200 C 113.476 58.663,115.189 53.754,116.047 51.800 C 116.240 51.360,116.461 50.640,116.538 50.200 C 116.615 49.760,116.860 48.950,117.083 48.400 C 117.306 47.850,119.660 40.920,122.315 33.000 C 124.969 25.080,127.362 18.060,127.633 17.400 C 127.904 16.740,128.199 15.753,128.289 15.207 C 128.379 14.662,128.665 14.079,128.926 13.914 C 129.187 13.748,129.229 13.609,129.020 13.606 C 128.811 13.603,128.842 13.398,129.089 13.151 C 129.336 12.904,129.442 12.454,129.326 12.151 C 129.210 11.848,129.269 11.600,129.457 11.599 C 129.646 11.599,129.838 11.059,129.884 10.399 L 129.968 9.200 69.985 9.200 L 10.002 9.200 9.901 185.638 M191.150 9.400 C 191.123 9.510,191.055 9.780,191.000 10.000 C 190.945 10.220,190.855 10.490,190.800 10.600 C 190.745 10.710,190.655 10.980,190.600 11.200 C 190.545 11.420,190.455 11.690,190.400 11.800 C 190.345 11.910,190.262 12.135,190.216 12.300 C 190.171 12.465,189.909 13.140,189.635 13.800 C 189.360 14.460,188.768 16.170,188.318 17.600 C 187.868 19.030,186.918 21.820,186.207 23.800 C 185.497 25.780,183.159 32.710,181.012 39.200 C 178.865 45.690,176.927 51.225,176.705 51.500 C 176.483 51.775,176.405 52.000,176.532 52.000 C 176.797 52.000,176.357 53.395,173.819 60.600 C 172.812 63.460,171.915 66.070,171.825 66.400 C 171.735 66.730,171.625 67.045,171.581 67.100 C 171.536 67.155,171.462 67.335,171.415 67.500 C 171.369 67.665,171.198 68.101,171.035 68.469 C 170.872 68.837,170.702 69.377,170.658 69.669 C 170.614 69.961,170.455 70.395,170.306 70.634 C 170.157 70.872,169.933 71.646,169.808 72.354 C 169.683 73.062,169.402 73.946,169.183 74.320 C 168.964 74.694,165.818 83.910,162.192 94.800 C 158.566 105.690,155.532 114.780,155.451 115.000 C 155.369 115.220,155.324 115.507,155.351 115.639 C 155.378 115.770,155.207 116.130,154.971 116.439 C 154.736 116.747,153.946 118.890,153.216 121.200 C 152.486 123.510,151.479 126.390,150.978 127.600 C 150.476 128.810,150.006 130.250,149.933 130.800 C 149.860 131.350,149.710 131.890,149.600 132.000 C 149.490 132.110,146.714 140.300,143.431 150.200 C 140.148 160.100,137.219 168.605,136.922 169.100 C 136.625 169.595,136.498 170.000,136.640 170.000 C 136.782 170.000,136.680 170.262,136.415 170.582 C 136.149 170.903,136.047 171.353,136.189 171.582 C 136.331 171.812,136.227 172.000,135.957 172.000 C 135.687 172.000,135.569 172.102,135.694 172.227 C 135.976 172.509,135.226 175.327,134.796 175.600 C 134.622 175.710,134.379 176.430,134.255 177.200 C 134.132 177.970,133.664 179.356,133.215 180.281 C 132.767 181.205,132.400 182.133,132.400 182.342 C 132.400 182.830,130.095 189.822,129.414 191.400 C 128.767 192.899,127.683 196.336,127.521 197.400 C 127.455 197.840,127.297 198.290,127.172 198.400 C 127.046 198.510,126.025 201.390,124.902 204.800 C 123.779 208.210,122.738 211.315,122.587 211.700 C 121.955 213.322,177.589 212.518,180.687 210.861 C 181.131 210.623,181.604 210.537,181.738 210.671 C 181.871 210.805,182.236 210.702,182.548 210.443 C 182.860 210.184,183.270 210.008,183.458 210.052 C 184.872 210.381,197.839 204.683,198.333 203.515 C 198.407 203.342,198.709 203.200,199.005 203.200 C 199.301 203.200,199.781 202.973,200.071 202.695 C 200.362 202.418,201.095 201.972,201.700 201.704 C 202.305 201.436,202.800 201.033,202.800 200.809 C 202.800 200.584,203.025 200.398,203.300 200.396 C 204.583 200.385,217.600 189.348,217.600 188.270 C 217.600 188.043,218.185 187.275,218.900 186.564 C 221.414 184.063,222.000 183.367,222.000 182.886 C 222.000 182.619,222.180 182.400,222.400 182.400 C 222.620 182.400,222.800 182.149,222.800 181.843 C 222.800 181.536,223.030 181.197,223.312 181.089 C 223.594 180.981,224.179 180.197,224.612 179.346 C 225.045 178.496,225.507 177.710,225.638 177.600 C 227.337 176.174,230.880 167.215,237.186 148.400 C 240.098 139.710,242.665 132.375,242.889 132.100 C 243.114 131.825,243.164 131.600,243.000 131.600 C 242.836 131.600,242.926 131.330,243.200 131.000 C 243.474 130.670,243.550 130.400,243.369 130.400 C 243.188 130.400,243.242 130.198,243.489 129.951 C 243.736 129.704,243.842 129.254,243.726 128.951 C 243.610 128.648,243.674 128.400,243.870 128.400 C 244.066 128.400,244.266 127.915,244.315 127.322 C 244.364 126.730,244.538 126.145,244.702 126.022 C 245.003 125.797,245.129 125.400,245.463 123.612 C 245.564 123.069,245.787 122.439,245.957 122.212 C 246.128 121.986,246.677 120.540,247.178 119.000 C 247.678 117.460,249.049 113.481,250.222 110.159 C 251.396 106.836,252.428 103.686,252.516 103.159 C 252.603 102.631,252.901 101.660,253.178 101.000 C 253.619 99.946,255.908 93.191,262.259 74.200 C 263.215 71.340,264.083 68.773,264.188 68.496 C 264.293 68.218,264.338 67.931,264.289 67.857 C 264.240 67.783,264.447 67.425,264.749 67.061 C 265.051 66.698,265.164 66.400,265.000 66.400 C 264.836 66.400,264.900 66.161,265.142 65.870 C 265.384 65.578,265.694 64.633,265.831 63.770 C 265.968 62.906,266.257 62.090,266.474 61.955 C 266.691 61.821,266.858 61.598,266.845 61.459 C 266.832 61.321,266.903 60.982,267.001 60.704 C 267.511 59.270,275.079 36.632,276.665 31.800 C 277.675 28.720,278.614 26.110,278.751 26.000 C 278.993 25.806,279.113 25.422,279.428 23.834 C 279.713 22.394,280.905 19.001,281.302 18.500 C 281.520 18.225,281.596 18.000,281.470 18.000 C 281.345 18.000,281.696 16.785,282.251 15.300 C 283.500 11.953,284.000 10.353,284.000 9.703 C 284.000 9.202,191.275 8.900,191.150 9.400 M344.600 9.731 C 344.193 10.240,344.065 10.635,343.737 12.388 C 343.636 12.931,343.361 13.606,343.127 13.888 C 342.893 14.169,342.836 14.400,343.000 14.400 C 343.164 14.400,343.120 14.625,342.903 14.900 C 342.685 15.175,341.840 17.470,341.024 20.000 C 340.209 22.530,339.380 24.960,339.182 25.400 C 338.984 25.840,335.825 35.200,332.162 46.200 C 328.499 57.200,325.255 66.685,324.952 67.279 C 324.649 67.872,324.338 68.682,324.261 69.079 C 324.183 69.475,323.989 70.101,323.829 70.469 C 323.669 70.837,323.502 71.377,323.458 71.669 C 323.414 71.961,323.237 72.425,323.065 72.700 C 322.893 72.975,322.855 73.365,322.979 73.566 C 323.103 73.767,323.007 73.998,322.766 74.078 C 322.524 74.159,322.298 74.714,322.263 75.312 C 322.228 75.910,322.054 76.400,321.876 76.400 C 321.698 76.400,321.669 76.588,321.811 76.818 C 321.953 77.047,321.884 77.458,321.657 77.731 C 321.431 78.004,318.535 86.321,315.222 96.213 C 311.910 106.106,309.082 114.470,308.939 114.800 C 308.797 115.130,308.615 115.760,308.536 116.200 C 308.376 117.094,307.778 118.796,306.990 120.600 C 306.702 121.260,305.792 123.960,304.968 126.600 C 304.144 129.240,303.343 131.580,303.187 131.800 C 302.917 132.182,302.034 134.719,301.822 135.724 C 301.766 135.986,301.590 136.501,301.430 136.869 C 301.269 137.237,301.089 137.777,301.030 138.069 C 300.970 138.361,300.804 138.870,300.662 139.200 C 300.026 140.673,291.650 166.018,291.177 167.900 C 290.886 169.055,290.508 170.000,290.337 170.000 C 290.165 170.000,290.125 170.261,290.248 170.581 C 290.371 170.900,290.334 171.383,290.167 171.654 C 290.000 171.924,289.802 173.148,289.729 174.373 C 289.655 175.598,289.395 177.249,289.152 178.042 C 288.687 179.558,288.787 181.309,289.581 185.600 C 289.846 187.030,290.114 188.560,290.178 189.000 C 290.241 189.440,290.477 190.250,290.704 190.800 C 290.930 191.350,291.435 192.610,291.826 193.600 C 292.217 194.590,293.046 196.152,293.669 197.072 C 294.291 197.992,294.800 198.937,294.800 199.172 C 294.800 199.407,294.986 199.600,295.213 199.600 C 295.439 199.600,295.740 199.898,295.879 200.263 C 296.245 201.215,299.374 204.400,299.944 204.400 C 300.209 204.400,300.529 204.670,300.655 205.000 C 300.782 205.330,301.136 205.600,301.443 205.600 C 301.749 205.600,302.000 205.755,302.000 205.945 C 302.000 206.135,303.125 206.839,304.500 207.509 C 307.838 209.137,310.000 210.010,310.000 209.731 C 310.000 209.605,310.270 209.726,310.600 210.000 C 310.930 210.274,311.200 210.364,311.200 210.200 C 311.200 210.036,311.433 210.095,311.717 210.331 C 312.002 210.567,312.863 210.825,313.632 210.904 C 314.401 210.983,315.293 211.217,315.615 211.424 C 315.966 211.650,330.944 211.847,353.100 211.917 L 390.000 212.033 390.000 110.617 L 390.000 9.200 367.500 9.215 C 349.985 9.227,344.911 9.341,344.600 9.731 M235.846 238.585 C 235.481 239.143,234.950 239.600,234.666 239.600 C 234.382 239.600,233.748 240.145,233.255 240.811 C 232.763 241.477,232.189 241.917,231.980 241.788 C 231.771 241.658,231.600 241.742,231.600 241.974 C 231.600 242.351,230.208 243.469,227.585 245.200 C 227.085 245.530,226.393 246.115,226.049 246.500 C 225.704 246.885,225.192 247.200,224.911 247.200 C 224.630 247.200,224.400 247.380,224.400 247.600 C 224.400 247.820,224.149 248.000,223.843 248.000 C 223.536 248.000,223.182 248.270,223.055 248.600 C 222.929 248.930,222.549 249.200,222.213 249.200 C 221.876 249.200,221.600 249.380,221.600 249.600 C 221.600 249.820,221.330 250.000,221.000 250.000 C 220.670 250.000,220.400 250.150,220.400 250.333 C 220.400 250.517,219.410 251.185,218.200 251.818 C 216.990 252.451,216.000 253.076,216.000 253.207 C 216.000 253.339,215.280 253.764,214.399 254.152 C 213.519 254.541,212.574 255.075,212.299 255.340 C 211.567 256.046,198.660 262.400,197.958 262.400 C 197.629 262.400,197.189 262.567,196.980 262.771 C 196.011 263.718,184.547 267.458,177.923 268.988 C 164.997 271.975,160.630 272.253,125.133 272.342 L 102.066 272.400 100.579 276.900 C 99.761 279.375,98.984 281.580,98.852 281.800 C 98.720 282.020,98.587 282.335,98.556 282.500 C 98.525 282.665,98.463 282.845,98.417 282.900 C 98.372 282.955,98.249 283.521,98.146 284.158 C 98.042 284.795,97.622 285.973,97.213 286.775 C 96.803 287.578,96.192 289.217,95.854 290.417 C 95.043 293.300,93.633 297.599,93.170 298.600 C 92.820 299.357,91.346 303.572,91.282 304.000 C 91.265 304.110,91.154 304.470,91.034 304.800 C 90.915 305.130,90.353 306.750,89.786 308.400 C 85.180 321.801,83.326 327.199,82.024 331.000 C 81.195 333.420,80.418 335.670,80.296 336.000 C 80.175 336.330,79.654 337.860,79.140 339.400 C 78.625 340.940,78.067 342.260,77.899 342.334 C 77.732 342.408,77.687 342.618,77.800 342.801 C 77.913 342.983,77.846 343.553,77.651 344.066 C 77.456 344.580,77.319 345.107,77.348 345.239 C 77.377 345.370,77.198 345.730,76.952 346.039 C 76.706 346.347,76.283 347.320,76.013 348.200 C 75.743 349.080,75.082 350.930,74.544 352.311 C 74.006 353.692,73.674 354.997,73.807 355.211 C 73.939 355.425,73.827 355.600,73.557 355.600 C 73.287 355.600,73.185 355.718,73.330 355.863 C 73.475 356.008,73.438 356.323,73.249 356.563 C 73.060 356.803,72.599 357.990,72.224 359.200 C 71.850 360.410,71.380 361.760,71.180 362.200 C 70.981 362.640,69.387 367.230,67.639 372.400 C 65.891 377.570,63.817 383.659,63.030 385.930 C 62.244 388.202,61.600 390.227,61.600 390.431 C 61.600 390.657,125.352 390.762,225.805 390.700 L 390.011 390.600 390.003 331.631 C 389.998 299.198,389.947 272.614,389.889 272.555 C 389.830 272.497,368.727 272.354,342.991 272.238 C 317.256 272.122,295.210 271.914,294.000 271.775 C 292.790 271.636,291.080 271.458,290.200 271.380 C 289.320 271.302,286.710 270.860,284.400 270.398 C 282.090 269.936,279.750 269.499,279.200 269.427 C 278.650 269.355,277.930 269.190,277.600 269.060 C 277.270 268.931,274.793 268.108,272.096 267.231 C 258.179 262.708,244.334 251.831,239.469 241.600 C 237.662 237.798,236.821 237.098,235.846 238.585 " stroke="none" fill="#040404" fill-rule="evenodd"></path></g></svg>