<svg id="svg" xmlns="http://www.w3.org/2000/svg" xmlns:xlink="http://www.w3.org/1999/xlink" width="400" height="210" viewBox="0, 0, 400,210"><g id="svgg"><path id="path0" d="M210.000 0.656 C 210.000 1.105,209.841 1.251,209.496 1.119 C 208.903 0.892,208.000 1.549,208.000 2.207 C 208.000 2.460,207.700 2.967,207.333 3.333 C 206.967 3.700,206.667 4.307,206.667 4.682 C 206.667 5.094,206.267 5.590,205.659 5.932 C 205.105 6.244,204.401 7.063,204.095 7.750 C 203.745 8.537,203.312 9.000,202.928 9.000 C 202.592 9.000,202.182 9.355,202.017 9.788 C 201.853 10.221,201.472 10.670,201.171 10.786 C 200.870 10.901,200.719 11.148,200.834 11.335 C 200.952 11.525,200.595 11.764,200.022 11.879 C 199.361 12.011,199.000 12.284,199.000 12.652 C 199.000 12.965,198.588 13.413,198.083 13.649 C 196.304 14.481,196.168 14.594,196.272 15.160 C 196.330 15.475,196.124 16.012,195.815 16.354 C 195.128 17.112,195.402 18.000,196.323 18.000 C 196.695 18.000,197.000 18.160,197.000 18.356 C 197.000 18.555,196.718 18.622,196.361 18.509 C 195.529 18.245,195.204 18.802,195.714 19.618 C 196.043 20.146,196.015 20.366,195.559 20.822 C 195.251 21.130,195.000 21.586,195.000 21.837 C 195.000 22.528,194.367 22.776,193.802 22.307 C 193.384 21.961,193.268 22.012,193.111 22.612 C 193.007 23.009,192.715 23.333,192.461 23.333 C 192.208 23.333,191.981 23.483,191.958 23.667 C 191.935 23.850,191.898 24.137,191.875 24.306 C 191.852 24.474,191.721 24.724,191.583 24.861 C 191.110 25.335,191.335 26.311,192.000 26.667 C 192.851 27.122,192.860 27.667,192.017 27.667 C 191.659 27.667,191.214 27.929,191.027 28.250 C 190.715 28.786,190.686 28.778,190.677 28.164 C 190.666 27.434,189.501 26.523,188.986 26.842 C 188.811 26.950,188.667 27.264,188.667 27.539 C 188.667 27.814,188.520 27.949,188.340 27.838 C 187.405 27.259,185.667 29.636,185.667 31.493 C 185.667 32.092,185.228 32.820,184.333 33.706 C 183.600 34.432,183.000 35.245,183.000 35.513 C 183.000 35.781,182.775 36.000,182.500 36.000 C 182.202 36.000,182.000 36.307,182.000 36.760 C 182.000 37.299,181.708 37.631,181.000 37.898 C 180.107 38.235,180.000 38.426,180.000 39.679 C 180.000 41.080,179.998 41.083,178.936 40.871 C 177.374 40.558,175.143 43.098,176.333 43.833 C 176.934 44.204,176.748 46.436,176.136 46.201 C 175.845 46.089,175.207 46.266,174.720 46.594 C 173.794 47.217,172.596 47.801,171.554 48.137 C 171.045 48.301,170.978 48.552,171.159 49.623 C 171.342 50.705,171.278 50.937,170.756 51.073 C 170.092 51.247,169.346 53.215,169.316 54.872 L 169.298 55.833 168.775 55.083 C 168.439 54.602,167.910 54.333,167.298 54.333 L 166.344 54.333 166.535 56.250 C 166.760 58.506,166.181 60.183,164.969 60.785 C 164.023 61.255,163.711 62.577,164.477 62.870 C 165.229 63.159,165.122 64.000,164.333 64.000 C 163.923 64.000,163.665 63.776,163.662 63.417 C 163.645 61.488,161.674 61.770,160.816 63.823 C 160.006 65.762,160.437 68.000,161.620 68.000 C 161.829 68.000,162.000 68.150,162.000 68.333 C 162.000 68.517,161.787 68.667,161.528 68.667 C 161.268 68.667,160.987 68.854,160.904 69.083 C 160.783 69.416,160.627 69.416,160.126 69.081 C 158.956 68.299,158.623 68.244,157.777 68.697 C 157.051 69.085,156.955 69.320,157.095 70.365 C 157.285 71.780,157.087 72.210,156.167 72.378 C 155.718 72.460,154.984 73.480,153.920 75.500 C 150.249 82.469,150.079 83.852,152.503 87.039 C 153.329 88.126,154.553 89.794,155.222 90.745 C 157.720 94.299,166.255 102.844,167.555 103.092 C 169.100 103.387,170.571 102.969,171.538 101.960 C 172.044 101.432,172.617 101.000,172.812 101.000 C 173.007 101.000,173.842 100.352,174.667 99.559 C 175.492 98.767,176.842 97.650,177.667 97.076 C 178.492 96.503,179.511 95.660,179.932 95.204 C 180.352 94.748,181.970 93.536,183.527 92.511 C 185.083 91.486,186.518 90.292,186.716 89.858 C 186.920 89.410,187.466 88.990,187.977 88.888 C 188.472 88.789,189.505 88.099,190.272 87.354 C 191.040 86.609,191.825 86.000,192.018 86.000 C 192.210 86.000,192.518 85.569,192.702 85.043 C 192.906 84.457,193.513 83.843,194.268 83.460 C 194.945 83.115,197.256 81.521,199.402 79.917 C 201.549 78.313,203.433 77.000,203.590 77.000 C 203.747 77.000,204.306 76.550,204.833 76.000 C 205.360 75.450,206.002 75.000,206.260 75.000 C 206.517 75.000,207.122 74.691,207.602 74.312 C 208.637 73.499,209.338 74.356,208.460 75.360 C 208.207 75.649,208.000 76.212,208.000 76.610 C 208.000 77.350,206.933 78.667,206.333 78.667 C 206.150 78.667,206.000 79.267,206.000 80.000 C 206.000 80.733,205.839 81.333,205.643 81.333 C 204.155 81.333,202.954 85.118,203.816 87.086 C 203.958 87.408,203.963 88.233,203.827 88.919 L 203.581 90.167 203.255 89.228 C 203.015 88.535,202.786 88.350,202.381 88.521 C 202.080 88.648,201.496 88.826,201.083 88.915 C 200.233 89.099,200.225 89.128,200.628 90.530 C 200.808 91.159,200.795 91.782,200.595 92.139 C 200.348 92.581,200.451 92.916,201.023 93.524 C 201.721 94.267,201.744 94.422,201.346 95.629 C 200.591 97.916,199.051 98.197,198.200 96.203 C 197.960 95.641,197.000 97.000,197.000 97.902 C 197.000 98.328,197.450 99.474,198.000 100.449 C 198.740 101.760,199.000 102.652,199.000 103.880 C 199.000 104.823,199.211 105.819,199.489 106.186 C 200.105 107.000,200.153 108.038,199.566 107.812 C 199.327 107.721,198.870 107.203,198.550 106.662 C 198.205 106.077,197.549 105.569,196.934 105.409 C 196.234 105.228,195.704 104.767,195.299 103.987 C 194.055 101.597,193.489 101.426,193.165 103.344 C 193.000 104.319,193.084 104.912,193.469 105.499 C 194.529 107.117,194.196 108.065,192.608 107.950 C 191.197 107.849,190.423 108.466,191.463 108.865 C 191.748 108.975,192.082 109.596,192.203 110.245 C 192.370 111.131,192.658 111.514,193.359 111.779 C 193.895 111.981,194.378 112.466,194.491 112.914 C 194.778 114.059,194.382 114.481,193.646 113.815 C 192.835 113.081,192.000 113.424,192.000 114.490 C 192.000 114.954,191.866 115.333,191.702 115.333 C 191.296 115.333,191.000 114.478,191.000 113.306 C 191.000 112.253,190.525 112.082,189.583 112.797 C 189.140 113.134,189.000 113.728,189.000 115.271 C 189.000 117.763,188.497 119.000,187.483 119.000 C 186.795 119.000,186.737 119.158,186.708 121.133 C 186.690 122.307,186.524 123.665,186.339 124.152 C 186.086 124.816,186.127 125.279,186.501 126.002 C 187.789 128.493,186.549 130.654,184.833 128.908 C 184.609 128.680,184.637 128.646,184.917 128.804 C 185.368 129.059,185.451 128.695,185.131 127.861 C 184.581 126.426,182.029 130.253,181.981 132.584 C 181.954 133.917,180.910 136.256,180.417 136.087 C 179.822 135.884,179.892 137.221,180.488 137.449 C 180.916 137.613,180.916 137.751,180.490 138.568 C 180.223 139.081,180.003 140.192,180.002 141.038 C 180.000 142.221,179.813 142.763,179.189 143.386 C 178.532 144.044,178.390 144.498,178.439 145.797 C 178.492 147.184,178.377 147.494,177.571 148.137 C 176.294 149.156,176.156 150.786,177.333 150.945 C 178.551 151.108,178.692 151.379,178.301 152.798 C 177.977 153.969,178.022 154.153,178.835 155.001 C 179.891 156.104,179.386 156.719,178.275 155.684 C 176.807 154.317,174.513 155.382,175.552 156.948 C 176.016 157.646,176.149 158.608,176.185 161.500 C 176.209 163.517,176.348 165.660,176.493 166.264 C 176.697 167.116,176.631 167.452,176.201 167.767 C 175.732 168.110,175.705 168.343,176.026 169.264 C 176.235 169.863,176.322 170.672,176.221 171.061 C 176.119 171.450,176.253 172.188,176.518 172.701 C 176.783 173.214,177.000 173.941,177.000 174.317 C 177.000 174.778,177.217 175.000,177.667 175.000 C 178.037 175.000,178.333 175.222,178.333 175.500 C 178.333 175.775,178.188 176.000,178.010 176.000 C 177.833 176.000,177.774 176.225,177.879 176.500 C 177.985 176.775,178.270 177.000,178.513 177.000 C 178.756 177.000,179.045 177.284,179.155 177.631 C 179.265 177.978,179.796 178.444,180.333 178.667 C 180.871 178.889,181.394 179.333,181.495 179.652 C 181.597 179.971,182.071 180.411,182.549 180.629 C 183.028 180.847,183.329 181.115,183.219 181.226 C 183.108 181.336,183.224 181.818,183.475 182.297 C 183.727 182.775,184.435 184.192,185.049 185.444 C 185.663 186.697,186.353 187.878,186.582 188.068 C 186.812 188.259,187.000 188.622,187.000 188.874 C 187.000 189.127,187.217 189.333,187.483 189.333 C 188.462 189.333,189.667 190.855,189.667 192.092 C 189.667 193.205,191.881 196.667,192.593 196.667 C 192.727 196.667,193.021 197.079,193.245 197.583 C 194.158 199.633,196.213 201.004,196.843 199.984 C 197.101 199.567,198.000 200.201,198.000 200.799 C 198.000 201.010,198.750 202.004,199.667 203.008 C 200.584 204.012,201.417 205.208,201.518 205.667 C 202.059 208.126,204.606 210.489,205.387 209.258 C 206.191 207.991,204.933 203.902,203.610 203.482 C 203.274 203.376,203.000 203.048,203.000 202.754 C 203.000 202.460,202.752 201.945,202.448 201.610 C 202.118 201.245,202.051 201.000,202.282 201.000 C 202.990 201.000,202.677 200.112,201.833 199.727 C 201.128 199.406,201.000 199.122,201.000 197.876 C 201.000 196.907,200.837 196.342,200.523 196.222 C 200.261 196.121,199.794 195.167,199.485 194.103 C 199.176 193.038,198.767 191.792,198.575 191.333 C 198.383 190.875,198.119 189.225,197.989 187.667 C 197.859 186.108,197.568 183.858,197.343 182.667 C 196.606 178.762,197.184 163.784,198.192 160.676 C 198.725 159.034,199.000 157.410,199.000 155.912 C 199.000 154.662,199.209 152.557,199.464 151.236 C 199.719 149.915,199.914 148.256,199.897 147.551 C 199.876 146.667,200.043 146.169,200.433 145.951 C 200.856 145.714,201.000 145.182,201.000 143.852 C 201.000 142.577,201.142 142.017,201.500 141.879 C 201.775 141.774,202.000 141.324,202.000 140.879 C 202.000 140.435,202.225 139.985,202.500 139.879 C 202.775 139.774,203.000 139.311,203.000 138.851 C 203.000 138.006,204.883 132.115,205.350 131.500 C 205.799 130.909,208.000 124.017,208.000 123.203 C 208.000 122.769,208.225 122.228,208.500 122.000 C 208.775 121.772,209.000 121.412,209.000 121.200 C 209.000 120.839,209.473 119.885,212.961 113.204 C 213.716 111.758,214.333 110.398,214.333 110.183 C 214.333 109.967,214.933 108.796,215.667 107.581 C 216.400 106.365,217.000 104.995,217.000 104.538 C 217.000 104.080,217.143 103.617,217.319 103.509 C 217.494 103.401,218.423 101.705,219.383 99.739 C 220.343 97.774,221.325 96.047,221.564 95.900 C 221.804 95.753,222.000 95.469,222.000 95.268 C 222.000 94.833,223.743 91.312,226.009 87.167 C 226.912 85.517,227.755 83.942,227.884 83.667 C 228.013 83.392,228.225 83.092,228.357 83.000 C 228.488 82.908,229.224 81.558,229.992 80.000 C 230.760 78.442,231.895 76.267,232.513 75.167 C 233.132 74.067,233.796 72.867,233.990 72.500 C 234.184 72.133,234.604 71.440,234.922 70.960 C 235.699 69.788,240.402 62.154,240.878 61.294 C 241.086 60.918,241.423 60.443,241.628 60.239 C 241.833 60.034,242.000 59.533,242.000 59.124 C 242.000 58.707,242.421 58.043,242.962 57.607 C 243.491 57.182,244.186 56.308,244.507 55.667 C 244.828 55.025,245.592 53.941,246.204 53.258 C 248.138 51.100,247.977 48.050,245.736 44.398 C 245.095 43.354,244.134 41.675,243.599 40.667 C 243.065 39.658,242.338 38.383,241.984 37.833 C 241.630 37.283,241.235 36.608,241.106 36.333 C 240.977 36.058,240.375 35.140,239.769 34.294 C 239.163 33.447,238.667 32.584,238.667 32.377 C 238.667 32.170,238.517 32.000,238.333 32.000 C 238.150 32.000,238.000 31.775,238.000 31.500 C 238.000 30.554,235.521 30.864,234.439 31.945 C 233.216 33.169,232.177 33.714,231.537 33.468 C 231.230 33.350,230.704 33.618,230.224 34.136 C 229.261 35.175,228.955 35.204,228.167 34.333 C 227.572 33.676,226.000 33.398,226.000 33.951 C 226.000 34.784,223.965 36.338,223.324 35.995 C 222.619 35.617,221.333 36.063,221.333 36.685 C 221.333 36.865,220.985 36.925,220.559 36.818 C 220.106 36.705,219.633 36.806,219.420 37.062 C 219.043 37.517,219.000 37.663,219.000 38.500 C 219.000 38.836,218.663 39.000,217.971 39.000 C 217.138 39.000,216.872 39.187,216.571 39.984 C 216.315 40.661,215.995 40.947,215.546 40.901 C 215.067 40.851,214.817 41.121,214.604 41.917 C 214.315 42.999,213.882 43.202,212.194 43.047 C 211.843 43.015,211.243 43.268,210.861 43.611 C 210.479 43.954,209.904 44.327,209.583 44.440 C 209.262 44.553,209.000 44.914,209.000 45.243 C 209.000 45.695,208.737 45.839,207.917 45.837 C 206.942 45.834,206.840 45.925,206.896 46.749 C 206.947 47.491,206.789 47.705,206.063 47.877 C 205.570 47.994,204.907 48.315,204.590 48.590 C 204.076 49.037,203.992 49.032,203.805 48.545 C 203.349 47.357,202.230 47.898,202.442 49.205 C 202.630 50.368,202.615 50.390,202.009 49.842 C 200.925 48.861,199.327 49.860,200.347 50.881 C 200.928 51.461,199.754 52.231,199.055 51.729 C 197.998 50.968,197.658 50.929,196.827 51.474 C 196.156 51.913,196.036 52.193,196.214 52.902 L 196.435 53.785 195.384 53.036 C 194.142 52.151,193.990 51.095,195.083 50.940 C 195.581 50.869,195.871 50.565,195.946 50.037 C 196.008 49.599,196.479 48.887,196.993 48.455 C 197.507 48.022,198.029 47.265,198.152 46.771 C 198.461 45.542,199.547 44.083,200.342 43.831 C 200.734 43.706,201.000 43.326,201.000 42.890 C 201.000 42.451,201.300 42.027,201.750 41.829 C 202.223 41.621,202.614 41.040,202.808 40.254 C 202.985 39.535,203.369 38.928,203.716 38.818 C 204.683 38.511,205.728 36.955,205.520 36.129 C 205.369 35.526,205.453 35.427,205.996 35.569 C 206.469 35.693,206.742 35.520,206.964 34.954 C 207.134 34.521,207.662 33.883,208.137 33.537 C 208.612 33.190,209.000 32.703,209.000 32.453 C 209.000 32.204,209.155 32.000,209.344 32.000 C 209.533 32.000,209.796 31.712,209.927 31.360 C 210.177 30.693,211.840 28.584,213.417 26.935 C 213.921 26.408,214.333 25.816,214.333 25.618 C 214.333 25.421,214.933 24.543,215.667 23.667 C 216.400 22.791,217.000 21.808,217.000 21.483 C 217.000 20.931,218.834 19.000,219.359 19.000 C 219.701 19.000,221.594 15.976,222.024 14.740 C 222.465 13.477,221.610 10.000,220.860 10.000 C 220.294 10.000,220.000 9.270,220.000 7.866 C 220.000 7.110,219.732 6.553,219.104 6.007 L 218.207 5.228 218.937 4.958 C 219.768 4.650,219.919 3.396,219.253 2.329 C 218.924 1.802,218.924 1.532,219.253 1.005 C 219.481 0.640,219.667 0.265,219.667 0.171 C 219.667 0.077,217.492 0.000,214.833 0.000 C 210.248 0.000,210.000 0.034,210.000 0.656 " stroke="none" fill="#000000" fill-rule="evenodd"></path></g></svg>