<svg id="svg" version="1.1" xmlns="http://www.w3.org/2000/svg" xmlns:xlink="http://www.w3.org/1999/xlink" width="400" height="400" viewBox="0, 0, 400,400"><g id="svgg"><path id="path0" d="M25.115 12.500 C 25.068 19.375,25.018 35.832,25.004 49.070 C 24.979 72.033,24.943 73.179,24.227 73.970 C 23.500 74.774,23.108 74.800,11.738 74.800 L 0.000 74.800 0.000 87.606 L 0.000 100.412 12.100 100.306 L 24.200 100.200 24.400 88.400 C 24.611 75.959,24.663 75.573,26.241 74.854 C 27.828 74.131,48.416 74.231,49.424 74.967 C 50.153 75.500,50.212 76.239,50.400 87.150 C 50.649 101.591,49.123 99.971,62.481 99.987 C 76.534 100.005,75.200 98.622,75.200 113.176 L 75.200 123.052 76.614 123.726 C 78.877 124.805,122.758 124.752,123.738 123.669 C 124.320 123.025,124.400 121.607,124.400 111.869 L 124.400 100.800 101.100 100.799 C 79.712 100.799,77.687 100.741,76.418 100.099 C 74.463 99.110,74.332 98.201,74.475 86.560 C 74.639 73.226,73.034 74.658,88.110 74.400 L 99.800 74.200 100.000 62.761 C 100.155 53.884,100.323 51.173,100.749 50.661 C 101.631 49.600,123.573 49.665,124.538 50.731 C 125.122 51.376,125.200 52.820,125.200 62.909 L 125.200 74.355 136.792 74.477 L 148.383 74.600 149.492 75.709 L 150.600 76.818 150.800 100.224 C 150.973 120.446,151.082 123.681,151.600 124.009 C 152.531 124.597,173.326 124.514,173.920 123.920 C 174.796 123.044,174.590 77.996,173.703 76.450 L 173.006 75.236 162.267 75.118 C 148.537 74.967,150.000 76.484,150.000 62.400 C 150.000 48.514,148.513 50.045,162.136 49.908 L 172.872 49.800 173.636 48.856 C 174.682 47.563,174.813 28.360,173.790 26.380 L 173.179 25.200 162.890 25.195 C 148.542 25.187,150.000 26.749,150.000 11.381 L 150.000 0.000 137.600 0.000 L 125.200 0.000 125.200 11.618 L 125.200 23.236 124.218 24.218 L 123.236 25.200 87.418 25.200 C 52.133 25.200,51.588 25.188,50.800 24.400 C 50.036 23.636,50.000 23.067,50.000 11.800 L 50.000 0.000 37.600 0.000 L 25.200 0.000 25.115 12.500 M250.012 11.333 C 250.055 26.733,251.494 25.187,237.110 25.195 L 226.821 25.200 226.210 26.380 C 225.580 27.599,225.281 45.770,225.856 47.916 C 226.362 49.803,227.565 50.000,238.571 50.000 C 251.345 50.000,249.955 48.487,250.019 62.458 C 250.084 76.576,251.518 75.200,236.750 75.200 C 227.283 75.200,226.800 75.236,226.800 75.951 C 226.800 76.364,226.530 76.926,226.200 77.200 C 225.399 77.865,225.282 123.122,226.080 123.920 C 226.779 124.619,247.574 124.601,248.529 123.900 C 249.157 123.439,249.210 121.633,249.211 100.873 C 249.212 77.197,249.250 76.652,250.999 75.200 C 251.596 74.704,253.721 74.579,263.261 74.477 L 274.800 74.355 274.800 62.839 C 274.800 52.191,274.855 51.274,275.531 50.662 C 276.371 49.902,298.033 49.654,299.200 50.391 C 299.703 50.709,299.832 52.658,300.000 62.485 L 300.200 74.200 311.800 74.409 C 324.196 74.633,324.485 74.675,325.182 76.358 C 326.149 78.692,325.557 98.622,324.489 99.690 L 323.578 100.600 299.589 100.712 L 275.600 100.824 275.600 111.950 C 275.600 122.221,275.656 123.127,276.331 123.738 C 277.442 124.743,321.359 124.749,323.320 123.744 C 325.224 122.769,325.187 123.007,325.194 111.564 L 325.200 100.928 326.219 100.464 C 326.905 100.152,330.594 99.996,337.519 99.987 C 350.862 99.971,349.350 101.535,349.603 87.483 C 349.714 81.278,349.959 75.883,350.147 75.497 C 350.672 74.414,351.438 74.354,363.126 74.481 L 374.047 74.600 374.814 75.600 C 375.529 76.531,375.583 77.380,375.591 87.867 C 375.596 94.064,375.709 99.419,375.843 99.767 C 376.057 100.325,377.508 100.400,388.043 100.400 L 400.000 100.400 400.000 87.600 L 400.000 74.800 388.262 74.800 C 377.398 74.800,376.475 74.746,375.862 74.069 C 375.266 73.410,375.200 71.483,375.200 54.734 C 375.200 44.503,375.081 28.002,374.935 18.066 L 374.670 0.000 362.335 0.000 L 350.000 0.000 350.000 11.977 C 350.000 23.901,349.996 23.957,349.111 24.577 C 348.322 25.130,344.169 25.200,312.340 25.200 L 276.458 25.200 275.629 24.146 C 274.834 23.135,274.800 22.621,274.800 11.546 L 274.800 0.000 262.390 -0.000 L 249.981 -0.000 250.012 11.333 M177.600 50.683 C 175.669 51.018,175.600 51.428,175.600 62.630 L 175.600 73.108 176.586 73.754 C 178.339 74.903,222.788 74.718,223.838 73.558 C 224.544 72.777,224.600 71.989,224.600 62.818 C 224.600 51.875,224.448 51.070,222.304 50.641 C 220.956 50.371,179.167 50.410,177.600 50.683 M25.467 125.467 C 25.320 125.613,25.200 130.395,25.200 136.093 C 25.200 150.827,24.208 149.761,38.066 149.919 C 46.625 150.017,48.654 150.148,49.426 150.654 L 50.365 151.269 50.482 162.449 C 50.581 171.864,50.695 173.690,51.200 174.009 C 51.537 174.222,56.446 174.394,62.400 174.403 C 72.224 174.417,73.073 174.474,74.000 175.186 L 75.000 175.953 75.118 186.770 L 75.237 197.587 76.556 198.594 L 77.876 199.600 112.484 199.600 L 147.092 199.600 148.246 198.714 C 148.881 198.226,149.532 197.641,149.694 197.414 C 150.552 196.206,150.019 176.859,149.111 176.223 C 148.331 175.677,145.379 175.600,125.093 175.600 L 101.964 175.600 100.982 174.618 L 100.000 173.636 100.000 163.095 C 100.000 149.490,101.572 151.048,87.597 150.800 L 76.329 150.600 75.365 149.478 L 74.400 148.355 74.400 138.125 C 74.400 128.459,74.354 127.820,73.567 126.547 L 72.735 125.200 49.234 125.200 C 36.309 125.200,25.613 125.320,25.467 125.467 M327.290 125.468 C 325.900 126.027,325.600 128.294,325.600 138.230 C 325.600 151.895,326.818 150.755,312.067 150.896 C 298.476 151.025,300.000 149.466,300.000 163.247 L 300.000 173.942 298.946 174.771 C 297.907 175.588,297.557 175.600,274.746 175.600 C 252.133 175.600,251.582 175.618,250.800 176.400 C 250.043 177.157,250.000 177.733,250.000 187.040 L 250.000 196.880 251.360 198.240 L 252.720 199.600 287.435 199.600 L 322.150 199.600 323.453 198.708 C 325.205 197.507,325.188 197.628,325.195 185.910 L 325.200 175.621 326.380 175.010 C 327.351 174.508,329.442 174.400,338.166 174.400 C 348.242 174.400,348.793 174.361,349.186 173.626 C 349.442 173.148,349.600 168.738,349.600 162.072 L 349.600 151.292 350.557 150.665 C 351.351 150.145,353.294 150.018,361.990 149.919 L 372.467 149.800 373.633 148.494 L 374.800 147.187 374.800 136.194 L 374.800 125.200 351.300 125.232 C 338.375 125.249,327.571 125.355,327.290 125.468 M0.000 162.600 L 0.000 174.400 11.426 174.400 C 18.538 174.400,23.145 174.244,23.626 173.986 C 24.361 173.593,24.400 173.043,24.400 163.056 C 24.400 149.348,25.955 150.800,11.274 150.800 L 0.000 150.800 0.000 162.600 M376.429 151.854 C 375.305 153.282,375.128 172.671,376.229 173.771 C 376.771 174.314,378.442 174.400,388.429 174.400 L 400.000 174.400 400.000 162.600 L 400.000 150.800 388.629 150.800 L 377.258 150.800 376.429 151.854 M351.062 200.400 L 327.524 200.600 326.564 201.800 L 325.604 203.000 325.602 225.438 C 325.600 246.669,325.639 247.912,326.331 248.538 C 327.560 249.650,347.674 249.526,348.800 248.400 C 349.560 247.640,349.600 247.067,349.600 236.862 C 349.600 226.967,349.657 226.072,350.331 225.462 C 350.995 224.861,353.325 224.800,375.531 224.800 L 400.000 224.800 400.000 212.611 L 400.000 200.422 387.300 200.311 C 380.315 200.250,364.008 200.290,351.062 200.400 M0.000 212.600 L 0.000 224.800 24.538 224.800 C 47.400 224.800,49.119 224.848,49.709 225.500 C 50.246 226.094,50.361 227.850,50.471 237.133 C 50.592 247.412,50.646 248.099,51.376 248.633 C 52.588 249.518,72.880 249.462,73.771 248.571 C 74.328 248.015,74.400 245.355,74.400 225.341 L 74.400 202.738 73.231 201.569 L 72.062 200.400 36.031 200.400 L 0.000 200.400 0.000 212.600 M152.524 200.986 C 151.565 201.403,151.186 201.873,151.001 202.871 C 150.642 204.801,150.939 223.874,151.333 224.267 C 151.517 224.450,156.438 224.600,162.269 224.600 L 172.871 224.600 173.635 223.656 C 174.839 222.169,174.808 202.408,173.600 201.200 C 172.569 200.169,154.817 199.989,152.524 200.986 M226.600 200.949 C 225.362 201.855,225.135 222.137,226.346 223.633 L 227.129 224.600 237.464 224.600 C 243.149 224.600,248.115 224.471,248.500 224.313 C 249.623 223.852,249.564 202.938,248.436 201.544 C 247.461 200.340,228.152 199.813,226.600 200.949 M101.500 226.032 C 100.846 226.413,100.800 227.982,100.800 249.976 C 100.800 272.546,100.769 273.550,100.036 274.456 C 99.275 275.396,99.228 275.401,88.136 275.632 C 82.011 275.760,76.595 276.006,76.100 276.179 L 75.200 276.493 75.200 287.600 L 75.200 298.707 76.100 298.948 C 76.595 299.081,87.472 299.192,100.271 299.195 C 120.889 299.199,123.615 299.272,124.171 299.829 C 124.517 300.174,124.833 300.489,124.873 300.529 C 124.913 300.568,125.048 305.748,125.173 312.040 C 125.348 320.885,125.525 323.629,125.949 324.140 C 126.448 324.740,128.656 324.800,150.199 324.800 L 173.900 324.800 174.150 323.550 C 174.288 322.863,174.401 317.958,174.402 312.650 C 174.405 302.645,174.690 300.301,175.991 299.605 C 177.005 299.062,222.971 299.049,223.984 299.592 C 225.356 300.326,225.600 302.214,225.604 312.160 C 225.607 317.462,225.720 322.475,225.857 323.300 L 226.105 324.800 249.830 324.800 L 273.555 324.800 274.177 323.911 C 274.703 323.161,274.800 321.366,274.801 312.411 C 274.803 302.564,274.860 301.707,275.590 300.509 L 276.377 299.218 300.355 299.109 C 313.543 299.049,324.484 298.850,324.667 298.667 C 325.034 298.301,325.367 278.721,325.029 277.373 C 324.660 275.904,322.447 275.600,312.113 275.600 C 302.213 275.600,300.326 275.356,299.592 273.984 C 299.349 273.531,299.200 264.287,299.200 249.669 C 299.200 228.533,299.134 226.060,298.567 225.843 C 297.523 225.442,277.053 225.579,276.400 225.991 C 275.898 226.308,275.767 228.200,275.600 237.566 C 275.449 245.995,275.272 248.890,274.880 249.281 C 274.472 249.689,269.357 249.848,250.880 250.023 C 237.966 250.146,227.359 250.281,227.309 250.323 C 225.954 251.466,225.798 252.647,225.600 263.317 C 225.401 274.026,225.396 274.075,224.456 274.836 C 222.985 276.026,177.015 276.026,175.544 274.836 L 174.600 274.072 174.482 263.320 C 174.366 252.707,174.352 252.553,173.420 251.384 L 172.476 250.200 150.045 250.133 C 134.713 250.087,127.183 249.924,126.253 249.618 C 124.441 249.020,124.400 248.731,124.400 236.630 C 124.400 229.331,124.268 226.428,123.920 226.080 C 123.302 225.462,102.555 225.418,101.500 226.032 M176.500 226.214 C 175.224 227.109,175.070 247.397,176.331 248.538 C 177.361 249.470,222.555 249.560,223.824 248.632 C 224.973 247.792,225.030 227.659,223.886 226.514 C 222.847 225.475,177.959 225.191,176.500 226.214 M27.182 250.513 C 25.265 252.023,25.200 252.425,25.200 262.831 L 25.200 272.683 26.181 273.742 L 27.162 274.800 37.971 274.800 L 48.779 274.800 49.390 273.620 C 49.887 272.659,50.000 270.670,50.000 262.913 C 50.000 249.254,50.820 249.999,35.800 250.016 C 30.129 250.023,27.620 250.167,27.182 250.513 M354.200 250.197 C 353.980 250.270,353.293 250.442,352.674 250.579 C 350.423 251.077,350.019 252.980,350.009 263.113 C 350.002 270.007,350.131 272.340,350.580 273.413 L 351.159 274.800 362.110 274.800 C 376.272 274.800,374.800 276.201,374.800 262.717 L 374.800 252.485 373.640 251.242 L 372.479 250.000 363.540 250.032 C 358.623 250.049,354.420 250.123,354.200 250.197 M149.472 275.843 L 150.600 276.686 150.707 287.336 C 150.830 299.643,150.919 299.330,147.133 299.798 C 143.146 300.290,126.196 299.862,125.461 299.251 C 124.750 298.661,124.432 277.198,125.117 276.120 C 126.162 274.477,147.321 274.236,149.472 275.843 M274.633 275.776 C 275.547 277.028,275.461 298.485,274.539 299.251 C 273.797 299.867,253.188 300.076,251.086 299.489 C 249.375 299.011,249.200 297.906,249.205 287.674 C 249.212 276.523,249.208 276.544,251.359 275.550 C 253.871 274.390,273.761 274.583,274.633 275.776 M0.000 312.400 L 0.000 324.800 11.761 324.800 L 23.522 324.800 23.961 323.540 C 24.859 320.963,24.535 302.280,23.571 301.054 L 22.742 300.000 11.371 300.000 L 0.000 300.000 0.000 312.400 M376.562 300.841 C 375.599 301.904,375.163 320.617,376.039 323.300 L 376.528 324.800 388.264 324.800 L 400.000 324.800 400.000 312.400 L 400.000 300.000 388.662 300.000 C 377.647 300.000,377.302 300.024,376.562 300.841 M76.500 326.234 L 75.200 326.802 75.200 337.782 L 75.200 348.762 76.700 349.179 C 77.563 349.419,82.656 349.596,88.700 349.598 C 102.346 349.601,100.827 347.853,100.800 363.511 C 100.788 370.270,100.783 381.245,100.789 387.900 L 100.800 400.000 112.583 400.000 L 124.366 400.000 124.483 388.214 C 124.589 377.526,124.667 376.361,125.314 375.714 C 125.995 375.034,129.545 375.000,200.050 375.000 L 274.071 375.000 274.835 375.944 C 275.549 376.825,275.600 377.663,275.600 388.444 L 275.600 400.000 287.650 400.000 L 299.701 400.000 299.404 375.665 L 299.107 351.331 300.208 350.465 C 301.271 349.629,301.655 349.600,311.557 349.600 C 321.556 349.600,324.209 349.342,324.866 348.307 C 325.228 347.737,325.315 328.670,324.962 327.353 C 324.542 325.789,322.590 325.555,311.000 325.682 L 300.200 325.800 300.000 337.239 C 299.845 346.116,299.677 348.827,299.251 349.339 C 298.536 350.199,101.739 350.379,100.880 349.520 C 100.529 349.169,100.400 346.009,100.400 337.800 C 100.400 329.591,100.271 326.431,99.920 326.080 C 99.174 325.334,78.244 325.471,76.500 326.234 M25.900 350.267 C 25.046 350.501,25.118 348.322,25.012 377.100 L 24.928 400.000 49.670 400.000 L 74.412 400.000 74.306 387.900 L 74.200 375.800 62.611 375.600 L 51.023 375.400 50.517 374.400 C 50.148 373.670,50.010 370.527,50.006 362.744 C 50.000 352.857,49.945 352.021,49.236 351.144 L 48.472 350.200 37.536 350.137 C 31.521 350.103,26.285 350.161,25.900 350.267 M352.003 350.357 C 350.159 350.870,350.012 351.816,350.006 363.256 C 349.998 377.128,351.595 375.576,337.200 375.701 L 325.800 375.800 325.694 387.900 L 325.588 400.000 350.394 400.000 L 375.200 400.000 375.200 375.414 C 375.200 351.516,375.178 350.817,374.426 350.414 C 373.559 349.950,353.649 349.899,352.003 350.357 " stroke="none" fill="#9b05eb" fill-rule="evenodd"></path><path id="path1" d="M0.000 49.794 L 0.000 74.400 11.538 74.400 C 22.228 74.400,23.125 74.346,23.741 73.665 C 24.348 72.994,24.397 70.853,24.303 49.165 L 24.200 25.400 12.100 25.294 L 0.000 25.188 0.000 49.794 M375.843 25.833 C 375.133 27.682,375.596 73.072,376.331 73.738 C 376.976 74.322,378.421 74.400,388.531 74.400 L 400.000 74.400 400.000 49.800 L 400.000 25.200 388.043 25.200 C 377.508 25.200,376.057 25.275,375.843 25.833 M76.921 75.205 C 74.941 76.002,74.752 77.208,74.881 88.241 L 75.000 98.447 76.000 99.216 C 76.972 99.963,78.027 99.982,113.400 99.892 L 149.800 99.800 149.906 88.476 L 150.013 77.151 148.837 75.976 L 147.662 74.800 112.731 74.825 C 93.466 74.839,77.406 75.009,76.921 75.205 M251.169 75.969 L 250.000 77.138 250.000 87.937 C 250.000 93.875,250.109 99.019,250.243 99.367 C 250.462 99.938,254.054 100.000,286.784 100.000 L 323.083 100.000 324.142 99.019 L 325.200 98.038 325.200 87.455 L 325.200 76.871 323.969 75.836 L 322.739 74.800 287.539 74.800 L 252.338 74.800 251.169 75.969 M0.000 112.550 L 0.000 124.299 24.402 124.597 C 43.590 124.831,48.932 124.788,49.402 124.398 C 50.236 123.706,50.274 102.594,49.443 101.500 C 48.947 100.847,47.278 100.800,24.456 100.800 L 0.000 100.800 0.000 112.550 M350.623 101.689 C 349.636 103.098,349.698 123.241,350.692 124.235 C 351.336 124.879,352.641 124.909,369.358 124.664 C 379.243 124.519,390.182 124.400,393.666 124.400 L 400.000 124.400 400.000 112.600 L 400.000 100.800 375.623 100.800 L 351.245 100.800 350.623 101.689 M26.494 175.986 L 25.188 176.796 25.294 188.098 L 25.400 199.400 37.000 199.600 C 43.380 199.710,48.915 199.659,49.300 199.486 C 50.259 199.056,50.382 177.476,49.433 176.176 C 48.529 174.939,28.451 174.772,26.494 175.986 M351.800 175.471 C 350.077 175.895,350.000 176.422,350.006 187.776 C 350.009 193.729,350.161 198.835,350.344 199.122 C 350.677 199.649,373.622 199.881,374.455 199.366 C 374.645 199.249,374.800 194.128,374.800 187.986 L 374.800 176.818 373.719 176.109 C 372.657 175.413,354.218 174.876,351.800 175.471 M136.400 275.600 C 130.790 275.710,125.975 275.946,125.700 276.124 C 125.115 276.502,124.973 297.822,125.549 298.731 C 125.847 299.201,135.111 299.404,147.671 299.216 C 149.949 299.182,150.000 298.921,150.000 287.420 C 150.000 279.478,149.877 276.802,149.500 276.507 C 148.302 275.571,146.006 275.412,136.400 275.600 M251.517 276.080 L 250.000 276.761 250.000 287.318 C 250.000 297.243,250.046 297.918,250.773 298.575 C 251.553 299.282,273.314 299.671,274.403 298.998 C 275.032 298.609,274.933 276.533,274.300 276.124 C 273.165 275.389,253.143 275.351,251.517 276.080 M100.800 337.392 L 100.800 349.185 101.700 349.405 C 102.195 349.526,107.460 349.574,113.400 349.512 L 124.200 349.400 124.306 338.239 C 124.442 323.986,126.022 325.600,111.938 325.600 L 100.800 325.600 100.800 337.392 M176.176 326.167 C 175.439 326.706,175.400 327.311,175.400 338.067 L 175.400 349.400 200.000 349.400 L 224.600 349.400 224.710 338.200 C 224.819 327.180,224.807 326.989,223.966 326.300 C 222.787 325.334,177.489 325.209,176.176 326.167 M276.256 326.339 C 275.659 326.998,275.599 328.277,275.694 338.239 L 275.800 349.400 287.000 349.497 C 293.160 349.551,298.434 349.445,298.720 349.262 C 299.156 348.982,299.463 334.868,299.220 326.300 C 299.188 325.192,277.260 325.228,276.256 326.339 M0.000 375.000 L 0.000 400.000 12.200 400.000 L 24.400 400.000 24.447 375.900 C 24.499 349.682,24.523 350.730,23.860 350.306 C 23.607 350.144,18.135 350.009,11.700 350.006 L 0.000 350.000 0.000 375.000 M376.100 350.265 C 375.708 350.423,375.600 355.794,375.600 375.233 L 375.600 400.000 387.800 400.000 L 400.000 400.000 400.000 375.000 L 400.000 350.000 388.300 350.032 C 381.865 350.049,376.375 350.154,376.100 350.265 M75.072 375.861 C 74.923 376.011,74.800 381.503,74.800 388.067 L 74.800 400.000 87.406 400.000 L 100.012 400.000 99.906 387.900 L 99.800 375.800 87.572 375.694 C 80.847 375.636,75.222 375.711,75.072 375.861 M175.453 376.497 C 175.320 376.994,175.208 382.485,175.205 388.700 L 175.200 400.000 200.006 400.000 L 224.812 400.000 224.706 387.900 L 224.600 375.800 200.147 375.697 L 175.695 375.594 175.453 376.497 M300.272 375.861 C 300.123 376.011,300.000 381.503,300.000 388.067 L 300.000 400.000 312.606 400.000 L 325.212 400.000 325.106 387.900 L 325.000 375.800 312.772 375.694 C 306.047 375.636,300.422 375.711,300.272 375.861 " stroke="none" fill="#353435" fill-rule="evenodd"></path><path id="path2" d="M-0.000 12.206 L -0.000 24.412 12.100 24.306 L 24.200 24.200 24.306 12.100 L 24.412 -0.000 12.206 -0.000 L 0.000 0.000 -0.000 12.206 M50.800 11.538 C 50.800 22.208,50.855 23.126,51.531 23.738 C 52.201 24.343,55.274 24.400,87.516 24.400 L 122.769 24.400 123.584 23.525 C 124.365 22.686,124.400 22.168,124.400 11.325 L 124.400 0.000 87.600 0.000 L 50.800 0.000 50.800 11.538 M150.800 11.400 C 150.800 26.008,149.278 24.398,163.100 24.406 C 168.985 24.409,173.981 24.544,174.202 24.706 C 175.320 25.523,175.600 28.078,175.600 37.474 C 175.600 51.317,173.049 50.081,201.291 49.919 L 221.982 49.800 223.091 48.692 L 224.200 47.584 224.400 37.292 C 224.557 29.208,224.730 26.743,225.205 25.800 L 225.810 24.600 236.938 24.400 C 247.365 24.213,248.101 24.151,248.633 23.424 C 249.091 22.797,249.200 20.466,249.200 11.324 L 249.200 0.000 200.000 0.000 L 150.800 0.000 150.800 11.400 M275.600 10.774 C 275.600 21.287,275.808 23.375,276.925 24.086 C 277.186 24.252,293.272 24.391,312.671 24.394 L 347.942 24.400 348.771 23.346 C 349.565 22.337,349.600 21.817,349.600 11.146 L 349.600 0.000 312.600 0.000 L 275.600 0.000 275.600 10.774 M375.952 10.700 C 375.926 16.585,375.899 21.760,375.892 22.200 C 375.852 24.576,374.885 24.400,388.000 24.400 L 400.000 24.400 400.000 12.200 L 400.000 0.000 388.000 0.000 L 376.000 0.000 375.952 10.700 M101.280 51.280 C 100.929 51.631,100.800 54.810,100.800 63.086 L 100.800 74.412 112.500 74.306 L 124.200 74.200 124.306 63.286 C 124.375 56.215,124.265 52.095,123.992 51.586 C 123.478 50.624,102.222 50.338,101.280 51.280 M151.195 51.609 C 150.316 53.252,150.857 73.058,151.800 73.771 C 152.460 74.269,154.264 74.377,162.120 74.387 C 172.402 74.401,173.742 74.168,174.215 72.283 C 174.713 70.299,174.221 52.147,173.651 51.461 C 172.715 50.334,151.804 50.472,151.195 51.609 M226.246 52.160 C 225.590 53.543,225.260 70.092,225.845 72.273 C 226.339 74.115,227.975 74.400,238.071 74.400 C 250.501 74.400,249.200 75.762,249.200 62.751 C 249.200 56.344,249.041 52.050,248.786 51.574 C 248.392 50.838,247.841 50.800,237.632 50.800 L 226.891 50.800 226.246 52.160 M276.096 51.595 C 275.575 52.429,275.346 72.472,275.843 73.767 C 276.056 74.324,277.473 74.400,287.643 74.400 L 299.200 74.400 299.200 63.080 C 299.200 54.809,299.071 51.631,298.720 51.280 C 297.772 50.332,276.702 50.625,276.096 51.595 M26.426 76.558 C 25.620 77.862,25.591 78.345,25.693 88.858 L 25.800 99.800 37.681 100.000 C 46.671 100.151,49.688 100.326,50.081 100.719 C 50.477 101.116,50.628 103.985,50.717 112.819 L 50.835 124.400 61.198 124.400 C 72.184 124.400,73.173 124.256,73.956 122.537 C 74.725 120.849,74.551 103.003,73.754 101.786 L 73.108 100.800 62.183 100.800 C 52.784 100.800,51.169 100.712,50.629 100.171 C 50.089 99.632,50.000 98.058,50.000 89.076 C 50.000 80.022,49.905 78.378,49.300 76.906 L 48.600 75.203 37.933 75.201 L 27.265 75.200 26.426 76.558 M176.815 76.161 C 176.614 76.690,176.258 77.240,176.025 77.385 C 175.733 77.565,175.600 84.821,175.600 100.535 C 175.600 120.602,175.523 123.532,174.977 124.311 C 174.026 125.670,151.788 125.713,150.562 124.358 C 149.855 123.578,149.794 122.699,149.713 112.258 L 149.626 101.000 137.413 100.894 L 125.200 100.788 125.200 112.332 C 125.200 122.946,125.142 123.929,124.479 124.528 C 123.833 125.113,121.366 125.192,100.779 125.290 L 77.800 125.400 76.500 126.589 L 75.200 127.778 75.200 137.814 L 75.200 147.850 76.422 148.753 C 77.611 149.632,77.927 149.658,88.140 149.728 C 97.438 149.792,98.759 149.881,99.718 150.509 L 100.800 151.218 100.800 162.395 C 100.800 173.036,100.837 173.592,101.574 173.986 C 102.081 174.257,110.123 174.400,124.914 174.400 C 146.676 174.400,149.321 174.524,150.525 175.599 C 150.703 175.759,150.833 180.374,150.814 185.856 C 150.763 200.581,149.825 199.600,163.971 199.600 L 173.982 199.600 174.691 200.681 C 175.310 201.624,175.425 203.097,175.600 212.240 C 175.783 221.820,175.865 222.790,176.562 223.559 C 177.763 224.884,222.237 224.885,223.438 223.559 C 224.135 222.790,224.217 221.821,224.400 212.240 C 224.575 203.098,224.690 201.624,225.309 200.681 L 226.018 199.600 236.109 199.599 C 246.248 199.597,247.693 199.406,248.884 197.906 C 248.930 197.848,249.065 192.776,249.184 186.635 L 249.400 175.471 250.800 174.966 C 251.861 174.583,257.700 174.453,274.926 174.430 C 289.769 174.411,297.921 174.256,298.426 173.986 C 299.163 173.592,299.200 173.036,299.200 162.395 L 299.200 151.218 300.282 150.509 C 301.240 149.881,302.597 149.789,312.166 149.707 C 322.949 149.613,322.971 149.611,323.919 148.662 L 324.870 147.712 324.852 137.774 L 324.833 127.837 323.394 126.518 L 321.955 125.200 299.040 125.200 C 277.347 125.200,276.089 125.161,275.462 124.469 C 274.878 123.824,274.800 122.379,274.800 112.269 L 274.800 100.800 262.600 100.800 L 250.400 100.800 250.400 112.130 C 250.400 126.788,251.981 125.202,237.374 125.194 C 231.228 125.191,226.002 125.056,225.760 124.894 C 224.466 124.030,224.400 122.839,224.400 100.250 C 224.400 84.737,224.267 77.565,223.975 77.385 C 223.742 77.240,223.386 76.690,223.185 76.161 L 222.820 75.200 200.000 75.200 L 177.180 75.200 176.815 76.161 M350.988 76.300 C 350.821 76.905,350.575 82.368,350.442 88.439 C 350.256 96.927,350.073 99.631,349.651 100.139 C 349.165 100.725,347.833 100.800,337.997 100.800 L 326.892 100.800 326.246 101.786 C 325.292 103.243,325.287 120.620,326.241 122.629 C 327.089 124.417,327.394 124.456,339.400 124.316 L 349.400 124.200 349.494 112.600 C 349.579 102.198,349.659 100.948,350.271 100.500 C 350.779 100.127,353.878 100.000,362.427 100.000 C 371.131 100.000,373.997 99.879,374.296 99.500 C 375.139 98.429,374.817 78.804,373.925 76.900 L 373.129 75.200 362.211 75.200 L 351.293 75.200 350.988 76.300 M0.000 137.494 L 0.000 149.800 10.700 149.751 C 16.585 149.724,21.622 149.679,21.894 149.651 C 22.166 149.623,22.844 148.912,23.401 148.070 L 24.414 146.540 24.307 135.970 L 24.200 125.400 12.100 125.294 L 0.000 125.188 0.000 137.494 M375.988 125.500 C 375.674 133.289,376.124 147.420,376.712 148.240 C 377.662 149.565,377.709 149.570,389.500 149.692 L 400.000 149.800 400.000 137.500 L 400.000 125.200 388.000 125.200 C 381.400 125.200,375.995 125.335,375.988 125.500 M28.000 151.073 C 25.633 151.977,25.600 152.135,25.595 162.770 C 25.587 176.910,27.034 175.600,11.420 175.600 L 0.000 175.600 0.000 187.538 L 0.000 199.476 11.900 199.392 C 18.445 199.346,23.935 199.284,24.100 199.254 C 24.265 199.224,24.400 193.881,24.400 187.380 L 24.400 175.559 25.787 174.980 C 27.863 174.112,48.642 174.155,49.800 175.029 C 50.563 175.606,50.605 176.174,50.717 187.389 L 50.834 199.144 51.917 199.348 C 54.148 199.769,71.829 199.514,72.460 199.052 C 74.200 197.777,74.400 196.483,74.400 186.482 C 74.400 174.302,75.820 175.600,62.495 175.600 C 56.678 175.600,51.598 175.427,51.026 175.210 L 50.000 174.820 50.000 163.854 C 50.000 149.513,51.338 151.023,38.536 150.922 C 33.071 150.878,28.330 150.946,28.000 151.073 M351.600 151.317 L 350.600 151.822 350.400 163.092 C 350.249 171.580,350.072 174.490,349.681 174.881 C 349.285 175.276,346.514 175.426,338.081 175.508 C 324.132 175.643,325.600 174.355,325.600 186.457 C 325.600 195.995,325.816 197.487,327.389 198.791 C 328.444 199.666,349.075 199.702,349.410 198.829 C 349.533 198.508,349.618 193.556,349.599 187.823 C 349.579 182.090,349.572 176.934,349.582 176.364 C 349.613 174.569,350.698 174.400,362.159 174.400 C 377.292 174.400,376.000 173.100,376.000 188.326 L 376.000 199.400 388.000 199.407 L 400.000 199.415 400.000 187.507 L 400.000 175.600 388.619 175.600 C 373.198 175.600,374.690 176.902,374.629 163.397 C 374.579 152.303,374.411 151.557,371.850 151.035 C 369.496 150.554,352.645 150.789,351.600 151.317 M77.385 201.225 C 77.240 201.458,76.690 201.814,76.161 202.015 L 75.200 202.380 75.200 225.346 C 75.200 247.355,75.168 248.351,74.436 249.256 C 73.675 250.196,73.623 250.201,62.970 250.400 L 52.268 250.600 51.558 251.871 C 50.938 252.981,50.833 254.489,50.724 263.804 C 50.608 273.818,50.553 274.500,49.824 275.033 C 48.851 275.744,27.960 275.869,26.134 275.175 C 24.415 274.521,24.413 274.503,24.406 262.731 L 24.400 251.661 25.436 250.431 L 26.471 249.200 36.862 249.200 C 47.937 249.200,48.404 249.126,49.396 247.208 C 50.440 245.188,50.274 227.474,49.200 226.400 C 48.418 225.618,47.867 225.600,24.200 225.600 L 0.000 225.600 0.000 262.400 L 0.000 299.200 11.800 299.200 C 25.391 299.200,24.929 299.075,25.398 302.867 C 25.975 307.533,25.458 323.349,24.691 324.519 L 23.982 325.600 11.991 325.600 L 0.000 325.600 0.000 337.596 L 0.000 349.592 24.683 349.594 C 46.373 349.595,49.441 349.670,49.983 350.211 C 50.499 350.726,50.633 352.644,50.800 361.914 C 50.950 370.215,51.134 373.201,51.534 373.800 C 52.037 374.555,97.464 374.939,99.500 374.205 C 100.441 373.866,100.195 352.729,99.236 351.544 C 98.473 350.601,98.459 350.600,87.097 350.400 C 78.275 350.245,75.574 350.077,75.061 349.651 C 74.138 348.885,74.053 327.028,74.968 325.776 C 75.758 324.696,122.628 324.333,124.249 325.396 L 125.188 326.011 125.294 337.705 L 125.400 349.400 149.800 349.400 L 174.200 349.400 174.400 338.000 C 174.609 326.111,174.700 325.428,176.128 325.045 C 178.229 324.481,223.826 324.784,224.624 325.367 C 225.353 325.900,225.412 326.641,225.600 337.667 L 225.800 349.400 250.200 349.400 L 274.600 349.400 274.706 337.705 L 274.812 326.011 275.746 325.399 C 277.068 324.532,323.887 324.676,324.939 325.549 C 325.699 326.180,325.949 348.428,325.209 349.600 C 324.891 350.103,322.954 350.232,313.228 350.400 C 302.789 350.580,301.555 350.672,300.913 351.314 C 300.145 352.083,299.590 372.789,300.309 373.882 C 300.549 374.248,306.372 374.393,324.321 374.480 L 348.016 374.595 348.805 373.398 C 349.542 372.280,349.595 371.477,349.597 361.349 C 349.599 352.692,349.710 350.407,350.144 350.047 C 350.535 349.722,357.625 349.595,375.344 349.594 L 400.000 349.592 400.000 337.602 L 400.000 325.612 387.905 325.506 L 375.810 325.400 375.214 324.200 C 374.465 322.693,374.208 306.368,374.871 302.471 C 375.442 299.114,375.082 299.200,388.626 299.200 L 400.000 299.200 400.000 262.391 L 400.000 225.582 375.585 225.691 C 354.399 225.786,351.120 225.879,350.791 226.400 C 350.579 226.736,350.410 231.444,350.406 237.118 L 350.400 247.236 351.382 248.218 L 352.364 249.200 363.001 249.200 L 373.638 249.200 374.594 250.232 C 376.303 252.076,376.725 273.047,375.086 274.686 C 374.056 275.717,352.079 276.006,350.557 275.009 L 349.600 274.382 349.600 263.845 C 349.600 252.634,349.529 252.208,347.414 250.706 C 347.186 250.544,342.475 250.409,336.944 250.406 C 327.645 250.400,326.818 250.342,325.944 249.635 L 325.000 248.871 324.906 225.737 C 324.850 212.057,324.661 202.554,324.443 202.481 C 324.240 202.413,323.670 202.007,323.176 201.579 C 322.301 200.820,321.392 200.800,287.677 200.800 L 253.076 200.800 251.738 201.820 L 250.400 202.841 250.400 213.166 C 250.400 222.948,250.357 223.547,249.585 224.528 L 248.771 225.563 237.999 225.682 C 228.291 225.788,227.157 225.870,226.514 226.514 C 225.355 227.672,225.207 246.626,226.346 248.032 L 227.129 249.000 250.579 249.000 C 270.988 249.000,274.078 248.922,274.408 248.400 C 274.623 248.060,274.790 243.080,274.794 236.929 C 274.801 224.948,274.776 225.066,277.315 224.590 C 280.271 224.035,298.741 224.568,299.399 225.227 C 299.952 225.781,300.022 228.496,300.007 248.754 C 299.987 273.536,300.025 273.991,302.127 274.555 C 302.607 274.684,307.802 274.792,313.671 274.795 C 322.834 274.799,324.432 274.889,324.971 275.429 C 325.791 276.249,325.930 298.710,325.120 299.520 C 324.758 299.882,318.932 300.000,301.353 300.000 C 288.545 300.000,277.776 300.111,277.422 300.247 C 275.971 300.804,275.804 301.995,275.600 313.240 C 275.445 321.777,275.276 324.429,274.851 324.940 C 274.352 325.540,272.098 325.600,249.965 325.600 L 225.628 325.600 225.114 324.700 C 224.737 324.040,224.569 320.809,224.485 312.600 C 224.374 301.833,224.338 301.373,223.541 300.700 C 222.361 299.704,177.915 299.637,176.600 300.629 C 175.841 301.202,175.790 301.825,175.600 312.756 C 175.445 321.704,175.277 324.426,174.851 324.939 C 174.009 325.952,125.991 325.953,125.149 324.939 C 124.723 324.427,124.555 321.726,124.400 312.904 C 124.200 301.542,124.199 301.527,123.256 300.764 C 122.350 300.032,121.352 300.000,99.129 300.000 C 83.914 300.000,75.682 299.858,75.174 299.586 C 74.312 299.125,73.957 276.921,74.791 275.600 C 75.108 275.098,77.074 274.964,86.885 274.779 C 93.328 274.658,98.654 274.523,98.720 274.479 C 99.874 273.719,100.000 271.202,100.000 248.889 C 100.000 229.884,100.093 226.025,100.568 225.376 C 101.449 224.172,123.751 224.172,124.632 225.376 C 125.089 226.001,125.200 228.236,125.200 236.800 C 125.200 245.363,125.311 247.599,125.768 248.224 C 126.697 249.495,171.728 249.643,173.334 248.380 L 174.400 247.542 174.400 237.553 L 174.400 227.564 173.418 226.582 L 172.436 225.600 162.062 225.600 C 152.445 225.600,151.620 225.544,150.744 224.835 L 149.800 224.071 149.754 213.553 L 149.709 203.036 148.369 201.918 L 147.030 200.800 112.339 200.800 C 88.299 200.800,77.567 200.930,77.385 201.225 M176.769 251.569 L 175.600 252.738 175.600 263.141 C 175.600 272.064,175.689 273.632,176.229 274.171 C 177.055 274.998,223.098 275.142,223.920 274.320 C 224.269 273.971,224.400 270.946,224.400 263.216 L 224.400 252.592 223.384 251.496 L 222.368 250.400 200.153 250.400 L 177.938 250.400 176.769 251.569 M150.028 375.903 C 128.979 375.996,126.583 376.072,125.928 376.665 C 125.257 377.273,125.200 378.206,125.200 388.662 L 125.200 400.000 149.800 400.000 L 174.400 400.000 174.400 388.043 C 174.400 378.820,174.286 376.053,173.900 375.943 C 173.625 375.864,162.883 375.846,150.028 375.903 M225.999 375.933 C 225.746 376.018,225.600 380.431,225.600 388.033 L 225.600 400.000 250.200 400.000 L 274.800 400.000 274.800 388.662 C 274.800 378.246,274.741 377.271,274.079 376.671 C 273.422 376.077,227.671 375.375,225.999 375.933 " stroke="none" fill="#acbbc4" fill-rule="evenodd"></path><path id="path3" d="M24.400 12.000 C 24.400 18.600,24.387 24.131,24.370 24.290 C 24.354 24.450,24.534 24.645,24.770 24.723 C 25.071 24.824,25.200 21.123,25.200 12.433 C 25.200 4.411,25.058 0.000,24.800 0.000 C 24.542 0.000,24.400 4.267,24.400 12.000 M50.000 11.800 C 50.000 23.067,50.036 23.636,50.800 24.400 C 51.588 25.188,52.133 25.200,87.418 25.200 L 123.236 25.200 124.218 24.218 L 125.200 23.236 125.200 11.618 C 125.200 4.139,125.057 0.000,124.800 0.000 C 124.543 0.000,124.400 4.042,124.400 11.325 C 124.400 22.168,124.365 22.686,123.584 23.525 L 122.769 24.400 87.446 24.400 C 53.735 24.400,52.094 24.367,51.462 23.669 C 50.878 23.024,50.800 21.579,50.800 11.469 C 50.800 4.090,50.657 0.000,50.400 0.000 C 50.142 0.000,50.000 4.200,50.000 11.800 M150.000 11.381 C 150.000 26.749,148.542 25.187,162.890 25.195 L 173.179 25.200 173.790 26.380 C 174.813 28.360,174.682 47.563,173.636 48.856 L 172.872 49.800 162.136 49.908 C 148.513 50.045,150.000 48.514,150.000 62.400 C 150.000 76.484,148.537 74.967,162.267 75.118 L 173.006 75.236 173.703 76.450 C 174.590 77.996,174.796 123.044,173.920 123.920 C 173.112 124.728,152.248 124.590,151.429 123.771 C 150.886 123.229,150.800 121.553,150.800 111.522 C 150.800 101.345,150.727 99.963,150.212 100.390 C 149.203 101.228,149.524 123.211,150.562 124.358 C 151.788 125.713,174.026 125.670,174.977 124.311 C 175.523 123.532,175.600 120.602,175.600 100.535 C 175.600 84.821,175.733 77.565,176.025 77.385 C 176.258 77.240,176.614 76.690,176.815 76.161 L 177.180 75.200 200.000 75.200 L 222.820 75.200 223.185 76.161 C 223.386 76.690,223.742 77.240,223.975 77.385 C 224.267 77.565,224.400 84.737,224.400 100.250 C 224.400 122.839,224.466 124.030,225.760 124.894 C 227.084 125.778,248.645 125.216,249.530 124.274 C 250.670 123.061,250.915 101.326,249.800 100.400 C 249.269 99.959,249.200 101.262,249.200 111.737 C 249.200 123.028,249.164 123.591,248.426 123.986 C 247.270 124.605,226.704 124.544,226.080 123.920 C 225.282 123.122,225.399 77.865,226.200 77.200 C 226.530 76.926,226.800 76.364,226.800 75.951 C 226.800 75.236,227.283 75.200,236.750 75.200 C 251.518 75.200,250.084 76.576,250.019 62.458 C 249.955 48.487,251.345 50.000,238.571 50.000 C 227.565 50.000,226.362 49.803,225.856 47.916 C 225.288 45.795,225.579 27.600,226.201 26.398 L 226.802 25.236 237.768 25.118 C 243.800 25.053,248.856 24.878,249.004 24.730 C 250.171 23.560,250.727 0.000,249.587 0.000 C 249.347 0.000,249.200 4.286,249.200 11.324 C 249.200 20.466,249.091 22.797,248.633 23.424 C 248.101 24.151,247.365 24.213,236.938 24.400 L 225.810 24.600 225.205 25.800 C 224.730 26.743,224.557 29.208,224.400 37.292 L 224.200 47.584 223.091 48.692 L 221.982 49.800 201.291 49.919 C 173.049 50.081,175.600 51.317,175.600 37.474 C 175.600 28.078,175.320 25.523,174.202 24.706 C 173.981 24.544,168.985 24.409,163.100 24.406 C 149.278 24.398,150.800 26.008,150.800 11.400 C 150.800 4.067,150.657 0.000,150.400 0.000 C 150.143 0.000,150.000 4.060,150.000 11.381 M274.800 11.546 C 274.800 22.621,274.834 23.135,275.629 24.146 L 276.458 25.200 312.340 25.200 C 344.169 25.200,348.322 25.130,349.111 24.577 C 350.000 23.955,350.000 23.951,349.912 11.877 L 349.824 -0.200 349.612 11.259 C 349.417 21.795,349.339 22.785,348.638 23.559 L 347.876 24.400 312.638 24.394 C 293.257 24.391,277.186 24.252,276.925 24.086 C 275.808 23.375,275.600 21.287,275.600 10.774 C 275.600 3.858,275.457 0.000,275.200 0.000 C 274.943 0.000,274.800 4.115,274.800 11.546 M374.800 11.767 C 374.800 23.096,374.919 25.021,375.596 24.603 C 376.268 24.187,376.095 0.000,375.419 0.000 C 374.874 0.000,374.800 1.411,374.800 11.767 M100.749 50.661 C 99.975 51.592,99.544 74.401,100.300 74.400 C 100.688 74.400,100.800 71.869,100.800 63.080 C 100.800 54.809,100.929 51.631,101.280 51.280 C 102.212 50.348,123.477 50.623,123.986 51.574 C 124.243 52.053,124.400 56.538,124.400 63.374 C 124.400 70.458,124.543 74.400,124.800 74.400 C 125.632 74.400,125.311 51.425,124.469 50.662 C 123.361 49.660,101.582 49.659,100.749 50.661 M275.462 50.731 C 274.592 51.692,274.437 74.400,275.300 74.400 C 275.691 74.401,275.774 72.019,275.681 63.509 C 275.594 55.525,275.692 52.375,276.049 51.709 L 276.535 50.800 287.388 50.800 C 295.295 50.800,298.370 50.930,298.720 51.280 C 299.071 51.631,299.200 54.809,299.200 63.080 C 299.200 71.869,299.312 74.400,299.700 74.400 C 300.509 74.401,300.019 50.908,299.200 50.391 C 297.941 49.596,276.207 49.908,275.462 50.731 M222.304 50.641 C 224.448 51.070,224.600 51.875,224.600 62.818 C 224.600 71.989,224.544 72.777,223.838 73.558 C 222.788 74.718,178.339 74.903,176.586 73.754 L 175.600 73.108 175.600 62.630 C 175.600 51.428,175.669 51.018,177.600 50.683 C 179.167 50.410,220.956 50.371,222.304 50.641 M173.651 51.461 C 174.221 52.147,174.713 70.299,174.215 72.283 C 173.742 74.168,172.402 74.401,162.120 74.387 C 154.264 74.377,152.460 74.269,151.800 73.771 C 150.857 73.058,150.316 53.252,151.195 51.609 C 151.804 50.472,172.715 50.334,173.651 51.461 M248.786 51.574 C 249.041 52.050,249.200 56.344,249.200 62.751 C 249.200 75.762,250.501 74.400,238.071 74.400 C 227.975 74.400,226.339 74.115,225.845 72.273 C 225.260 70.092,225.590 53.543,226.246 52.160 L 226.891 50.800 237.632 50.800 C 247.841 50.800,248.392 50.838,248.786 51.574 M26.146 74.868 C 24.537 75.647,24.400 76.727,24.400 88.619 C 24.400 98.469,24.481 100.000,25.000 100.000 C 25.519 100.000,25.600 98.505,25.600 88.947 C 25.600 78.448,25.642 77.827,26.433 76.547 L 27.265 75.200 37.933 75.201 L 48.600 75.203 49.300 76.906 C 49.905 78.378,50.000 80.022,50.000 89.076 C 50.000 98.058,50.089 99.632,50.629 100.171 C 51.169 100.712,52.784 100.800,62.183 100.800 L 73.108 100.800 73.754 101.786 C 74.551 103.003,74.725 120.849,73.956 122.537 C 73.172 124.257,72.188 124.400,61.081 124.406 C 55.005 124.410,50.348 124.575,50.000 124.800 C 49.605 125.055,53.387 125.190,61.067 125.194 L 72.735 125.200 73.567 126.547 C 74.354 127.820,74.400 128.459,74.400 138.125 L 74.400 148.355 75.365 149.478 L 76.329 150.600 87.597 150.800 C 101.572 151.048,100.000 149.490,100.000 163.095 L 100.000 173.636 100.982 174.618 L 101.964 175.600 125.093 175.600 C 145.379 175.600,148.331 175.677,149.111 176.223 C 150.019 176.859,150.552 196.206,149.694 197.414 C 149.532 197.641,148.881 198.226,148.246 198.714 L 147.092 199.600 112.484 199.600 L 77.876 199.600 76.556 198.594 L 75.237 197.587 75.118 186.770 L 75.000 175.953 74.000 175.186 C 73.073 174.474,72.224 174.417,62.400 174.403 C 56.446 174.394,51.537 174.222,51.200 174.009 C 50.695 173.690,50.581 171.864,50.482 162.449 L 50.365 151.269 49.426 150.654 C 48.654 150.148,46.623 150.017,38.041 149.919 L 27.596 149.800 26.587 148.625 C 25.161 146.964,25.156 146.915,25.284 135.500 C 25.385 126.559,25.321 125.199,24.800 125.199 C 24.279 125.199,24.215 126.597,24.313 135.832 C 24.472 150.860,25.324 149.912,11.800 149.761 C 2.067 149.651,0.000 149.769,0.000 150.432 C 0.000 150.647,4.695 150.800,11.330 150.800 C 25.949 150.800,24.400 149.341,24.400 163.112 C 24.400 173.044,24.361 173.593,23.626 173.986 C 23.145 174.244,18.538 174.400,11.426 174.400 C 1.536 174.400,0.000 174.481,0.000 175.000 C 0.000 175.883,22.264 175.898,23.969 175.016 C 25.538 174.205,25.588 173.827,25.595 162.770 L 25.600 152.939 26.632 151.970 L 27.664 151.000 38.068 151.000 L 48.471 151.000 49.235 151.944 C 49.947 152.823,50.000 153.654,50.000 163.854 L 50.000 174.820 51.026 175.210 C 51.598 175.427,56.702 175.600,62.564 175.600 C 75.813 175.600,74.400 174.293,74.400 186.551 C 74.400 200.460,75.336 199.536,61.305 199.485 C 53.664 199.458,50.662 199.578,50.316 199.924 C 49.948 200.292,52.358 200.400,60.951 200.400 L 72.062 200.400 73.231 201.569 L 74.400 202.738 74.400 225.341 C 74.400 245.355,74.328 248.015,73.771 248.571 C 72.880 249.462,52.588 249.518,51.376 248.633 C 50.646 248.099,50.592 247.412,50.471 237.133 C 50.361 227.850,50.246 226.094,49.709 225.500 C 48.968 224.681,0.000 224.385,0.000 225.200 C 0.000 225.462,8.333 225.600,24.200 225.600 C 47.867 225.600,48.418 225.618,49.200 226.400 C 50.274 227.474,50.440 245.188,49.396 247.208 C 48.404 249.126,47.937 249.200,36.862 249.200 L 26.471 249.200 25.436 250.431 L 24.400 251.661 24.406 262.731 C 24.413 274.503,24.415 274.521,26.134 275.175 C 27.960 275.869,48.851 275.744,49.824 275.033 C 50.553 274.500,50.608 273.818,50.724 263.804 C 50.833 254.489,50.938 252.981,51.558 251.871 L 52.268 250.600 62.970 250.400 C 73.623 250.201,73.675 250.196,74.436 249.256 C 75.168 248.351,75.200 247.355,75.200 225.346 L 75.200 202.380 76.161 202.015 C 76.690 201.814,77.240 201.458,77.385 201.225 C 77.567 200.930,88.299 200.800,112.339 200.800 L 147.030 200.800 148.369 201.918 L 149.709 203.036 149.754 213.553 L 149.800 224.071 150.744 224.835 C 151.620 225.544,152.445 225.600,162.062 225.600 L 172.436 225.600 173.418 226.582 L 174.400 227.564 174.400 237.553 L 174.400 247.542 173.334 248.380 C 171.728 249.643,126.697 249.495,125.768 248.224 C 125.311 247.599,125.200 245.363,125.200 236.800 C 125.200 228.236,125.089 226.001,124.632 225.376 C 123.751 224.172,101.449 224.172,100.568 225.376 C 100.093 226.025,100.000 229.884,100.000 248.889 C 100.000 271.202,99.874 273.719,98.720 274.479 C 98.654 274.523,93.328 274.658,86.885 274.779 C 77.074 274.964,75.108 275.098,74.791 275.600 C 73.957 276.921,74.312 299.125,75.174 299.586 C 75.682 299.858,83.914 300.000,99.129 300.000 C 121.352 300.000,122.350 300.032,123.256 300.764 C 124.199 301.527,124.200 301.542,124.400 312.904 C 124.555 321.726,124.723 324.427,125.149 324.939 C 125.991 325.953,174.009 325.952,174.851 324.939 C 175.277 324.426,175.445 321.704,175.600 312.756 C 175.790 301.825,175.841 301.202,176.600 300.629 C 177.915 299.637,222.361 299.704,223.541 300.700 C 224.338 301.373,224.374 301.833,224.485 312.600 C 224.569 320.809,224.737 324.040,225.114 324.700 L 225.628 325.600 249.965 325.600 C 272.098 325.600,274.352 325.540,274.851 324.940 C 275.276 324.429,275.445 321.777,275.600 313.240 C 275.804 301.995,275.971 300.804,277.422 300.247 C 277.776 300.111,288.545 300.000,301.353 300.000 C 318.932 300.000,324.758 299.882,325.120 299.520 C 325.930 298.710,325.791 276.249,324.971 275.429 C 324.432 274.889,322.834 274.799,313.671 274.795 C 307.802 274.792,302.607 274.684,302.127 274.555 C 300.025 273.991,299.987 273.536,300.007 248.754 C 300.022 228.496,299.952 225.781,299.399 225.227 C 298.741 224.568,280.271 224.035,277.315 224.590 C 274.776 225.066,274.801 224.948,274.794 236.929 C 274.790 243.080,274.623 248.060,274.408 248.400 C 274.078 248.922,270.988 249.000,250.579 249.000 L 227.129 249.000 226.346 248.032 C 225.207 246.626,225.355 227.672,226.514 226.514 C 227.157 225.870,228.291 225.788,237.999 225.682 L 248.771 225.563 249.585 224.528 C 250.357 223.547,250.400 222.948,250.400 213.166 L 250.400 202.841 251.738 201.820 L 253.076 200.800 287.677 200.800 C 321.392 200.800,322.301 200.820,323.176 201.579 C 323.670 202.007,324.240 202.413,324.443 202.481 C 324.661 202.554,324.850 212.057,324.906 225.737 L 325.000 248.871 325.944 249.635 C 326.818 250.342,327.645 250.400,336.944 250.406 C 342.475 250.409,347.186 250.544,347.414 250.706 C 349.529 252.208,349.600 252.634,349.600 263.845 L 349.600 274.382 350.557 275.009 C 352.079 276.006,374.056 275.717,375.086 274.686 C 376.725 273.047,376.303 252.076,374.594 250.232 L 373.638 249.200 363.001 249.200 L 352.364 249.200 351.382 248.218 L 350.400 247.236 350.406 237.118 C 350.410 231.444,350.579 226.736,350.791 226.400 C 351.120 225.879,354.399 225.786,375.585 225.691 C 391.146 225.622,400.000 225.440,400.000 225.191 C 400.000 224.357,351.021 224.692,350.262 225.531 C 349.681 226.174,349.600 227.566,349.600 236.931 C 349.600 247.067,349.560 247.640,348.800 248.400 C 347.616 249.584,327.328 249.646,326.262 248.469 C 325.663 247.806,325.600 245.617,325.600 225.311 L 325.600 202.885 326.760 201.642 L 327.921 200.400 338.948 200.400 C 347.779 200.400,349.936 200.297,349.777 199.885 C 349.622 199.481,347.311 199.376,339.147 199.400 C 324.728 199.443,325.602 200.272,325.601 186.544 C 325.600 174.341,324.127 175.643,338.081 175.508 C 346.514 175.426,349.285 175.276,349.681 174.881 C 350.072 174.490,350.249 171.580,350.400 163.092 L 350.600 151.822 351.600 151.317 C 352.645 150.789,369.496 150.554,371.850 151.035 C 374.411 151.557,374.579 152.303,374.629 163.397 C 374.678 174.119,374.724 174.455,376.241 175.146 C 377.912 175.907,400.000 175.772,400.000 175.000 C 400.000 174.480,398.448 174.400,388.429 174.400 C 378.442 174.400,376.771 174.314,376.229 173.771 C 375.128 172.671,375.305 153.282,376.429 151.854 L 377.258 150.800 388.629 150.800 C 398.707 150.800,401.317 150.583,399.500 149.897 C 399.225 149.793,394.355 149.674,388.677 149.633 C 374.633 149.530,376.034 151.009,375.987 136.240 C 375.958 126.911,375.863 125.200,375.376 125.200 C 374.889 125.200,374.800 126.889,374.800 136.194 L 374.800 147.187 373.633 148.494 L 372.467 149.800 361.990 149.919 C 353.294 150.018,351.351 150.145,350.557 150.665 L 349.600 151.292 349.600 162.072 C 349.600 168.738,349.442 173.148,349.186 173.626 C 348.793 174.361,348.242 174.400,338.166 174.400 C 329.442 174.400,327.351 174.508,326.380 175.010 L 325.200 175.621 325.195 185.910 C 325.188 197.628,325.205 197.507,323.453 198.708 L 322.150 199.600 287.435 199.600 L 252.720 199.600 251.360 198.240 L 250.000 196.880 250.000 187.040 C 250.000 177.733,250.043 177.157,250.800 176.400 C 251.582 175.618,252.133 175.600,274.746 175.600 C 297.557 175.600,297.907 175.588,298.946 174.771 L 300.000 173.942 300.000 163.247 C 300.000 149.466,298.476 151.025,312.067 150.896 C 326.818 150.755,325.600 151.895,325.600 138.230 C 325.600 128.072,325.890 126.035,327.418 125.449 C 327.774 125.312,333.098 125.200,339.248 125.200 C 348.177 125.200,350.337 125.099,349.965 124.700 C 349.610 124.319,347.101 124.229,339.449 124.320 C 327.413 124.463,327.091 124.422,326.241 122.629 C 325.287 120.620,325.292 103.243,326.246 101.786 L 326.892 100.800 337.997 100.800 C 347.833 100.800,349.165 100.725,349.651 100.139 C 350.073 99.631,350.256 96.927,350.442 88.439 C 350.575 82.368,350.821 76.905,350.988 76.300 L 351.293 75.200 362.211 75.200 L 373.129 75.200 373.927 76.900 C 374.666 78.473,374.723 79.395,374.687 89.199 C 374.655 98.126,374.739 99.816,375.224 99.910 C 376.231 100.104,375.834 76.949,374.808 75.600 L 374.047 74.600 363.126 74.481 C 351.438 74.354,350.672 74.414,350.147 75.497 C 349.959 75.883,349.714 81.278,349.603 87.483 C 349.350 101.535,350.862 99.971,337.519 99.987 C 330.594 99.996,326.905 100.152,326.219 100.464 L 325.200 100.928 325.194 111.564 C 325.187 123.007,325.224 122.769,323.320 123.744 C 321.244 124.808,277.229 124.737,276.262 123.669 C 275.680 123.025,275.600 121.607,275.600 111.869 C 275.600 104.756,275.457 100.800,275.200 100.800 C 274.368 100.800,274.689 123.775,275.531 124.538 C 276.194 125.138,278.412 125.200,299.109 125.200 L 321.955 125.200 323.394 126.518 L 324.833 127.837 324.852 137.774 L 324.870 147.712 323.919 148.662 C 322.971 149.611,322.949 149.613,312.166 149.707 C 302.597 149.789,301.240 149.881,300.282 150.509 L 299.200 151.218 299.200 162.395 C 299.200 173.036,299.163 173.592,298.426 173.986 C 297.921 174.256,289.769 174.411,274.926 174.430 C 257.700 174.453,251.861 174.583,250.800 174.966 L 249.400 175.471 249.184 186.635 C 249.065 192.776,248.930 197.848,248.884 197.906 C 247.693 199.406,246.248 199.597,236.109 199.599 L 226.018 199.600 225.309 200.681 C 224.690 201.624,224.575 203.098,224.400 212.240 C 224.217 221.821,224.135 222.790,223.438 223.559 C 222.237 224.885,177.763 224.884,176.562 223.559 C 175.865 222.790,175.783 221.820,175.600 212.240 C 175.425 203.097,175.310 201.624,174.691 200.681 L 173.982 199.600 163.971 199.600 C 149.825 199.600,150.763 200.581,150.814 185.856 C 150.833 180.374,150.703 175.759,150.525 175.599 C 149.321 174.524,146.676 174.400,124.914 174.400 C 110.123 174.400,102.081 174.257,101.574 173.986 C 100.837 173.592,100.800 173.036,100.800 162.395 L 100.800 151.218 99.718 150.509 C 98.759 149.881,97.438 149.792,88.140 149.728 C 77.927 149.658,77.611 149.632,76.422 148.753 L 75.200 147.850 75.200 137.814 L 75.200 127.778 76.500 126.589 L 77.800 125.400 100.779 125.290 C 121.366 125.192,123.833 125.113,124.479 124.528 C 125.312 123.774,125.623 100.800,124.800 100.800 C 124.543 100.800,124.400 104.779,124.400 111.938 C 124.400 122.220,124.344 123.127,123.669 123.738 C 122.542 124.758,78.754 124.747,76.614 123.726 L 75.200 123.052 75.200 113.176 C 75.200 98.622,76.534 100.005,62.481 99.987 C 49.123 99.971,50.649 101.591,50.400 87.150 C 50.212 76.239,50.153 75.500,49.424 74.967 C 48.465 74.267,27.570 74.178,26.146 74.868 M1.100 199.527 C 0.495 199.596,-0.000 199.821,-0.000 200.027 C -0.000 200.250,5.075 200.400,12.629 200.400 C 22.747 200.400,25.152 200.301,24.729 199.900 C 24.241 199.439,4.566 199.128,1.100 199.527 M375.419 199.896 C 375.266 200.295,377.811 200.400,387.613 200.400 C 395.604 200.400,400.000 200.258,400.000 200.000 C 400.000 199.489,400.233 199.499,386.906 199.441 C 378.153 199.403,375.569 199.505,375.419 199.896 M173.600 201.200 C 174.808 202.408,174.839 222.169,173.635 223.656 L 172.871 224.600 162.269 224.600 C 156.438 224.600,151.517 224.450,151.333 224.267 C 150.939 223.874,150.642 204.801,151.001 202.871 C 151.415 200.640,152.446 200.434,163.300 200.416 C 172.278 200.401,172.844 200.444,173.600 201.200 M248.436 201.544 C 249.564 202.938,249.623 223.852,248.500 224.313 C 248.115 224.471,243.149 224.600,237.464 224.600 L 227.129 224.600 226.346 223.633 C 225.135 222.137,225.362 201.855,226.600 200.949 C 228.152 199.813,247.461 200.340,248.436 201.544 M123.920 226.080 C 124.268 226.428,124.400 229.331,124.400 236.630 C 124.400 248.731,124.441 249.020,126.253 249.618 C 127.183 249.924,134.713 250.087,150.045 250.133 L 172.476 250.200 173.420 251.384 C 174.352 252.553,174.366 252.707,174.482 263.320 L 174.600 274.072 175.544 274.836 C 177.015 276.026,222.985 276.026,224.456 274.836 C 225.396 274.075,225.401 274.026,225.600 263.317 C 225.798 252.647,225.954 251.466,227.309 250.323 C 227.359 250.281,237.966 250.146,250.880 250.023 C 269.357 249.848,274.472 249.689,274.880 249.281 C 275.272 248.890,275.449 245.995,275.600 237.566 C 275.767 228.200,275.898 226.308,276.400 225.991 C 277.053 225.579,297.523 225.442,298.567 225.843 C 299.134 226.060,299.200 228.533,299.200 249.669 C 299.200 264.287,299.349 273.531,299.592 273.984 C 300.326 275.356,302.213 275.600,312.113 275.600 C 322.447 275.600,324.660 275.904,325.029 277.373 C 325.367 278.721,325.034 298.301,324.667 298.667 C 324.484 298.850,313.543 299.049,300.355 299.109 L 276.377 299.218 275.590 300.509 C 274.860 301.707,274.803 302.564,274.801 312.411 C 274.800 321.366,274.703 323.161,274.177 323.911 L 273.555 324.800 249.830 324.800 L 226.105 324.800 225.857 323.300 C 225.720 322.475,225.607 317.462,225.604 312.160 C 225.600 302.214,225.356 300.326,223.984 299.592 C 222.971 299.049,177.005 299.062,175.991 299.605 C 174.690 300.301,174.405 302.645,174.402 312.650 C 174.401 317.958,174.288 322.863,174.150 323.550 L 173.900 324.800 150.199 324.800 C 128.656 324.800,126.448 324.740,125.949 324.140 C 125.525 323.629,125.348 320.885,125.173 312.040 C 125.048 305.748,124.913 300.568,124.873 300.529 C 124.833 300.489,124.517 300.174,124.171 299.829 C 123.615 299.272,120.889 299.199,100.271 299.195 C 87.472 299.192,76.595 299.081,76.100 298.948 L 75.200 298.707 75.200 287.600 L 75.200 276.493 76.100 276.179 C 76.595 276.006,82.011 275.760,88.136 275.632 C 99.228 275.401,99.275 275.396,100.036 274.456 C 100.769 273.550,100.800 272.546,100.800 249.976 C 100.800 227.982,100.846 226.413,101.500 226.032 C 102.555 225.418,123.302 225.462,123.920 226.080 M223.886 226.514 C 225.030 227.659,224.973 247.792,223.824 248.632 C 222.555 249.560,177.361 249.470,176.331 248.538 C 175.070 247.397,175.224 227.109,176.500 226.214 C 177.959 225.191,222.847 225.475,223.886 226.514 M45.925 250.262 C 49.779 250.725,50.000 251.412,50.000 262.913 C 50.000 270.670,49.887 272.659,49.390 273.620 L 48.779 274.800 37.971 274.800 L 27.162 274.800 26.181 273.742 L 25.200 272.683 25.200 262.831 C 25.200 249.296,24.593 250.029,35.800 250.016 C 40.200 250.011,44.756 250.122,45.925 250.262 M373.640 251.242 L 374.800 252.485 374.800 262.717 C 374.800 276.201,376.272 274.800,362.110 274.800 L 351.159 274.800 350.580 273.413 C 350.131 272.340,350.002 270.007,350.009 263.113 C 350.019 252.980,350.423 251.077,352.674 250.579 C 353.293 250.442,353.980 250.270,354.200 250.197 C 354.420 250.123,358.623 250.049,363.540 250.032 L 372.479 250.000 373.640 251.242 M223.384 251.496 L 224.400 252.592 224.400 263.216 C 224.400 270.946,224.269 273.971,223.920 274.320 C 223.098 275.142,177.055 274.998,176.229 274.171 C 175.689 273.632,175.600 272.064,175.600 263.141 L 175.600 252.738 176.769 251.569 L 177.938 250.400 200.153 250.400 L 222.368 250.400 223.384 251.496 M0.000 299.600 C 0.000 299.857,4.057 300.000,11.371 300.000 L 22.742 300.000 23.571 301.054 C 24.535 302.280,24.859 320.963,23.961 323.540 L 23.522 324.800 11.761 324.800 C 4.187 324.800,0.000 324.942,0.000 325.200 C 0.000 325.458,4.264 325.600,11.991 325.600 L 23.982 325.600 24.691 324.519 C 26.176 322.255,25.903 301.503,24.367 299.967 C 23.493 299.093,0.000 298.739,0.000 299.600 M376.151 299.593 C 374.431 300.288,373.641 321.035,375.214 324.200 L 375.810 325.400 387.905 325.506 C 395.888 325.576,400.000 325.474,400.000 325.206 C 400.000 324.941,395.934 324.800,388.264 324.800 L 376.528 324.800 376.039 323.300 C 375.163 320.617,375.599 301.904,376.562 300.841 C 377.302 300.024,377.647 300.000,388.662 300.000 C 395.954 300.000,400.000 299.857,400.000 299.600 C 400.000 299.102,377.384 299.095,376.151 299.593 M76.400 325.080 C 74.455 325.424,74.400 325.775,74.400 337.827 C 74.400 347.823,74.475 349.164,75.061 349.651 C 75.574 350.077,78.275 350.245,87.097 350.400 L 98.472 350.600 99.253 351.565 C 99.988 352.473,100.030 353.177,99.981 363.709 C 99.946 371.303,100.069 375.029,100.364 375.324 C 100.679 375.639,100.800 372.335,100.800 363.480 C 100.800 347.853,102.323 349.601,88.700 349.598 C 82.656 349.596,77.563 349.419,76.700 349.179 L 75.200 348.762 75.200 337.787 L 75.200 326.811 76.649 326.205 C 78.586 325.396,99.132 325.303,99.959 326.100 C 100.378 326.504,100.450 326.447,100.333 325.800 C 100.194 325.026,80.118 324.422,76.400 325.080 M299.813 325.179 C 299.670 325.410,299.698 325.605,299.876 325.612 C 300.054 325.618,305.123 325.613,311.139 325.600 C 322.744 325.575,324.546 325.806,324.966 327.370 C 325.317 328.675,325.225 347.741,324.866 348.307 C 324.209 349.342,321.556 349.600,311.557 349.600 C 301.794 349.600,301.258 349.639,300.254 350.429 L 299.200 351.258 299.200 363.262 C 299.200 371.644,299.330 375.223,299.630 375.123 C 299.921 375.026,300.082 371.272,300.130 363.505 C 300.219 348.959,298.525 350.653,313.228 350.400 C 322.954 350.232,324.891 350.103,325.209 349.600 C 325.948 348.429,325.699 326.180,324.939 325.549 C 324.093 324.846,300.236 324.494,299.813 325.179 M124.938 349.700 C 124.836 349.865,136.148 349.986,150.076 349.968 C 164.004 349.951,175.212 349.858,174.982 349.762 C 174.236 349.451,125.130 349.390,124.938 349.700 M225.062 349.694 C 224.808 349.856,236.015 349.991,249.967 349.994 C 263.918 349.997,275.241 349.907,275.127 349.794 C 274.799 349.466,225.574 349.368,225.062 349.694 M24.896 349.829 C 25.022 349.956,30.356 350.091,36.748 350.129 C 51.456 350.219,49.746 348.558,50.000 363.000 C 50.165 372.410,50.304 374.477,50.803 374.975 C 51.517 375.688,74.478 375.966,74.712 375.264 C 74.925 374.624,71.455 374.427,61.534 374.515 C 49.751 374.621,51.057 376.149,50.800 361.961 C 50.645 353.423,50.476 350.771,50.051 350.261 C 49.562 349.672,48.140 349.600,37.084 349.600 C 30.255 349.600,24.770 349.703,24.896 349.829 M350.080 350.080 C 349.730 350.430,349.600 353.487,349.600 361.333 C 349.600 371.271,349.540 372.202,348.829 373.353 L 348.058 374.600 338.529 374.513 C 328.111 374.417,325.150 374.603,325.430 375.334 C 325.742 376.148,348.569 375.759,349.261 374.928 C 349.674 374.431,349.847 371.631,350.000 362.953 C 350.180 352.779,350.273 351.554,350.914 350.913 C 351.783 350.045,372.859 349.575,374.383 350.391 C 375.041 350.743,375.200 350.709,375.200 350.214 C 375.200 349.403,350.887 349.273,350.080 350.080 M126.094 375.215 C 125.596 375.415,125.011 376.045,124.794 376.615 C 124.260 378.020,124.266 400.000,124.800 400.000 C 125.057 400.000,125.200 395.954,125.200 388.662 C 125.200 378.224,125.258 377.272,125.925 376.668 C 126.579 376.076,128.959 376.010,150.324 375.994 C 173.371 375.976,175.436 375.906,174.974 375.158 C 174.681 374.683,127.280 374.738,126.094 375.215 M225.297 375.291 C 225.431 375.694,230.463 375.823,249.414 375.911 C 270.869 376.011,273.437 376.090,274.081 376.673 C 274.741 377.270,274.800 378.258,274.800 388.662 C 274.800 395.954,274.943 400.000,275.200 400.000 C 276.055 400.000,275.707 377.021,274.835 375.944 L 274.071 375.000 249.599 374.891 C 229.929 374.803,225.161 374.882,225.297 375.291 " stroke="none" fill="#a361d7" fill-rule="evenodd"></path><path id="path4" d="M0.000 24.794 C 0.000 25.042,4.492 25.228,12.100 25.294 L 24.200 25.400 24.303 49.165 C 24.397 70.776,24.347 72.996,23.747 73.659 C 23.142 74.327,22.118 74.397,11.443 74.500 L -0.200 74.613 11.638 74.706 C 23.179 74.798,23.495 74.779,24.229 73.968 C 24.985 73.133,25.343 26.003,24.603 24.804 C 24.265 24.258,0.000 24.248,0.000 24.794 M375.467 24.667 C 374.732 25.401,375.184 73.461,375.931 74.138 C 376.582 74.727,377.959 74.790,388.431 74.706 L 400.200 74.613 388.625 74.500 C 378.563 74.402,376.954 74.302,376.325 73.732 C 375.595 73.072,375.139 27.668,375.843 25.833 C 376.057 25.275,377.508 25.200,388.043 25.200 C 395.748 25.200,400.000 25.058,400.000 24.800 C 400.000 24.350,375.914 24.219,375.467 24.667 M100.111 74.400 L 76.422 74.600 75.511 75.510 C 74.618 76.403,74.598 76.623,74.475 86.560 C 74.332 98.201,74.463 99.110,76.418 100.099 C 78.322 101.063,149.573 101.196,150.369 100.238 C 150.707 99.831,150.803 96.526,150.718 88.269 L 150.600 76.863 149.630 75.832 C 149.097 75.264,148.436 74.800,148.161 74.800 C 147.886 74.800,148.191 75.329,148.837 75.976 L 150.013 77.151 149.906 88.476 L 149.800 99.800 113.400 99.892 C 78.028 99.982,76.972 99.963,76.000 99.216 L 75.000 98.447 74.880 88.354 C 74.758 78.075,74.914 76.668,76.304 75.513 C 76.793 75.108,84.307 74.958,112.161 74.800 C 135.335 74.668,143.360 74.532,135.600 74.400 C 129.110 74.290,113.140 74.290,100.111 74.400 M270.100 74.700 C 279.725 74.760,295.475 74.760,305.100 74.700 C 314.725 74.640,306.850 74.591,287.600 74.591 C 268.350 74.591,260.475 74.640,270.100 74.700 M250.690 75.501 C 250.341 75.886,249.863 76.708,249.628 77.327 C 249.080 78.768,249.050 98.353,249.593 99.782 L 249.986 100.816 286.782 100.708 L 323.578 100.600 324.489 99.690 C 325.384 98.795,325.402 98.595,325.519 88.294 C 325.659 76.024,325.462 74.800,323.341 74.800 C 322.966 74.800,323.204 75.192,323.969 75.836 L 325.200 76.871 325.200 87.455 L 325.200 98.038 324.142 99.019 L 323.083 100.000 286.784 100.000 C 254.054 100.000,250.462 99.938,250.243 99.367 C 250.109 99.019,250.000 93.875,250.000 87.937 L 250.000 77.138 251.169 75.969 C 251.812 75.326,252.110 74.800,251.831 74.800 C 251.552 74.800,251.039 75.115,250.690 75.501 M25.333 100.000 C 25.224 100.110,19.434 100.297,12.467 100.416 C 2.044 100.594,4.149 100.647,24.356 100.716 C 47.216 100.794,48.949 100.848,49.443 101.500 C 50.274 102.594,50.236 123.706,49.402 124.398 C 48.932 124.788,43.590 124.831,24.402 124.597 C 6.405 124.377,-0.000 124.417,-0.000 124.750 C 0.000 125.442,49.193 125.386,50.142 124.692 C 51.049 124.029,50.992 101.631,50.081 100.719 C 49.566 100.204,25.816 99.514,25.333 100.000 M362.319 99.992 C 354.643 100.126,350.287 100.352,350.009 100.630 C 349.315 101.326,349.363 124.404,350.060 124.845 C 350.919 125.390,400.000 125.296,400.000 124.750 C 400.000 124.417,393.615 124.377,375.675 124.596 C 353.150 124.870,351.300 124.842,350.675 124.218 C 349.696 123.239,349.650 103.078,350.623 101.689 L 351.245 100.800 375.723 100.714 C 395.629 100.644,397.884 100.587,387.800 100.412 C 380.980 100.293,375.130 100.104,374.800 99.990 C 374.470 99.877,368.854 99.878,362.319 99.992 M25.700 174.996 L 24.400 175.561 24.400 187.738 C 24.400 198.472,24.475 199.943,25.033 200.157 C 26.489 200.716,49.884 200.421,50.368 199.838 C 51.296 198.720,50.770 175.762,49.800 175.029 C 48.660 174.168,27.671 174.140,25.700 174.996 M350.500 174.888 C 349.916 175.170,349.596 175.687,349.588 176.361 C 349.491 184.430,349.639 199.739,349.816 200.026 C 350.259 200.742,374.643 200.500,375.371 199.771 C 375.912 199.231,376.000 197.614,376.000 188.197 C 376.000 176.264,375.886 175.518,373.969 174.849 C 372.245 174.248,351.756 174.282,350.500 174.888 M49.433 176.176 C 50.382 177.476,50.259 199.056,49.300 199.486 C 48.915 199.659,43.380 199.710,37.000 199.600 L 25.400 199.400 25.294 188.098 L 25.188 176.796 26.494 175.986 C 28.451 174.772,48.529 174.939,49.433 176.176 M373.719 176.109 L 374.800 176.818 374.800 187.986 C 374.800 194.128,374.645 199.249,374.455 199.366 C 373.622 199.881,350.677 199.649,350.344 199.122 C 349.775 198.226,349.920 177.056,350.500 176.310 C 351.555 174.955,371.693 174.780,373.719 176.109 M126.411 275.233 C 124.834 275.882,124.813 276.052,124.806 287.651 C 124.801 297.441,124.875 298.765,125.461 299.251 C 126.196 299.862,143.146 300.290,147.133 299.798 C 150.919 299.330,150.830 299.643,150.707 287.336 L 150.600 276.686 149.472 275.843 C 148.188 274.884,128.523 274.363,126.411 275.233 M251.359 275.550 C 249.208 276.544,249.212 276.523,249.205 287.674 C 249.200 297.906,249.375 299.011,251.086 299.489 C 253.188 300.076,273.797 299.867,274.539 299.251 C 275.461 298.485,275.547 277.028,274.633 275.776 C 273.761 274.583,253.871 274.390,251.359 275.550 M149.500 276.507 C 149.877 276.802,150.000 279.478,150.000 287.420 C 150.000 298.921,149.949 299.182,147.671 299.216 C 135.111 299.404,125.847 299.201,125.549 298.731 C 124.973 297.822,125.115 276.502,125.700 276.124 C 126.417 275.660,146.364 275.330,147.800 275.758 C 148.460 275.955,149.225 276.292,149.500 276.507 M274.300 276.124 C 274.933 276.533,275.032 298.609,274.403 298.998 C 273.314 299.671,251.553 299.282,250.773 298.575 C 250.046 297.918,250.000 297.243,250.000 287.318 L 250.000 276.761 251.517 276.080 C 253.143 275.351,273.165 275.389,274.300 276.124 M100.667 325.067 C 100.096 325.638,100.365 349.073,100.948 349.557 C 101.337 349.880,104.911 349.981,113.248 349.906 L 125.000 349.800 125.110 338.000 C 125.219 326.369,125.208 326.190,124.366 325.500 C 123.488 324.781,101.357 324.377,100.667 325.067 M175.956 325.065 C 174.285 325.511,173.402 349.132,175.033 349.757 C 175.859 350.074,224.141 350.074,224.967 349.757 C 226.063 349.337,225.906 326.706,224.800 325.600 C 224.047 324.847,178.631 324.350,175.956 325.065 M275.634 325.500 C 274.792 326.190,274.781 326.369,274.890 338.000 L 275.000 349.800 286.988 349.800 L 298.976 349.800 299.482 348.800 C 300.187 347.408,300.221 325.981,299.520 325.280 C 298.654 324.414,276.713 324.616,275.634 325.500 M123.744 326.339 C 124.341 326.998,124.401 328.277,124.306 338.239 L 124.200 349.400 113.400 349.512 C 107.460 349.574,102.195 349.526,101.700 349.405 L 100.800 349.185 100.800 337.392 L 100.800 325.600 111.938 325.600 C 122.259 325.600,123.125 325.654,123.744 326.339 M223.966 326.300 C 224.807 326.989,224.819 327.180,224.710 338.200 L 224.600 349.400 200.000 349.400 L 175.400 349.400 175.400 338.067 C 175.400 327.311,175.439 326.706,176.176 326.167 C 177.489 325.209,222.787 325.334,223.966 326.300 M299.220 326.300 C 299.463 334.868,299.156 348.982,298.720 349.262 C 298.434 349.445,293.160 349.551,287.000 349.497 L 275.800 349.400 275.694 338.239 C 275.599 328.277,275.659 326.998,276.256 326.339 C 277.260 325.228,299.188 325.192,299.220 326.300 M11.200 349.609 L -0.200 349.819 11.600 349.916 C 18.090 349.969,23.630 350.158,23.912 350.337 C 24.318 350.595,24.427 355.766,24.443 375.431 C 24.454 389.054,24.584 399.750,24.731 399.200 C 24.879 398.650,25.000 387.317,25.000 374.016 L 25.000 349.833 23.800 349.616 C 23.140 349.497,17.470 349.494,11.200 349.609 M376.300 349.527 L 375.200 349.653 375.297 374.927 L 375.394 400.200 375.500 375.300 C 375.558 361.605,375.650 350.362,375.703 350.315 C 375.756 350.268,381.290 350.130,388.000 350.009 L 400.200 349.789 388.800 349.595 C 382.530 349.488,376.905 349.457,376.300 349.527 M74.814 375.174 C 74.549 375.670,74.433 380.303,74.491 388.074 L 74.582 400.200 74.791 388.000 L 75.000 375.800 87.400 375.800 L 99.800 375.800 99.906 387.900 C 99.972 395.508,100.158 400.000,100.406 400.000 C 101.136 400.000,100.918 376.346,100.177 375.289 C 99.263 373.983,75.509 373.875,74.814 375.174 M300.080 374.880 C 299.723 375.237,299.623 378.549,299.691 387.780 L 299.782 400.200 299.991 388.000 L 300.200 375.800 312.600 375.800 L 325.000 375.800 325.209 388.000 L 325.418 400.200 325.509 387.780 C 325.577 378.549,325.477 375.237,325.120 374.880 C 324.768 374.528,321.431 374.400,312.600 374.400 C 303.769 374.400,300.432 374.528,300.080 374.880 M199.200 375.208 C 185.670 375.322,174.555 375.457,174.500 375.508 C 174.163 375.819,174.459 400.000,174.800 400.000 C 175.057 400.000,175.202 395.963,175.205 388.700 C 175.208 382.485,175.320 376.994,175.453 376.497 L 175.695 375.594 200.147 375.697 L 224.600 375.800 224.706 387.900 C 224.773 395.628,224.956 400.000,225.212 400.000 C 226.109 400.000,225.504 375.523,224.600 375.246 C 224.160 375.111,212.730 375.093,199.200 375.208 " stroke="none" fill="#747c84" fill-rule="evenodd"></path></g></svg>