<svg
   xmlns:svg="http://www.w3.org/2000/svg"
   xmlns="http://www.w3.org/2000/svg"
   xmlns:sodipodi="http://sodipodi.sourceforge.net/DTD/sodipodi-0.dtd"
   xmlns:inkscape="http://www.inkscape.org/namespaces/inkscape"
   width="139.41148mm"
   height="31.738079mm"
   viewBox="0 0 139.41148 31.738079"
   version="1.1"
   inkscape:version="0.92.0 r15299"
   sodipodi:docname="allen bradley.svg">
  <g
     transform="translate(160.67598,-85.595245)">
    <g
       transform="translate(33.547298,-72.532448)">
      <path
         style="fill:#003e7e;stroke-width:0.26458332"
         d="m -173.84248,174.99217 h -17.96786 a 0.396875,0.396875 0 0 0 -0.28046,0.67734 l 3.6195,3.6195 a 3.8629166,3.8629166 0 0 0 2.73315,1.13241 h 5.82083 a 3.8629166,3.8629166 0 0 0 2.73315,-1.13241 l 3.6195,-3.6195 a 0.396875,0.396875 0 0 0 -0.27781,-0.67734 z m -12.86934,3.05859 a 0.26458333,0.26458333 0 0 1 -0.2196,0.26458 0.28575,0.28575 0 0 0 0.1905,0.18785 v 0 0.10848 h -0.23813 a 0.70908332,0.70908332 0 0 1 -0.34925,-0.29104 h -0.30956 a 0.26458333,0.26458333 0 0 1 -0.26458,-0.26458 v -1.54781 a 0.26458333,0.26458333 0 0 1 0.26458,-0.26459 h 0.66411 a 0.26458333,0.26458333 0 0 1 0.26458,0.26459 z m 1.80446,0 a 0.26458333,0.26458333 0 0 1 -0.26458,0.26458 h -0.66146 a 0.26458333,0.26458333 0 0 1 -0.26458,-0.26458 v -1.80711 h 0.36777 v 1.78329 h 0.44714 v -1.78329 h 0.37042 z m 1.52665,0.26458 -0.10584,-0.45773 h -0.48683 l -0.10583,0.45773 h -0.36777 l 0.46831,-2.07169 h 0.49742 l 0.47889,2.06904 z m 1.778,0 h -0.92075 v -2.07169 h 0.37041 v 1.72509 h 0.55034 z m 0.81491,0 h -0.37041 v -2.07169 h 0.37041 z m 1.38377,-1.78329 h -0.29633 v 1.78329 h -0.37042 v -1.78329 h -0.29633 v -0.2884 h 0.96308 z m 1.24619,0.8255 v 0.95779 h -0.34396 v -0.95779 l -0.5715,-1.1139 h 0.41275 l 0.33073,0.71967 0.33073,-0.71967 h 0.41275 z"
          />
      <path
         style="fill:#003e7e;stroke-width:0.26458332"
         d="m -177.47521,168.34849 h -1.79917 v -0.889 h 1.36525 a 0.60854166,0.60854166 0 0 0 0.55298,-0.52917 v -1.82033 a 0.64293749,0.64293749 0 0 0 -0.67204,-0.5768 h -2.08756 v 6.94796 h 2.66435 a 0.84137499,0.84137499 0 0 0 0.67733,-0.68527 v -1.75154 a 0.83608332,0.83608332 0 0 0 -0.70114,-0.69585 z"
          />
      <path
         style="fill:#003e7e;stroke-width:0.26458332"
         d="m -172.93232,164.00403 -4.37091,-4.37356 a 3.4395833,3.4395833 0 0 0 -2.42359,-1.00278 h -6.19389 a 3.4395833,3.4395833 0 0 0 -2.42359,1.00278 l -4.37356,4.37356 a 3.4395833,3.4395833 0 0 0 -1.00542,2.42623 v 6.41879 a 1.3758333,1.3758333 0 0 0 1.37848,1.37583 h 19.03677 a 1.3784791,1.3784791 0 0 0 1.37848,-1.37848 v -6.41614 a 3.4395833,3.4395833 0 0 0 -1.00277,-2.42623 z m -12.48568,8.37406 c 0,0 0.0873,-0.18785 -0.12965,-0.75142 l -0.66146,-1.71979 h -2.25425 v -0.88635 h 1.94204 l -1.47108,-3.85498 -2.38125,6.5405 a 1.1879792,1.1879792 0 0 0 -0.0238,0.67204 h -1.39436 c 0.0661,0 0.26459,-0.12435 0.52917,-0.88635 l 2.78077,-7.88988 h 1.85208 l 3.22263,8.29733 c 0,0 0.16404,0.42334 0.34131,0.4789 z m 2.74372,-4.00579 h -1.29645 v -0.889 h 1.29645 z m 7.7523,2.47385 a 1.5345833,1.5345833 0 0 1 -1.53459,1.53459 h -5.69912 c 0.26458,-0.26459 0.21696,-0.88636 0.21696,-0.88636 v -6.75216 c 0,-0.90223 -0.2884,-1.14036 -0.2884,-1.14036 h 5.45306 a 1.444625,1.444625 0 0 1 1.37054,1.44198 v 1.60602 a 1.1403542,1.1403542 0 0 1 -1.14035,1.143 h 0.12171 a 1.4948958,1.4948958 0 0 1 1.50019,1.4949 z"
         />
    </g>
  </g>
</svg>
