<svg id="svg" version="1.1" xmlns="http://www.w3.org/2000/svg" xmlns:xlink="http://www.w3.org/1999/xlink" width="400" height="438.75" viewBox="0, 0, 400,438.75"><g id="svgg"><path id="path0" d="M0.000 219.200 L 0.000 438.400 200.000 438.400 L 400.000 438.400 400.000 219.200 L 400.000 0.000 200.000 0.000 L 0.000 0.000 0.000 219.200 M385.750 10.200 C 385.669 14.064,384.863 24.235,384.441 26.716 C 384.227 27.972,383.940 31.250,383.804 34.000 C 383.668 36.750,383.385 39.900,383.175 41.000 C 382.965 42.100,382.625 45.430,382.418 48.400 C 381.798 57.301,381.212 63.922,380.589 69.055 C 380.265 71.725,379.999 75.055,379.998 76.455 C 379.996 77.855,379.804 80.080,379.571 81.400 C 379.338 82.720,378.999 86.140,378.819 89.000 C 378.639 91.860,378.292 96.180,378.048 98.600 C 377.804 101.020,377.324 106.240,376.982 110.200 C 376.639 114.160,376.173 119.200,375.945 121.400 C 375.717 123.600,375.380 127.843,375.196 130.829 C 375.012 133.814,374.679 137.324,374.456 138.629 C 374.234 139.933,373.933 143.070,373.788 145.600 C 373.643 148.130,373.273 151.910,372.965 154.000 C 372.657 156.090,372.404 159.181,372.402 160.869 C 372.401 162.558,372.219 164.808,371.997 165.869 C 371.775 166.931,371.422 170.590,371.213 174.000 C 371.003 177.410,370.641 182.090,370.409 184.400 C 368.729 201.059,368.021 208.955,367.632 215.400 C 367.459 218.260,367.117 221.950,366.872 223.600 C 366.339 227.194,365.713 234.348,365.193 242.800 C 364.984 246.210,364.702 249.450,364.569 250.000 C 364.435 250.550,364.082 253.970,363.785 257.600 C 363.073 266.283,362.501 272.544,361.785 279.467 C 361.463 282.584,361.200 286.274,361.199 287.667 C 361.199 289.060,360.929 291.730,360.600 293.600 C 360.271 295.470,360.001 298.186,360.001 299.635 C 360.000 301.084,359.731 304.054,359.402 306.235 C 359.074 308.416,358.803 311.550,358.800 313.200 C 358.797 314.850,358.618 317.280,358.401 318.600 C 358.183 319.920,357.824 323.692,357.602 326.983 C 357.381 330.273,357.025 334.413,356.811 336.183 C 356.288 340.527,355.653 347.504,355.207 353.800 C 355.004 356.660,354.650 360.620,354.420 362.600 C 354.189 364.580,353.796 368.720,353.546 371.800 C 353.296 374.880,352.891 379.532,352.646 382.137 L 352.200 386.875 349.800 387.596 C 348.480 387.993,346.050 388.704,344.400 389.176 C 342.750 389.648,340.860 390.198,340.200 390.398 C 339.540 390.597,337.470 391.136,335.600 391.595 C 333.730 392.055,331.893 392.600,331.517 392.808 C 331.142 393.015,330.062 393.303,329.117 393.447 C 328.173 393.592,327.088 393.870,326.706 394.066 C 326.324 394.262,325.244 394.588,324.306 394.790 C 322.207 395.243,318.609 396.200,317.000 396.733 C 315.854 397.113,313.352 397.818,309.000 398.987 C 307.900 399.283,305.650 399.912,304.000 400.386 C 302.350 400.859,300.370 401.406,299.600 401.600 C 298.830 401.794,296.940 402.311,295.400 402.749 C 293.860 403.187,291.430 403.851,290.000 404.223 C 288.570 404.596,286.680 405.125,285.800 405.399 C 283.470 406.125,280.168 407.043,277.200 407.791 C 275.770 408.151,273.700 408.697,272.600 409.004 C 271.500 409.311,269.520 409.862,268.200 410.229 C 266.880 410.596,264.630 411.247,263.200 411.677 C 261.770 412.106,259.610 412.731,258.400 413.066 C 257.190 413.401,255.390 413.929,254.400 414.239 C 253.410 414.550,252.216 414.803,251.746 414.802 C 251.276 414.801,250.376 415.069,249.746 415.398 C 249.116 415.726,248.199 415.996,247.708 415.998 C 247.218 415.999,246.138 416.249,245.308 416.553 C 244.479 416.858,242.630 417.411,241.200 417.782 C 238.385 418.513,236.894 418.930,233.800 419.853 C 232.700 420.181,230.810 420.690,229.600 420.985 C 228.390 421.279,226.410 421.823,225.200 422.193 C 222.078 423.149,218.955 423.995,216.372 424.586 C 215.146 424.866,213.763 425.299,213.298 425.548 C 212.833 425.796,211.997 426.000,211.440 426.000 C 210.883 426.000,209.836 426.249,209.114 426.554 C 203.474 428.932,198.646 429.339,194.886 427.754 C 194.164 427.449,193.117 427.200,192.560 427.200 C 192.003 427.200,191.154 426.988,190.674 426.730 C 190.193 426.471,189.170 426.119,188.400 425.947 C 187.630 425.774,185.650 425.256,184.000 424.794 C 182.350 424.333,180.010 423.713,178.800 423.418 C 177.590 423.122,175.610 422.578,174.400 422.209 C 173.190 421.841,171.390 421.362,170.400 421.146 C 169.410 420.930,168.240 420.593,167.800 420.396 C 166.893 419.991,162.994 418.921,160.600 418.421 C 159.720 418.236,158.460 417.902,157.800 417.677 C 157.140 417.453,155.610 416.991,154.400 416.652 C 153.190 416.312,151.300 415.769,150.200 415.445 C 149.100 415.121,147.570 414.732,146.800 414.581 C 146.030 414.430,145.220 414.193,145.000 414.054 C 144.780 413.916,143.700 413.594,142.600 413.338 C 138.373 412.355,136.958 411.952,135.740 411.386 C 135.046 411.064,134.062 410.800,133.553 410.800 C 133.044 410.800,131.901 410.549,131.013 410.242 C 130.126 409.935,128.320 409.379,127.000 409.005 C 125.680 408.631,123.790 408.071,122.800 407.761 C 121.810 407.450,120.550 407.191,120.000 407.184 C 119.450 407.177,118.550 406.914,118.000 406.600 C 117.450 406.286,116.493 406.022,115.874 406.014 C 115.254 406.006,114.354 405.788,113.874 405.528 C 113.393 405.268,112.055 404.818,110.900 404.528 C 109.745 404.238,107.765 403.721,106.500 403.380 C 105.235 403.038,103.390 402.569,102.400 402.337 C 101.410 402.105,100.429 401.755,100.220 401.558 C 100.011 401.361,99.427 401.200,98.922 401.200 C 98.416 401.200,96.967 400.863,95.702 400.451 C 92.768 399.497,89.692 398.619,86.400 397.797 C 84.970 397.439,82.990 396.901,82.000 396.599 C 81.010 396.298,79.617 395.936,78.905 395.795 C 78.192 395.654,77.506 395.372,77.381 395.169 C 77.255 394.966,76.537 394.800,75.784 394.800 C 75.032 394.800,73.738 394.545,72.908 394.234 C 72.079 393.922,70.320 393.372,69.000 393.010 C 67.680 392.649,65.430 392.001,64.000 391.571 C 62.570 391.141,61.096 390.791,60.724 390.794 C 60.352 390.797,59.942 390.630,59.814 390.423 C 59.686 390.216,58.749 389.921,57.732 389.769 C 56.715 389.616,55.414 389.247,54.841 388.948 C 54.269 388.649,53.356 388.404,52.813 388.402 C 51.683 388.400,48.320 387.214,47.958 386.691 C 47.825 386.499,47.592 384.420,47.440 382.071 C 47.288 379.722,47.000 376.990,46.799 376.000 C 46.599 375.010,46.428 372.940,46.420 371.400 C 46.411 369.860,46.140 366.440,45.817 363.800 C 45.494 361.160,45.026 356.390,44.776 353.200 C 44.527 350.010,44.088 344.880,43.803 341.800 C 43.517 338.720,43.083 333.950,42.839 331.200 C 42.595 328.450,42.202 324.400,41.965 322.200 C 41.728 320.000,41.375 315.680,41.181 312.600 C 40.988 309.520,40.644 305.920,40.417 304.600 C 40.190 303.280,40.004 300.759,40.002 298.997 C 40.001 297.236,39.824 295.182,39.610 294.433 C 39.395 293.684,39.120 291.436,38.999 289.436 C 38.759 285.475,37.818 274.556,37.169 268.200 C 36.944 266.000,36.587 261.770,36.376 258.800 C 36.164 255.830,35.813 252.422,35.596 251.227 C 35.378 250.031,35.200 247.310,35.200 245.179 C 35.200 243.048,34.945 239.796,34.633 237.952 C 34.321 236.109,33.954 232.530,33.817 230.000 C 33.680 227.470,33.383 224.230,33.159 222.800 C 32.934 221.370,32.583 217.860,32.377 215.000 C 31.484 202.542,31.172 198.833,30.796 196.200 C 30.576 194.660,30.210 190.610,29.984 187.200 C 29.757 183.790,29.398 180.478,29.186 179.840 C 28.974 179.202,28.794 176.952,28.787 174.840 C 28.780 172.728,28.593 169.740,28.373 168.200 C 28.153 166.660,27.817 163.150,27.626 160.400 C 27.436 157.650,27.084 153.690,26.844 151.600 C 26.186 145.864,25.606 139.250,25.195 132.800 C 24.992 129.610,24.638 125.920,24.408 124.600 C 24.179 123.280,23.823 119.860,23.618 117.000 C 23.140 110.316,22.519 103.256,21.785 96.133 C 21.463 93.016,21.199 89.326,21.198 87.933 C 21.197 86.540,21.006 84.716,20.774 83.881 C 20.542 83.045,20.195 79.625,20.004 76.281 C 19.812 72.936,19.470 68.670,19.244 66.800 C 18.701 62.312,17.998 54.201,17.614 48.000 C 17.444 45.250,17.102 41.650,16.854 40.000 C 16.422 37.124,15.875 30.649,15.232 20.800 C 15.067 18.270,14.692 14.564,14.399 12.564 C 14.105 10.564,13.980 8.629,14.120 8.264 C 14.357 7.645,27.300 7.606,200.088 7.700 L 385.800 7.800 385.750 10.200 M113.700 56.412 C 113.078 56.662,112.794 57.118,112.780 57.887 C 112.768 58.499,112.593 60.890,112.389 63.200 C 110.996 78.983,110.698 81.997,109.532 92.000 C 109.288 94.090,108.961 97.870,108.804 100.400 C 108.647 102.930,108.313 106.980,108.062 109.400 C 107.810 111.820,107.321 117.040,106.976 121.000 C 106.630 124.960,106.168 129.910,105.949 132.000 C 105.730 134.090,105.389 138.230,105.192 141.200 C 104.994 144.170,104.726 147.194,104.595 147.920 C 104.463 148.646,104.084 152.516,103.750 156.520 C 103.417 160.524,102.904 166.500,102.609 169.800 C 102.315 173.100,101.789 179.477,101.442 183.970 C 101.094 188.464,100.716 192.435,100.601 192.796 C 100.487 193.158,100.224 195.781,100.017 198.626 C 99.811 201.472,99.461 205.600,99.240 207.800 C 99.020 210.000,98.650 213.960,98.419 216.600 C 98.188 219.240,97.902 222.030,97.785 222.800 C 97.667 223.570,97.713 224.399,97.885 224.642 C 98.112 224.961,120.167 225.157,176.944 225.346 C 220.253 225.490,255.872 225.721,256.097 225.860 C 256.535 226.131,256.289 231.226,255.598 236.200 C 255.384 237.740,255.016 241.700,254.781 245.000 C 254.058 255.147,252.148 276.749,251.830 278.376 C 251.719 278.939,251.526 280.733,251.400 282.362 C 251.132 285.826,251.056 286.000,249.802 286.000 C 249.280 286.000,248.345 286.200,247.726 286.444 C 246.630 286.877,244.500 287.468,240.000 288.590 C 238.790 288.892,236.810 289.438,235.600 289.804 C 234.390 290.170,232.590 290.648,231.600 290.866 C 230.610 291.084,228.810 291.544,227.600 291.888 C 221.693 293.567,218.267 294.513,214.200 295.587 C 209.616 296.797,208.036 297.229,206.000 297.826 C 201.014 299.289,198.713 299.689,197.856 299.242 C 197.385 298.996,196.190 298.629,195.200 298.427 C 193.329 298.044,188.994 296.906,185.200 295.800 C 183.990 295.447,182.370 295.010,181.600 294.829 C 178.082 293.998,176.094 293.460,174.800 292.988 C 174.030 292.707,171.600 292.033,169.400 291.489 C 167.200 290.946,164.320 290.188,163.000 289.805 C 161.680 289.422,159.610 288.868,158.400 288.575 C 152.540 287.155,148.553 285.926,148.060 285.388 C 147.687 284.981,147.004 278.851,146.389 270.400 C 146.189 267.650,145.849 264.230,145.635 262.800 C 145.420 261.370,145.131 257.959,144.993 255.220 C 144.855 252.481,144.569 249.916,144.357 249.520 C 143.993 248.839,142.703 248.800,120.786 248.800 L 97.600 248.800 97.613 250.700 C 97.620 251.745,97.886 254.400,98.205 256.600 C 98.524 258.800,98.788 261.860,98.792 263.400 C 98.796 264.940,99.062 268.270,99.384 270.800 C 99.705 273.330,100.162 277.740,100.398 280.600 C 100.635 283.460,101.082 288.680,101.393 292.200 C 101.703 295.720,102.234 301.840,102.571 305.800 C 103.418 315.720,104.033 321.766,104.215 321.948 C 104.299 322.033,105.050 322.249,105.884 322.429 C 107.836 322.850,110.893 323.663,115.400 324.959 C 117.380 325.529,120.080 326.276,121.400 326.621 C 122.720 326.965,124.340 327.431,125.000 327.655 C 125.660 327.880,127.190 328.304,128.400 328.597 C 130.697 329.153,137.819 331.108,141.600 332.220 C 142.810 332.576,144.744 333.125,145.898 333.441 C 150.476 334.695,152.283 335.197,154.200 335.748 C 155.300 336.064,157.640 336.717,159.400 337.200 C 161.160 337.683,163.500 338.342,164.600 338.666 C 165.700 338.989,167.140 339.352,167.800 339.473 C 168.460 339.593,170.530 340.144,172.400 340.696 C 179.594 342.822,180.612 343.108,189.000 345.356 C 191.860 346.122,195.370 347.116,196.800 347.564 C 199.255 348.333,199.521 348.343,201.600 347.752 C 203.871 347.105,206.452 346.397,210.097 345.421 C 211.254 345.111,213.550 344.474,215.200 344.005 C 216.850 343.537,218.920 342.961,219.800 342.726 C 220.680 342.491,222.436 341.962,223.702 341.550 C 224.967 341.137,226.442 340.800,226.978 340.800 C 227.514 340.800,228.051 340.641,228.171 340.446 C 228.292 340.252,229.247 339.964,230.295 339.807 C 231.343 339.650,232.512 339.354,232.894 339.150 C 233.276 338.945,234.356 338.614,235.294 338.415 C 236.232 338.215,238.620 337.593,240.600 337.032 C 245.577 335.623,247.807 334.995,250.600 334.218 C 251.920 333.850,253.900 333.299,255.000 332.992 C 261.247 331.250,263.138 330.732,264.400 330.421 C 266.596 329.878,271.677 328.414,273.000 327.942 C 273.660 327.707,274.920 327.373,275.800 327.200 C 276.680 327.027,277.940 326.702,278.600 326.477 C 279.260 326.253,280.790 325.800,282.000 325.472 C 283.210 325.143,285.190 324.603,286.400 324.270 C 287.610 323.938,289.183 323.547,289.895 323.402 C 290.608 323.257,291.294 322.972,291.419 322.769 C 291.545 322.566,292.132 322.397,292.724 322.394 C 295.055 322.381,294.962 322.701,295.973 311.200 C 296.234 308.230,296.708 303.820,297.026 301.400 C 297.345 298.980,297.608 295.740,297.611 294.200 C 297.614 292.660,297.801 290.140,298.028 288.600 C 298.255 287.060,298.598 283.460,298.791 280.600 C 299.123 275.686,299.467 271.905,300.428 262.600 C 300.655 260.400,301.002 256.080,301.198 253.000 C 301.395 249.920,301.741 246.050,301.967 244.400 C 302.193 242.750,302.573 238.880,302.813 235.800 C 303.314 229.342,303.768 224.111,304.391 217.600 C 304.633 215.070,305.007 210.930,305.223 208.400 C 306.091 198.228,306.816 190.435,307.177 187.400 C 307.386 185.640,307.567 182.985,307.578 181.501 L 307.600 178.802 228.300 178.701 L 149.000 178.600 149.059 175.138 C 149.091 173.234,149.316 170.750,149.559 169.618 C 149.801 168.487,150.004 166.084,150.010 164.280 C 150.015 162.476,150.191 160.256,150.401 159.347 C 150.611 158.437,150.966 155.197,151.190 152.147 C 151.414 149.096,151.775 144.980,151.992 143.000 C 152.564 137.773,153.195 131.096,153.807 123.800 C 154.102 120.280,154.532 115.780,154.764 113.800 C 154.995 111.820,155.233 109.300,155.292 108.200 L 155.400 106.200 162.600 105.924 C 196.264 104.631,207.082 104.524,218.004 105.378 C 222.072 105.696,227.830 106.067,230.800 106.202 C 233.770 106.337,237.820 106.614,239.800 106.818 C 241.780 107.022,246.242 107.310,249.715 107.458 C 253.189 107.605,256.098 107.836,256.181 107.969 C 256.502 108.489,257.265 114.844,257.601 119.800 C 257.795 122.660,258.146 126.890,258.381 129.200 C 259.252 137.759,259.995 146.318,260.218 150.370 C 260.344 152.664,260.624 154.870,260.839 155.273 C 261.214 155.973,262.285 156.002,284.316 155.903 L 307.400 155.800 307.390 152.000 C 307.384 149.910,307.161 146.400,306.894 144.200 C 306.400 140.122,306.023 136.189,304.985 124.300 C 303.574 108.141,303.202 104.117,301.963 91.600 C 301.734 89.290,301.388 84.880,301.194 81.800 C 301.001 78.720,300.657 74.310,300.431 72.000 C 300.205 69.690,299.826 65.640,299.589 63.000 C 299.079 57.321,299.051 57.130,298.657 56.493 C 298.285 55.890,115.197 55.811,113.700 56.412 " stroke="none" fill="#f8f8f8" fill-rule="evenodd"></path><path id="path1" d="M16.733 7.918 L 14.066 8.035 14.446 9.318 C 14.656 10.023,14.975 13.591,15.156 17.246 C 15.338 20.901,15.640 24.141,15.828 24.446 C 16.017 24.751,16.325 27.880,16.514 31.400 C 16.946 39.485,17.024 40.416,17.358 41.467 C 17.508 41.939,17.791 44.637,17.988 47.462 C 18.839 59.684,19.614 69.043,19.820 69.589 C 19.943 69.913,20.124 72.220,20.222 74.716 C 20.321 77.213,20.586 79.601,20.812 80.023 C 21.038 80.445,21.320 83.448,21.438 86.695 C 21.556 89.943,21.826 93.410,22.038 94.400 C 22.250 95.390,22.595 98.630,22.804 101.600 C 23.014 104.570,23.358 107.900,23.569 109.000 C 23.780 110.100,23.966 112.980,23.983 115.400 C 24.000 117.820,24.281 121.060,24.607 122.600 C 24.933 124.140,25.201 126.840,25.203 128.600 C 25.205 130.360,25.472 133.780,25.796 136.200 C 26.119 138.620,26.388 141.881,26.392 143.448 C 26.396 145.014,26.679 147.894,27.020 149.848 C 27.360 151.801,27.802 155.920,28.000 159.000 C 28.740 170.490,29.199 175.845,29.576 177.400 C 29.789 178.280,30.073 181.250,30.206 184.000 C 30.339 186.750,30.708 191.155,31.024 193.788 C 31.341 196.421,31.604 199.931,31.610 201.588 C 31.615 203.245,31.793 205.320,32.005 206.200 C 32.218 207.080,32.579 210.770,32.808 214.400 C 33.037 218.030,33.391 221.810,33.595 222.800 C 33.798 223.790,33.977 226.310,33.992 228.400 C 34.007 230.490,34.218 232.920,34.461 233.800 C 34.704 234.680,35.040 237.920,35.206 241.000 C 35.574 247.782,36.210 254.959,37.016 261.400 C 37.346 264.040,37.628 267.280,37.642 268.600 C 37.656 269.920,37.826 272.080,38.019 273.400 C 38.212 274.720,38.563 278.950,38.799 282.800 C 39.035 286.650,39.405 290.222,39.623 290.739 C 39.840 291.255,40.113 294.225,40.229 297.339 C 40.344 300.452,40.625 303.587,40.852 304.304 C 41.079 305.021,41.428 308.351,41.627 311.704 C 42.200 321.349,42.761 327.867,43.408 332.400 C 43.738 334.710,44.006 337.966,44.004 339.635 C 44.002 341.304,44.269 344.454,44.598 346.635 C 44.926 348.816,45.196 352.457,45.198 354.726 C 45.199 356.996,45.384 359.196,45.609 359.616 C 45.834 360.037,46.187 363.400,46.395 367.090 C 46.602 370.781,46.951 374.403,47.169 375.139 C 47.388 375.875,47.665 378.741,47.785 381.507 C 47.905 384.273,48.048 386.552,48.102 386.572 C 51.471 387.774,53.584 388.400,54.276 388.400 C 54.758 388.400,55.251 388.559,55.371 388.753 C 55.491 388.948,56.567 389.229,57.761 389.378 C 59.080 389.543,60.020 389.875,60.154 390.225 C 60.287 390.572,60.924 390.800,61.761 390.800 C 62.524 390.800,63.655 391.006,64.274 391.258 C 64.893 391.510,66.210 391.855,67.200 392.024 C 69.103 392.350,72.529 393.408,73.695 394.030 C 74.077 394.233,74.887 394.401,75.495 394.402 C 76.103 394.404,77.116 394.674,77.746 395.002 C 78.376 395.331,79.309 395.600,79.820 395.600 C 80.330 395.600,81.255 395.800,81.874 396.044 C 83.202 396.569,86.600 397.479,89.379 398.055 C 90.467 398.280,91.722 398.720,92.168 399.032 C 92.613 399.345,93.433 399.606,93.989 399.614 C 94.545 399.622,95.450 399.886,96.000 400.200 C 96.550 400.514,97.564 400.778,98.254 400.786 C 98.944 400.794,100.024 401.069,100.654 401.398 C 101.284 401.726,102.430 402.003,103.200 402.012 C 103.970 402.021,105.050 402.286,105.600 402.600 C 106.150 402.914,107.082 403.178,107.671 403.186 C 108.261 403.194,109.013 403.470,109.343 403.800 C 109.696 404.154,110.674 404.400,111.722 404.400 C 112.816 404.400,113.694 404.631,114.000 405.000 C 114.274 405.330,115.061 405.601,115.749 405.602 C 116.437 405.604,117.503 405.867,118.117 406.188 C 118.731 406.508,119.901 406.881,120.717 407.017 C 121.533 407.153,122.879 407.519,123.708 407.832 C 124.538 408.144,125.717 408.400,126.328 408.400 C 126.940 408.400,127.647 408.607,127.900 408.860 C 128.154 409.114,129.135 409.462,130.080 409.634 C 132.556 410.086,135.200 410.808,136.714 411.446 C 137.436 411.751,138.527 412.000,139.137 412.000 C 139.748 412.000,140.596 412.264,141.024 412.587 C 141.451 412.910,142.543 413.180,143.451 413.187 C 144.417 413.195,145.309 413.449,145.600 413.800 C 145.896 414.157,146.771 414.400,147.760 414.400 C 148.674 414.400,149.777 414.647,150.211 414.949 C 150.645 415.251,151.810 415.690,152.800 415.924 C 157.475 417.031,158.254 417.239,159.000 417.584 C 159.440 417.787,160.610 418.134,161.600 418.356 C 164.913 419.096,166.990 419.682,168.200 420.216 C 168.860 420.507,170.030 420.833,170.800 420.940 C 172.662 421.197,175.493 421.963,177.114 422.646 C 177.836 422.951,178.916 423.206,179.514 423.214 C 180.111 423.222,181.050 423.486,181.600 423.800 C 182.150 424.114,183.352 424.378,184.271 424.386 C 185.191 424.394,186.200 424.657,186.514 424.971 C 186.828 425.285,187.786 425.669,188.643 425.823 C 189.499 425.978,190.389 426.253,190.619 426.434 C 190.850 426.616,191.750 426.799,192.619 426.842 C 193.489 426.885,194.637 427.188,195.172 427.516 C 196.365 428.248,202.790 428.426,203.637 427.750 C 203.947 427.503,205.056 427.177,206.102 427.026 C 207.148 426.874,208.498 426.493,209.102 426.178 C 209.706 425.863,210.751 425.604,211.424 425.602 C 212.096 425.601,212.996 425.336,213.424 425.013 C 213.851 424.690,214.931 424.420,215.824 424.413 C 216.716 424.406,217.796 424.136,218.224 423.813 C 218.651 423.490,219.540 423.214,220.200 423.200 C 220.860 423.186,221.749 422.910,222.176 422.587 C 222.604 422.264,223.594 421.999,224.376 421.998 C 225.159 421.996,226.316 421.726,226.946 421.398 C 227.576 421.069,228.527 420.800,229.059 420.800 C 229.590 420.800,230.693 420.521,231.508 420.181 C 232.323 419.840,233.623 419.403,234.395 419.210 C 240.513 417.678,243.814 416.695,244.533 416.192 C 244.998 415.866,246.204 415.600,247.213 415.600 C 248.222 415.600,249.396 415.336,249.824 415.013 C 250.251 414.690,251.230 414.414,252.000 414.400 C 252.770 414.386,253.749 414.110,254.176 413.787 C 254.604 413.464,255.514 413.200,256.200 413.200 C 256.886 413.200,257.796 412.936,258.224 412.613 C 258.651 412.290,259.540 412.013,260.200 411.999 C 260.860 411.984,261.850 411.714,262.400 411.400 C 262.950 411.086,264.035 410.822,264.811 410.814 C 265.587 410.806,266.577 410.556,267.011 410.257 C 267.445 409.958,268.645 409.621,269.677 409.509 C 270.709 409.396,271.847 409.010,272.205 408.652 C 272.610 408.247,273.524 408.000,274.615 408.000 C 275.582 408.000,276.964 407.748,277.686 407.439 C 278.409 407.131,280.080 406.575,281.400 406.205 C 282.720 405.834,284.340 405.342,285.000 405.112 C 285.660 404.881,286.876 404.607,287.703 404.504 C 288.529 404.400,289.305 404.155,289.426 403.958 C 289.548 403.761,290.042 403.603,290.524 403.606 C 291.006 403.609,292.570 403.261,294.000 402.833 C 295.430 402.405,297.770 401.759,299.200 401.398 C 300.630 401.037,302.310 400.485,302.932 400.171 C 303.555 399.857,304.545 399.599,305.132 399.598 C 305.720 399.596,306.740 399.311,307.400 398.963 C 308.598 398.332,310.642 397.852,314.800 397.227 C 316.010 397.045,317.540 396.622,318.200 396.287 C 320.015 395.366,323.261 394.396,324.520 394.398 C 325.136 394.399,326.159 394.132,326.793 393.804 C 327.427 393.476,330.371 392.591,333.335 391.838 C 336.299 391.085,339.056 390.296,339.462 390.085 C 339.868 389.875,341.051 389.579,342.091 389.428 C 343.131 389.277,344.086 388.984,344.214 388.777 C 344.342 388.570,344.912 388.400,345.481 388.400 C 346.049 388.400,347.737 387.995,349.231 387.500 C 352.388 386.454,352.302 386.632,352.368 380.970 C 352.394 378.754,352.606 376.324,352.839 375.570 C 353.072 374.817,353.435 371.140,353.646 367.400 C 353.857 363.660,354.102 360.060,354.190 359.400 C 354.278 358.740,354.522 356.029,354.731 353.376 C 354.941 350.723,355.308 346.943,355.546 344.976 C 356.189 339.676,356.772 332.659,357.213 324.918 C 357.429 321.134,357.785 317.567,358.003 316.992 C 358.221 316.418,358.411 314.745,358.425 313.274 C 358.438 311.803,358.620 309.250,358.828 307.600 C 359.036 305.950,359.385 302.080,359.604 299.000 C 359.822 295.920,360.271 291.669,360.600 289.552 C 360.930 287.436,361.200 284.549,361.200 283.137 C 361.200 281.725,361.469 278.416,361.797 275.785 C 362.125 273.153,362.395 269.775,362.397 268.277 C 362.399 266.780,362.576 264.800,362.791 263.877 C 363.006 262.955,363.363 259.039,363.585 255.175 C 363.807 251.312,364.166 247.622,364.382 246.975 C 364.599 246.329,364.866 243.370,364.977 240.400 C 365.173 235.144,365.399 232.580,366.619 221.800 C 366.942 218.940,367.216 215.250,367.227 213.600 C 367.239 211.950,367.425 209.700,367.641 208.600 C 368.000 206.776,368.452 201.969,369.579 188.000 C 370.306 178.981,370.373 178.367,370.683 177.881 C 370.852 177.616,371.112 174.790,371.262 171.600 C 371.411 168.410,371.732 163.820,371.974 161.400 C 372.217 158.980,372.603 155.110,372.831 152.800 C 373.060 150.490,373.410 146.029,373.609 142.886 C 373.808 139.743,374.091 136.976,374.239 136.737 C 374.387 136.497,374.657 133.399,374.839 129.851 C 375.021 126.303,375.356 122.430,375.585 121.245 C 375.813 120.060,376.002 117.270,376.004 115.045 C 376.007 112.621,376.247 110.213,376.604 109.036 C 376.938 107.936,377.215 105.387,377.234 103.236 C 377.252 101.126,377.443 98.320,377.657 97.000 C 377.872 95.680,378.194 92.080,378.372 89.000 C 378.551 85.920,378.903 82.320,379.153 81.000 C 379.404 79.680,379.775 76.350,379.978 73.600 C 380.662 64.333,381.220 57.820,381.641 54.200 C 381.871 52.220,382.220 47.810,382.417 44.400 C 382.613 40.990,382.960 37.571,383.187 36.803 C 383.414 36.034,383.600 33.759,383.600 31.747 C 383.600 29.735,383.854 26.673,384.164 24.944 C 384.475 23.215,384.833 19.338,384.960 16.328 C 385.087 13.319,385.404 10.389,385.665 9.818 C 385.974 9.139,386.002 8.642,385.746 8.386 C 385.397 8.037,24.436 7.578,16.733 7.918 M351.070 38.900 C 351.521 39.511,351.080 50.420,350.468 53.800 C 349.837 57.286,349.241 63.592,348.766 71.800 C 348.537 75.760,348.181 79.313,347.975 79.695 C 347.769 80.077,347.589 82.147,347.575 84.295 C 347.562 86.443,347.384 89.550,347.180 91.200 C 346.977 92.850,346.638 96.630,346.429 99.600 C 346.219 102.570,345.868 106.170,345.648 107.600 C 345.429 109.030,345.131 112.270,344.988 114.800 C 344.844 117.330,344.473 121.154,344.164 123.297 C 343.854 125.441,343.600 128.231,343.599 129.497 C 343.599 130.764,343.329 133.330,343.000 135.200 C 342.665 137.101,342.401 140.990,342.401 144.020 C 342.400 147.001,342.232 149.611,342.027 149.820 C 341.821 150.029,341.538 152.450,341.397 155.200 C 341.256 157.950,340.884 161.775,340.570 163.700 C 340.257 165.625,340.000 168.264,340.000 169.563 C 340.000 170.863,339.741 174.058,339.424 176.663 C 339.107 179.268,338.556 185.540,338.199 190.600 C 337.843 195.660,337.293 201.510,336.978 203.600 C 336.663 205.690,336.217 209.830,335.987 212.800 C 335.756 215.770,335.399 220.270,335.193 222.800 C 334.987 225.330,334.815 228.717,334.809 230.326 C 334.804 231.936,334.609 233.609,334.376 234.045 C 334.143 234.480,333.788 237.394,333.586 240.518 C 333.385 243.643,333.047 247.100,332.834 248.200 C 332.622 249.300,332.437 252.016,332.424 254.235 C 332.411 256.454,332.131 260.054,331.802 262.235 C 331.474 264.416,331.204 267.486,331.202 269.057 C 331.201 270.629,330.943 273.239,330.630 274.857 C 330.316 276.476,329.959 280.371,329.837 283.513 C 329.714 286.656,329.454 289.536,329.259 289.913 C 329.064 290.291,328.792 292.940,328.654 295.800 C 328.413 300.775,328.072 304.550,327.188 312.000 C 326.966 313.870,326.613 318.100,326.404 321.400 C 326.196 324.700,325.844 328.930,325.623 330.800 C 325.403 332.670,325.120 336.270,324.996 338.800 C 324.872 341.330,324.598 344.120,324.388 345.000 C 324.178 345.880,323.905 348.850,323.782 351.600 C 323.365 360.918,322.841 362.494,320.000 362.986 C 319.230 363.119,317.610 363.562,316.400 363.970 C 315.190 364.379,313.390 364.933,312.400 365.202 C 311.410 365.471,310.240 365.840,309.800 366.023 C 309.360 366.205,308.190 366.475,307.200 366.622 C 306.210 366.769,304.793 367.139,304.051 367.445 C 303.309 367.750,302.409 368.001,302.051 368.002 C 301.693 368.004,300.885 368.274,300.255 368.602 C 299.626 368.930,297.974 369.380,296.585 369.602 C 295.196 369.824,292.741 370.453,291.130 371.000 C 289.518 371.547,287.750 372.002,287.200 372.011 C 286.650 372.020,285.480 372.375,284.600 372.800 C 283.720 373.225,282.437 373.579,281.749 373.586 C 281.061 373.594,280.274 373.870,280.000 374.200 C 279.726 374.530,279.068 374.800,278.537 374.800 C 277.250 374.800,270.702 376.418,270.220 376.855 C 270.011 377.045,269.428 377.200,268.924 377.200 C 268.421 377.200,266.882 377.648,265.504 378.196 C 264.127 378.744,261.740 379.447,260.200 379.760 C 258.660 380.072,256.500 380.602,255.400 380.938 C 254.300 381.273,251.960 381.931,250.200 382.400 C 248.440 382.870,245.830 383.585,244.400 383.990 C 242.970 384.394,240.720 385.025,239.400 385.391 C 238.080 385.757,236.370 386.302,235.600 386.603 C 234.830 386.903,233.210 387.350,232.000 387.597 C 228.196 388.373,221.675 390.143,220.200 390.800 C 219.760 390.996,216.970 391.722,214.000 392.415 C 211.030 393.107,207.520 394.036,206.200 394.480 C 202.126 395.849,200.710 396.099,200.340 395.517 C 200.160 395.233,200.009 384.699,200.006 372.108 L 200.000 349.216 198.500 348.457 C 197.675 348.039,194.210 347.011,190.800 346.171 C 187.390 345.332,184.316 344.410,183.969 344.122 C 183.621 343.835,182.748 343.600,182.029 343.600 C 181.310 343.600,180.154 343.346,179.460 343.036 C 178.767 342.727,177.750 342.387,177.200 342.283 C 175.555 341.970,171.102 340.739,170.428 340.411 C 170.083 340.243,168.540 339.793,167.000 339.411 C 164.144 338.703,158.597 337.181,155.000 336.119 C 153.900 335.794,152.280 335.354,151.400 335.142 C 150.520 334.929,148.856 334.491,147.703 334.169 C 146.549 333.847,144.659 333.323,143.503 333.005 C 142.346 332.687,139.150 331.779,136.400 330.988 C 133.650 330.197,130.410 329.285,129.200 328.961 C 127.990 328.638,126.190 328.108,125.200 327.784 C 124.210 327.461,122.956 327.197,122.413 327.198 C 121.871 327.199,120.701 326.950,119.813 326.645 C 116.222 325.408,111.302 324.003,109.708 323.759 C 108.777 323.617,107.810 323.253,107.559 322.950 C 107.307 322.648,106.423 322.400,105.594 322.400 C 103.783 322.400,103.600 322.050,103.600 318.587 C 103.600 317.186,103.409 315.151,103.177 314.065 C 102.722 311.945,102.362 307.928,101.418 294.412 C 101.088 289.688,100.709 285.548,100.577 285.212 C 100.444 284.875,100.182 282.440,99.994 279.800 C 99.806 277.160,99.262 270.770,98.785 265.600 C 97.404 250.637,97.358 248.864,98.336 248.501 C 99.426 248.098,144.244 248.510,144.661 248.927 C 144.841 249.108,145.104 252.194,145.246 255.787 C 145.387 259.380,145.622 262.511,145.766 262.746 C 145.911 262.980,146.202 265.743,146.412 268.886 C 146.870 275.720,147.800 285.150,148.033 285.324 C 148.125 285.393,150.720 286.128,153.800 286.957 C 156.880 287.787,160.210 288.707,161.200 289.002 C 162.190 289.297,164.350 289.926,166.000 290.399 C 167.650 290.872,169.450 291.418,170.000 291.613 C 170.550 291.807,171.990 292.153,173.200 292.383 C 176.103 292.933,179.342 293.834,180.343 294.369 C 180.785 294.606,181.589 294.800,182.128 294.800 C 182.667 294.800,183.624 295.069,184.254 295.398 C 184.884 295.726,185.872 295.996,186.448 295.998 C 187.024 295.999,188.644 296.370,190.048 296.821 C 199.079 299.727,200.044 299.628,199.958 295.800 C 199.928 294.480,199.923 278.464,199.946 260.208 C 199.982 231.007,199.914 226.943,199.379 226.408 C 198.843 225.871,192.838 225.789,148.286 225.706 L 97.800 225.613 97.878 222.706 C 97.965 219.496,98.845 208.243,99.545 201.400 C 100.207 194.926,100.802 188.078,101.212 182.221 C 101.412 179.373,101.682 176.763,101.813 176.422 C 101.944 176.080,102.214 173.190,102.413 170.000 C 102.612 166.810,102.952 162.850,103.168 161.200 C 103.385 159.550,103.755 155.680,103.990 152.600 C 104.225 149.520,104.684 144.030,105.011 140.400 C 105.337 136.770,105.782 131.190,105.998 128.000 C 106.214 124.810,106.562 121.390,106.771 120.400 C 106.979 119.410,107.258 116.890,107.389 114.800 C 107.521 112.710,107.799 109.290,108.007 107.200 C 108.215 105.110,108.574 100.770,108.805 97.555 C 109.036 94.340,109.336 91.280,109.472 90.755 C 109.748 89.684,110.203 84.966,111.166 73.200 C 111.391 70.450,111.689 67.570,111.828 66.800 C 111.967 66.030,112.211 63.461,112.369 61.091 C 112.528 58.722,112.846 56.594,113.076 56.364 C 113.362 56.078,127.054 55.958,156.499 55.986 C 197.395 56.023,199.519 55.990,199.788 55.313 C 199.944 54.921,200.047 51.261,200.018 47.180 C 199.988 43.098,200.081 39.453,200.225 39.080 C 200.568 38.185,350.412 38.007,351.070 38.900 M190.780 104.953 C 190.665 105.068,185.898 105.269,180.186 105.400 C 174.474 105.532,168.450 105.777,166.800 105.946 C 165.150 106.114,162.270 106.202,160.400 106.140 C 154.997 105.962,155.200 105.818,155.200 109.831 C 155.200 111.709,155.017 114.451,154.794 115.923 C 154.571 117.395,154.117 122.110,153.785 126.400 C 153.453 130.690,152.922 136.540,152.605 139.400 C 152.287 142.260,151.840 146.850,151.610 149.600 C 151.380 152.350,151.005 156.310,150.776 158.400 C 150.547 160.490,150.194 164.341,149.993 166.959 C 149.791 169.576,149.419 173.139,149.165 174.877 C 148.911 176.614,148.812 178.146,148.947 178.280 C 149.203 178.536,199.587 178.546,199.843 178.290 C 200.011 178.122,200.076 105.534,199.908 105.391 C 199.659 105.180,190.971 104.763,190.780 104.953 " stroke="none" fill="#e4a32b" fill-rule="evenodd"></path><path id="path2" d="M15.500 7.889 C 16.215 7.978,17.385 7.978,18.100 7.889 C 18.815 7.801,18.230 7.728,16.800 7.728 C 15.370 7.728,14.785 7.801,15.500 7.889 M110.500 7.900 C 160.385 7.956,242.015 7.956,291.900 7.900 C 341.785 7.844,300.970 7.798,201.200 7.798 C 101.430 7.798,60.615 7.844,110.500 7.900 M14.051 9.400 C 14.042 10.060,14.293 12.130,14.609 14.000 L 15.184 17.400 14.977 13.974 C 14.863 12.089,14.612 10.019,14.419 9.374 L 14.069 8.200 14.051 9.400 M385.439 10.242 C 385.296 10.614,385.118 13.367,385.042 16.359 C 384.966 19.352,384.964 20.630,385.038 19.200 C 385.112 17.770,385.388 15.114,385.651 13.298 C 386.105 10.168,386.007 8.762,385.439 10.242 M15.456 24.400 C 15.597 25.610,15.838 27.950,15.990 29.600 L 16.268 32.600 16.317 29.600 C 16.344 27.950,16.104 25.610,15.783 24.400 L 15.200 22.200 15.456 24.400 M384.060 25.570 C 383.807 27.101,383.631 29.669,383.670 31.277 C 383.710 32.976,383.788 33.446,383.855 32.400 C 383.919 31.410,384.181 28.929,384.438 26.886 C 384.989 22.501,384.721 21.567,384.060 25.570 M16.475 37.400 C 16.465 38.280,16.611 39.360,16.800 39.800 C 17.253 40.853,17.253 38.779,16.800 37.000 C 16.508 35.853,16.494 35.871,16.475 37.400 M383.076 37.200 C 382.909 37.970,382.698 40.310,382.607 42.400 C 382.434 46.387,382.509 46.221,383.241 41.000 C 383.741 37.432,383.622 34.685,383.076 37.200 M200.225 39.080 C 200.081 39.453,199.988 43.098,200.018 47.180 C 200.047 51.261,199.946 54.915,199.793 55.300 C 199.529 55.964,202.028 56.000,248.934 56.000 C 287.661 56.000,298.419 56.107,298.657 56.493 C 299.051 57.130,299.079 57.321,299.589 63.000 C 299.826 65.640,300.205 69.690,300.431 72.000 C 300.657 74.310,301.001 78.720,301.194 81.800 C 301.388 84.880,301.734 89.290,301.963 91.600 C 303.202 104.117,303.574 108.141,304.985 124.300 C 306.023 136.189,306.400 140.122,306.894 144.200 C 307.161 146.400,307.384 149.910,307.390 152.000 L 307.400 155.800 284.316 155.903 C 262.285 156.002,261.214 155.973,260.839 155.273 C 260.624 154.870,260.344 152.664,260.218 150.370 C 259.995 146.318,259.252 137.759,258.381 129.200 C 258.146 126.890,257.795 122.660,257.601 119.800 C 257.265 114.844,256.502 108.489,256.181 107.969 C 256.098 107.836,253.189 107.605,249.715 107.458 C 246.242 107.310,241.780 107.022,239.800 106.818 C 237.820 106.614,233.770 106.337,230.800 106.202 C 227.830 106.067,222.072 105.696,218.004 105.378 C 213.936 105.060,207.006 104.832,202.604 104.871 C 197.827 104.913,195.691 105.034,197.306 105.171 C 198.794 105.297,200.009 105.535,200.006 105.700 C 200.003 105.865,200.000 122.279,200.000 142.176 L 200.000 178.352 198.500 178.509 C 197.675 178.595,221.885 178.696,252.300 178.733 L 307.600 178.800 307.578 181.500 C 307.567 182.985,307.386 185.640,307.177 187.400 C 306.816 190.435,306.091 198.228,305.223 208.400 C 305.007 210.930,304.633 215.070,304.391 217.600 C 303.768 224.111,303.314 229.342,302.813 235.800 C 302.573 238.880,302.193 242.750,301.967 244.400 C 301.741 246.050,301.395 249.920,301.198 253.000 C 301.002 256.080,300.655 260.400,300.428 262.600 C 299.467 271.905,299.123 275.686,298.791 280.600 C 298.598 283.460,298.255 287.060,298.028 288.600 C 297.801 290.140,297.614 292.660,297.611 294.200 C 297.608 295.740,297.345 298.980,297.026 301.400 C 296.708 303.820,296.234 308.230,295.973 311.200 C 294.962 322.701,295.055 322.381,292.724 322.394 C 292.132 322.397,291.545 322.566,291.419 322.769 C 291.294 322.972,290.608 323.257,289.895 323.402 C 289.183 323.547,287.610 323.938,286.400 324.270 C 285.190 324.603,283.210 325.143,282.000 325.472 C 280.790 325.800,279.260 326.253,278.600 326.477 C 277.940 326.702,276.680 327.027,275.800 327.200 C 274.920 327.373,273.660 327.707,273.000 327.942 C 271.677 328.414,266.596 329.878,264.400 330.421 C 263.082 330.746,259.684 331.678,254.903 333.025 C 253.749 333.350,251.815 333.886,250.605 334.216 C 249.395 334.546,247.459 335.085,246.303 335.414 C 238.768 337.558,236.813 338.091,235.294 338.415 C 234.356 338.614,233.276 338.945,232.894 339.150 C 232.512 339.354,231.343 339.650,230.295 339.807 C 229.247 339.964,228.292 340.252,228.171 340.446 C 228.051 340.641,227.514 340.800,226.978 340.800 C 226.442 340.800,224.967 341.137,223.702 341.550 C 222.436 341.962,220.680 342.491,219.800 342.726 C 218.920 342.961,216.850 343.537,215.200 344.005 C 213.550 344.474,211.254 345.111,210.097 345.421 C 206.378 346.417,203.853 347.110,201.547 347.768 C 200.308 348.122,198.958 348.307,198.547 348.180 C 198.136 348.053,198.295 348.236,198.900 348.587 L 200.000 349.226 200.006 372.113 C 200.009 384.701,200.160 395.233,200.340 395.517 C 200.710 396.099,202.126 395.849,206.200 394.480 C 207.520 394.036,211.030 393.107,214.000 392.415 C 216.970 391.722,219.760 390.996,220.200 390.800 C 221.675 390.143,228.196 388.373,232.000 387.597 C 233.210 387.350,234.830 386.903,235.600 386.603 C 236.370 386.302,238.080 385.757,239.400 385.391 C 240.720 385.025,242.970 384.394,244.400 383.990 C 245.830 383.585,248.440 382.870,250.200 382.400 C 251.960 381.931,254.300 381.273,255.400 380.938 C 256.500 380.602,258.660 380.072,260.200 379.760 C 261.740 379.447,264.127 378.744,265.504 378.196 C 266.882 377.648,268.421 377.200,268.924 377.200 C 269.428 377.200,270.011 377.045,270.220 376.855 C 270.702 376.418,277.250 374.800,278.537 374.800 C 279.068 374.800,279.726 374.530,280.000 374.200 C 280.274 373.870,281.061 373.594,281.749 373.586 C 282.437 373.579,283.720 373.225,284.600 372.800 C 285.480 372.375,286.650 372.020,287.200 372.011 C 287.750 372.002,289.518 371.547,291.130 371.000 C 292.741 370.453,295.196 369.824,296.585 369.602 C 297.974 369.380,299.626 368.930,300.255 368.602 C 300.885 368.274,301.693 368.004,302.051 368.002 C 302.409 368.001,303.309 367.750,304.051 367.445 C 304.793 367.139,306.210 366.769,307.200 366.622 C 308.190 366.475,309.360 366.205,309.800 366.023 C 310.240 365.840,311.410 365.471,312.400 365.202 C 313.390 364.933,315.190 364.379,316.400 363.970 C 317.610 363.562,319.230 363.119,320.000 362.986 C 322.841 362.494,323.365 360.918,323.782 351.600 C 323.905 348.850,324.178 345.880,324.388 345.000 C 324.598 344.120,324.872 341.330,324.996 338.800 C 325.120 336.270,325.403 332.670,325.623 330.800 C 325.844 328.930,326.196 324.700,326.404 321.400 C 326.613 318.100,326.966 313.870,327.188 312.000 C 328.072 304.550,328.413 300.775,328.654 295.800 C 328.792 292.940,329.064 290.291,329.259 289.913 C 329.454 289.536,329.714 286.656,329.837 283.513 C 329.959 280.371,330.316 276.476,330.630 274.857 C 330.943 273.239,331.201 270.629,331.202 269.057 C 331.204 267.486,331.474 264.416,331.802 262.235 C 332.131 260.054,332.411 256.454,332.424 254.235 C 332.437 252.016,332.622 249.300,332.834 248.200 C 333.047 247.100,333.385 243.643,333.586 240.518 C 333.788 237.394,334.143 234.480,334.376 234.045 C 334.609 233.609,334.804 231.936,334.809 230.326 C 334.815 228.717,334.987 225.330,335.193 222.800 C 335.399 220.270,335.756 215.770,335.987 212.800 C 336.217 209.830,336.663 205.690,336.978 203.600 C 337.293 201.510,337.843 195.660,338.199 190.600 C 338.556 185.540,339.107 179.268,339.424 176.663 C 339.741 174.058,340.000 170.863,340.000 169.563 C 340.000 168.264,340.257 165.625,340.570 163.700 C 340.884 161.775,341.256 157.950,341.397 155.200 C 341.538 152.450,341.821 150.029,342.027 149.820 C 342.232 149.611,342.400 147.001,342.401 144.020 C 342.401 140.990,342.665 137.101,343.000 135.200 C 343.329 133.330,343.599 130.764,343.599 129.497 C 343.600 128.231,343.854 125.441,344.164 123.297 C 344.473 121.154,344.844 117.330,344.988 114.800 C 345.131 112.270,345.429 109.030,345.648 107.600 C 345.868 106.170,346.219 102.570,346.429 99.600 C 346.638 96.630,346.977 92.850,347.180 91.200 C 347.384 89.550,347.562 86.443,347.575 84.295 C 347.589 82.147,347.769 80.077,347.975 79.695 C 348.181 79.313,348.537 75.760,348.766 71.800 C 349.241 63.592,349.837 57.286,350.468 53.800 C 351.080 50.420,351.521 39.511,351.070 38.900 C 350.412 38.007,200.568 38.185,200.225 39.080 M17.301 43.000 C 17.305 43.880,17.387 44.193,17.483 43.695 C 17.579 43.198,17.575 42.478,17.475 42.095 C 17.375 41.713,17.296 42.120,17.301 43.000 M17.868 49.600 C 17.962 52.130,18.190 55.370,18.376 56.800 C 18.760 59.754,18.565 55.572,17.994 48.600 C 17.719 45.248,17.710 45.316,17.868 49.600 M381.651 53.400 C 381.356 55.600,381.196 58.030,381.294 58.800 C 381.436 59.919,381.485 59.782,381.536 58.120 C 381.571 56.976,381.792 55.143,382.027 54.047 C 382.262 52.951,382.394 51.457,382.321 50.727 C 382.238 49.906,381.982 50.926,381.651 53.400 M115.905 55.883 C 116.402 55.979,117.122 55.975,117.505 55.875 C 117.887 55.775,117.480 55.696,116.600 55.701 C 115.720 55.705,115.407 55.787,115.905 55.883 M112.501 59.000 C 112.505 59.880,112.587 60.193,112.683 59.695 C 112.779 59.198,112.775 58.478,112.675 58.095 C 112.575 57.713,112.496 58.120,112.501 59.000 M18.931 63.000 C 18.933 64.540,19.005 65.121,19.092 64.291 C 19.179 63.461,19.177 62.201,19.089 61.491 C 19.000 60.781,18.929 61.460,18.931 63.000 M380.465 67.209 C 380.183 69.891,380.030 72.164,380.126 72.259 C 380.371 72.505,381.351 63.453,381.146 62.837 C 381.053 62.559,380.747 64.527,380.465 67.209 M112.093 65.200 C 112.093 65.970,112.175 66.285,112.276 65.900 C 112.376 65.515,112.376 64.885,112.276 64.500 C 112.175 64.115,112.093 64.430,112.093 65.200 M19.301 67.800 C 19.305 68.680,19.387 68.993,19.483 68.495 C 19.579 67.998,19.575 67.278,19.475 66.895 C 19.375 66.513,19.296 66.920,19.301 67.800 M111.309 72.400 C 111.309 73.390,111.387 73.795,111.482 73.300 C 111.578 72.805,111.578 71.995,111.482 71.500 C 111.387 71.005,111.309 71.410,111.309 72.400 M20.074 76.800 C 20.048 77.790,20.218 79.860,20.453 81.400 C 20.688 82.940,21.012 86.000,21.173 88.200 L 21.466 92.200 21.512 88.800 C 21.538 86.930,21.379 84.140,21.160 82.600 C 20.940 81.060,20.617 78.720,20.441 77.400 C 20.135 75.098,20.120 75.073,20.074 76.800 M379.487 78.400 C 379.318 80.050,379.018 82.390,378.819 83.600 C 378.621 84.810,378.481 87.510,378.510 89.600 C 378.561 93.374,378.562 93.379,378.676 90.200 C 378.739 88.440,379.079 85.020,379.430 82.600 C 379.782 80.180,380.008 77.570,379.932 76.800 C 379.837 75.838,379.698 76.340,379.487 78.400 M110.622 78.329 C 110.458 79.059,110.422 79.756,110.542 79.876 C 110.843 80.177,111.320 78.156,111.099 77.517 C 111.001 77.233,110.786 77.598,110.622 78.329 M109.522 90.083 C 109.425 90.367,109.326 91.410,109.301 92.400 L 109.256 94.200 109.633 92.039 C 109.986 90.022,109.923 88.909,109.522 90.083 M21.864 95.800 C 22.003 97.120,22.259 99.910,22.431 102.000 C 22.726 105.591,22.734 105.526,22.575 100.800 C 22.482 98.050,22.227 95.260,22.008 94.600 C 21.696 93.660,21.664 93.921,21.864 95.800 M377.821 95.089 C 377.676 95.468,377.489 98.213,377.406 101.189 L 377.255 106.600 377.577 102.400 C 377.754 100.090,378.032 97.345,378.195 96.300 C 378.492 94.390,378.313 93.808,377.821 95.089 M108.520 102.400 C 108.520 103.610,108.595 104.105,108.687 103.500 C 108.778 102.895,108.778 101.905,108.687 101.300 C 108.595 100.695,108.520 101.190,108.520 102.400 M176.700 105.489 C 177.415 105.578,178.585 105.578,179.300 105.489 C 180.015 105.401,179.430 105.328,178.000 105.328 C 176.570 105.328,175.985 105.401,176.700 105.489 M23.051 109.000 C 23.835 118.972,23.936 119.626,23.791 113.800 C 23.715 110.720,23.461 107.660,23.226 107.000 C 22.890 106.055,22.853 106.480,23.051 109.000 M376.480 109.419 C 376.216 110.405,375.992 113.054,375.983 115.306 C 375.973 117.558,375.795 120.210,375.587 121.200 C 375.379 122.190,375.138 125.430,375.052 128.400 C 374.914 133.155,374.929 133.322,375.177 129.800 C 375.333 127.600,375.670 123.820,375.926 121.400 C 377.326 108.193,377.435 105.847,376.480 109.419 M154.893 113.200 C 154.893 113.970,154.975 114.285,155.076 113.900 C 155.176 113.515,155.176 112.885,155.076 112.500 C 154.975 112.115,154.893 112.430,154.893 113.200 M107.301 115.800 C 107.305 116.680,107.387 116.993,107.483 116.495 C 107.579 115.998,107.575 115.278,107.475 114.895 C 107.375 114.513,107.296 114.920,107.301 115.800 M154.114 120.200 C 154.117 121.300,154.195 121.703,154.287 121.095 C 154.379 120.486,154.377 119.586,154.282 119.095 C 154.187 118.603,154.111 119.100,154.114 120.200 M106.656 120.484 C 106.521 120.988,106.430 122.120,106.454 123.000 C 106.492 124.378,106.546 124.271,106.843 122.228 C 107.198 119.799,107.095 118.846,106.656 120.484 M24.256 122.800 C 24.397 124.230,24.640 126.480,24.795 127.800 L 25.078 130.200 25.113 127.600 C 25.133 126.170,24.890 123.920,24.574 122.600 L 23.999 120.200 24.256 122.800 M153.714 125.400 C 153.717 126.500,153.795 126.903,153.887 126.295 C 153.979 125.686,153.977 124.786,153.882 124.295 C 153.787 123.803,153.711 124.300,153.714 125.400 M106.124 128.200 C 106.126 129.520,106.201 130.012,106.290 129.293 C 106.379 128.574,106.377 127.494,106.286 126.893 C 106.195 126.292,106.122 126.880,106.124 128.200 M153.038 131.925 C 152.861 133.313,152.811 134.545,152.928 134.661 C 153.230 134.964,153.703 131.514,153.516 130.363 C 153.429 129.824,153.219 130.511,153.038 131.925 M25.450 136.200 C 25.569 137.960,25.819 140.480,26.006 141.800 C 26.281 143.750,26.305 143.487,26.134 140.400 C 26.018 138.310,25.768 135.790,25.578 134.800 C 25.315 133.427,25.284 133.759,25.450 136.200 M374.051 137.801 C 373.803 139.468,373.630 141.950,373.667 143.316 C 373.709 144.874,373.779 145.203,373.854 144.200 C 373.920 143.320,374.183 140.929,374.439 138.886 C 375.001 134.404,374.687 133.525,374.051 137.801 M152.514 137.800 C 152.517 138.900,152.595 139.303,152.687 138.695 C 152.779 138.086,152.777 137.186,152.682 136.695 C 152.587 136.203,152.511 136.700,152.514 137.800 M104.914 142.200 C 104.917 143.300,104.995 143.703,105.087 143.095 C 105.179 142.486,105.177 141.586,105.082 141.095 C 104.987 140.603,104.911 141.100,104.914 142.200 M104.493 146.800 C 104.493 147.570,104.575 147.885,104.676 147.500 C 104.776 147.115,104.776 146.485,104.676 146.100 C 104.575 145.715,104.493 146.030,104.493 146.800 M26.438 148.400 C 26.420 149.170,26.590 150.880,26.817 152.200 C 27.044 153.520,27.413 157.120,27.637 160.200 C 27.862 163.280,28.200 166.790,28.388 168.000 L 28.730 170.200 28.591 167.800 C 27.917 156.143,26.549 143.813,26.438 148.400 M372.835 151.717 C 372.541 154.311,372.379 156.513,372.475 156.609 C 372.738 156.871,373.717 148.696,373.531 147.788 C 373.443 147.355,373.130 149.123,372.835 151.717 M104.093 150.000 C 104.093 150.770,104.175 151.085,104.276 150.700 C 104.376 150.315,104.376 149.685,104.276 149.300 C 104.175 148.915,104.093 149.230,104.093 150.000 M151.301 150.600 C 151.305 151.480,151.387 151.793,151.483 151.295 C 151.579 150.798,151.575 150.078,151.475 149.695 C 151.375 149.313,151.296 149.720,151.301 150.600 M150.185 160.585 C 150.030 161.823,149.993 162.927,150.103 163.037 C 150.213 163.147,150.430 162.223,150.585 160.985 C 150.739 159.746,150.776 158.643,150.666 158.533 C 150.556 158.423,150.339 159.346,150.185 160.585 M103.301 161.000 C 103.305 161.880,103.387 162.193,103.483 161.695 C 103.579 161.198,103.575 160.478,103.475 160.095 C 103.375 159.713,103.296 160.120,103.301 161.000 M371.832 163.300 C 371.698 164.455,371.521 167.020,371.440 169.000 L 371.292 172.600 371.599 169.400 C 371.768 167.640,372.042 165.075,372.209 163.700 C 372.375 162.325,372.413 161.200,372.294 161.200 C 372.175 161.200,371.967 162.145,371.832 163.300 M102.520 167.600 C 102.520 168.810,102.595 169.305,102.687 168.700 C 102.778 168.095,102.778 167.105,102.687 166.500 C 102.595 165.895,102.520 166.390,102.520 167.600 M149.301 171.800 C 149.305 172.680,149.387 172.993,149.483 172.495 C 149.579 171.998,149.575 171.278,149.475 170.895 C 149.375 170.513,149.296 170.920,149.301 171.800 M28.859 175.674 C 28.826 177.365,28.965 179.181,29.166 179.710 C 29.367 180.238,29.739 183.715,29.992 187.436 C 30.246 191.156,30.618 194.830,30.820 195.600 C 31.104 196.686,31.137 196.417,30.965 194.400 C 30.844 192.970,30.485 188.560,30.167 184.600 C 29.850 180.640,29.439 176.320,29.254 175.000 L 28.918 172.600 28.859 175.674 M148.893 174.800 C 148.893 175.570,148.975 175.885,149.076 175.500 C 149.176 175.115,149.176 174.485,149.076 174.100 C 148.975 173.715,148.893 174.030,148.893 174.800 M370.678 177.400 C 370.523 178.060,370.320 180.040,370.227 181.800 C 370.134 183.560,370.134 184.550,370.227 184.000 C 370.320 183.450,370.598 181.826,370.845 180.391 C 371.329 177.577,371.196 175.197,370.678 177.400 M151.700 178.687 C 152.305 178.778,153.295 178.778,153.900 178.687 C 154.505 178.595,154.010 178.520,152.800 178.520 C 151.590 178.520,151.095 178.595,151.700 178.687 M167.700 178.699 C 171.825 178.764,178.575 178.764,182.700 178.699 C 186.825 178.634,183.450 178.581,175.200 178.581 C 166.950 178.581,163.575 178.634,167.700 178.699 M191.700 178.687 C 192.305 178.778,193.295 178.778,193.900 178.687 C 194.505 178.595,194.010 178.520,192.800 178.520 C 191.590 178.520,191.095 178.595,191.700 178.687 M101.324 181.800 C 101.326 183.120,101.401 183.612,101.490 182.893 C 101.579 182.174,101.577 181.094,101.486 180.493 C 101.395 179.892,101.322 180.480,101.324 181.800 M369.737 188.600 C 369.739 190.360,369.809 191.030,369.893 190.089 C 369.978 189.149,369.977 187.709,369.891 186.889 C 369.805 186.070,369.736 186.840,369.737 188.600 M100.694 188.200 C 100.537 189.080,100.429 190.520,100.453 191.400 C 100.491 192.778,100.547 192.667,100.855 190.600 C 101.266 187.846,101.126 185.772,100.694 188.200 M369.090 193.150 C 368.931 193.893,368.821 195.243,368.847 196.150 C 368.892 197.751,368.904 197.734,369.260 195.600 C 369.687 193.035,369.547 191.023,369.090 193.150 M100.101 194.600 C 100.105 195.480,100.187 195.793,100.283 195.295 C 100.379 194.798,100.375 194.078,100.275 193.695 C 100.175 193.313,100.096 193.720,100.101 194.600 M31.342 200.600 C 31.341 202.580,31.408 203.440,31.492 202.512 C 31.576 201.584,31.577 199.964,31.495 198.912 C 31.412 197.860,31.343 198.620,31.342 200.600 M368.531 202.200 C 368.533 203.740,368.605 204.321,368.692 203.491 C 368.779 202.661,368.777 201.401,368.689 200.691 C 368.600 199.981,368.529 200.660,368.531 202.200 M99.693 201.600 C 99.693 202.370,99.775 202.685,99.876 202.300 C 99.976 201.915,99.976 201.285,99.876 200.900 C 99.775 200.515,99.693 200.830,99.693 201.600 M31.653 207.000 C 31.631 208.100,31.787 209.270,32.000 209.600 C 32.473 210.332,32.473 208.059,32.000 206.200 C 31.734 205.156,31.689 205.260,31.653 207.000 M98.909 207.600 C 98.909 208.590,98.987 208.995,99.082 208.500 C 99.178 208.005,99.178 207.195,99.082 206.700 C 98.987 206.205,98.909 206.610,98.909 207.600 M367.852 207.000 C 367.671 207.660,367.369 210.810,367.181 214.000 C 366.992 217.190,366.742 220.880,366.626 222.200 C 366.448 224.231,366.475 224.385,366.808 223.200 C 367.024 222.430,367.297 219.550,367.414 216.800 C 367.532 214.050,367.820 210.899,368.055 209.797 C 368.573 207.364,368.400 204.990,367.852 207.000 M32.542 213.800 C 32.541 215.780,32.608 216.640,32.692 215.712 C 32.776 214.784,32.777 213.164,32.695 212.112 C 32.612 211.060,32.543 211.820,32.542 213.800 M98.501 214.200 C 98.505 215.080,98.587 215.393,98.683 214.895 C 98.779 214.398,98.775 213.678,98.675 213.295 C 98.575 212.913,98.496 213.320,98.501 214.200 M33.065 221.000 C 33.203 222.540,33.440 225.240,33.591 227.000 L 33.865 230.200 33.915 227.600 C 33.943 226.170,33.706 223.470,33.389 221.600 L 32.812 218.200 33.065 221.000 M97.693 221.200 C 97.693 221.970,97.775 222.285,97.876 221.900 C 97.976 221.515,97.976 220.885,97.876 220.500 C 97.775 220.115,97.693 220.430,97.693 221.200 M97.678 224.910 C 97.794 225.585,100.290 225.624,148.286 225.710 C 192.841 225.789,198.843 225.871,199.379 226.408 C 199.914 226.943,199.982 231.004,199.943 260.208 C 199.918 278.464,199.930 294.355,199.969 295.522 C 200.073 298.614,199.765 299.327,198.462 299.006 C 197.619 298.797,197.501 298.846,197.888 299.240 C 198.383 299.743,201.184 299.256,206.000 297.831 C 208.008 297.237,209.521 296.822,214.200 295.587 C 218.498 294.452,223.021 293.200,228.000 291.769 C 228.990 291.485,230.610 291.076,231.600 290.861 C 232.590 290.645,234.390 290.170,235.600 289.804 C 236.810 289.438,238.790 288.892,240.000 288.590 C 244.500 287.468,246.630 286.877,247.726 286.444 C 248.345 286.200,249.280 286.000,249.802 286.000 C 251.056 286.000,251.132 285.826,251.400 282.362 C 251.526 280.733,251.719 278.939,251.830 278.376 C 252.148 276.749,254.058 255.147,254.781 245.000 C 255.016 241.700,255.384 237.740,255.598 236.200 C 256.289 231.226,256.535 226.131,256.097 225.860 C 255.872 225.721,220.253 225.490,176.944 225.346 C 120.174 225.157,98.110 224.961,97.878 224.642 C 97.680 224.369,97.603 224.471,97.678 224.910 M365.867 229.254 C 365.727 231.704,365.402 234.291,365.144 235.004 C 364.875 235.749,364.813 236.618,364.999 237.050 C 365.260 237.655,365.384 237.491,365.638 236.200 C 366.030 234.209,366.595 224.800,366.322 224.800 C 366.212 224.800,366.008 226.804,365.867 229.254 M34.059 233.800 C 34.061 234.460,34.302 236.260,34.593 237.800 L 35.123 240.600 35.144 238.600 C 35.155 237.500,34.915 235.700,34.609 234.600 C 34.173 233.029,34.055 232.858,34.059 233.800 M364.944 242.000 C 364.944 244.090,365.012 244.945,365.094 243.900 C 365.176 242.855,365.176 241.145,365.094 240.100 C 365.012 239.055,364.944 239.910,364.944 242.000 M35.458 249.200 C 35.947 254.896,36.354 256.877,36.139 252.513 C 36.028 250.265,35.772 247.925,35.569 247.313 C 35.317 246.553,35.282 247.151,35.458 249.200 M364.272 247.210 C 364.124 247.755,363.819 251.350,363.593 255.200 C 363.367 259.050,363.006 262.955,362.791 263.877 C 362.576 264.800,362.427 266.600,362.461 267.877 L 362.522 270.200 362.815 267.800 C 362.976 266.480,363.304 263.060,363.544 260.200 C 363.784 257.340,364.190 253.275,364.446 251.167 C 364.905 247.385,364.811 245.223,364.272 247.210 M98.484 248.472 C 98.108 248.621,108.150 248.715,120.800 248.681 C 133.450 248.646,140.290 248.569,136.000 248.510 C 116.583 248.241,99.109 248.223,98.484 248.472 M144.386 249.574 C 144.614 249.999,144.830 251.304,144.867 252.474 C 144.926 254.336,144.955 254.403,145.096 253.018 C 145.295 251.074,144.902 248.800,144.368 248.800 C 144.113 248.800,144.119 249.075,144.386 249.574 M36.642 262.000 C 36.765 263.650,37.006 265.990,37.177 267.200 L 37.487 269.400 37.513 267.200 C 37.527 265.990,37.287 263.650,36.979 262.000 L 36.419 259.000 36.642 262.000 M98.514 261.400 C 98.517 262.500,98.595 262.903,98.687 262.295 C 98.779 261.686,98.777 260.786,98.682 260.295 C 98.587 259.803,98.511 260.300,98.514 261.400 M146.093 266.800 C 146.093 267.570,146.175 267.885,146.276 267.500 C 146.376 267.115,146.376 266.485,146.276 266.100 C 146.175 265.715,146.093 266.030,146.093 266.800 M99.273 271.400 C 99.258 272.060,99.395 273.320,99.577 274.200 C 100.013 276.306,100.050 274.414,99.620 272.000 C 99.380 270.650,99.293 270.500,99.273 271.400 M37.854 275.000 C 37.964 276.980,38.214 279.590,38.410 280.800 C 38.707 282.635,38.732 282.404,38.560 279.400 C 38.446 277.420,38.196 274.810,38.003 273.600 C 37.713 271.776,37.688 272.016,37.854 275.000 M361.594 277.511 C 361.314 280.339,361.164 282.893,361.262 283.186 C 361.360 283.479,361.683 281.260,361.980 278.253 C 362.277 275.247,362.426 272.693,362.312 272.578 C 362.197 272.463,361.874 274.683,361.594 277.511 M100.101 281.400 C 100.105 282.280,100.187 282.593,100.283 282.095 C 100.379 281.598,100.375 280.878,100.275 280.495 C 100.175 280.113,100.096 280.520,100.101 281.400 M39.058 289.200 C 39.152 291.290,39.477 293.990,39.781 295.200 C 40.419 297.748,40.511 296.496,39.942 293.000 C 39.727 291.680,39.402 289.430,39.219 288.000 C 38.924 285.688,38.906 285.821,39.058 289.200 M151.146 286.616 C 151.886 286.937,152.786 287.186,153.146 287.170 C 153.506 287.153,153.170 286.897,152.400 286.600 C 150.505 285.870,149.459 285.883,151.146 286.616 M360.500 290.021 C 359.809 294.747,359.918 297.100,360.647 293.200 C 360.956 291.550,361.161 289.390,361.104 288.400 C 361.014 286.850,360.931 287.075,360.500 290.021 M156.000 287.982 C 156.330 288.205,156.945 288.391,157.367 288.394 C 158.390 288.402,158.071 288.173,156.600 287.844 C 155.724 287.648,155.562 287.685,156.000 287.982 M158.433 288.543 C 158.525 288.621,159.230 288.801,160.000 288.942 C 160.985 289.123,161.222 289.082,160.800 288.806 C 160.258 288.450,158.037 288.203,158.433 288.543 M101.309 294.000 C 101.309 294.990,101.387 295.395,101.482 294.900 C 101.578 294.405,101.578 293.595,101.482 293.100 C 101.387 292.605,101.309 293.010,101.309 294.000 M174.800 293.000 C 175.350 293.314,176.160 293.564,176.600 293.555 C 177.124 293.545,176.917 293.353,176.000 293.000 C 174.149 292.287,173.553 292.287,174.800 293.000 M188.000 296.573 C 188.770 296.884,189.670 297.147,190.000 297.157 C 191.052 297.189,189.587 296.524,188.000 296.249 L 186.600 296.007 188.000 296.573 M359.742 300.200 C 359.741 302.180,359.808 303.040,359.892 302.112 C 359.976 301.184,359.977 299.564,359.895 298.512 C 359.812 297.460,359.743 298.220,359.742 300.200 M101.690 299.600 C 101.684 300.810,101.824 302.250,102.000 302.800 C 102.451 304.209,102.466 301.702,102.020 299.200 L 101.700 297.400 101.690 299.600 M40.128 300.800 C 40.128 302.230,40.201 302.815,40.289 302.100 C 40.378 301.385,40.378 300.215,40.289 299.500 C 40.201 298.785,40.128 299.370,40.128 300.800 M40.649 305.600 C 40.796 306.810,41.051 309.690,41.217 312.000 C 41.516 316.162,41.518 316.151,41.385 310.800 C 41.311 307.830,41.055 304.950,40.817 304.400 C 40.468 303.597,40.435 303.833,40.649 305.600 M359.076 304.810 C 358.930 305.355,358.830 306.610,358.854 307.600 C 358.896 309.351,358.907 309.334,359.248 307.000 C 359.620 304.452,359.518 303.157,359.076 304.810 M102.520 308.000 C 102.520 309.210,102.595 309.705,102.687 309.100 C 102.778 308.495,102.778 307.505,102.687 306.900 C 102.595 306.295,102.520 306.790,102.520 308.000 M358.478 312.674 C 358.435 314.475,358.223 316.414,358.007 316.983 C 357.790 317.552,357.415 321.299,357.173 325.309 C 356.931 329.319,356.668 333.590,356.590 334.800 C 356.457 336.842,356.471 336.885,356.790 335.400 C 356.979 334.520,357.247 331.910,357.386 329.600 C 357.525 327.290,357.912 323.060,358.245 320.200 C 358.578 317.340,358.785 313.740,358.704 312.200 L 358.557 309.400 358.478 312.674 M41.823 319.800 C 41.973 321.120,42.236 323.910,42.408 326.000 C 42.672 329.227,42.692 328.960,42.538 324.227 C 42.439 321.161,42.176 318.371,41.953 318.027 C 41.671 317.589,41.632 318.126,41.823 319.800 M103.693 320.400 C 103.693 321.170,103.775 321.485,103.876 321.100 C 103.976 320.715,103.976 320.085,103.876 319.700 C 103.775 319.315,103.693 319.630,103.693 320.400 M115.800 325.414 C 116.460 325.717,117.270 325.958,117.600 325.952 C 117.930 325.945,117.570 325.697,116.800 325.400 C 114.974 324.697,114.255 324.707,115.800 325.414 M119.946 326.616 C 120.686 326.937,121.586 327.186,121.946 327.170 C 122.306 327.153,121.970 326.897,121.200 326.600 C 119.305 325.870,118.259 325.883,119.946 326.616 M43.064 333.200 C 43.196 334.850,43.431 337.550,43.586 339.200 L 43.868 342.200 43.909 339.000 C 43.932 337.240,43.697 334.540,43.387 333.000 L 42.823 330.200 43.064 333.200 M138.200 331.600 C 139.396 332.114,140.395 332.114,139.600 331.600 C 139.270 331.387,138.640 331.222,138.200 331.234 L 137.400 331.256 138.200 331.600 M356.140 340.400 C 356.140 342.270,356.209 343.035,356.293 342.100 C 356.377 341.165,356.377 339.635,356.293 338.700 C 356.209 337.765,356.140 338.530,356.140 340.400 M170.622 340.382 C 170.843 340.603,171.649 340.880,172.413 340.996 C 173.821 341.211,173.555 341.042,171.409 340.358 C 170.609 340.103,170.350 340.110,170.622 340.382 M44.268 346.400 C 44.805 352.236,45.166 354.462,44.949 350.600 C 44.838 348.620,44.585 346.280,44.388 345.400 C 44.104 344.135,44.079 344.344,44.268 346.400 M355.387 346.587 C 355.231 348.044,355.199 349.332,355.316 349.450 C 355.434 349.567,355.657 348.471,355.813 347.013 C 355.969 345.556,356.001 344.268,355.884 344.150 C 355.766 344.033,355.543 345.129,355.387 346.587 M354.940 353.200 C 354.940 355.070,355.009 355.835,355.093 354.900 C 355.177 353.965,355.177 352.435,355.093 351.500 C 355.009 350.565,354.940 351.330,354.940 353.200 M354.384 357.500 C 354.141 359.258,354.049 360.655,353.874 365.200 C 353.776 367.730,353.759 368.990,353.836 368.000 C 353.913 367.010,354.182 364.490,354.434 362.400 C 354.686 360.310,354.806 358.150,354.701 357.600 C 354.517 356.640,354.504 356.636,354.384 357.500 M45.229 359.800 C 45.232 360.240,45.493 362.130,45.809 364.000 L 46.384 367.400 46.164 363.815 C 45.971 360.662,45.215 357.416,45.229 359.800 M46.627 373.800 C 47.067 379.041,47.326 380.800,47.660 380.800 C 48.012 380.800,47.883 379.261,47.190 375.200 C 46.589 371.669,46.412 371.229,46.627 373.800 M352.878 375.135 C 352.615 376.407,352.427 378.517,352.460 379.824 C 352.493 381.131,352.580 381.660,352.654 381.000 C 352.727 380.340,352.990 378.305,353.238 376.478 C 353.767 372.583,353.562 371.821,352.878 375.135 M47.709 384.800 C 47.709 385.790,47.787 386.195,47.882 385.700 C 47.978 385.205,47.978 384.395,47.882 383.900 C 47.787 383.405,47.709 383.810,47.709 384.800 M351.997 386.100 C 351.995 386.375,350.908 386.938,349.582 387.352 C 348.255 387.765,347.246 388.180,347.339 388.272 C 347.722 388.655,352.208 386.819,352.329 386.230 C 352.400 385.883,352.355 385.600,352.229 385.600 C 352.103 385.600,351.998 385.825,351.997 386.100 M49.800 387.618 C 50.900 388.048,52.070 388.389,52.400 388.377 C 53.266 388.346,49.555 386.845,48.600 386.841 C 48.160 386.839,48.700 387.189,49.800 387.618 M54.824 388.939 C 55.387 389.233,56.638 389.600,57.604 389.754 C 58.570 389.909,59.598 390.233,59.889 390.474 C 60.298 390.813,60.363 390.769,60.176 390.281 C 60.017 389.866,59.187 389.556,57.761 389.378 C 56.567 389.229,55.491 388.948,55.371 388.753 C 55.251 388.559,54.848 388.401,54.476 388.402 C 54.013 388.404,54.122 388.573,54.824 388.939 M344.214 388.777 C 344.086 388.984,343.131 389.277,342.091 389.428 C 341.051 389.579,339.750 389.960,339.200 390.274 L 338.200 390.846 339.200 390.599 C 344.566 389.272,346.829 388.469,345.324 388.425 C 344.842 388.411,344.342 388.570,344.214 388.777 M64.200 391.600 C 65.520 392.017,67.680 392.652,69.000 393.012 C 70.320 393.372,72.079 393.922,72.908 394.234 C 73.738 394.545,74.998 394.773,75.708 394.740 L 77.000 394.680 75.800 394.526 C 75.140 394.441,74.240 394.215,73.800 394.023 C 72.107 393.283,68.924 392.320,67.200 392.024 C 66.210 391.855,64.893 391.510,64.274 391.258 C 63.655 391.006,62.845 390.810,62.474 390.822 C 62.103 390.834,62.880 391.184,64.200 391.600 M335.000 391.411 C 334.120 391.701,333.670 391.950,334.000 391.963 C 334.330 391.977,335.410 391.733,336.400 391.421 C 337.390 391.109,337.840 390.860,337.400 390.869 C 336.960 390.877,335.880 391.121,335.000 391.411 M329.600 392.834 L 327.400 393.590 329.180 393.377 C 330.159 393.260,331.149 393.012,331.380 392.825 C 331.611 392.639,332.160 392.398,332.600 392.289 L 333.400 392.093 332.600 392.086 C 332.160 392.082,330.810 392.418,329.600 392.834 M321.800 395.022 C 320.785 395.518,320.754 395.572,321.600 395.369 C 322.150 395.238,323.230 394.987,324.000 394.811 C 325.383 394.496,325.385 394.492,324.200 394.464 C 323.540 394.449,322.460 394.700,321.800 395.022 M80.600 396.246 C 81.700 396.571,83.230 396.982,84.000 397.159 C 86.215 397.669,91.225 399.046,92.400 399.467 C 92.730 399.586,92.630 399.409,92.179 399.074 C 91.727 398.739,90.467 398.280,89.379 398.055 C 86.600 397.479,83.202 396.569,81.874 396.044 C 81.255 395.800,80.265 395.612,79.674 395.627 C 78.884 395.647,79.128 395.810,80.600 396.246 M312.400 397.600 C 312.070 397.813,311.260 397.997,310.600 398.007 C 309.940 398.018,308.680 398.391,307.800 398.835 C 306.113 399.687,306.603 399.672,310.000 398.768 C 312.799 398.023,314.721 397.243,313.800 397.227 C 313.360 397.219,312.730 397.387,312.400 397.600 M95.146 400.216 C 95.886 400.537,96.606 400.794,96.746 400.786 C 97.266 400.757,94.976 399.628,94.400 399.630 C 94.070 399.631,94.406 399.894,95.146 400.216 M303.024 400.213 C 302.029 400.965,302.725 400.966,304.454 400.216 C 305.679 399.684,305.710 399.631,304.800 399.628 C 304.250 399.627,303.451 399.890,303.024 400.213 M98.600 401.091 C 99.260 401.185,99.971 401.428,100.180 401.631 C 100.389 401.834,100.839 401.999,101.180 401.998 C 101.521 401.996,101.284 401.726,100.654 401.398 C 100.024 401.069,99.034 400.827,98.454 400.860 C 97.469 400.916,97.478 400.931,98.600 401.091 M103.000 402.394 C 103.660 402.594,105.220 403.018,106.468 403.335 C 107.715 403.653,108.930 404.033,109.168 404.180 C 109.405 404.327,109.600 404.260,109.600 404.031 C 109.600 403.802,109.105 403.517,108.500 403.396 C 107.895 403.276,106.860 402.978,106.200 402.735 C 105.540 402.491,104.280 402.233,103.400 402.161 C 101.902 402.038,101.877 402.053,103.000 402.394 M293.800 402.818 C 292.700 403.230,292.077 403.574,292.415 403.583 C 292.754 403.593,294.014 403.246,295.215 402.814 C 296.417 402.382,297.040 402.038,296.600 402.049 C 296.160 402.060,294.900 402.406,293.800 402.818 M289.400 404.000 C 289.108 404.473,289.499 404.473,290.600 404.000 C 291.371 403.669,291.369 403.655,290.524 403.628 C 290.042 403.613,289.536 403.780,289.400 404.000 M112.600 405.053 C 113.480 405.392,114.920 405.801,115.800 405.961 C 116.680 406.121,117.793 406.466,118.274 406.726 C 118.754 406.987,119.474 407.186,119.874 407.168 C 120.423 407.145,120.454 407.087,120.000 406.933 C 119.670 406.820,118.833 406.474,118.140 406.164 C 117.446 405.854,116.343 405.600,115.689 405.600 C 115.034 405.600,114.274 405.330,114.000 405.000 C 113.726 404.670,112.939 404.408,112.251 404.418 L 111.000 404.435 112.600 405.053 M285.600 405.000 C 285.050 405.314,284.199 405.578,283.708 405.586 C 283.218 405.594,282.138 405.855,281.308 406.166 C 280.479 406.477,279.284 406.846,278.653 406.985 C 278.022 407.125,277.572 407.305,277.653 407.385 C 277.862 407.592,280.536 406.990,283.800 406.001 C 285.340 405.534,287.140 405.001,287.800 404.817 L 289.000 404.482 287.800 404.455 C 287.140 404.440,286.150 404.686,285.600 405.000 M122.746 407.816 C 123.486 408.137,124.296 408.393,124.546 408.384 C 124.796 408.376,124.394 408.106,123.654 407.784 C 122.914 407.463,122.104 407.207,121.854 407.216 C 121.604 407.224,122.006 407.494,122.746 407.816 M272.500 408.265 C 272.225 408.376,272.000 408.642,272.000 408.857 C 272.000 409.072,272.177 409.138,272.394 409.004 C 272.610 408.870,273.555 408.609,274.494 408.424 L 276.200 408.088 274.600 408.075 C 273.720 408.069,272.775 408.154,272.500 408.265 M127.146 409.016 C 128.853 409.757,129.159 409.756,128.176 409.013 C 127.749 408.690,127.040 408.427,126.600 408.428 C 126.046 408.430,126.214 408.611,127.146 409.016 M131.146 410.216 C 131.886 410.537,132.786 410.793,133.146 410.784 C 133.506 410.776,133.194 410.506,132.454 410.184 C 131.714 409.863,130.814 409.607,130.454 409.616 C 130.094 409.624,130.406 409.894,131.146 410.216 M267.024 410.213 C 266.066 410.937,266.187 410.937,268.200 410.212 C 269.471 409.754,269.594 409.634,268.800 409.630 C 268.250 409.628,267.451 409.890,267.024 410.213 M135.746 411.402 C 136.376 411.731,137.096 411.994,137.346 411.986 C 138.000 411.965,135.917 410.831,135.200 410.817 C 134.870 410.810,135.116 411.074,135.746 411.402 M262.400 411.400 C 261.850 411.714,260.860 411.984,260.200 411.999 C 259.540 412.013,258.651 412.290,258.224 412.613 C 257.796 412.936,256.886 413.200,256.200 413.200 C 255.514 413.200,254.604 413.485,254.176 413.833 C 253.411 414.456,253.411 414.461,254.200 414.183 C 254.640 414.028,255.768 413.749,256.706 413.562 C 257.644 413.375,258.724 413.061,259.106 412.864 C 259.488 412.667,260.473 412.384,261.295 412.235 C 263.531 411.832,265.740 410.832,264.400 410.830 C 263.850 410.829,262.950 411.086,262.400 411.400 M139.000 412.391 C 139.660 412.562,140.560 412.828,141.000 412.983 C 141.789 413.261,141.789 413.256,141.024 412.633 C 140.596 412.285,139.696 412.018,139.024 412.041 L 137.800 412.082 139.000 412.391 M143.400 413.491 C 144.060 413.585,144.771 413.828,144.980 414.031 C 145.609 414.642,146.136 414.446,145.600 413.800 C 145.303 413.442,144.516 413.224,143.651 413.260 C 142.299 413.316,142.282 413.332,143.400 413.491 M148.600 415.009 C 151.105 415.705,151.171 415.704,150.224 414.987 C 149.796 414.664,148.806 414.412,148.024 414.427 C 146.646 414.453,146.665 414.472,148.600 415.009 M249.824 415.013 C 249.396 415.336,249.225 415.600,249.444 415.600 C 249.662 415.600,250.011 415.433,250.220 415.229 C 250.429 415.024,251.230 414.783,252.000 414.693 L 253.400 414.528 252.000 414.477 C 251.230 414.449,250.251 414.690,249.824 415.013 M244.006 416.423 C 243.112 416.922,242.870 417.200,243.333 417.200 C 243.729 417.200,244.409 417.009,244.845 416.776 C 245.281 416.543,246.394 416.202,247.319 416.020 L 249.000 415.688 247.200 415.667 C 246.128 415.654,244.836 415.960,244.006 416.423 M154.200 416.578 C 154.860 416.900,155.850 417.154,156.400 417.141 C 157.320 417.120,157.304 417.092,156.200 416.789 C 153.296 415.994,152.925 415.955,154.200 416.578 M158.523 417.841 C 159.141 418.176,160.041 418.373,160.523 418.279 C 161.263 418.136,161.232 418.100,160.324 418.054 C 159.732 418.025,159.136 417.820,159.000 417.600 C 158.864 417.380,158.448 417.207,158.076 417.216 C 157.624 417.227,157.772 417.434,158.523 417.841 M239.600 417.820 C 238.419 418.158,238.144 418.336,238.800 418.337 C 239.350 418.338,240.430 418.097,241.200 417.800 C 242.956 417.124,241.989 417.136,239.600 417.820 M163.000 419.014 C 163.660 419.317,164.470 419.565,164.800 419.566 C 165.130 419.568,164.794 419.306,164.054 418.984 C 162.353 418.246,161.382 418.274,163.000 419.014 M235.800 418.775 C 235.360 418.951,233.964 419.418,232.699 419.813 C 231.433 420.208,230.468 420.602,230.555 420.688 C 230.723 420.856,234.094 419.872,236.400 418.982 C 237.170 418.684,237.530 418.444,237.200 418.448 C 236.870 418.451,236.240 418.598,235.800 418.775 M166.600 419.885 C 167.040 419.991,167.571 420.240,167.780 420.439 C 167.989 420.637,168.349 420.794,168.580 420.787 C 168.811 420.780,168.651 420.510,168.224 420.187 C 167.796 419.864,167.076 419.621,166.624 419.646 C 165.820 419.692,165.820 419.697,166.600 419.885 M171.000 421.211 C 173.897 422.004,174.185 422.037,172.854 421.422 C 172.114 421.080,171.124 420.818,170.654 420.841 C 170.009 420.872,170.094 420.962,171.000 421.211 M175.800 422.612 C 177.833 423.344,178.492 423.339,177.200 422.600 C 176.650 422.286,175.750 422.030,175.200 422.032 C 174.407 422.034,174.532 422.155,175.800 422.612 M222.176 422.587 C 221.187 423.336,221.766 423.344,223.800 422.612 C 225.369 422.046,225.376 422.035,224.176 422.018 C 223.504 422.008,222.604 422.264,222.176 422.587 M179.600 423.592 C 180.370 423.757,181.360 424.019,181.800 424.174 C 182.324 424.358,182.255 424.244,181.600 423.842 C 181.050 423.504,180.060 423.243,179.400 423.260 C 178.221 423.291,178.224 423.297,179.600 423.592 M218.200 423.867 L 217.400 424.508 218.200 424.204 C 218.640 424.038,219.540 423.762,220.200 423.591 L 221.400 423.282 220.200 423.254 C 219.540 423.238,218.640 423.514,218.200 423.867 M184.800 424.950 C 186.710 425.466,187.359 425.398,186.388 424.784 C 186.065 424.580,185.170 424.424,184.400 424.438 C 183.002 424.464,183.002 424.465,184.800 424.950 M213.424 425.013 C 212.996 425.336,212.124 425.600,211.484 425.600 C 210.844 425.600,209.754 425.858,209.060 426.173 C 208.367 426.488,207.440 426.827,207.000 426.926 C 206.360 427.071,206.400 427.114,207.200 427.139 C 207.750 427.157,208.650 426.914,209.200 426.600 C 209.750 426.286,210.707 426.022,211.326 426.014 C 211.946 426.006,212.846 425.787,213.326 425.526 C 213.807 425.265,214.830 424.926,215.600 424.772 L 217.000 424.492 215.600 424.459 C 214.830 424.440,213.851 424.690,213.424 425.013 M194.200 427.430 C 194.640 427.763,195.450 428.124,196.000 428.234 C 196.550 428.344,197.574 428.586,198.276 428.772 C 199.560 429.113,203.141 428.544,205.200 427.674 L 206.200 427.251 205.180 427.225 C 204.619 427.211,203.934 427.425,203.658 427.700 C 202.880 428.476,196.346 428.288,195.158 427.456 C 193.983 426.633,193.114 426.609,194.200 427.430 " stroke="none" fill="#f3c225" fill-rule="evenodd"></path></g></svg>