<svg id="svg" version="1.1" xmlns="http://www.w3.org/2000/svg" xmlns:xlink="http://www.w3.org/1999/xlink" width="400" height="400" viewBox="0, 0, 400,400"><g id="svgg"><path id="path0" d="M0.000 200.000 L 0.000 400.000 1.200 400.000 C 2.552 400.000,2.663 399.806,1.800 398.943 C 1.268 398.411,1.200 375.843,1.200 200.641 L 1.200 2.939 2.126 2.070 L 3.052 1.200 200.697 1.200 C 375.849 1.200,398.411 1.268,398.943 1.800 C 399.806 2.663,400.000 2.552,400.000 1.200 L 400.000 0.000 200.000 0.000 L 0.000 0.000 0.000 200.000 M75.872 29.862 C 75.406 30.327,75.547 158.753,76.014 159.626 C 76.411 160.368,76.989 160.400,89.796 160.400 L 103.164 160.400 103.395 159.100 C 103.522 158.385,103.576 129.000,103.513 93.800 L 103.400 29.800 89.772 29.695 C 82.276 29.637,76.021 29.712,75.872 29.862 M122.498 71.300 L 122.600 113.000 136.200 113.000 L 149.800 113.000 149.902 71.300 L 150.004 29.600 136.200 29.600 L 122.396 29.600 122.498 71.300 M169.299 94.895 L 169.400 160.200 182.683 160.305 C 195.508 160.407,195.981 160.384,196.384 159.629 C 196.671 159.093,196.771 138.630,196.701 94.324 L 196.600 29.800 182.899 29.695 L 169.198 29.589 169.299 94.895 M216.272 29.862 C 216.122 30.011,216.000 36.112,216.000 43.420 L 216.000 56.707 216.900 56.948 C 218.077 57.263,241.928 57.262,243.105 56.947 L 244.011 56.704 243.905 43.252 L 243.800 29.800 230.172 29.695 C 222.676 29.637,216.421 29.712,216.272 29.862 M263.295 43.300 L 263.400 57.000 295.600 57.000 L 327.800 57.000 327.905 43.300 L 328.011 29.600 295.600 29.600 L 263.189 29.600 263.295 43.300 M263.472 76.661 C 263.085 77.049,263.145 159.295,263.533 159.905 C 263.783 160.300,266.794 160.388,277.227 160.305 L 290.600 160.200 290.600 118.400 L 290.600 76.600 277.172 76.495 C 269.786 76.437,263.621 76.512,263.472 76.661 M29.428 190.355 C 28.666 191.587,30.734 191.601,201.036 191.500 C 363.294 191.405,371.796 191.365,371.924 190.700 C 372.074 189.919,29.911 189.574,29.428 190.355 M290.560 244.800 C 287.898 244.910,285.468 245.202,285.160 245.448 C 284.852 245.694,283.889 246.024,283.020 246.181 C 282.152 246.338,281.077 246.721,280.631 247.033 C 280.186 247.345,279.581 247.600,279.287 247.600 C 278.289 247.600,271.600 253.143,271.600 253.970 C 271.600 254.138,271.240 254.602,270.800 255.000 C 270.360 255.398,270.000 255.889,270.000 256.091 C 270.000 256.292,269.730 256.727,269.400 257.057 C 269.070 257.387,268.800 258.010,268.800 258.441 C 268.800 258.872,268.530 259.329,268.200 259.455 C 267.870 259.582,267.599 260.071,267.597 260.543 C 267.596 261.014,267.237 261.940,266.800 262.600 C 266.363 263.260,266.004 264.363,266.003 265.051 C 266.001 265.739,265.753 266.909,265.450 267.651 C 265.148 268.393,264.775 270.800,264.623 273.000 C 264.470 275.200,264.177 277.171,263.972 277.380 C 263.472 277.891,263.484 296.524,263.985 297.025 C 264.197 297.237,264.492 299.208,264.640 301.405 C 264.789 303.602,265.156 305.886,265.455 306.480 C 265.755 307.074,266.000 308.110,266.000 308.782 C 266.000 309.453,266.360 310.675,266.800 311.496 C 267.240 312.316,267.600 313.270,267.600 313.614 C 267.600 313.958,267.771 314.411,267.979 314.620 C 268.188 314.829,268.815 315.860,269.374 316.911 C 271.934 321.730,279.547 328.000,282.836 328.000 C 283.285 328.000,284.046 328.219,284.526 328.486 C 287.176 329.961,303.193 330.005,306.080 328.546 C 306.674 328.246,307.484 328.005,307.880 328.010 C 310.239 328.044,320.000 321.015,320.000 319.283 C 320.000 319.039,320.225 318.696,320.500 318.520 C 320.776 318.344,321.418 317.300,321.928 316.200 C 322.438 315.100,323.113 313.722,323.427 313.138 C 323.742 312.554,324.000 311.739,324.000 311.327 C 324.000 310.915,324.243 310.223,324.541 309.789 C 324.839 309.355,325.204 307.932,325.353 306.626 C 325.502 305.321,325.779 304.061,325.969 303.826 C 327.237 302.255,327.230 272.775,325.960 270.342 C 325.771 269.980,325.493 268.633,325.342 267.347 C 325.191 266.062,324.827 264.770,324.534 264.477 C 324.240 264.183,324.000 263.505,324.000 262.970 C 324.000 262.435,323.640 261.325,323.200 260.504 C 322.760 259.684,322.400 258.784,322.400 258.506 C 322.400 258.228,322.232 258.000,322.027 258.000 C 321.822 258.000,321.528 257.595,321.374 257.100 C 321.219 256.605,320.544 255.480,319.874 254.600 C 318.726 253.094,318.216 252.577,315.501 250.170 C 314.060 248.893,308.429 246.002,307.380 246.001 C 306.929 246.000,306.361 245.801,306.118 245.558 C 305.875 245.315,304.084 245.040,302.138 244.947 C 300.192 244.854,297.880 244.738,297.000 244.689 C 296.120 244.640,293.222 244.690,290.560 244.800 M130.800 287.182 L 130.800 328.423 136.300 328.311 L 141.800 328.200 141.905 313.215 C 141.973 303.558,142.157 298.083,142.424 297.815 C 142.673 297.566,146.780 297.297,152.719 297.142 C 162.823 296.878,167.780 296.357,169.662 295.362 C 170.246 295.053,171.079 294.800,171.513 294.800 C 171.947 294.800,172.520 294.537,172.787 294.215 C 173.054 293.894,173.658 293.509,174.128 293.359 C 177.033 292.437,183.200 285.726,183.200 283.486 C 183.200 283.145,183.388 282.804,183.618 282.727 C 184.914 282.295,186.338 266.772,185.207 265.409 C 184.968 265.120,184.664 263.967,184.531 262.845 C 184.398 261.724,184.044 260.603,183.745 260.354 C 183.445 260.105,183.200 259.641,183.200 259.322 C 183.200 256.172,173.444 247.608,169.843 247.598 C 169.379 247.596,168.460 247.286,167.800 246.908 C 166.726 246.293,164.723 246.207,148.700 246.082 L 130.800 245.942 130.800 287.182 M195.784 246.500 C 195.680 246.775,195.640 265.270,195.697 287.600 L 195.800 328.200 201.300 328.311 L 206.800 328.423 206.800 312.091 C 206.800 299.923,206.922 295.638,207.280 295.280 C 207.623 294.937,210.180 294.800,216.251 294.800 L 224.742 294.800 225.571 295.854 C 226.027 296.434,226.400 297.222,226.400 297.605 C 226.400 297.988,226.670 298.526,227.000 298.800 C 227.330 299.074,227.600 299.466,227.600 299.671 C 227.600 300.009,228.308 301.729,229.794 305.000 C 230.093 305.660,230.906 307.460,231.600 309.000 C 232.294 310.540,233.190 312.520,233.591 313.400 C 234.495 315.384,235.299 317.212,236.406 319.800 C 236.877 320.900,237.518 322.278,237.831 322.862 C 238.144 323.446,238.400 324.189,238.400 324.513 C 238.400 324.837,238.670 325.326,239.000 325.600 C 239.330 325.874,239.600 326.505,239.600 327.002 C 239.600 328.251,240.376 328.388,247.500 328.395 C 252.559 328.399,253.600 328.301,253.600 327.821 C 253.600 327.202,251.810 323.653,251.179 323.020 C 250.971 322.811,250.800 322.248,250.800 321.769 C 250.800 321.290,250.530 320.674,250.200 320.400 C 249.870 320.126,249.600 319.577,249.600 319.180 C 249.600 318.782,249.330 318.187,249.000 317.857 C 248.670 317.527,248.399 317.109,248.398 316.929 C 248.397 316.748,247.767 315.374,246.998 313.876 C 246.229 312.377,245.600 310.914,245.600 310.625 C 245.600 310.335,245.342 309.883,245.026 309.621 C 244.710 309.359,244.336 308.617,244.194 307.972 C 244.052 307.328,243.785 306.800,243.600 306.800 C 243.415 306.800,243.148 306.272,243.006 305.628 C 242.864 304.983,242.490 304.241,242.174 303.979 C 241.858 303.717,241.600 303.246,241.600 302.934 C 241.600 302.621,240.970 301.199,240.200 299.773 C 239.430 298.347,238.800 296.974,238.800 296.721 C 238.800 296.469,238.554 295.979,238.254 295.631 C 236.737 293.879,237.859 290.800,240.015 290.800 C 241.052 290.800,246.800 285.788,246.800 284.884 C 246.800 284.672,247.058 284.283,247.374 284.021 C 247.690 283.759,248.070 282.972,248.219 282.272 C 248.367 281.573,248.784 280.666,249.145 280.258 C 249.712 279.616,249.798 278.295,249.785 270.458 C 249.770 260.685,249.850 261.147,247.276 256.067 C 244.795 251.172,238.375 247.400,230.800 246.388 C 226.450 245.807,196.011 245.904,195.784 246.500 M301.260 255.500 C 301.535 255.775,302.097 256.000,302.509 256.000 C 304.696 256.000,310.350 260.825,311.208 263.424 C 311.458 264.181,311.820 264.800,312.013 264.800 C 312.206 264.800,312.487 265.458,312.638 266.263 C 312.789 267.067,313.156 268.192,313.454 268.763 C 313.752 269.333,313.996 270.376,313.998 271.080 C 313.999 271.785,314.270 273.398,314.600 274.665 C 315.330 277.468,315.448 296.404,314.752 299.000 C 314.516 299.880,314.199 301.632,314.047 302.894 C 313.896 304.156,313.553 305.407,313.286 305.674 C 313.019 305.941,312.788 306.619,312.773 307.180 C 312.759 307.741,312.220 309.100,311.575 310.200 C 310.931 311.300,310.283 312.453,310.135 312.761 C 309.701 313.672,306.246 316.795,305.671 316.798 C 305.381 316.799,304.873 317.070,304.543 317.400 C 304.213 317.730,303.616 318.000,303.217 318.000 C 302.818 318.000,301.976 318.269,301.346 318.598 C 299.726 319.442,290.489 319.454,289.376 318.613 C 288.949 318.290,288.261 318.020,287.847 318.013 C 285.508 317.973,278.800 311.510,278.800 309.296 C 278.800 308.891,278.608 308.368,278.373 308.133 C 278.139 307.899,277.704 306.648,277.408 305.353 C 277.111 304.059,276.690 302.280,276.471 301.400 C 275.425 297.187,275.632 272.832,276.726 271.476 C 276.937 271.214,277.238 270.220,277.395 269.267 C 277.553 268.314,277.932 267.054,278.238 266.467 C 278.544 265.880,278.796 265.184,278.798 264.920 C 278.809 262.698,285.753 256.000,288.045 256.000 C 288.410 256.000,289.224 255.721,289.854 255.381 C 291.303 254.598,300.454 254.694,301.260 255.500 M160.400 256.397 C 166.029 257.241,170.878 260.866,171.930 265.019 C 172.206 266.108,172.621 267.720,172.852 268.600 C 173.330 270.424,173.106 275.336,172.510 276.094 C 172.291 276.372,172.001 277.187,171.866 277.904 C 171.441 280.144,167.459 284.781,165.949 284.794 C 165.591 284.797,165.098 285.041,164.854 285.335 C 163.665 286.767,144.269 287.389,142.655 286.047 C 142.054 285.547,142.000 284.123,142.095 271.259 L 142.200 257.023 143.200 256.518 C 144.350 255.936,156.744 255.849,160.400 256.397 M226.800 256.397 C 229.403 256.787,232.800 257.948,232.800 258.447 C 232.800 258.641,233.036 258.800,233.325 258.800 C 233.866 258.800,235.600 260.884,235.600 261.535 C 235.600 261.737,235.841 262.102,236.135 262.346 C 236.896 262.977,237.759 269.062,237.453 271.637 C 236.891 276.361,236.693 277.421,236.271 277.943 C 236.029 278.241,235.641 278.871,235.408 279.343 C 233.707 282.793,228.725 284.000,216.194 284.000 C 205.715 284.000,206.789 285.560,206.840 270.411 C 206.884 257.469,206.963 256.759,208.415 256.354 C 209.805 255.967,224.151 256.000,226.800 256.397 M70.800 274.253 C 70.800 274.596,72.485 277.349,72.854 277.608 C 73.017 277.723,73.339 278.263,73.570 278.808 C 73.801 279.354,74.790 280.880,75.768 282.200 C 76.746 283.520,77.558 284.825,77.573 285.100 C 77.588 285.375,77.762 285.600,77.961 285.600 C 78.159 285.600,78.510 286.140,78.740 286.800 C 78.970 287.460,79.348 288.000,79.579 288.000 C 79.811 288.000,80.000 288.182,80.000 288.404 C 80.000 288.626,80.630 289.705,81.400 290.800 C 82.170 291.895,82.800 292.979,82.800 293.208 C 82.800 293.438,83.054 293.722,83.364 293.841 C 83.674 293.961,84.037 294.495,84.172 295.029 C 84.306 295.563,84.592 296.000,84.808 296.000 C 85.023 296.000,85.200 296.242,85.200 296.538 C 85.200 296.834,85.560 297.402,86.000 297.800 C 87.259 298.939,87.059 301.227,85.500 303.524 C 84.785 304.578,84.020 305.726,83.800 306.076 C 81.662 309.477,80.093 311.815,79.569 312.380 C 79.223 312.755,78.816 313.317,78.665 313.631 C 78.376 314.232,77.975 314.847,75.402 318.643 C 74.522 319.939,73.712 321.180,73.602 321.400 C 73.194 322.209,71.809 324.207,71.503 324.427 C 71.127 324.698,69.600 327.633,69.600 328.085 C 69.600 328.637,81.769 328.462,82.474 327.900 C 82.819 327.625,83.873 326.050,84.816 324.400 C 85.760 322.750,86.641 321.310,86.774 321.200 C 86.907 321.090,87.240 320.550,87.512 320.000 C 87.785 319.450,88.364 318.460,88.798 317.800 C 89.233 317.140,89.775 316.240,90.004 315.800 C 90.232 315.360,90.855 314.280,91.389 313.400 C 91.922 312.520,92.529 311.440,92.737 311.000 C 92.945 310.560,93.558 309.788,94.099 309.285 L 95.083 308.371 96.067 309.685 C 97.231 311.240,100.000 315.795,100.000 316.156 C 100.000 316.295,100.585 317.270,101.300 318.324 C 103.255 321.205,103.564 321.712,104.026 322.792 C 104.259 323.337,104.577 323.877,104.733 323.992 C 104.889 324.106,105.236 324.650,105.505 325.200 C 106.210 326.640,106.940 327.756,107.400 328.094 C 107.989 328.526,120.400 328.468,120.400 328.032 C 120.400 327.406,119.054 325.160,117.900 323.860 C 117.295 323.179,116.800 322.405,116.800 322.139 C 116.800 321.874,116.575 321.419,116.300 321.129 C 116.025 320.838,115.260 319.790,114.600 318.800 C 113.940 317.810,113.265 316.940,113.100 316.867 C 112.935 316.793,112.800 316.500,112.800 316.216 C 112.800 315.931,112.511 315.458,112.158 315.165 C 111.805 314.873,111.356 314.265,111.159 313.816 C 110.679 312.720,109.948 311.625,109.100 310.735 C 108.715 310.331,108.400 309.745,108.400 309.433 C 108.400 309.122,108.265 308.807,108.100 308.733 C 107.657 308.537,106.000 306.096,106.000 305.641 C 106.000 305.426,105.455 304.653,104.789 303.925 C 102.820 301.770,102.439 298.867,103.960 297.600 C 104.343 297.280,106.000 294.854,106.000 294.612 C 106.000 294.491,106.630 293.495,107.400 292.400 C 108.170 291.305,108.800 290.246,108.800 290.047 C 108.800 289.848,109.070 289.582,109.400 289.455 C 109.730 289.329,110.000 289.059,110.000 288.857 C 110.000 288.504,113.927 282.316,114.785 281.317 C 115.013 281.051,115.200 280.659,115.200 280.445 C 115.200 280.232,115.425 279.814,115.700 279.518 C 116.592 278.555,118.000 276.442,118.000 276.065 C 118.000 275.863,118.270 275.474,118.600 275.200 C 119.843 274.169,119.031 274.000,112.828 274.000 L 106.457 274.000 105.228 275.820 C 104.553 276.821,104.000 277.892,104.000 278.200 C 104.000 278.508,103.775 278.904,103.500 279.080 C 102.952 279.431,102.332 280.358,101.414 282.200 C 101.085 282.860,100.645 283.670,100.436 284.000 C 100.227 284.330,99.380 285.770,98.554 287.200 C 95.009 293.336,94.460 293.336,91.293 287.200 C 91.009 286.650,90.197 285.185,89.489 283.944 C 85.485 276.932,83.920 274.455,83.360 274.240 C 82.523 273.919,70.800 273.931,70.800 274.253 " stroke="none" fill="#110e11" fill-rule="evenodd"></path><path id="path1" d="M3.067 3.067 C 2.920 3.213,2.800 92.223,2.800 200.867 L 2.800 398.400 200.600 398.400 L 398.400 398.400 398.400 200.600 L 398.400 2.800 200.867 2.800 C 92.223 2.800,3.213 2.920,3.067 3.067 M103.901 94.776 C 103.982 147.132,103.900 160.616,103.501 160.870 C 102.771 161.333,76.657 161.278,75.426 160.810 L 74.400 160.420 74.400 95.030 C 74.400 33.177,74.438 29.618,75.100 29.229 C 75.551 28.965,80.783 28.851,89.800 28.909 L 103.800 29.000 103.901 94.776 M150.571 29.429 C 151.423 30.280,151.530 111.523,150.682 113.200 L 150.177 114.200 136.388 114.306 C 123.781 114.403,122.557 114.353,122.100 113.729 C 121.386 112.755,121.366 29.994,122.080 29.280 C 122.894 28.466,149.749 28.606,150.571 29.429 M197.226 29.214 C 198.444 29.866,198.444 160.134,197.226 160.786 C 196.061 161.409,169.508 161.348,168.880 160.720 C 168.182 160.022,168.182 29.978,168.880 29.280 C 169.508 28.652,196.061 28.591,197.226 29.214 M244.320 29.280 C 245.008 29.968,245.008 56.832,244.320 57.520 C 243.632 58.208,216.368 58.208,215.680 57.520 C 214.973 56.813,214.992 29.351,215.700 29.065 C 216.861 28.596,243.839 28.799,244.320 29.280 M328.320 29.280 C 328.948 29.908,329.009 56.062,328.386 57.226 C 327.807 58.309,264.027 58.455,262.489 57.377 C 261.600 56.755,261.600 56.752,261.600 43.238 L 261.600 29.722 262.500 29.288 C 263.853 28.636,327.668 28.628,328.320 29.280 M244.409 76.400 C 244.952 77.261,244.930 159.010,244.386 160.026 C 243.804 161.113,215.858 161.249,215.443 160.167 C 214.749 158.359,215.194 76.443,215.900 76.024 C 217.117 75.300,243.938 75.654,244.409 76.400 M291.210 76.626 C 291.454 77.268,291.600 92.892,291.600 118.400 C 291.600 143.908,291.454 159.532,291.210 160.174 L 290.820 161.200 277.010 161.200 C 263.702 161.200,263.171 161.171,262.395 160.395 C 261.304 159.304,261.310 76.681,262.400 75.991 C 262.748 75.772,268.845 75.610,276.910 75.606 L 290.820 75.600 291.210 76.626 M372.971 189.429 C 373.762 190.219,373.764 190.788,372.977 191.911 L 372.355 192.800 200.806 192.800 C 45.386 192.800,29.198 192.741,28.629 192.171 C 27.883 191.425,27.807 189.953,28.480 189.280 C 29.311 188.449,372.139 188.596,372.971 189.429 M304.600 244.116 C 309.802 245.260,313.781 247.147,316.784 249.897 C 317.563 250.610,318.311 251.195,318.446 251.197 C 318.581 251.198,319.210 251.965,319.844 252.900 C 320.479 253.835,321.088 254.690,321.199 254.800 C 321.728 255.326,323.200 257.606,323.200 257.899 C 323.200 258.082,323.560 258.937,324.000 259.800 C 324.440 260.663,324.800 261.581,324.800 261.839 C 324.800 262.097,325.069 262.824,325.398 263.454 C 325.726 264.084,325.996 264.926,325.998 265.325 C 325.999 265.724,326.252 266.894,326.559 267.925 C 328.752 275.279,328.755 298.770,326.563 306.075 C 326.253 307.106,325.994 308.366,325.986 308.875 C 325.979 309.384,325.625 310.520,325.200 311.400 C 324.775 312.280,324.415 313.270,324.401 313.600 C 324.386 313.930,324.110 314.549,323.787 314.976 C 323.464 315.404,323.200 316.084,323.200 316.489 C 323.200 316.894,322.930 317.329,322.600 317.455 C 322.270 317.582,322.000 317.844,322.000 318.037 C 322.000 318.776,318.531 323.126,317.056 324.237 C 314.114 326.453,309.818 328.800,308.705 328.800 C 308.405 328.800,307.963 328.997,307.721 329.239 C 307.277 329.683,304.907 330.108,298.863 330.825 C 294.676 331.322,284.091 330.251,283.067 329.227 C 282.832 328.992,282.361 328.794,282.020 328.787 C 281.274 328.772,278.425 327.377,276.136 325.905 C 270.390 322.211,265.864 314.413,264.002 305.000 C 263.741 303.680,263.372 301.880,263.181 301.000 C 262.744 298.983,262.736 275.621,263.171 273.200 C 263.506 271.339,264.012 269.111,264.807 266.000 C 265.060 265.010,265.360 263.621,265.475 262.914 C 265.590 262.207,265.935 261.420,266.242 261.165 C 266.549 260.910,266.808 260.409,266.817 260.051 C 266.827 259.693,267.272 258.680,267.807 257.800 C 268.342 256.920,269.076 255.660,269.438 255.000 C 271.711 250.861,281.109 244.486,285.114 244.368 C 285.711 244.350,287.010 244.097,288.000 243.806 C 290.418 243.095,300.841 243.290,304.600 244.116 M163.335 245.000 C 164.602 245.330,166.164 245.600,166.805 245.600 C 171.101 245.600,180.223 251.452,182.666 255.776 C 183.886 257.936,185.200 260.807,185.200 261.314 C 185.200 261.624,185.500 262.478,185.866 263.213 C 186.840 265.164,186.832 278.281,185.857 279.770 C 185.496 280.321,185.200 281.077,185.200 281.449 C 185.200 284.436,178.771 292.592,175.200 294.136 C 174.870 294.278,174.330 294.564,174.000 294.770 C 173.670 294.976,172.410 295.496,171.200 295.925 C 169.990 296.354,168.370 296.942,167.600 297.232 C 166.625 297.599,162.804 297.825,155.000 297.979 L 143.800 298.200 143.702 313.400 C 143.606 328.332,143.589 328.612,142.758 329.300 C 141.563 330.288,131.204 330.347,130.229 329.371 C 129.240 328.383,129.273 246.225,130.262 245.131 C 131.177 244.121,159.526 244.008,163.335 245.000 M228.368 244.783 C 228.762 244.993,230.325 245.284,231.842 245.428 C 233.359 245.573,235.123 245.940,235.761 246.245 C 236.400 246.550,237.120 246.806,237.361 246.813 C 239.075 246.861,244.027 250.216,246.000 252.665 C 246.770 253.621,247.589 254.627,247.821 254.901 C 249.072 256.384,250.220 259.745,251.202 264.800 C 253.296 275.572,249.369 286.341,241.611 291.102 C 239.955 292.118,238.531 293.000,238.448 293.061 C 238.287 293.178,239.377 295.783,240.013 296.800 C 240.219 297.130,240.633 297.940,240.932 298.600 C 242.458 301.965,243.724 304.663,244.027 305.200 C 244.214 305.530,244.832 306.790,245.401 308.000 C 245.970 309.210,246.698 310.678,247.018 311.262 C 247.338 311.846,247.600 312.611,247.600 312.962 C 247.600 313.313,247.736 313.600,247.902 313.600 C 248.069 313.600,248.631 314.545,249.153 315.700 C 249.674 316.855,251.248 320.179,252.650 323.086 C 256.130 330.299,256.365 330.000,247.200 330.000 C 240.391 330.000,239.287 329.735,238.943 328.016 C 238.811 327.357,238.455 326.612,238.152 326.360 C 237.848 326.108,237.600 325.669,237.600 325.383 C 237.600 325.098,237.352 324.355,237.049 323.732 C 236.452 322.505,235.290 319.938,234.182 317.400 C 233.797 316.520,233.328 315.530,233.139 315.200 C 232.950 314.870,232.692 314.330,232.565 314.000 C 232.100 312.786,230.729 309.769,230.173 308.738 C 229.858 308.154,229.600 307.299,229.600 306.838 C 229.600 306.377,229.423 306.000,229.208 306.000 C 228.992 306.000,228.697 305.505,228.553 304.900 C 228.409 304.295,228.061 303.350,227.780 302.800 C 226.327 299.958,225.599 298.326,225.587 297.888 C 225.531 295.838,224.538 295.600,216.036 295.600 L 208.000 295.600 208.000 312.386 C 208.000 328.572,207.972 329.187,207.226 329.586 C 205.922 330.284,195.943 330.115,194.889 329.377 L 194.000 328.755 194.006 287.477 C 194.009 264.775,194.144 246.005,194.306 245.766 C 195.152 244.517,196.354 244.424,211.926 244.412 C 221.202 244.405,227.946 244.557,228.368 244.783 M290.200 256.472 C 289.100 256.690,287.930 257.035,287.600 257.237 C 287.270 257.440,286.550 257.829,286.000 258.101 C 282.341 259.914,278.008 267.139,278.002 271.436 C 278.001 272.116,277.732 273.556,277.404 274.636 C 276.675 277.042,276.531 296.523,277.226 298.803 C 277.461 299.571,277.819 301.439,278.022 302.954 C 278.225 304.469,278.549 305.909,278.741 306.154 C 278.933 306.399,279.218 307.133,279.374 307.785 C 279.530 308.436,280.185 309.751,280.829 310.705 C 281.473 311.659,282.000 312.533,282.000 312.647 C 282.000 313.922,287.001 316.913,290.414 317.679 C 303.681 320.656,312.162 313.407,313.669 297.800 C 314.468 289.522,313.922 271.956,312.824 270.627 C 312.630 270.392,312.345 269.480,312.191 268.600 C 312.037 267.720,311.660 266.601,311.355 266.114 C 311.050 265.627,310.800 265.051,310.800 264.834 C 310.800 263.409,306.928 259.305,304.000 257.627 C 301.818 256.376,293.983 255.720,290.200 256.472 M143.802 258.077 C 143.678 258.585,143.627 264.940,143.688 272.200 L 143.800 285.400 152.200 285.514 C 162.716 285.657,164.695 285.186,168.224 281.705 C 172.905 277.087,172.996 266.225,168.393 261.285 C 165.525 258.207,162.869 257.568,151.913 257.327 L 144.027 257.154 143.802 258.077 M208.675 257.917 C 208.052 258.605,207.998 259.800,208.094 270.638 L 208.200 282.600 217.975 282.707 C 230.774 282.848,233.507 281.890,235.553 276.543 C 236.755 273.400,236.783 265.912,235.600 263.704 C 235.160 262.884,234.797 262.029,234.793 261.806 C 234.772 260.586,231.241 258.416,228.451 257.908 C 223.759 257.054,209.451 257.060,208.675 257.917 M84.358 273.560 C 85.041 274.199,85.600 275.009,85.600 275.360 C 85.600 275.712,85.762 276.000,85.961 276.000 C 86.159 276.000,86.520 276.495,86.762 277.100 C 87.004 277.705,87.561 278.740,88.000 279.400 C 88.439 280.060,88.996 281.095,89.238 281.700 C 89.480 282.305,89.823 282.800,90.000 282.800 C 90.177 282.800,90.525 283.295,90.773 283.900 C 91.022 284.505,91.450 285.360,91.726 285.800 C 92.001 286.240,92.834 287.566,93.576 288.747 L 94.926 290.893 95.649 289.947 C 96.047 289.426,96.580 288.505,96.835 287.900 C 97.089 287.295,97.455 286.800,97.649 286.800 C 97.842 286.800,98.000 286.462,98.000 286.049 C 98.000 285.636,98.267 285.076,98.594 284.805 C 98.920 284.534,99.595 283.477,100.093 282.456 C 100.592 281.435,101.224 280.456,101.500 280.280 C 101.775 280.104,102.000 279.768,102.000 279.532 C 102.000 278.964,104.709 274.439,105.732 273.300 C 106.539 272.401,117.767 271.875,119.767 272.643 C 121.047 273.134,117.022 281.505,115.108 282.333 C 114.939 282.407,114.800 282.640,114.800 282.851 C 114.800 283.063,113.179 285.703,111.198 288.718 C 106.589 295.732,106.724 295.531,105.900 296.609 C 105.515 297.114,105.200 297.701,105.200 297.914 C 105.200 298.127,104.930 298.526,104.600 298.800 C 103.716 299.533,103.863 300.551,105.129 302.480 C 105.750 303.426,107.543 306.180,109.112 308.600 C 110.682 311.020,112.130 313.191,112.329 313.425 C 112.529 313.659,112.920 314.278,113.200 314.800 C 113.480 315.322,113.873 315.941,114.075 316.175 C 114.445 316.604,116.562 319.763,119.274 323.933 C 120.085 325.180,121.119 326.880,121.573 327.710 L 122.398 329.221 121.373 329.610 C 120.228 330.045,108.580 330.097,107.528 329.672 C 106.867 329.404,104.800 326.662,104.800 326.053 C 104.800 325.881,104.170 324.855,103.400 323.772 C 102.630 322.689,102.000 321.676,102.000 321.521 C 102.000 321.367,101.505 320.466,100.900 319.520 C 99.013 316.570,98.808 316.227,98.305 315.200 C 98.036 314.650,97.714 314.110,97.589 314.000 C 97.464 313.890,96.858 312.929,96.243 311.865 C 95.167 310.002,93.600 310.041,93.600 311.929 C 93.600 312.129,93.257 312.728,92.838 313.261 C 92.419 313.794,91.687 314.943,91.212 315.815 C 90.737 316.687,89.642 318.480,88.778 319.800 C 87.915 321.120,87.020 322.633,86.790 323.163 C 86.560 323.692,85.838 324.916,85.186 325.883 C 84.534 326.849,84.000 327.798,84.000 327.991 C 84.000 329.779,72.310 331.010,68.626 329.610 L 67.601 329.220 68.480 327.410 C 68.964 326.415,69.504 325.600,69.680 325.600 C 69.856 325.600,70.000 325.343,70.000 325.029 C 70.000 324.714,70.231 324.219,70.514 323.929 C 70.796 323.638,71.775 322.230,72.688 320.800 C 73.601 319.370,74.601 317.930,74.909 317.600 C 75.218 317.270,75.596 316.730,75.751 316.400 C 76.218 315.402,78.372 312.000,78.791 311.600 C 79.231 311.179,80.800 308.820,80.800 308.579 C 80.800 308.440,81.115 307.914,81.500 307.409 C 83.505 304.784,86.000 300.757,86.000 300.148 C 86.000 299.828,85.817 299.349,85.592 299.083 C 84.965 298.340,80.800 291.974,80.800 291.758 C 80.800 291.452,79.029 289.013,78.700 288.867 C 78.535 288.793,78.400 288.538,78.400 288.298 C 78.400 288.059,78.101 287.533,77.736 287.129 C 77.036 286.356,76.287 285.148,75.659 283.784 C 75.452 283.335,74.995 282.727,74.642 282.435 C 74.289 282.142,74.000 281.654,74.000 281.351 C 74.000 281.048,73.849 280.800,73.664 280.800 C 73.480 280.800,73.112 280.395,72.848 279.900 C 72.283 278.839,71.770 277.998,70.292 275.708 C 68.199 272.464,68.317 272.400,76.424 272.400 L 83.115 272.400 84.358 273.560 " stroke="none" fill="#fbfbfb" fill-rule="evenodd"></path><path id="path2" d="M216.662 77.131 C 215.584 78.323,215.651 158.760,216.731 159.738 C 217.906 160.801,242.371 160.737,243.338 159.669 C 244.416 158.477,244.349 78.040,243.269 77.062 C 242.094 75.999,217.629 76.063,216.662 77.131 M130.593 287.000 C 130.593 309.440,130.641 318.561,130.700 307.269 C 130.759 295.978,130.759 277.618,130.700 266.469 C 130.641 255.321,130.593 264.560,130.593 287.000 M147.721 256.298 C 149.877 256.371,153.297 256.370,155.321 256.298 C 157.344 256.225,155.580 256.166,151.400 256.167 C 147.220 256.167,145.564 256.226,147.721 256.298 M213.100 256.298 C 215.355 256.370,219.045 256.370,221.300 256.298 C 223.555 256.227,221.710 256.169,217.200 256.169 C 212.690 256.169,210.845 256.227,213.100 256.298 M206.978 270.400 C 206.978 277.110,207.032 279.855,207.099 276.500 C 207.166 273.145,207.166 267.655,207.099 264.300 C 207.032 260.945,206.978 263.690,206.978 270.400 M250.148 270.400 C 250.148 272.710,250.214 273.655,250.295 272.500 C 250.376 271.345,250.376 269.455,250.295 268.300 C 250.214 267.145,250.148 268.090,250.148 270.400 M206.982 311.600 C 206.982 320.510,207.035 324.155,207.100 319.700 C 207.164 315.245,207.164 307.955,207.100 303.500 C 207.035 299.045,206.982 302.690,206.982 311.600 M72.719 328.698 C 74.544 328.772,77.424 328.772,79.119 328.697 C 80.814 328.622,79.320 328.561,75.800 328.562 C 72.280 328.562,70.894 328.624,72.719 328.698 M110.882 328.696 C 112.358 328.773,114.878 328.773,116.482 328.697 C 118.087 328.621,116.880 328.558,113.800 328.558 C 110.720 328.557,109.407 328.619,110.882 328.696 M133.282 328.696 C 134.758 328.773,137.278 328.773,138.882 328.697 C 140.487 328.621,139.280 328.558,136.200 328.558 C 133.120 328.557,131.807 328.619,133.282 328.696 M198.482 328.696 C 199.958 328.773,202.478 328.773,204.082 328.697 C 205.687 328.621,204.480 328.558,201.400 328.558 C 198.320 328.557,197.007 328.619,198.482 328.696 M244.100 328.697 C 245.805 328.772,248.595 328.772,250.300 328.697 C 252.005 328.622,250.610 328.561,247.200 328.561 C 243.790 328.561,242.395 328.622,244.100 328.697 " stroke="none" fill="#a62239" fill-rule="evenodd"></path><path id="path3" d="M2.070 2.126 L 1.200 3.052 1.200 200.665 C 1.200 393.022,1.220 398.300,1.947 399.139 L 2.694 400.000 200.775 400.000 C 371.913 400.000,398.935 399.922,399.429 399.429 C 399.922 398.935,400.000 371.913,400.000 200.775 L 400.000 2.694 399.139 1.947 C 398.300 1.220,393.021 1.200,200.609 1.200 L 2.939 1.200 2.070 2.126 M398.426 2.414 C 399.386 2.928,399.679 397.761,398.720 398.720 C 397.761 399.679,2.928 399.386,2.414 398.426 C 1.613 396.930,1.860 3.618,2.662 2.731 C 3.443 1.868,396.816 1.552,398.426 2.414 M75.700 29.465 C 74.923 29.778,74.971 159.712,75.747 160.356 C 76.781 161.214,103.374 160.769,103.454 159.892 C 103.499 159.397,103.462 159.367,103.330 159.792 C 103.001 160.854,76.584 160.691,76.013 159.624 C 75.730 159.095,75.630 138.347,75.699 94.324 L 75.800 29.800 89.662 29.800 C 97.286 29.800,103.440 29.665,103.338 29.500 C 103.135 29.172,76.511 29.138,75.700 29.465 M122.272 29.462 C 121.885 29.848,121.945 112.495,122.333 113.105 C 122.583 113.500,125.674 113.588,136.427 113.505 L 150.200 113.400 150.200 71.400 L 150.200 29.400 136.372 29.295 C 128.766 29.237,122.421 29.312,122.272 29.462 M168.985 29.700 C 168.880 29.975,168.841 59.540,168.897 95.400 L 169.000 160.600 182.600 160.697 C 190.739 160.755,196.441 160.640,196.800 160.411 C 197.784 159.784,197.911 30.422,196.928 29.700 C 195.942 28.976,169.260 28.976,168.985 29.700 M215.867 29.467 C 215.720 29.613,215.600 35.892,215.600 43.420 L 215.600 57.107 216.500 57.348 C 218.019 57.755,242.268 57.631,243.374 57.210 L 244.400 56.820 244.400 43.253 C 244.400 31.250,244.327 29.658,243.767 29.443 C 242.902 29.111,216.200 29.133,215.867 29.467 M262.900 29.464 C 261.938 29.854,262.203 56.666,263.174 57.186 C 264.468 57.879,327.378 57.749,327.956 57.053 C 328.281 56.662,328.381 52.621,328.305 42.953 L 328.200 29.400 295.800 29.330 C 277.980 29.292,263.175 29.352,262.900 29.464 M149.902 71.300 L 149.800 113.000 136.200 113.000 L 122.600 113.000 122.498 71.300 L 122.396 29.600 136.200 29.600 L 150.004 29.600 149.902 71.300 M196.701 94.324 C 196.771 138.630,196.671 159.093,196.384 159.629 C 195.981 160.384,195.508 160.407,182.683 160.305 L 169.400 160.200 169.299 94.895 L 169.198 29.589 182.899 29.695 L 196.600 29.800 196.701 94.324 M243.905 43.252 L 244.011 56.704 243.105 56.947 C 241.928 57.262,218.077 57.263,216.900 56.948 L 216.000 56.707 216.000 43.420 C 216.000 36.112,216.122 30.011,216.272 29.862 C 216.421 29.712,222.676 29.637,230.172 29.695 L 243.800 29.800 243.905 43.252 M327.905 43.300 L 327.800 57.000 295.600 57.000 L 263.400 57.000 263.295 43.300 L 263.189 29.600 295.600 29.600 L 328.011 29.600 327.905 43.300 M262.880 76.480 C 262.053 77.307,262.199 159.342,263.029 160.171 C 263.984 161.127,290.591 161.123,290.957 160.167 C 291.275 159.340,291.275 77.460,290.957 76.633 C 290.640 75.805,263.701 75.659,262.880 76.480 M290.600 118.400 L 290.600 160.200 277.227 160.305 C 266.794 160.388,263.783 160.300,263.533 159.905 C 263.145 159.295,263.085 77.049,263.472 76.661 C 263.621 76.512,269.786 76.437,277.172 76.495 L 290.600 76.600 290.600 118.400 M29.007 189.992 C 28.420 190.641,28.381 190.895,28.794 191.393 C 29.648 192.422,371.925 192.107,372.556 191.077 C 373.777 189.086,384.211 189.200,200.586 189.200 C 30.771 189.200,29.720 189.205,29.007 189.992 M371.924 190.700 C 371.796 191.365,363.294 191.405,201.036 191.500 C 30.734 191.601,28.666 191.587,29.428 190.355 C 29.911 189.574,372.074 189.919,371.924 190.700 M290.637 244.042 C 285.041 244.594,286.064 244.765,294.902 244.755 C 303.037 244.745,305.806 244.963,306.228 245.645 C 306.349 245.840,306.844 246.000,307.330 246.000 C 307.815 246.000,308.884 246.360,309.704 246.800 C 310.525 247.240,311.468 247.600,311.799 247.600 C 312.129 247.600,312.400 247.751,312.400 247.936 C 312.400 248.120,312.844 248.474,313.387 248.721 C 313.930 248.969,314.875 249.615,315.487 250.157 C 316.099 250.700,317.023 251.508,317.541 251.954 C 318.836 253.070,321.600 256.828,321.600 257.472 C 321.600 257.763,321.780 258.000,322.000 258.000 C 322.220 258.000,322.400 258.228,322.400 258.506 C 322.400 258.784,322.734 259.639,323.141 260.406 C 323.549 261.173,324.007 262.475,324.160 263.300 C 324.312 264.125,324.582 264.800,324.761 264.800 C 324.940 264.800,325.200 265.888,325.339 267.218 C 325.478 268.549,325.773 269.975,325.994 270.389 C 327.225 272.689,327.265 302.262,326.040 303.758 C 325.840 304.001,325.545 305.280,325.385 306.600 C 325.224 307.920,324.846 309.355,324.546 309.789 C 324.246 310.223,324.000 311.056,324.000 311.640 C 324.000 312.224,323.730 312.926,323.400 313.200 C 323.070 313.474,322.800 313.881,322.800 314.105 C 322.800 314.788,321.034 318.179,320.500 318.520 C 320.225 318.696,320.000 319.039,320.000 319.283 C 320.000 321.015,310.239 328.044,307.880 328.010 C 307.484 328.005,306.674 328.250,306.080 328.555 C 304.205 329.517,295.238 329.985,290.000 329.392 C 282.213 328.512,278.173 326.801,273.719 322.500 C 272.979 321.785,272.199 321.200,271.987 321.200 C 271.774 321.200,271.600 321.018,271.600 320.796 C 271.600 320.574,270.970 319.495,270.200 318.400 C 269.430 317.305,268.800 316.158,268.800 315.853 C 268.800 315.548,268.530 315.074,268.200 314.800 C 267.870 314.526,267.600 314.006,267.600 313.645 C 267.600 313.284,267.240 312.316,266.800 311.496 C 266.360 310.675,266.000 309.483,266.000 308.847 C 266.000 308.212,265.731 307.176,265.402 306.546 C 265.074 305.916,264.801 304.410,264.796 303.200 C 264.791 301.990,264.527 299.920,264.208 298.600 C 263.402 295.263,263.397 279.252,264.200 275.600 C 264.515 274.170,264.778 272.139,264.786 271.087 C 264.794 270.035,265.070 268.528,265.400 267.738 C 265.730 266.949,266.001 265.739,266.003 265.051 C 266.004 264.363,266.363 263.260,266.800 262.600 C 267.237 261.940,267.596 260.995,267.597 260.500 C 267.599 260.005,267.766 259.600,267.969 259.600 C 268.172 259.600,268.546 258.970,268.800 258.200 C 269.054 257.430,269.428 256.800,269.631 256.800 C 269.834 256.800,270.000 256.558,270.000 256.262 C 270.000 255.966,270.360 255.398,270.800 255.000 C 271.240 254.602,271.600 254.138,271.600 253.970 C 271.600 253.143,278.289 247.600,279.287 247.600 C 279.581 247.600,280.186 247.345,280.631 247.033 C 281.077 246.721,282.135 246.336,282.983 246.177 C 284.826 245.831,286.991 244.806,285.887 244.802 C 284.088 244.796,278.478 247.157,276.000 248.962 C 269.410 253.764,266.068 260.366,263.832 273.000 C 262.971 277.866,262.934 296.151,263.777 300.692 C 265.300 308.901,265.946 311.576,266.651 312.589 C 266.953 313.023,267.200 313.592,267.200 313.854 C 267.200 317.599,278.461 328.499,282.239 328.410 C 282.480 328.405,283.200 328.651,283.839 328.958 C 287.979 330.948,300.920 330.872,307.400 328.820 C 311.320 327.578,318.008 323.522,318.717 321.957 C 318.781 321.816,319.563 320.732,320.455 319.550 C 325.478 312.892,327.732 302.809,327.731 287.000 C 327.730 277.097,326.196 264.847,324.778 263.420 C 324.570 263.211,324.400 262.711,324.400 262.309 C 324.400 260.549,318.716 251.206,317.641 251.198 C 317.508 251.197,316.833 250.664,316.139 250.014 C 311.296 245.475,300.864 243.032,290.637 244.042 M130.414 245.974 C 129.838 247.049,129.838 327.751,130.414 328.826 C 130.982 329.888,141.130 330.013,142.171 328.971 C 142.720 328.422,142.800 326.450,142.800 313.386 C 142.800 299.007,142.830 298.412,143.574 298.014 C 144.046 297.761,148.150 297.600,154.123 297.600 C 161.791 297.600,164.266 297.471,165.600 297.000 C 166.535 296.670,167.679 296.400,168.143 296.400 C 168.606 296.400,169.978 296.002,171.192 295.516 C 192.114 287.143,191.297 253.849,170.000 246.916 C 164.206 245.029,131.338 244.247,130.414 245.974 M195.500 245.632 C 194.476 246.228,194.406 327.949,195.429 328.971 C 196.252 329.794,206.553 329.908,207.076 329.100 C 207.254 328.825,207.490 321.130,207.600 312.000 L 207.800 295.400 215.959 295.292 C 224.744 295.175,225.208 295.272,225.835 297.353 C 225.975 297.819,226.710 299.550,227.467 301.200 C 229.469 305.558,230.044 306.844,230.643 308.306 C 230.937 309.024,231.442 310.194,231.763 310.906 C 232.435 312.393,233.814 315.456,235.494 319.200 C 240.622 330.620,239.484 329.602,247.119 329.595 C 255.508 329.586,255.326 329.773,252.552 324.027 C 248.823 316.306,244.777 307.866,239.847 297.527 C 237.550 292.711,237.551 292.554,239.870 291.528 C 240.899 291.073,241.934 290.546,242.170 290.356 C 242.407 290.167,243.201 289.530,243.936 288.940 C 248.847 285.000,251.081 278.324,250.677 268.800 C 250.069 254.509,244.452 247.940,231.000 245.790 C 226.624 245.090,196.659 244.957,195.500 245.632 M167.800 246.904 C 168.460 247.284,169.360 247.595,169.800 247.596 C 173.438 247.599,183.126 256.033,183.188 259.251 C 183.194 259.609,183.470 260.126,183.800 260.400 C 184.130 260.674,184.400 261.412,184.400 262.041 C 184.400 262.669,184.680 263.883,185.022 264.738 C 186.539 268.530,185.270 280.061,182.844 284.528 C 180.647 288.572,175.595 293.600,173.727 293.600 C 173.491 293.600,173.074 293.870,172.800 294.200 C 172.526 294.530,171.908 294.800,171.427 294.800 C 170.946 294.800,170.204 295.064,169.776 295.387 C 169.349 295.710,168.363 295.980,167.584 295.987 C 166.805 295.994,165.131 296.270,163.865 296.600 C 162.156 297.045,159.298 297.200,152.807 297.200 C 147.992 297.200,143.590 297.376,143.026 297.590 L 142.000 297.980 142.000 312.757 C 142.000 320.885,141.891 327.819,141.757 328.167 C 141.310 329.334,130.970 329.085,130.652 327.900 C 130.304 326.601,130.343 246.590,130.692 246.241 C 131.387 245.546,166.533 246.174,167.800 246.904 M231.800 246.395 C 236.355 247.420,240.023 248.790,241.129 249.879 C 241.419 250.166,241.840 250.400,242.063 250.400 C 242.839 250.400,246.622 254.728,247.533 256.658 C 248.038 257.726,248.647 258.958,248.887 259.394 C 250.455 262.243,250.509 279.148,248.954 280.438 C 248.649 280.691,248.400 281.194,248.400 281.555 C 248.400 283.104,243.433 289.600,242.249 289.600 C 242.081 289.600,241.673 289.870,241.343 290.200 C 241.013 290.530,240.439 290.800,240.067 290.800 C 237.901 290.800,236.730 293.809,238.200 295.600 C 238.471 295.930,238.810 296.695,238.954 297.300 C 239.098 297.905,239.392 298.400,239.608 298.400 C 239.823 298.400,240.000 298.605,240.000 298.856 C 240.000 299.269,241.205 302.099,242.021 303.600 C 242.337 304.182,244.209 308.010,247.028 313.837 C 247.783 315.397,248.400 316.804,248.400 316.965 C 248.400 317.126,248.670 317.527,249.000 317.857 C 249.330 318.187,249.600 318.782,249.600 319.180 C 249.600 319.577,249.870 320.126,250.200 320.400 C 250.530 320.674,250.800 321.147,250.800 321.451 C 250.800 321.755,251.457 323.242,252.260 324.756 C 254.392 328.775,254.362 328.800,247.492 328.800 C 241.251 328.800,239.608 328.415,239.603 326.949 C 239.601 326.481,239.330 325.874,239.000 325.600 C 238.670 325.326,238.400 324.837,238.400 324.513 C 238.400 324.189,238.144 323.446,237.831 322.862 C 237.518 322.278,236.888 320.945,236.431 319.900 C 235.652 318.119,234.627 315.792,233.392 313.000 C 233.100 312.340,232.291 310.540,231.593 309.000 C 230.895 307.460,229.969 305.390,229.535 304.400 C 229.101 303.410,228.487 302.122,228.173 301.538 C 227.858 300.954,227.600 300.211,227.600 299.887 C 227.600 299.563,227.330 299.074,227.000 298.800 C 226.670 298.526,226.400 297.988,226.400 297.605 C 226.400 297.222,226.024 296.430,225.565 295.846 L 224.730 294.785 216.065 294.892 L 207.400 295.000 207.185 311.800 C 207.066 321.040,206.931 328.645,206.885 328.700 C 206.448 329.216,196.053 328.715,195.843 328.167 C 195.510 327.300,195.534 246.600,195.867 246.267 C 196.271 245.862,229.966 245.982,231.800 246.395 M289.973 255.319 C 289.409 255.626,288.449 256.001,287.840 256.154 C 284.707 256.941,278.809 262.658,278.798 264.920 C 278.796 265.184,278.555 265.861,278.261 266.424 C 277.967 266.987,277.600 268.238,277.446 269.204 C 277.291 270.170,276.980 271.183,276.753 271.456 C 275.636 272.803,275.408 297.134,276.473 301.400 C 276.693 302.280,277.086 303.900,277.346 305.000 C 277.607 306.100,278.015 307.360,278.255 307.800 C 278.494 308.240,278.808 309.095,278.952 309.700 C 279.097 310.305,279.392 310.800,279.608 310.800 C 279.823 310.800,280.000 311.074,280.000 311.408 C 280.000 312.854,286.094 317.983,287.847 318.013 C 288.261 318.020,288.949 318.290,289.376 318.613 C 290.489 319.454,299.726 319.442,301.346 318.598 C 301.976 318.269,302.818 318.000,303.217 318.000 C 303.616 318.000,304.189 317.754,304.490 317.453 C 304.791 317.152,305.389 316.794,305.819 316.657 C 308.083 315.937,312.800 309.452,312.800 307.059 C 312.800 306.564,313.019 305.941,313.286 305.674 C 313.553 305.407,313.896 304.156,314.047 302.894 C 314.199 301.632,314.516 299.880,314.752 299.000 C 315.448 296.404,315.330 277.468,314.600 274.665 C 314.270 273.398,313.999 271.785,313.998 271.080 C 313.996 270.376,313.752 269.333,313.454 268.763 C 313.156 268.192,312.789 267.067,312.638 266.263 C 312.487 265.458,312.227 264.800,312.059 264.800 C 311.891 264.800,311.426 264.057,311.025 263.148 C 309.804 260.379,305.679 256.818,302.933 256.161 C 302.310 256.012,301.547 255.690,301.239 255.445 C 300.351 254.741,291.226 254.640,289.973 255.319 M301.200 256.172 C 310.535 258.766,314.169 266.482,314.694 284.826 C 315.189 302.098,311.909 312.824,305.000 316.523 C 298.295 320.112,288.168 319.236,283.275 314.644 C 279.695 311.284,278.312 307.936,276.760 298.866 C 276.178 295.462,276.523 274.462,277.202 272.000 C 278.431 267.542,278.922 266.070,279.802 264.200 C 283.189 257.008,292.135 253.652,301.200 256.172 M142.480 256.880 C 141.638 257.722,141.809 285.343,142.660 286.051 C 144.282 287.400,162.285 286.823,164.686 285.345 C 165.173 285.045,165.803 284.797,166.086 284.794 C 167.479 284.779,171.463 280.030,171.866 277.904 C 172.001 277.187,172.312 276.347,172.556 276.038 C 173.151 275.285,173.141 267.897,172.545 267.161 C 172.295 266.853,171.962 265.822,171.805 264.872 C 171.649 263.922,171.268 263.048,170.960 262.929 C 170.652 262.811,170.400 262.501,170.400 262.240 C 170.400 261.684,167.452 258.800,166.885 258.800 C 166.672 258.800,166.274 258.530,166.000 258.200 C 165.726 257.870,165.209 257.599,164.851 257.598 C 164.493 257.596,163.684 257.326,163.054 256.998 C 161.549 256.212,143.252 256.108,142.480 256.880 M207.467 256.667 C 206.954 257.180,207.159 282.999,207.680 283.520 C 208.304 284.144,223.066 284.178,227.469 283.565 C 230.883 283.090,234.529 281.126,235.447 279.266 C 235.700 278.753,236.108 278.132,236.354 277.886 C 236.599 277.641,236.779 276.801,236.753 276.020 C 236.712 274.796,236.670 274.738,236.451 275.600 C 234.847 281.912,231.497 283.255,217.731 283.107 L 207.800 283.000 207.688 270.800 C 207.626 264.090,207.675 258.195,207.796 257.700 L 208.015 256.800 217.124 256.800 C 233.635 256.800,236.325 258.530,236.715 269.400 C 236.829 272.593,237.025 274.291,237.223 273.800 C 238.031 271.787,237.261 263.701,236.134 262.369 C 235.840 262.021,235.600 261.600,235.600 261.432 C 235.600 260.521,233.411 258.526,231.600 257.786 C 231.270 257.652,230.409 257.285,229.686 256.971 C 228.306 256.371,208.040 256.093,207.467 256.667 M162.374 257.458 C 174.566 260.515,176.276 279.511,164.829 284.721 C 162.190 285.923,144.652 286.639,143.397 285.598 C 142.662 284.988,142.492 258.923,143.214 257.574 C 143.791 256.497,158.193 256.410,162.374 257.458 M70.237 273.849 C 70.084 274.247,70.571 275.370,71.494 276.749 C 72.322 277.987,73.180 279.310,73.400 279.688 C 73.620 280.067,74.272 281.057,74.849 281.888 C 75.425 282.720,77.656 286.100,79.806 289.400 C 81.956 292.700,84.319 296.302,85.057 297.403 C 85.796 298.505,86.400 299.794,86.400 300.267 C 86.400 300.927,81.220 309.353,79.311 311.800 C 78.401 312.965,72.519 321.800,72.038 322.722 C 71.729 323.315,71.337 323.893,71.166 324.006 C 70.995 324.120,70.292 325.284,69.604 326.593 C 68.025 329.594,67.902 329.535,75.830 329.572 C 82.635 329.604,82.349 329.721,84.563 326.000 C 85.152 325.010,85.852 323.844,86.117 323.410 C 88.437 319.614,89.086 318.519,89.329 318.000 C 89.483 317.670,89.965 316.860,90.400 316.200 C 90.835 315.540,91.317 314.736,91.471 314.414 C 91.625 314.092,92.463 312.758,93.332 311.448 L 94.914 309.068 95.757 310.201 C 96.221 310.825,96.870 311.833,97.200 312.442 C 97.530 313.052,99.600 316.541,101.800 320.197 C 104.000 323.852,106.013 327.226,106.272 327.693 C 107.553 329.996,121.207 330.695,121.197 328.457 C 121.195 327.913,117.661 321.976,116.520 320.600 C 115.951 319.913,106.609 305.850,106.434 305.416 C 106.343 305.189,105.668 304.150,104.934 303.106 C 103.104 300.502,103.203 299.960,106.400 295.112 C 107.940 292.776,109.200 290.686,109.200 290.466 C 109.200 290.246,109.340 290.007,109.510 289.933 C 109.681 289.860,111.059 287.910,112.571 285.600 C 114.084 283.290,116.301 279.931,117.497 278.136 C 120.645 273.412,120.655 273.424,113.405 273.289 C 106.842 273.167,105.623 273.428,104.897 275.114 C 104.640 275.712,104.198 276.558,103.915 276.996 C 101.776 280.305,100.800 281.921,100.800 282.149 C 100.800 282.296,100.311 283.177,99.713 284.108 C 99.115 285.039,98.190 286.610,97.659 287.600 C 96.215 290.286,95.183 291.637,94.769 291.381 C 94.401 291.153,86.400 277.830,86.400 277.444 C 86.400 276.919,83.929 273.658,83.368 273.443 C 81.780 272.834,70.492 273.183,70.237 273.849 M86.062 278.000 C 87.325 280.090,88.839 282.700,89.425 283.800 C 91.694 288.058,91.974 288.537,92.327 288.765 C 92.528 288.894,92.810 289.377,92.953 289.837 C 93.096 290.297,93.634 291.069,94.148 291.551 L 95.083 292.429 96.158 291.020 C 96.749 290.244,97.692 288.753,98.252 287.705 C 98.813 286.657,99.616 285.260,100.037 284.600 C 100.457 283.940,101.074 282.860,101.407 282.200 C 102.180 280.666,102.869 279.577,103.500 278.888 C 103.775 278.588,104.000 278.185,104.000 277.991 C 104.000 277.798,104.553 276.821,105.228 275.820 L 106.457 274.000 112.828 274.000 C 118.796 274.000,120.806 274.419,118.900 275.267 C 118.477 275.455,116.800 277.895,116.800 278.322 C 116.800 278.517,116.440 279.002,116.000 279.400 C 115.560 279.798,115.200 280.351,115.200 280.629 C 115.200 280.906,115.058 281.193,114.885 281.267 C 114.712 281.340,114.053 282.300,113.420 283.400 C 112.787 284.500,112.164 285.490,112.035 285.600 C 111.509 286.048,110.000 288.395,110.000 288.764 C 110.000 288.982,109.775 289.304,109.500 289.480 C 108.957 289.827,108.274 290.827,107.505 292.400 C 107.236 292.950,106.922 293.490,106.807 293.600 C 106.692 293.710,106.059 294.610,105.400 295.600 C 104.741 296.590,104.078 297.494,103.926 297.608 C 103.256 298.113,102.860 300.014,103.187 301.154 C 103.524 302.329,103.843 302.823,105.300 304.429 C 105.685 304.853,106.000 305.387,106.000 305.616 C 106.000 305.979,107.427 308.242,108.008 308.800 C 108.123 308.910,108.434 309.495,108.700 310.100 C 108.965 310.705,109.367 311.200,109.591 311.200 C 109.816 311.200,110.000 311.476,110.000 311.813 C 110.000 312.149,110.270 312.529,110.600 312.655 C 110.930 312.782,111.200 313.071,111.200 313.298 C 111.200 313.718,115.404 320.189,116.271 321.102 C 116.533 321.379,116.862 321.964,117.001 322.402 C 117.140 322.841,117.422 323.200,117.627 323.200 C 117.832 323.200,118.000 323.461,118.000 323.780 C 118.000 324.099,118.225 324.504,118.500 324.680 C 119.236 325.151,120.577 327.956,120.232 328.302 C 119.730 328.806,109.227 328.908,108.049 328.421 C 107.002 327.987,106.815 327.752,105.608 325.369 C 105.283 324.726,104.889 324.106,104.733 323.992 C 104.577 323.877,104.259 323.337,104.026 322.792 C 103.564 321.712,103.255 321.205,101.300 318.324 C 100.585 317.270,100.000 316.239,100.000 316.033 C 100.000 315.826,99.775 315.411,99.500 315.109 C 99.225 314.808,98.567 313.760,98.037 312.781 C 95.395 307.898,94.935 307.777,92.670 311.370 C 90.655 314.567,90.423 314.950,89.993 315.800 C 89.770 316.240,89.233 317.140,88.798 317.800 C 88.364 318.460,87.785 319.450,87.512 320.000 C 87.240 320.550,86.903 321.090,86.765 321.200 C 86.626 321.310,86.078 322.210,85.547 323.200 C 82.460 328.953,82.731 328.800,75.617 328.800 L 69.600 328.800 69.600 327.800 C 69.600 327.250,69.762 326.800,69.961 326.800 C 70.159 326.800,70.510 326.260,70.740 325.600 C 70.970 324.940,71.348 324.400,71.579 324.400 C 71.811 324.400,72.000 324.236,72.000 324.035 C 72.000 323.835,73.530 321.394,75.400 318.612 C 77.270 315.829,78.800 313.383,78.800 313.176 C 78.800 312.969,78.986 312.800,79.213 312.800 C 79.440 312.800,79.755 312.481,79.913 312.092 C 80.194 311.397,83.166 306.793,83.586 306.400 C 83.906 306.101,84.742 304.731,85.294 303.600 C 85.563 303.050,86.012 302.456,86.292 302.280 C 87.129 301.753,86.927 298.639,86.000 297.800 C 85.560 297.402,85.200 296.834,85.200 296.538 C 85.200 296.242,85.049 296.000,84.864 296.000 C 84.680 296.000,84.312 295.595,84.048 295.100 C 83.289 293.676,82.711 292.762,81.000 290.274 C 80.120 288.995,79.182 287.555,78.915 287.074 C 78.648 286.593,78.243 285.930,78.015 285.600 C 77.787 285.270,76.794 283.830,75.807 282.400 C 74.820 280.970,73.818 279.354,73.581 278.808 C 73.344 278.263,73.017 277.723,72.854 277.608 C 72.479 277.344,70.800 274.594,70.800 274.243 C 70.800 274.098,73.717 274.030,77.283 274.090 L 83.765 274.200 86.062 278.000 " stroke="none" fill="#848484" fill-rule="evenodd"></path><path id="path4" d="M2.662 2.731 C 1.860 3.618,1.613 396.930,2.414 398.426 C 2.928 399.386,397.761 399.679,398.720 398.720 C 399.679 397.761,399.386 2.928,398.426 2.414 C 396.816 1.552,3.443 1.868,2.662 2.731 M398.400 200.600 L 398.400 398.400 200.600 398.400 L 2.800 398.400 2.800 200.867 C 2.800 92.223,2.920 3.213,3.067 3.067 C 3.213 2.920,92.223 2.800,200.867 2.800 L 398.400 2.800 398.400 200.600 M75.100 29.229 C 74.438 29.618,74.400 33.177,74.400 95.030 L 74.400 160.420 75.426 160.810 C 76.657 161.278,102.771 161.333,103.501 160.870 C 103.900 160.616,103.982 147.132,103.901 94.776 L 103.800 29.000 89.800 28.909 C 80.783 28.851,75.551 28.965,75.100 29.229 M122.080 29.280 C 121.366 29.994,121.386 112.755,122.100 113.729 C 122.557 114.353,123.781 114.403,136.388 114.306 L 150.177 114.200 150.682 113.200 C 151.530 111.523,151.423 30.280,150.571 29.429 C 149.749 28.606,122.894 28.466,122.080 29.280 M168.880 29.280 C 168.182 29.978,168.182 160.022,168.880 160.720 C 169.508 161.348,196.061 161.409,197.226 160.786 C 198.444 160.134,198.444 29.866,197.226 29.214 C 196.061 28.591,169.508 28.652,168.880 29.280 M215.700 29.065 C 214.992 29.351,214.973 56.813,215.680 57.520 C 216.368 58.208,243.632 58.208,244.320 57.520 C 245.008 56.832,245.008 29.968,244.320 29.280 C 243.839 28.799,216.861 28.596,215.700 29.065 M262.500 29.288 L 261.600 29.722 261.600 43.238 C 261.600 56.752,261.600 56.755,262.489 57.377 C 264.027 58.455,327.807 58.309,328.386 57.226 C 329.009 56.062,328.948 29.908,328.320 29.280 C 327.668 28.628,263.853 28.636,262.500 29.288 M103.400 95.000 L 103.400 160.600 89.847 160.705 C 80.179 160.781,76.138 160.681,75.747 160.356 C 74.971 159.712,74.923 29.780,75.700 29.462 C 75.975 29.350,82.320 29.290,89.800 29.329 L 103.400 29.400 103.400 95.000 M150.200 71.400 L 150.200 113.400 136.427 113.505 C 125.674 113.588,122.583 113.500,122.333 113.105 C 121.945 112.495,121.885 29.848,122.272 29.462 C 122.421 29.312,128.766 29.237,136.372 29.295 L 150.200 29.400 150.200 71.400 M196.928 29.700 C 197.911 30.422,197.784 159.784,196.800 160.411 C 196.441 160.640,190.739 160.755,182.600 160.697 L 169.000 160.600 168.897 95.400 C 168.841 59.540,168.880 29.975,168.985 29.700 C 169.260 28.976,195.942 28.976,196.928 29.700 M243.767 29.443 C 244.327 29.658,244.400 31.250,244.400 43.253 L 244.400 56.820 243.374 57.210 C 242.268 57.631,218.019 57.755,216.500 57.348 L 215.600 57.107 215.600 43.420 C 215.600 35.892,215.720 29.613,215.867 29.467 C 216.200 29.133,242.902 29.111,243.767 29.443 M328.305 42.953 C 328.381 52.621,328.281 56.662,327.956 57.053 C 327.378 57.749,264.468 57.879,263.174 57.186 C 262.203 56.666,261.938 29.854,262.900 29.464 C 263.175 29.352,277.980 29.292,295.800 29.330 L 328.200 29.400 328.305 42.953 M215.900 76.024 C 215.194 76.443,214.749 158.359,215.443 160.167 C 215.858 161.249,243.804 161.113,244.386 160.026 C 244.930 159.010,244.952 77.261,244.409 76.400 C 243.938 75.654,217.117 75.300,215.900 76.024 M262.400 75.989 C 261.305 76.686,261.305 159.305,262.400 160.400 C 263.409 161.409,290.833 161.495,291.037 160.490 C 291.094 160.210,291.049 160.165,290.937 160.390 C 290.564 161.142,263.790 160.933,263.029 160.171 C 262.199 159.342,262.053 77.307,262.880 76.480 C 263.508 75.852,290.626 75.785,290.937 76.410 C 291.049 76.636,291.094 76.591,291.037 76.310 C 290.908 75.676,263.376 75.367,262.400 75.989 M243.520 76.880 C 244.157 77.517,244.221 158.439,243.586 159.626 C 243.076 160.579,217.417 160.857,216.480 159.920 C 215.784 159.224,215.784 77.576,216.480 76.880 C 217.167 76.193,242.833 76.193,243.520 76.880 M291.393 118.400 C 291.393 141.170,291.441 150.485,291.500 139.100 C 291.559 127.715,291.559 109.085,291.500 97.700 C 291.441 86.315,291.393 95.630,291.393 118.400 M28.480 189.280 C 27.807 189.953,27.883 191.425,28.629 192.171 C 29.198 192.741,45.386 192.800,200.806 192.800 L 372.355 192.800 372.977 191.911 C 373.764 190.788,373.762 190.219,372.971 189.429 C 372.139 188.596,29.311 188.449,28.480 189.280 M372.224 189.777 C 372.845 190.238,372.912 190.497,372.556 191.077 C 371.925 192.107,29.648 192.422,28.794 191.393 C 28.381 190.895,28.420 190.641,29.007 189.992 C 29.968 188.930,370.795 188.716,372.224 189.777 M288.000 243.806 C 287.010 244.097,285.711 244.350,285.114 244.368 C 281.109 244.486,271.711 250.861,269.438 255.000 C 269.076 255.660,268.342 256.920,267.807 257.800 C 267.272 258.680,266.827 259.693,266.817 260.051 C 266.808 260.409,266.530 260.926,266.200 261.200 C 265.870 261.474,265.607 262.171,265.616 262.749 C 265.629 263.563,265.857 263.278,266.626 261.490 C 271.990 249.020,280.533 243.833,295.600 243.902 C 304.649 243.944,311.994 246.129,316.139 250.014 C 316.833 250.664,317.508 251.197,317.641 251.198 C 318.716 251.206,324.400 260.549,324.400 262.309 C 324.400 262.711,324.570 263.211,324.778 263.420 C 326.196 264.847,327.730 277.097,327.731 287.000 C 327.732 302.809,325.478 312.892,320.455 319.550 C 319.563 320.732,318.781 321.816,318.717 321.957 C 318.008 323.522,311.320 327.578,307.400 328.820 C 300.920 330.872,287.979 330.948,283.839 328.958 C 283.200 328.651,282.480 328.405,282.239 328.410 C 278.461 328.499,267.200 317.599,267.200 313.854 C 267.200 313.592,266.953 313.023,266.651 312.589 C 266.349 312.155,265.889 310.900,265.629 309.800 C 265.369 308.700,265.004 307.260,264.819 306.600 L 264.482 305.400 264.441 306.546 C 264.323 309.848,268.628 318.770,272.056 322.327 C 275.078 325.465,280.145 328.750,282.020 328.787 C 282.361 328.794,282.832 328.992,283.067 329.227 C 284.091 330.251,294.676 331.322,298.863 330.825 C 304.907 330.108,307.277 329.683,307.721 329.239 C 307.963 328.997,308.405 328.800,308.705 328.800 C 309.818 328.800,314.114 326.453,317.056 324.237 C 318.531 323.126,322.000 318.776,322.000 318.037 C 322.000 317.844,322.270 317.582,322.600 317.455 C 322.930 317.329,323.200 316.894,323.200 316.489 C 323.200 316.084,323.464 315.404,323.787 314.976 C 324.110 314.549,324.386 313.930,324.401 313.600 C 324.415 313.270,324.775 312.280,325.200 311.400 C 325.625 310.520,325.979 309.384,325.986 308.875 C 325.994 308.366,326.253 307.106,326.563 306.075 C 328.755 298.770,328.752 275.279,326.559 267.925 C 326.252 266.894,325.999 265.724,325.998 265.325 C 325.996 264.926,325.726 264.084,325.398 263.454 C 325.069 262.824,324.800 262.097,324.800 261.839 C 324.800 261.581,324.440 260.663,324.000 259.800 C 323.560 258.937,323.200 258.082,323.200 257.899 C 323.200 257.606,321.728 255.326,321.199 254.800 C 321.088 254.690,320.479 253.835,319.844 252.900 C 319.210 251.965,318.581 251.198,318.446 251.197 C 318.311 251.195,317.563 250.610,316.784 249.897 C 311.097 244.690,295.918 241.478,288.000 243.806 M130.262 245.131 C 129.273 246.225,129.240 328.383,130.229 329.371 C 131.204 330.347,141.563 330.288,142.758 329.300 C 143.589 328.612,143.606 328.332,143.702 313.400 L 143.800 298.200 155.000 297.979 C 162.804 297.825,166.625 297.599,167.600 297.232 C 168.370 296.942,169.990 296.354,171.200 295.925 C 172.410 295.496,173.670 294.976,174.000 294.770 C 174.330 294.564,174.870 294.278,175.200 294.136 C 178.771 292.592,185.200 284.436,185.200 281.449 C 185.200 281.077,185.496 280.321,185.857 279.770 C 186.832 278.281,186.840 265.164,185.866 263.213 C 185.500 262.478,185.200 261.624,185.200 261.314 C 185.200 260.807,183.886 257.936,182.666 255.776 C 180.223 251.452,171.101 245.600,166.805 245.600 C 166.164 245.600,164.602 245.330,163.335 245.000 C 159.526 244.008,131.177 244.121,130.262 245.131 M195.400 244.878 C 194.960 245.127,194.468 245.527,194.306 245.766 C 194.144 246.005,194.009 264.775,194.006 287.477 L 194.000 328.755 194.889 329.377 C 195.943 330.115,205.922 330.284,207.226 329.586 C 207.972 329.187,208.000 328.572,208.000 312.386 L 208.000 295.600 216.036 295.600 C 224.538 295.600,225.531 295.838,225.587 297.888 C 225.599 298.326,226.327 299.958,227.780 302.800 C 228.061 303.350,228.409 304.295,228.553 304.900 C 228.697 305.505,228.992 306.000,229.208 306.000 C 229.423 306.000,229.600 306.377,229.600 306.838 C 229.600 307.299,229.858 308.154,230.173 308.738 C 230.729 309.769,232.100 312.786,232.565 314.000 C 232.692 314.330,232.950 314.870,233.139 315.200 C 233.328 315.530,233.797 316.520,234.182 317.400 C 235.290 319.938,236.452 322.505,237.049 323.732 C 237.352 324.355,237.600 325.098,237.600 325.383 C 237.600 325.669,237.848 326.108,238.152 326.360 C 238.455 326.612,238.811 327.357,238.943 328.016 C 239.287 329.735,240.391 330.000,247.200 330.000 C 256.365 330.000,256.130 330.299,252.650 323.086 C 251.248 320.179,249.674 316.855,249.153 315.700 C 248.631 314.545,248.069 313.600,247.902 313.600 C 247.736 313.600,247.600 313.313,247.600 312.962 C 247.600 312.611,247.338 311.846,247.018 311.262 C 246.698 310.678,245.970 309.210,245.401 308.000 C 244.832 306.790,244.214 305.530,244.027 305.200 C 243.724 304.663,242.458 301.965,240.932 298.600 C 240.633 297.940,240.219 297.130,240.013 296.800 C 239.377 295.783,238.287 293.178,238.448 293.061 C 238.531 293.000,239.955 292.118,241.611 291.102 C 246.058 288.373,250.053 283.293,249.984 280.456 C 249.975 280.095,249.570 280.701,249.084 281.803 C 247.532 285.321,245.670 287.626,242.170 290.364 C 241.934 290.549,240.899 291.073,239.870 291.528 C 237.551 292.554,237.550 292.711,239.847 297.527 C 244.777 307.866,248.823 316.306,252.552 324.027 C 255.326 329.773,255.508 329.586,247.119 329.595 C 240.208 329.601,240.171 329.584,238.231 325.280 C 237.368 323.366,236.137 320.630,235.494 319.200 C 233.814 315.456,232.435 312.393,231.763 310.906 C 231.442 310.194,230.937 309.024,230.643 308.306 C 230.044 306.844,229.469 305.558,227.467 301.200 C 226.710 299.550,225.975 297.819,225.835 297.353 C 225.208 295.272,224.744 295.175,215.959 295.292 L 207.800 295.400 207.600 312.000 C 207.490 321.130,207.254 328.825,207.076 329.100 C 206.553 329.908,196.252 329.794,195.429 328.971 C 194.342 327.885,194.485 246.197,195.574 245.614 C 196.840 244.937,226.585 245.084,231.000 245.790 C 246.509 248.269,253.073 259.165,250.283 277.800 L 249.984 279.800 250.626 278.000 C 251.433 275.742,251.808 268.152,251.259 265.200 C 250.272 259.892,249.121 256.442,247.821 254.901 C 247.589 254.627,246.770 253.621,246.000 252.665 C 244.027 250.216,239.075 246.861,237.361 246.813 C 237.120 246.806,236.400 246.550,235.761 246.245 C 235.123 245.940,233.359 245.573,231.842 245.428 C 230.325 245.284,228.762 244.993,228.368 244.783 C 227.301 244.212,196.417 244.301,195.400 244.878 M164.600 245.779 C 171.231 246.793,175.141 248.633,179.248 252.671 C 188.431 261.701,188.711 280.541,179.800 289.792 C 176.758 292.950,170.672 296.400,168.143 296.400 C 167.679 296.400,166.535 296.670,165.600 297.000 C 164.266 297.471,161.791 297.600,154.123 297.600 C 148.150 297.600,144.046 297.761,143.574 298.014 C 142.830 298.412,142.800 299.007,142.800 313.386 C 142.800 326.450,142.720 328.422,142.171 328.971 C 141.130 330.013,130.982 329.888,130.414 328.826 C 129.838 327.751,129.838 247.049,130.414 245.974 C 130.951 244.970,158.295 244.814,164.600 245.779 M290.183 255.960 C 284.076 257.532,280.230 261.486,278.279 268.200 C 277.960 269.300,277.475 271.010,277.202 272.000 C 276.523 274.462,276.178 295.462,276.760 298.866 C 278.312 307.936,279.695 311.284,283.275 314.644 C 289.445 320.434,302.417 320.065,308.248 313.933 C 316.798 304.941,317.219 270.641,308.902 260.756 C 305.224 256.385,296.859 254.242,290.183 255.960 M301.200 256.694 C 304.839 257.421,310.800 262.476,310.800 264.834 C 310.800 265.051,311.050 265.627,311.355 266.114 C 311.660 266.601,312.037 267.720,312.191 268.600 C 312.345 269.480,312.630 270.392,312.824 270.627 C 313.922 271.956,314.468 289.522,313.669 297.800 C 312.336 311.605,306.598 318.065,295.600 318.147 C 289.845 318.190,282.000 315.017,282.000 312.647 C 282.000 312.533,281.473 311.659,280.829 310.705 C 280.185 309.751,279.530 308.436,279.374 307.785 C 279.218 307.133,278.933 306.399,278.741 306.154 C 278.549 305.909,278.225 304.469,278.022 302.954 C 277.819 301.439,277.461 299.571,277.226 298.803 C 276.531 296.523,276.675 277.042,277.404 274.636 C 277.732 273.556,278.001 272.116,278.002 271.436 C 278.008 267.139,282.341 259.914,286.000 258.101 C 286.550 257.829,287.270 257.440,287.600 257.237 C 289.409 256.127,296.871 255.828,301.200 256.694 M143.214 257.574 C 142.591 258.738,142.652 284.892,143.280 285.520 C 143.628 285.868,146.018 285.976,151.980 285.913 L 160.200 285.825 152.000 285.613 L 143.800 285.400 143.688 272.200 C 143.627 264.940,143.678 258.585,143.802 258.077 L 144.027 257.154 151.913 257.327 C 162.869 257.568,165.525 258.207,168.393 261.285 C 172.996 266.225,172.905 277.087,168.224 281.705 C 166.292 283.611,165.984 283.803,163.380 284.725 C 162.071 285.188,161.400 285.574,161.889 285.583 C 172.772 285.787,176.247 265.318,166.400 259.013 C 162.853 256.742,144.276 255.589,143.214 257.574 M207.796 257.700 C 207.675 258.195,207.626 264.090,207.688 270.800 L 207.800 283.000 217.731 283.107 C 233.890 283.281,236.450 281.612,236.612 270.800 L 236.692 265.400 236.425 270.400 C 235.844 281.291,233.466 282.877,217.975 282.707 L 208.200 282.600 208.094 270.638 C 207.960 255.526,206.811 257.106,217.781 257.328 C 230.264 257.580,233.840 258.634,235.000 262.400 C 235.355 263.553,236.400 265.175,236.400 264.574 C 236.400 264.351,236.078 263.546,235.685 262.785 C 232.991 257.567,230.613 256.800,217.124 256.800 L 208.015 256.800 207.796 257.700 M264.870 265.170 C 264.612 265.912,264.413 266.988,264.428 267.560 C 264.448 268.321,264.615 268.081,265.050 266.666 C 265.733 264.441,265.577 263.142,264.870 265.170 M263.587 271.000 C 262.681 274.086,262.769 301.051,263.694 303.600 C 264.561 305.992,264.620 304.438,263.807 300.600 C 262.946 296.533,262.957 277.544,263.823 273.350 C 264.569 269.738,264.414 268.187,263.587 271.000 M69.467 272.667 C 68.968 273.165,69.198 274.013,70.292 275.708 C 71.770 277.998,72.283 278.839,72.848 279.900 C 73.112 280.395,73.480 280.800,73.664 280.800 C 73.849 280.800,74.000 281.048,74.000 281.351 C 74.000 281.654,74.289 282.142,74.642 282.435 C 74.995 282.727,75.452 283.335,75.659 283.784 C 76.287 285.148,77.036 286.356,77.736 287.129 C 78.101 287.533,78.400 288.059,78.400 288.298 C 78.400 288.538,78.535 288.793,78.700 288.867 C 79.029 289.013,80.800 291.452,80.800 291.758 C 80.800 291.974,84.965 298.340,85.592 299.083 C 85.817 299.349,86.000 299.828,86.000 300.148 C 86.000 300.757,83.505 304.784,81.500 307.409 C 81.115 307.914,80.800 308.440,80.800 308.579 C 80.800 308.820,79.231 311.179,78.791 311.600 C 78.372 312.000,76.218 315.402,75.751 316.400 C 75.596 316.730,75.218 317.270,74.909 317.600 C 74.601 317.930,73.601 319.370,72.688 320.800 C 71.775 322.230,70.796 323.638,70.514 323.929 C 70.231 324.219,70.000 324.714,70.000 325.029 C 70.000 325.343,69.856 325.600,69.680 325.600 C 69.504 325.600,68.964 326.415,68.480 327.410 L 67.601 329.220 68.626 329.610 C 72.310 331.010,84.000 329.779,84.000 327.991 C 84.000 327.798,84.534 326.849,85.186 325.883 C 85.838 324.916,86.560 323.692,86.790 323.163 C 87.020 322.633,87.915 321.120,88.778 319.800 C 89.642 318.480,90.737 316.687,91.212 315.815 C 91.687 314.943,92.419 313.794,92.838 313.261 C 93.257 312.728,93.600 312.129,93.600 311.929 C 93.600 310.041,95.167 310.002,96.243 311.865 C 96.858 312.929,97.464 313.890,97.589 314.000 C 97.714 314.110,98.036 314.650,98.305 315.200 C 98.808 316.227,99.013 316.570,100.900 319.520 C 101.505 320.466,102.000 321.367,102.000 321.521 C 102.000 321.676,102.630 322.689,103.400 323.772 C 104.170 324.855,104.800 325.881,104.800 326.053 C 104.800 326.662,106.867 329.404,107.528 329.672 C 108.580 330.097,120.228 330.045,121.373 329.610 L 122.398 329.221 121.573 327.710 C 121.119 326.880,120.085 325.180,119.274 323.933 C 116.562 319.763,114.445 316.604,114.075 316.175 C 113.873 315.941,113.480 315.322,113.200 314.800 C 112.920 314.278,112.529 313.659,112.329 313.425 C 112.130 313.191,110.682 311.020,109.112 308.600 C 107.543 306.180,105.750 303.426,105.129 302.480 C 103.863 300.551,103.716 299.533,104.600 298.800 C 104.930 298.526,105.200 298.127,105.200 297.914 C 105.200 297.701,105.515 297.114,105.900 296.609 C 106.724 295.531,106.589 295.732,111.198 288.718 C 113.179 285.703,114.800 283.063,114.800 282.851 C 114.800 282.640,114.939 282.407,115.108 282.333 C 117.022 281.505,121.047 273.134,119.767 272.643 C 117.767 271.875,106.539 272.401,105.732 273.300 C 104.709 274.439,102.000 278.964,102.000 279.532 C 102.000 279.768,101.775 280.104,101.500 280.280 C 101.224 280.456,100.592 281.435,100.093 282.456 C 99.595 283.477,98.920 284.534,98.594 284.805 C 98.267 285.076,98.000 285.636,98.000 286.049 C 98.000 286.462,97.842 286.800,97.649 286.800 C 97.455 286.800,97.089 287.295,96.835 287.900 C 96.580 288.505,96.047 289.426,95.649 289.947 L 94.926 290.893 93.576 288.747 C 92.834 287.566,92.001 286.240,91.726 285.800 C 91.450 285.360,91.022 284.505,90.773 283.900 C 90.525 283.295,90.177 282.800,90.000 282.800 C 89.823 282.800,89.480 282.305,89.238 281.700 C 88.996 281.095,88.439 280.060,88.000 279.400 C 87.561 278.740,87.004 277.705,86.762 277.100 C 86.520 276.495,86.159 276.000,85.961 276.000 C 85.762 276.000,85.600 275.712,85.600 275.360 C 85.600 275.009,85.041 274.199,84.358 273.560 L 83.115 272.400 76.424 272.400 C 72.744 272.400,69.613 272.520,69.467 272.667 M83.368 273.443 C 83.929 273.658,86.400 276.919,86.400 277.444 C 86.400 277.830,94.401 291.153,94.769 291.381 C 95.183 291.637,96.215 290.286,97.659 287.600 C 98.190 286.610,99.115 285.039,99.713 284.108 C 100.311 283.177,100.800 282.296,100.800 282.149 C 100.800 281.921,101.776 280.305,103.915 276.996 C 104.198 276.558,104.640 275.712,104.897 275.114 C 105.623 273.428,106.842 273.167,113.405 273.289 C 120.655 273.424,120.645 273.412,117.497 278.136 C 116.301 279.931,114.084 283.290,112.571 285.600 C 111.059 287.910,109.681 289.860,109.510 289.933 C 109.340 290.007,109.200 290.246,109.200 290.466 C 109.200 290.686,107.940 292.776,106.400 295.112 C 103.203 299.960,103.104 300.502,104.934 303.106 C 105.668 304.150,106.343 305.189,106.434 305.416 C 106.609 305.850,115.951 319.913,116.520 320.600 C 117.661 321.976,121.195 327.913,121.197 328.457 C 121.202 329.467,120.377 329.601,114.267 329.586 C 108.303 329.571,107.167 329.302,106.272 327.693 C 106.013 327.226,104.000 323.852,101.800 320.197 C 99.600 316.541,97.530 313.052,97.200 312.442 C 96.870 311.833,96.221 310.825,95.757 310.201 L 94.914 309.068 93.332 311.448 C 92.463 312.758,91.625 314.092,91.471 314.414 C 91.317 314.736,90.835 315.540,90.400 316.200 C 89.965 316.860,89.483 317.670,89.329 318.000 C 89.086 318.519,88.437 319.614,86.117 323.410 C 85.852 323.844,85.152 325.010,84.563 326.000 C 82.349 329.721,82.635 329.604,75.830 329.572 C 67.902 329.535,68.025 329.594,69.604 326.593 C 70.292 325.284,70.995 324.120,71.166 324.006 C 71.337 323.893,71.729 323.315,72.038 322.722 C 72.519 321.800,78.401 312.965,79.311 311.800 C 81.220 309.353,86.400 300.927,86.400 300.267 C 86.400 299.794,85.796 298.505,85.057 297.403 C 84.319 296.302,81.956 292.700,79.806 289.400 C 77.656 286.100,75.425 282.720,74.849 281.888 C 74.272 281.057,73.620 280.067,73.400 279.688 C 73.180 279.310,72.322 277.987,71.494 276.749 C 69.184 273.298,69.325 273.200,76.610 273.200 C 79.979 273.200,83.020 273.309,83.368 273.443 " stroke="none" fill="#969096" fill-rule="evenodd"></path></g></svg>