<svg id="svg" version="1.1" xmlns="http://www.w3.org/2000/svg" xmlns:xlink="http://www.w3.org/1999/xlink" width="400" height="266.6666666666667" viewBox="0, 0, 400,266.6666666666667"><g id="svgg"><path id="path0" d="M160.127 85.489 C 159.602 85.756,158.964 86.115,158.711 86.287 C 158.457 86.459,158.063 86.691,157.833 86.803 C 157.604 86.915,157.136 87.174,156.794 87.378 C 155.083 88.399,148.015 92.484,147.144 92.956 C 146.596 93.252,146.034 93.609,145.895 93.748 C 145.756 93.886,145.572 94.000,145.486 94.000 C 145.341 94.000,144.027 94.728,143.079 95.333 C 142.487 95.711,135.616 99.661,134.294 100.383 C 132.514 101.356,132.556 101.155,133.683 103.274 C 134.319 104.471,134.634 105.241,134.569 105.440 C 134.496 105.667,134.511 105.690,134.628 105.528 C 134.785 105.308,135.097 105.710,135.026 106.042 C 135.012 106.110,135.079 106.167,135.177 106.167 C 135.274 106.167,135.307 106.242,135.250 106.333 C 135.193 106.425,135.239 106.500,135.351 106.500 C 135.464 106.500,135.507 106.548,135.448 106.607 C 135.390 106.666,135.239 106.629,135.114 106.525 C 134.988 106.421,134.825 106.392,134.750 106.460 C 134.675 106.528,134.660 106.454,134.716 106.297 C 134.836 105.962,134.579 105.737,134.402 106.023 C 134.322 106.153,134.355 106.173,134.500 106.083 C 134.645 105.993,134.678 106.014,134.598 106.144 C 134.531 106.251,134.406 106.295,134.319 106.241 C 134.232 106.188,134.212 106.061,134.275 105.960 C 134.348 105.841,134.288 105.815,134.104 105.886 C 133.925 105.954,133.784 105.898,133.720 105.733 C 133.640 105.523,133.593 105.515,133.480 105.694 C 133.395 105.829,133.363 105.637,133.397 105.212 C 133.430 104.819,133.388 104.549,133.304 104.601 C 133.221 104.653,133.201 104.845,133.259 105.028 C 133.348 105.310,133.317 105.337,133.057 105.204 C 132.888 105.117,132.581 105.060,132.375 105.078 C 132.169 105.096,132.000 105.048,132.000 104.972 C 132.000 104.896,131.850 104.833,131.667 104.833 C 131.483 104.833,131.333 104.767,131.333 104.685 C 131.333 104.496,131.881 104.535,132.026 104.734 C 132.086 104.817,132.123 104.684,132.109 104.440 C 132.086 104.047,132.059 104.027,131.880 104.272 C 131.710 104.505,131.634 104.514,131.412 104.330 C 131.267 104.209,131.161 104.179,131.177 104.263 C 131.243 104.611,131.151 104.734,131.000 104.500 C 130.665 103.982,130.789 136.457,131.126 137.390 C 131.589 138.674,131.096 139.371,137.347 128.583 C 138.728 126.200,139.924 124.138,140.005 124.000 C 140.086 123.862,140.594 123.000,141.135 122.083 C 141.675 121.167,142.230 120.199,142.368 119.933 L 142.619 119.449 143.538 121.100 C 144.043 122.007,145.525 124.700,146.831 127.083 C 150.208 133.248,156.154 144.077,160.489 151.958 C 161.610 153.998,162.548 155.667,162.573 155.667 C 162.980 155.667,164.045 155.117,167.299 153.224 C 167.639 153.026,168.104 152.757,168.333 152.626 C 168.975 152.259,169.847 151.754,170.599 151.315 C 170.974 151.096,172.573 150.167,174.153 149.250 C 175.732 148.333,177.300 147.418,177.637 147.215 C 177.974 147.012,178.456 146.761,178.708 146.657 C 178.960 146.553,179.167 146.400,179.167 146.317 C 179.167 146.234,179.284 146.167,179.427 146.167 C 179.569 146.167,179.640 146.092,179.583 146.000 C 179.524 145.904,179.676 145.833,179.940 145.833 C 180.298 145.833,180.356 145.789,180.200 145.633 C 180.047 145.481,180.001 141.845,180.005 130.258 C 180.010 116.563,180.036 115.116,180.267 115.417 C 180.408 115.600,180.987 116.519,181.552 117.458 C 182.118 118.398,182.619 119.166,182.665 119.166 C 182.712 119.165,183.781 117.271,185.041 114.957 C 186.301 112.643,188.410 108.785,189.727 106.384 L 192.123 102.017 191.770 101.698 C 191.576 101.523,190.854 101.062,190.167 100.675 C 189.479 100.287,188.804 99.903,188.667 99.821 C 188.260 99.578,184.862 97.613,184.197 97.236 C 183.859 97.044,183.171 96.646,182.667 96.351 C 182.162 96.056,181.619 95.773,181.458 95.721 C 181.298 95.670,181.167 95.562,181.167 95.481 C 181.167 95.400,181.017 95.333,180.833 95.333 C 180.650 95.333,180.500 95.262,180.500 95.174 C 180.500 95.087,180.181 94.863,179.792 94.676 C 179.402 94.489,178.840 94.186,178.542 94.002 C 178.244 93.817,177.756 93.516,177.458 93.333 C 177.160 93.149,176.692 92.886,176.417 92.749 C 176.142 92.612,175.617 92.313,175.250 92.084 C 174.883 91.856,174.396 91.576,174.167 91.463 C 173.938 91.349,173.713 91.207,173.667 91.147 C 173.621 91.087,173.321 90.919,173.000 90.775 C 172.679 90.630,172.042 90.281,171.583 89.999 C 171.125 89.716,170.619 89.442,170.458 89.390 C 170.298 89.337,170.167 89.224,170.167 89.137 C 170.167 89.051,170.092 89.027,170.000 89.083 C 169.908 89.140,169.833 89.121,169.833 89.040 C 169.833 88.960,169.383 88.680,168.833 88.417 C 168.283 88.154,167.833 87.878,167.833 87.803 C 167.833 87.728,167.731 87.667,167.607 87.667 C 167.482 87.667,167.097 87.475,166.751 87.240 C 166.406 87.006,165.739 86.616,165.270 86.375 C 164.801 86.134,164.160 85.767,163.847 85.559 C 163.534 85.351,163.215 85.220,163.139 85.267 C 163.062 85.314,163.000 85.274,163.000 85.177 C 163.000 84.782,161.118 84.987,160.127 85.489 M133.750 105.167 C 133.693 105.258,133.724 105.333,133.818 105.333 C 133.912 105.333,133.947 105.465,133.896 105.625 C 133.821 105.856,133.837 105.868,133.969 105.682 C 134.061 105.553,134.097 105.346,134.050 105.223 C 133.948 104.956,133.887 104.945,133.750 105.167 M313.429 113.480 C 313.379 113.560,313.094 113.749,312.794 113.900 C 312.495 114.050,311.313 114.720,310.167 115.387 L 308.083 116.600 308.038 120.110 C 308.004 122.790,308.044 123.661,308.205 123.793 C 308.390 123.943,311.148 125.560,313.315 126.788 L 314.046 127.203 314.731 126.845 C 315.604 126.390,316.167 126.067,317.438 125.290 C 318.000 124.947,318.503 124.667,318.556 124.667 C 318.718 124.667,319.902 123.825,320.035 123.615 C 320.262 123.259,320.192 116.928,319.958 116.641 C 319.844 116.500,318.775 115.836,317.583 115.167 C 316.392 114.497,315.218 113.810,314.974 113.641 C 314.515 113.321,313.587 113.225,313.429 113.480 M191.847 133.976 C 191.839 134.101,191.733 134.164,191.611 134.117 C 191.489 134.070,191.768 134.668,192.232 135.446 C 192.695 136.223,193.104 136.770,193.141 136.661 C 193.177 136.551,193.127 136.412,193.030 136.352 C 192.932 136.291,192.829 135.887,192.801 135.453 C 192.765 134.901,192.687 134.688,192.540 134.744 C 192.420 134.790,192.230 134.594,192.095 134.287 C 191.966 133.992,191.854 133.852,191.847 133.976 M196.594 150.788 C 196.417 150.833,193.454 152.488,190.011 154.467 C 186.567 156.445,183.375 158.278,182.917 158.540 C 182.458 158.802,181.858 159.152,181.583 159.318 C 180.935 159.709,180.678 159.857,174.329 163.500 C 168.426 166.888,167.805 167.340,167.078 168.774 L 166.583 169.750 166.583 186.500 L 166.583 203.250 167.114 204.167 C 167.925 205.567,168.454 205.972,172.500 208.291 C 178.637 211.808,179.349 212.069,182.552 211.971 C 186.227 211.859,188.296 210.521,189.530 207.458 L 190.083 206.083 190.134 189.943 C 190.194 170.863,190.501 172.999,187.704 173.003 C 186.630 173.004,185.667 173.060,185.567 173.128 C 185.014 173.497,185.000 173.892,185.000 189.231 C 185.000 200.616,184.950 204.603,184.802 204.950 C 184.141 206.510,182.529 207.245,180.628 206.852 C 179.645 206.649,172.527 202.766,171.663 201.961 C 171.337 201.657,171.113 171.934,171.431 171.106 C 171.485 170.966,172.779 170.130,174.306 169.248 C 175.834 168.367,177.196 167.576,177.333 167.491 C 177.781 167.213,180.568 165.622,181.167 165.302 C 181.487 165.131,181.975 164.853,182.250 164.686 C 182.830 164.332,182.590 164.471,189.272 160.613 C 192.102 158.980,194.529 157.577,194.667 157.496 C 198.438 155.282,198.250 155.349,199.218 155.893 C 200.325 156.516,201.213 157.025,201.698 157.315 C 201.945 157.463,204.554 158.971,207.498 160.667 C 210.441 162.362,213.089 163.892,213.383 164.066 C 213.676 164.240,214.329 164.607,214.833 164.882 C 215.338 165.156,215.825 165.438,215.917 165.506 C 216.008 165.575,216.365 165.789,216.708 165.982 C 217.706 166.543,218.549 167.026,219.030 167.315 C 219.276 167.463,220.750 168.315,222.304 169.209 C 223.859 170.103,225.177 170.953,225.232 171.097 C 225.533 171.881,225.334 201.666,225.026 201.974 C 224.857 202.143,224.163 202.595,223.484 202.979 C 222.805 203.363,222.137 203.747,222.000 203.831 C 221.300 204.259,218.362 205.944,218.000 206.124 C 217.771 206.239,217.358 206.472,217.083 206.642 C 216.447 207.037,216.247 207.153,210.017 210.750 C 207.158 212.400,204.691 213.825,204.534 213.917 C 204.376 214.008,203.648 214.411,202.915 214.812 C 202.183 215.213,201.471 215.634,201.333 215.747 C 201.196 215.861,200.633 216.195,200.083 216.490 C 199.533 216.786,199.012 217.096,198.925 217.180 C 198.673 217.424,198.006 217.358,197.525 217.042 C 197.004 216.699,196.750 216.544,195.417 215.756 C 194.867 215.431,194.142 214.997,193.807 214.791 C 192.663 214.088,191.417 213.390,191.100 213.274 C 190.889 213.197,190.279 213.404,189.267 213.896 C 188.433 214.302,187.388 214.763,186.946 214.919 C 185.304 215.500,185.656 215.863,190.583 218.668 C 190.858 218.824,191.983 219.492,193.083 220.151 C 195.827 221.795,196.646 222.171,197.711 222.281 C 199.230 222.438,200.265 222.104,202.772 220.650 C 203.151 220.430,205.776 218.914,208.606 217.281 C 211.435 215.648,213.862 214.244,214.000 214.159 C 214.137 214.075,214.925 213.621,215.750 213.151 C 216.575 212.681,217.494 212.155,217.792 211.982 C 218.090 211.808,218.577 211.525,218.875 211.352 C 219.173 211.178,221.254 209.978,223.500 208.685 C 228.216 205.969,228.810 205.520,229.545 204.114 L 230.083 203.083 230.083 186.417 L 230.083 169.750 229.684 169.000 C 228.851 167.433,228.171 166.817,225.891 165.558 C 225.418 165.297,223.476 164.183,221.575 163.083 C 217.292 160.605,216.872 160.360,216.250 159.981 C 215.975 159.814,215.487 159.536,215.167 159.363 C 214.846 159.191,212.746 157.982,210.500 156.676 C 208.254 155.370,206.154 154.156,205.833 153.979 C 205.512 153.803,204.987 153.499,204.667 153.305 C 204.346 153.111,203.671 152.727,203.167 152.452 C 202.662 152.177,202.168 151.888,202.068 151.811 C 200.824 150.845,198.253 150.365,196.594 150.788 M238.083 164.651 C 233.348 165.507,232.552 172.143,236.922 174.331 C 238.078 174.910,240.240 174.920,241.341 174.353 C 246.756 171.564,244.071 163.569,238.083 164.651 M240.279 165.749 C 241.471 166.103,242.560 167.113,242.990 168.262 C 244.426 172.099,239.707 175.495,236.583 172.872 C 233.175 170.011,236.039 164.490,240.279 165.749 M237.167 169.667 L 237.167 172.667 237.833 172.667 L 238.500 172.667 238.500 171.500 L 238.500 170.333 238.980 170.333 C 239.612 170.333,239.802 170.595,239.957 171.681 L 240.086 172.583 240.734 172.637 L 241.382 172.690 241.266 171.553 C 241.202 170.928,241.033 170.238,240.890 170.021 C 240.737 169.786,240.696 169.582,240.791 169.521 C 242.440 168.443,241.008 166.667,238.489 166.667 L 237.167 166.667 237.167 169.667 M239.678 168.006 C 240.372 168.378,239.946 169.167,239.050 169.167 C 238.519 169.167,238.500 169.143,238.500 168.500 C 238.500 167.779,238.922 167.602,239.678 168.006 M203.500 172.261 C 203.271 172.301,202.521 172.416,201.833 172.516 C 196.305 173.320,193.186 176.508,193.371 181.167 C 193.569 186.129,196.445 187.974,205.583 189.002 C 212.478 189.777,214.101 190.496,214.063 192.755 C 214.017 195.557,211.967 196.583,206.417 196.583 C 200.811 196.583,198.669 195.642,197.905 192.844 C 197.766 192.334,197.544 191.673,197.412 191.375 L 197.172 190.833 195.009 190.833 C 192.375 190.833,192.398 190.813,192.574 192.976 C 193.029 198.591,197.624 201.380,206.417 201.381 C 215.265 201.382,219.417 198.492,219.417 192.333 C 219.417 186.689,217.457 185.516,204.917 183.655 C 200.103 182.941,198.660 182.251,198.670 180.671 C 198.679 179.301,199.501 178.271,201.083 177.649 C 202.644 177.035,208.763 177.067,210.226 177.696 C 211.803 178.376,213.333 180.258,213.333 181.521 C 213.333 182.437,217.210 183.031,218.246 182.273 C 219.674 181.229,217.113 175.799,214.433 174.187 C 212.131 172.803,206.286 171.773,203.500 172.261 " stroke="none" fill="#6aa35d" fill-rule="evenodd"></path><path id="path1" d="M163.667 85.398 C 163.667 85.513,164.842 86.213,164.914 86.141 C 164.949 86.106,164.683 85.908,164.322 85.701 C 163.962 85.493,163.667 85.357,163.667 85.398 M131.999 101.810 C 131.712 102.072,131.460 102.402,131.440 102.543 C 131.419 102.684,131.323 102.901,131.227 103.025 C 130.977 103.346,130.808 103.869,130.990 103.756 C 131.075 103.704,131.191 103.737,131.248 103.831 C 131.306 103.924,131.228 104.000,131.075 104.000 C 130.891 104.000,130.832 104.088,130.899 104.264 C 130.954 104.409,131.000 104.563,131.000 104.607 C 131.000 104.651,131.076 104.639,131.169 104.582 C 131.263 104.524,131.286 104.388,131.221 104.280 C 131.156 104.172,131.232 104.188,131.390 104.316 C 131.638 104.518,131.704 104.512,131.880 104.272 C 132.059 104.027,132.086 104.047,132.109 104.440 C 132.123 104.684,132.086 104.817,132.026 104.734 C 131.881 104.535,131.333 104.496,131.333 104.685 C 131.333 104.767,131.483 104.833,131.667 104.833 C 131.850 104.833,132.000 104.896,132.000 104.972 C 132.000 105.048,132.169 105.096,132.375 105.078 C 132.581 105.060,132.888 105.117,133.057 105.204 C 133.317 105.337,133.348 105.310,133.259 105.028 C 133.201 104.845,133.221 104.653,133.304 104.601 C 133.388 104.549,133.430 104.819,133.397 105.212 C 133.363 105.637,133.395 105.829,133.480 105.694 C 133.593 105.515,133.640 105.523,133.720 105.733 C 133.784 105.898,133.925 105.954,134.104 105.886 C 134.288 105.815,134.348 105.841,134.275 105.960 C 134.212 106.061,134.232 106.188,134.319 106.241 C 134.406 106.295,134.531 106.251,134.598 106.144 C 134.678 106.014,134.645 105.993,134.500 106.083 C 134.355 106.173,134.322 106.153,134.402 106.023 C 134.579 105.737,134.836 105.962,134.716 106.297 C 134.660 106.454,134.675 106.528,134.750 106.460 C 134.825 106.392,134.988 106.421,135.114 106.525 C 135.239 106.629,135.390 106.666,135.448 106.607 C 135.507 106.548,135.464 106.500,135.351 106.500 C 135.239 106.500,135.193 106.425,135.250 106.333 C 135.307 106.242,135.274 106.167,135.177 106.167 C 135.079 106.167,135.012 106.110,135.026 106.042 C 135.097 105.710,134.785 105.308,134.628 105.528 C 134.511 105.690,134.496 105.667,134.569 105.440 C 134.655 105.176,132.796 101.333,132.582 101.333 C 132.548 101.333,132.286 101.548,131.999 101.810 M192.059 102.194 C 191.879 102.471,188.035 109.462,185.042 114.957 C 183.781 117.271,182.712 119.165,182.665 119.166 C 182.619 119.166,182.118 118.398,181.552 117.458 C 180.987 116.519,180.408 115.600,180.267 115.417 C 180.036 115.116,180.010 116.566,180.005 130.282 C 180.000 145.340,180.034 146.327,180.522 145.456 C 180.604 145.307,180.800 145.233,180.980 145.280 C 181.177 145.331,181.385 145.232,181.537 145.015 C 181.671 144.825,181.829 144.718,181.890 144.779 C 181.950 144.839,182.000 144.797,182.000 144.685 C 182.000 144.572,182.069 144.523,182.153 144.575 C 182.238 144.627,182.422 144.554,182.564 144.412 C 182.706 144.270,183.087 144.044,183.411 143.908 C 183.735 143.773,184.000 143.588,184.000 143.498 C 184.000 143.407,184.120 143.333,184.266 143.333 C 184.412 143.333,184.731 143.202,184.975 143.042 C 185.782 142.511,186.078 142.341,186.631 142.092 C 186.932 141.956,187.294 141.730,187.434 141.589 C 187.575 141.449,187.783 141.333,187.897 141.333 C 188.011 141.333,188.249 141.198,188.427 141.033 C 188.605 140.867,189.162 140.522,189.667 140.265 C 191.762 139.199,192.354 138.723,192.744 137.790 C 193.105 136.926,193.093 136.874,192.183 135.360 C 191.733 134.612,191.442 134.047,191.535 134.105 C 191.628 134.162,191.761 134.118,191.830 134.005 C 191.913 133.871,192.017 133.977,192.136 134.316 C 192.256 134.661,192.395 134.799,192.557 134.737 C 192.696 134.684,192.796 134.738,192.790 134.864 C 192.757 135.628,192.858 136.333,193.000 136.333 C 193.284 136.333,193.219 104.629,192.933 103.555 C 192.646 102.478,192.263 101.881,192.059 102.194 M134.050 105.223 C 134.097 105.346,134.061 105.553,133.969 105.682 C 133.837 105.868,133.821 105.856,133.896 105.625 C 133.947 105.465,133.912 105.333,133.818 105.333 C 133.724 105.333,133.693 105.258,133.750 105.167 C 133.887 104.945,133.948 104.956,134.050 105.223 M142.500 119.597 C 142.500 119.726,141.431 121.614,140.007 124.000 C 139.925 124.138,138.772 126.125,137.445 128.417 C 133.838 134.646,131.825 138.067,131.674 138.222 C 131.403 138.501,132.601 139.424,134.418 140.333 C 134.875 140.563,135.287 140.798,135.333 140.856 C 135.446 140.999,136.431 141.592,137.250 142.009 C 137.617 142.196,138.142 142.494,138.417 142.670 C 139.127 143.127,139.989 143.609,140.667 143.929 C 140.987 144.080,141.287 144.258,141.333 144.324 C 141.379 144.390,141.904 144.707,142.500 145.030 C 143.096 145.352,143.820 145.759,144.109 145.933 C 145.333 146.672,146.952 147.598,147.417 147.825 C 147.692 147.959,147.954 148.119,148.000 148.179 C 148.046 148.239,148.383 148.452,148.750 148.652 C 150.361 149.530,150.755 149.756,150.833 149.845 C 150.879 149.898,151.029 149.990,151.167 150.050 C 151.304 150.110,151.717 150.349,152.083 150.581 C 152.450 150.813,153.012 151.123,153.333 151.270 C 153.654 151.417,153.954 151.594,154.000 151.663 C 154.107 151.824,155.381 152.472,155.528 152.440 C 155.590 152.427,155.815 152.574,156.028 152.765 C 157.255 153.866,161.189 155.747,162.041 155.640 L 162.489 155.583 160.696 152.333 C 159.710 150.546,157.751 146.983,156.343 144.417 C 154.935 141.850,152.752 137.875,151.493 135.583 C 150.233 133.292,147.763 128.792,146.004 125.583 C 142.918 119.953,142.500 119.240,142.500 119.597 M238.708 167.948 C 238.869 167.990,239.131 167.990,239.292 167.948 C 239.452 167.906,239.321 167.872,239.000 167.872 C 238.679 167.872,238.548 167.906,238.708 167.948 " stroke="none" fill="#3d853d" fill-rule="evenodd"></path><path id="path2" d="M248.939 44.744 C 248.151 45.475,248.167 44.999,248.167 67.594 C 248.167 92.829,248.384 90.634,246.023 89.250 C 245.475 88.929,244.952 88.667,244.861 88.667 C 244.769 88.667,244.669 88.605,244.639 88.531 C 244.608 88.456,244.021 88.077,243.333 87.689 C 242.646 87.301,241.821 86.827,241.500 86.634 C 238.442 84.802,237.592 84.798,234.551 86.601 C 234.258 86.775,232.398 87.854,230.418 89.000 C 228.438 90.146,226.690 91.158,226.534 91.250 C 226.378 91.342,225.612 91.776,224.833 92.215 C 224.054 92.654,223.192 93.150,222.917 93.316 C 222.404 93.627,221.343 94.242,220.750 94.571 C 220.567 94.672,220.229 94.877,220.000 95.024 C 219.771 95.172,219.171 95.516,218.667 95.789 C 218.162 96.062,217.487 96.442,217.167 96.634 C 216.846 96.827,216.021 97.301,215.333 97.689 C 214.646 98.077,214.058 98.456,214.028 98.531 C 213.997 98.605,213.903 98.667,213.818 98.667 C 213.684 98.667,211.939 99.641,210.029 100.783 C 209.692 100.985,209.267 101.221,209.083 101.308 C 208.253 101.703,207.385 102.507,207.042 103.199 L 206.667 103.953 206.667 120.785 L 206.667 137.617 207.096 138.424 C 207.554 139.286,207.750 139.483,208.667 140.008 C 208.987 140.192,209.475 140.479,209.750 140.647 C 210.295 140.981,211.252 141.529,212.167 142.033 C 212.487 142.210,213.050 142.539,213.417 142.764 C 213.783 142.988,214.233 143.245,214.417 143.333 C 214.600 143.422,215.050 143.680,215.417 143.908 C 215.783 144.135,216.721 144.680,217.500 145.119 C 218.279 145.558,219.043 145.992,219.197 146.083 C 219.351 146.175,220.313 146.737,221.333 147.333 C 222.354 147.929,223.315 148.494,223.470 148.589 C 223.624 148.685,224.125 148.968,224.583 149.218 C 225.042 149.469,225.642 149.812,225.917 149.980 C 226.192 150.149,226.698 150.447,227.042 150.643 C 227.385 150.839,227.948 151.162,228.292 151.359 C 228.635 151.557,229.067 151.802,229.250 151.904 C 229.433 152.006,229.771 152.210,230.000 152.357 C 230.229 152.505,230.829 152.849,231.333 153.122 C 231.838 153.395,232.488 153.760,232.779 153.934 C 238.050 157.080,238.031 157.080,243.083 154.017 C 243.596 153.706,244.657 153.092,245.250 152.763 C 245.433 152.661,245.771 152.457,246.000 152.309 C 246.229 152.162,246.829 151.818,247.333 151.545 C 247.838 151.272,248.512 150.891,248.833 150.699 C 249.154 150.507,249.979 150.032,250.667 149.644 C 251.354 149.256,251.942 148.877,251.972 148.803 C 252.003 148.728,252.097 148.667,252.182 148.667 C 252.314 148.667,254.024 147.713,255.887 146.601 C 256.179 146.427,256.829 146.062,257.333 145.789 C 257.837 145.516,258.438 145.172,258.667 145.024 C 258.896 144.877,259.233 144.672,259.417 144.571 C 259.600 144.469,260.031 144.224,260.375 144.026 C 260.719 143.828,261.281 143.506,261.625 143.310 C 261.969 143.113,262.475 142.815,262.750 142.647 C 263.025 142.479,263.625 142.136,264.083 141.885 C 264.542 141.634,265.042 141.351,265.196 141.256 C 265.350 141.161,265.987 140.790,266.613 140.430 C 268.060 139.600,268.421 139.266,268.925 138.297 L 269.333 137.511 269.333 96.815 L 269.333 56.120 268.959 55.371 C 268.581 54.614,267.664 53.755,266.750 53.302 C 266.475 53.166,265.950 52.881,265.583 52.669 C 265.217 52.458,264.504 52.059,264.000 51.784 C 263.496 51.509,262.596 51.007,262.000 50.667 C 261.404 50.327,260.485 49.813,259.958 49.524 C 259.431 49.236,258.569 48.764,258.042 48.476 C 257.515 48.187,256.596 47.673,256.000 47.333 C 255.404 46.993,254.504 46.491,254.000 46.216 C 253.496 45.941,252.783 45.542,252.417 45.330 C 250.448 44.190,249.677 44.060,248.939 44.744 M85.130 84.513 C 84.613 84.635,83.685 85.124,81.200 86.583 C 81.044 86.675,80.279 87.109,79.500 87.548 C 78.721 87.987,77.858 88.483,77.583 88.650 C 76.809 89.119,75.808 89.692,75.167 90.033 C 74.846 90.204,74.358 90.480,74.083 90.648 C 73.808 90.816,73.302 91.113,72.958 91.310 C 72.615 91.506,72.052 91.828,71.708 92.026 C 71.365 92.224,70.933 92.469,70.750 92.571 C 70.567 92.672,70.229 92.877,70.000 93.024 C 69.771 93.172,69.171 93.516,68.667 93.789 C 68.162 94.062,67.510 94.427,67.217 94.601 C 66.924 94.775,65.087 95.839,63.134 96.967 C 61.181 98.095,59.471 99.086,59.333 99.168 C 59.196 99.251,58.446 99.674,57.667 100.108 C 55.888 101.099,55.569 101.383,55.071 102.417 L 54.670 103.250 54.668 125.001 C 54.667 147.417,54.670 147.544,55.358 148.277 C 55.825 148.773,57.234 148.829,57.854 148.375 C 58.073 148.215,58.431 147.983,58.649 147.859 C 58.867 147.736,59.317 147.480,59.648 147.290 C 59.979 147.099,60.512 146.804,60.833 146.634 C 61.154 146.463,61.642 146.186,61.917 146.019 C 62.192 145.851,62.698 145.553,63.042 145.357 C 63.385 145.161,63.948 144.837,64.292 144.639 C 64.635 144.440,65.179 144.139,65.500 143.969 C 65.821 143.800,66.196 143.589,66.333 143.501 C 66.730 143.245,68.361 142.307,69.000 141.967 C 69.321 141.796,69.808 141.511,70.083 141.333 C 70.358 141.156,70.846 140.871,71.167 140.700 C 71.487 140.529,72.050 140.215,72.417 140.001 C 72.783 139.787,73.307 139.498,73.581 139.358 C 75.818 138.213,75.737 138.701,75.833 125.821 L 75.917 114.725 76.314 114.145 C 76.578 113.760,77.364 113.182,78.648 112.429 C 79.712 111.804,80.787 111.152,81.035 110.980 C 81.283 110.808,81.531 110.667,81.585 110.667 C 81.640 110.667,82.464 110.217,83.417 109.667 C 85.694 108.352,86.934 108.347,88.566 109.646 C 88.667 109.726,89.221 110.045,89.796 110.355 C 90.371 110.664,91.094 111.067,91.402 111.250 C 91.710 111.433,92.514 111.905,93.189 112.297 C 95.248 113.494,95.178 113.440,95.797 114.326 C 96.058 114.699,96.091 115.699,96.171 125.742 C 96.244 134.826,96.301 136.852,96.501 137.333 C 96.770 137.984,97.763 139.021,98.460 139.378 C 99.238 139.778,102.171 141.432,103.225 142.066 C 103.514 142.240,104.162 142.605,104.667 142.878 C 105.171 143.151,105.771 143.495,106.000 143.643 C 106.229 143.790,106.567 143.994,106.750 144.096 C 106.933 144.198,107.383 144.454,107.750 144.665 C 108.117 144.876,108.829 145.272,109.333 145.545 C 109.837 145.818,110.438 146.162,110.667 146.309 C 110.896 146.457,111.233 146.661,111.417 146.763 C 111.600 146.864,112.050 147.121,112.417 147.332 C 115.249 148.963,115.830 149.080,116.711 148.199 L 117.250 147.660 117.293 125.438 C 117.341 101.251,117.393 102.691,116.422 101.537 C 116.189 101.260,114.644 100.257,112.989 99.308 C 111.334 98.360,109.741 97.441,109.448 97.267 C 109.156 97.094,108.504 96.728,108.000 96.455 C 107.496 96.182,106.896 95.838,106.667 95.691 C 106.438 95.543,106.100 95.339,105.917 95.237 C 105.733 95.136,105.302 94.890,104.958 94.693 C 104.615 94.495,104.052 94.173,103.708 93.976 C 103.365 93.780,102.858 93.482,102.583 93.315 C 102.308 93.147,101.821 92.870,101.500 92.700 C 100.875 92.367,99.859 91.787,99.141 91.351 C 98.532 90.982,96.731 89.949,95.870 89.475 C 95.478 89.260,94.903 88.933,94.591 88.750 C 92.274 87.387,90.980 86.667,90.849 86.667 C 90.764 86.667,90.669 86.609,90.639 86.538 C 90.540 86.307,87.577 84.704,86.904 84.517 C 86.160 84.310,85.991 84.310,85.130 84.513 M313.333 84.814 C 312.954 84.938,311.858 85.500,311.186 85.917 C 311.038 86.008,310.279 86.443,309.500 86.882 C 308.721 87.321,307.858 87.816,307.583 87.983 C 307.070 88.294,306.009 88.908,305.417 89.237 C 305.233 89.339,304.896 89.543,304.667 89.691 C 304.438 89.838,303.837 90.182,303.333 90.455 C 302.829 90.728,302.177 91.094,301.884 91.267 C 301.591 91.441,299.731 92.521,297.751 93.667 C 295.771 94.813,294.023 95.828,293.867 95.923 C 293.711 96.018,293.208 96.302,292.750 96.554 C 292.292 96.806,291.617 97.190,291.250 97.407 C 290.883 97.624,290.396 97.909,290.167 98.040 C 289.938 98.172,289.450 98.453,289.083 98.666 C 288.717 98.878,288.267 99.136,288.083 99.237 C 287.900 99.339,287.563 99.543,287.333 99.691 C 287.104 99.838,286.493 100.187,285.975 100.465 C 282.512 102.324,282.841 100.243,282.841 120.333 C 282.841 139.591,282.728 138.413,284.664 139.481 C 285.123 139.734,285.566 139.990,286.583 140.592 C 286.950 140.809,287.512 141.127,287.833 141.298 C 288.154 141.470,288.698 141.773,289.042 141.972 C 289.385 142.171,289.929 142.483,290.250 142.667 C 290.571 142.850,291.096 143.150,291.417 143.333 C 291.737 143.517,292.262 143.817,292.583 144.000 C 292.904 144.183,293.448 144.495,293.792 144.692 C 294.135 144.890,294.904 145.313,295.500 145.633 C 296.096 145.953,296.702 146.316,296.846 146.441 C 296.991 146.565,297.167 146.667,297.237 146.667 C 297.308 146.667,297.564 146.806,297.808 146.976 C 298.051 147.147,298.925 147.645,299.750 148.084 C 300.575 148.523,301.362 148.964,301.500 149.066 C 301.637 149.167,301.929 149.351,302.148 149.474 C 302.367 149.597,302.817 149.853,303.148 150.041 C 303.479 150.230,304.237 150.646,304.833 150.966 C 305.429 151.286,306.029 151.635,306.167 151.742 C 306.304 151.848,306.604 152.026,306.833 152.136 C 307.063 152.246,307.512 152.497,307.833 152.693 C 308.154 152.890,308.904 153.314,309.500 153.636 C 310.096 153.958,310.958 154.457,311.417 154.746 C 313.333 155.952,314.433 155.935,316.667 154.665 C 317.262 154.326,318.181 153.813,318.708 153.524 C 319.235 153.236,320.098 152.764,320.625 152.476 C 321.152 152.187,322.071 151.673,322.667 151.333 C 323.262 150.993,324.181 150.479,324.708 150.191 C 325.235 149.903,326.098 149.431,326.625 149.142 C 327.152 148.854,328.071 148.340,328.667 148.000 C 329.922 147.284,331.550 146.385,332.204 146.048 C 333.681 145.285,333.704 143.402,332.248 142.630 C 331.812 142.400,327.745 140.088,327.333 139.837 C 327.196 139.753,325.486 138.762,323.533 137.634 C 321.580 136.506,319.742 135.441,319.449 135.267 C 319.156 135.094,318.504 134.728,318.000 134.455 C 317.496 134.182,316.896 133.838,316.667 133.691 C 316.438 133.543,316.100 133.339,315.917 133.237 C 315.733 133.136,315.283 132.879,314.917 132.668 C 314.550 132.457,313.837 132.061,313.333 131.788 C 312.829 131.516,312.229 131.172,312.000 131.024 C 311.771 130.877,311.433 130.672,311.250 130.571 C 311.067 130.469,310.635 130.224,310.292 130.026 C 309.948 129.828,309.385 129.506,309.042 129.310 C 308.698 129.113,308.192 128.816,307.917 128.648 C 307.642 128.480,307.154 128.204,306.833 128.033 C 306.512 127.862,305.950 127.549,305.583 127.335 C 305.217 127.122,304.734 126.850,304.510 126.731 C 303.703 126.302,303.678 126.115,303.678 120.333 C 303.678 114.551,303.703 114.365,304.510 113.935 C 304.734 113.816,305.217 113.545,305.583 113.333 C 305.950 113.121,306.400 112.864,306.583 112.763 C 306.767 112.661,307.104 112.457,307.333 112.309 C 307.563 112.162,308.162 111.818,308.667 111.545 C 309.171 111.272,309.846 110.892,310.167 110.700 C 313.496 108.712,314.371 108.387,314.751 109.002 C 314.800 109.081,315.045 109.251,315.295 109.379 C 315.545 109.507,316.031 109.774,316.375 109.973 C 316.719 110.171,317.281 110.494,317.625 110.690 C 317.969 110.887,318.475 111.185,318.750 111.353 C 319.025 111.521,319.625 111.864,320.083 112.115 C 320.542 112.366,321.042 112.649,321.196 112.744 C 321.350 112.839,321.957 113.195,322.546 113.536 C 324.183 114.482,324.077 114.103,324.128 119.234 C 324.159 122.327,324.236 123.873,324.372 124.139 C 324.809 124.992,326.070 125.238,327.078 124.667 C 327.402 124.483,327.919 124.190,328.227 124.016 C 328.535 123.841,328.967 123.597,329.185 123.474 C 329.404 123.351,329.696 123.165,329.833 123.061 C 329.971 122.958,330.554 122.620,331.129 122.311 C 331.705 122.003,332.428 121.600,332.736 121.417 C 333.044 121.233,333.873 120.746,334.579 120.333 C 335.285 119.921,335.987 119.506,336.140 119.411 C 336.292 119.315,336.821 119.015,337.315 118.744 C 337.809 118.472,338.334 118.172,338.481 118.078 C 338.629 117.983,339.050 117.739,339.417 117.537 C 339.783 117.334,340.383 116.985,340.750 116.760 C 341.117 116.535,341.904 116.072,342.500 115.730 C 345.296 114.127,345.236 114.279,345.301 108.554 C 345.368 102.682,345.196 102.133,342.888 100.856 C 342.354 100.561,341.617 100.134,341.250 99.907 C 340.883 99.680,340.433 99.422,340.250 99.333 C 340.067 99.245,339.641 99.002,339.305 98.795 C 337.874 97.911,335.658 96.667,335.515 96.667 C 335.430 96.667,335.336 96.605,335.306 96.531 C 335.275 96.456,334.688 96.077,334.000 95.689 C 333.313 95.301,332.525 94.848,332.250 94.682 C 331.795 94.408,331.261 94.101,330.148 93.474 C 329.929 93.351,329.637 93.165,329.500 93.061 C 329.362 92.958,328.779 92.620,328.204 92.311 C 327.629 92.003,326.906 91.600,326.598 91.417 C 326.290 91.233,325.460 90.746,324.754 90.333 C 324.048 89.921,323.346 89.506,323.194 89.411 C 323.041 89.315,322.542 89.033,322.083 88.782 C 321.625 88.531,320.950 88.139,320.583 87.910 C 320.217 87.681,319.767 87.422,319.583 87.333 C 319.400 87.245,318.950 86.986,318.583 86.759 C 315.705 84.974,314.365 84.478,313.333 84.814 M243.019 111.917 C 244.593 112.833,246.226 113.793,246.649 114.049 C 247.071 114.305,247.541 114.556,247.693 114.606 C 248.134 114.752,248.162 115.123,248.164 120.952 L 248.167 126.487 247.710 126.910 C 247.459 127.143,247.196 127.333,247.125 127.333 C 247.016 127.333,245.627 128.112,243.409 129.417 C 243.097 129.600,242.371 130.003,241.796 130.311 C 241.221 130.620,240.637 130.962,240.500 131.071 C 240.362 131.180,240.063 131.359,239.833 131.469 C 239.604 131.579,239.087 131.864,238.685 132.103 L 237.953 132.536 237.268 132.181 C 236.892 131.986,236.308 131.659,235.971 131.455 C 235.635 131.251,234.660 130.687,233.805 130.203 C 232.950 129.719,232.137 129.254,232.000 129.170 C 231.862 129.085,231.000 128.590,230.083 128.068 C 227.385 126.532,227.667 127.387,227.667 120.732 L 227.667 115.023 228.199 114.636 C 228.491 114.424,229.199 113.987,229.771 113.667 C 230.962 112.999,234.293 111.065,234.667 110.825 C 234.804 110.737,235.589 110.294,236.412 109.842 L 237.906 109.020 239.032 109.635 C 239.651 109.973,241.445 111.000,243.019 111.917 " stroke="none" fill="#343434" fill-rule="evenodd"></path></g></svg>