<svg id="svg" version="1.1" xmlns="http://www.w3.org/2000/svg" xmlns:xlink="http://www.w3.org/1999/xlink" width="400" height="400" viewBox="0, 0, 400,400"><g id="svgg"><path id="path0" d="M271.600 50.883 C 267.530 54.885,239.518 82.804,209.352 112.923 L 154.504 167.687 153.385 166.954 C 152.770 166.550,151.891 165.905,151.433 165.520 C 150.975 165.134,148.260 163.027,145.400 160.837 C 142.540 158.647,139.929 156.617,139.598 156.327 C 138.741 155.577,134.886 152.543,131.818 150.205 C 130.378 149.108,129.200 148.085,129.200 147.932 C 129.200 147.779,128.844 147.541,128.409 147.403 C 127.974 147.265,126.274 146.038,124.633 144.676 C 122.991 143.314,119.288 140.400,116.404 138.200 C 113.520 136.000,110.755 133.840,110.259 133.400 C 109.764 132.960,108.506 131.970,107.464 131.200 C 105.514 129.760,101.417 126.581,100.383 125.707 C 100.062 125.436,97.370 123.325,94.400 121.015 C 89.339 117.080,87.799 115.870,85.982 114.400 C 85.574 114.070,84.826 113.483,84.320 113.096 C 83.814 112.710,82.860 111.975,82.200 111.464 C 74.059 105.159,74.293 105.266,72.000 106.799 C 71.670 107.020,70.950 107.380,70.400 107.599 C 69.850 107.819,69.130 108.179,68.800 108.399 C 68.470 108.620,67.750 108.980,67.200 109.199 C 66.650 109.419,65.930 109.779,65.600 109.999 C 65.270 110.220,64.550 110.580,64.000 110.799 C 63.450 111.019,62.730 111.379,62.400 111.599 C 62.070 111.820,61.350 112.180,60.800 112.399 C 60.250 112.619,59.530 112.979,59.200 113.199 C 58.870 113.420,58.150 113.780,57.600 113.999 C 57.050 114.219,56.330 114.579,56.000 114.799 C 55.670 115.020,54.950 115.390,54.400 115.621 C 53.237 116.110,51.262 117.086,50.400 117.598 C 50.070 117.793,48.354 118.664,46.587 119.532 C 41.976 121.795,42.274 120.907,42.443 131.903 C 42.652 145.539,42.634 269.953,42.423 273.947 L 42.245 277.294 43.623 278.436 C 44.380 279.065,45.171 279.583,45.379 279.589 C 45.713 279.599,52.826 283.088,54.400 284.015 C 54.730 284.210,56.170 284.926,57.600 285.607 C 59.030 286.289,60.470 287.016,60.800 287.223 C 61.130 287.431,61.850 287.780,62.400 287.999 C 62.950 288.219,63.670 288.579,64.000 288.799 C 64.330 289.020,65.050 289.380,65.600 289.599 C 66.150 289.819,66.870 290.179,67.200 290.399 C 67.530 290.620,68.250 290.980,68.800 291.199 C 69.350 291.419,70.070 291.764,70.400 291.967 C 70.730 292.170,71.777 292.714,72.727 293.176 L 74.454 294.016 76.441 292.508 C 78.254 291.131,82.125 288.112,83.600 286.923 C 83.930 286.657,86.630 284.547,89.600 282.234 C 92.570 279.921,95.270 277.776,95.600 277.468 C 95.930 277.160,97.820 275.679,99.800 274.177 C 101.780 272.675,106.027 269.366,109.238 266.823 C 112.448 264.280,115.577 261.840,116.190 261.400 C 117.181 260.689,117.778 260.203,119.984 258.312 C 120.305 258.037,121.565 257.077,122.784 256.179 C 124.727 254.748,130.745 250.050,132.383 248.686 C 134.853 246.628,137.745 244.399,137.951 244.394 C 138.088 244.391,138.958 243.716,139.884 242.894 C 140.811 242.072,141.981 241.082,142.484 240.693 C 142.988 240.305,145.560 238.286,148.200 236.206 C 151.744 233.416,153.209 232.485,153.800 232.651 C 154.240 232.775,182.610 260.869,216.844 295.082 L 279.089 357.288 280.444 356.990 C 281.190 356.827,282.520 356.376,283.400 355.989 C 284.280 355.602,285.900 354.927,287.000 354.489 C 291.019 352.890,293.436 351.888,295.044 351.152 C 295.948 350.738,296.894 350.400,297.145 350.400 C 297.397 350.400,298.275 350.040,299.096 349.600 C 299.916 349.160,300.816 348.800,301.096 348.800 C 301.375 348.800,302.275 348.440,303.096 348.000 C 303.916 347.560,304.816 347.200,305.096 347.200 C 305.375 347.200,306.275 346.840,307.096 346.400 C 307.916 345.960,308.816 345.600,309.096 345.600 C 309.375 345.600,310.275 345.240,311.096 344.800 C 311.916 344.360,312.816 344.000,313.096 344.000 C 313.375 344.000,314.275 343.640,315.096 343.200 C 315.916 342.760,316.816 342.400,317.096 342.400 C 317.375 342.400,318.275 342.040,319.096 341.600 C 319.916 341.160,320.861 340.799,321.194 340.797 C 321.527 340.796,322.340 340.437,323.000 340.000 C 323.660 339.563,324.565 339.204,325.011 339.203 C 325.457 339.201,326.177 338.956,326.611 338.657 C 327.045 338.358,328.120 337.883,329.000 337.600 C 329.880 337.317,330.955 336.842,331.389 336.543 C 331.823 336.244,332.453 336.000,332.789 336.001 C 333.125 336.002,334.120 335.658,335.000 335.238 C 335.880 334.817,337.500 334.118,338.600 333.683 C 339.700 333.249,341.590 332.492,342.800 332.000 C 344.010 331.508,345.900 330.746,347.000 330.305 C 348.100 329.865,349.740 329.166,350.644 328.752 C 351.548 328.338,352.489 328.000,352.735 328.000 C 352.981 328.000,354.183 327.509,355.406 326.909 C 358.046 325.615,358.198 325.217,357.776 320.703 C 357.607 318.887,357.434 262.707,357.393 195.860 C 357.329 92.294,357.235 74.268,356.759 73.966 C 356.451 73.771,355.795 73.609,355.300 73.606 C 354.805 73.603,354.400 73.422,354.400 73.205 C 354.400 72.987,353.681 72.695,352.803 72.554 C 351.924 72.414,350.817 71.961,350.342 71.549 C 349.866 71.137,348.987 70.800,348.388 70.800 C 347.788 70.800,347.078 70.535,346.809 70.211 C 346.540 69.886,345.663 69.500,344.860 69.353 C 344.057 69.205,342.971 68.750,342.446 68.342 C 341.921 67.934,341.156 67.600,340.745 67.600 C 340.333 67.600,339.325 67.240,338.504 66.800 C 337.684 66.360,336.632 66.000,336.167 66.000 C 335.703 66.000,334.907 65.640,334.400 65.200 C 333.893 64.760,332.987 64.400,332.388 64.400 C 331.788 64.400,331.083 64.142,330.821 63.826 C 330.559 63.510,329.772 63.130,329.072 62.983 C 328.373 62.835,327.239 62.373,326.553 61.957 C 325.867 61.541,324.967 61.199,324.553 61.197 C 324.139 61.196,323.260 60.837,322.600 60.400 C 321.940 59.963,321.040 59.603,320.600 59.600 C 320.160 59.597,319.260 59.237,318.600 58.800 C 317.940 58.363,317.008 58.004,316.529 58.003 C 316.049 58.001,315.392 57.735,315.068 57.411 C 314.744 57.087,313.760 56.660,312.881 56.463 C 312.002 56.265,310.865 55.810,310.353 55.452 C 309.841 55.093,309.025 54.800,308.540 54.800 C 308.054 54.800,307.392 54.535,307.068 54.211 C 306.744 53.887,305.760 53.460,304.881 53.263 C 304.002 53.065,302.865 52.610,302.353 52.252 C 301.841 51.893,301.025 51.600,300.540 51.600 C 300.054 51.600,299.401 51.344,299.089 51.032 C 298.776 50.719,297.818 50.266,296.960 50.025 C 296.102 49.784,295.051 49.320,294.624 48.994 C 294.196 48.667,293.476 48.399,293.024 48.397 C 292.571 48.396,291.660 48.037,291.000 47.600 C 290.340 47.163,289.440 46.803,289.000 46.800 C 288.560 46.797,287.660 46.437,287.000 46.000 C 286.340 45.563,285.440 45.203,285.000 45.200 C 284.560 45.197,283.660 44.837,283.000 44.400 C 280.258 42.584,279.738 42.880,271.600 50.883 M278.992 135.332 C 279.534 136.159,279.591 143.424,279.501 200.032 L 279.400 263.800 278.520 263.925 C 277.972 264.003,276.905 263.474,275.692 262.525 C 274.620 261.686,273.141 260.550,272.405 260.000 C 271.668 259.450,270.781 258.714,270.433 258.364 C 270.085 258.014,268.720 256.943,267.400 255.984 C 266.080 255.026,262.480 252.241,259.400 249.795 C 256.320 247.350,253.080 244.822,252.200 244.178 C 251.320 243.535,247.990 240.926,244.800 238.381 C 241.610 235.836,237.920 232.967,236.600 232.005 C 235.280 231.043,233.840 229.936,233.400 229.545 C 232.601 228.835,223.733 221.890,221.212 220.000 C 220.478 219.450,219.230 218.419,218.439 217.709 C 217.648 216.999,216.887 216.414,216.750 216.409 C 216.120 216.386,197.321 201.052,196.703 200.057 L 196.005 198.935 197.450 197.767 C 198.245 197.125,199.311 196.240,199.819 195.800 C 200.327 195.360,201.250 194.607,201.871 194.127 C 202.492 193.647,205.294 191.442,208.097 189.227 C 210.901 187.012,213.361 185.200,213.564 185.200 C 213.767 185.200,213.993 185.035,214.067 184.834 C 214.180 184.522,216.557 182.581,220.339 179.712 C 220.855 179.320,221.701 178.640,222.220 178.200 C 222.738 177.760,223.575 177.080,224.081 176.688 C 224.586 176.297,227.004 174.407,229.452 172.488 C 231.901 170.570,234.302 168.730,234.788 168.400 C 235.273 168.070,236.120 167.389,236.670 166.887 C 237.219 166.385,238.688 165.231,239.934 164.323 C 241.181 163.416,242.508 162.386,242.884 162.036 C 243.261 161.686,243.981 161.091,244.484 160.714 C 244.988 160.337,246.423 159.212,247.673 158.214 C 248.923 157.216,250.138 156.400,250.373 156.400 C 250.608 156.400,250.800 156.252,250.800 156.072 C 250.800 155.685,255.821 151.600,256.296 151.600 C 256.476 151.600,256.926 151.285,257.297 150.900 C 258.483 149.670,259.323 148.979,263.000 146.206 C 264.980 144.714,266.870 143.246,267.200 142.945 C 268.308 141.936,272.344 138.800,272.536 138.800 C 272.641 138.800,273.778 137.814,275.063 136.609 C 277.688 134.147,278.123 134.006,278.992 135.332 M121.605 200.132 C 121.607 200.389,119.672 202.461,117.305 204.735 C 114.937 207.009,104.694 217.134,94.541 227.235 C 84.389 237.336,75.800 245.600,75.455 245.600 C 74.019 245.600,73.990 244.700,74.005 200.216 C 74.021 155.084,74.044 154.160,75.146 153.868 C 75.844 153.683,121.596 199.243,121.605 200.132 " stroke="none" fill="#7b45c1" fill-rule="evenodd"></path><path id="path1" d="M274.516 33.600 C 274.352 34.227,273.970 34.400,272.753 34.400 C 271.467 34.400,271.200 34.537,271.200 35.200 C 271.200 35.733,270.933 36.000,270.400 36.000 C 269.867 36.000,269.600 36.267,269.600 36.800 C 269.600 37.333,269.333 37.600,268.800 37.600 C 268.267 37.600,268.000 37.867,268.000 38.400 C 268.000 38.933,267.733 39.200,267.200 39.200 C 266.667 39.200,266.400 39.467,266.400 40.000 C 266.400 40.533,266.133 40.800,265.600 40.800 C 265.067 40.800,264.800 41.067,264.800 41.600 C 264.800 42.133,264.533 42.400,264.000 42.400 C 263.467 42.400,263.200 42.667,263.200 43.200 C 263.200 43.733,262.933 44.000,262.400 44.000 C 261.867 44.000,261.600 44.267,261.600 44.800 C 261.600 45.333,261.333 45.600,260.800 45.600 C 260.267 45.600,260.000 45.867,260.000 46.400 C 260.000 46.933,259.733 47.200,259.200 47.200 C 258.667 47.200,258.400 47.467,258.400 48.000 C 258.400 48.533,258.133 48.800,257.600 48.800 C 257.067 48.800,256.800 49.067,256.800 49.600 C 256.800 50.133,256.533 50.400,256.000 50.400 C 255.467 50.400,255.200 50.667,255.200 51.200 C 255.200 51.733,254.933 52.000,254.400 52.000 C 253.867 52.000,253.600 52.267,253.600 52.800 C 253.600 53.333,253.333 53.600,252.800 53.600 C 252.267 53.600,252.000 53.867,252.000 54.400 C 252.000 54.933,251.733 55.200,251.200 55.200 C 250.667 55.200,250.400 55.467,250.400 56.000 C 250.400 56.533,250.133 56.800,249.600 56.800 C 249.067 56.800,248.800 57.067,248.800 57.600 C 248.800 58.133,248.533 58.400,248.000 58.400 C 247.467 58.400,247.200 58.667,247.200 59.200 C 247.200 59.733,246.933 60.000,246.400 60.000 C 245.867 60.000,245.600 60.267,245.600 60.800 C 245.600 61.333,245.333 61.600,244.800 61.600 C 244.267 61.600,244.000 61.867,244.000 62.400 C 244.000 62.933,243.733 63.200,243.200 63.200 C 242.667 63.200,242.400 63.467,242.400 64.000 C 242.400 64.533,242.133 64.800,241.600 64.800 C 241.067 64.800,240.800 65.067,240.800 65.600 C 240.800 66.133,240.533 66.400,240.000 66.400 C 239.467 66.400,239.200 66.667,239.200 67.200 C 239.200 67.733,238.933 68.000,238.400 68.000 C 237.867 68.000,237.600 68.267,237.600 68.800 C 237.600 69.333,237.333 69.600,236.800 69.600 C 236.267 69.600,236.000 69.867,236.000 70.400 C 236.000 70.933,235.733 71.200,235.200 71.200 C 234.667 71.200,234.400 71.467,234.400 72.000 C 234.400 72.533,234.133 72.800,233.600 72.800 C 233.067 72.800,232.800 73.067,232.800 73.600 C 232.800 74.133,232.533 74.400,232.000 74.400 C 231.467 74.400,231.200 74.667,231.200 75.200 C 231.200 75.733,230.933 76.000,230.400 76.000 C 229.867 76.000,229.600 76.267,229.600 76.800 C 229.600 77.333,229.333 77.600,228.800 77.600 C 228.267 77.600,228.000 77.867,228.000 78.400 C 228.000 78.933,227.733 79.200,227.200 79.200 C 226.667 79.200,226.400 79.467,226.400 80.000 C 226.400 80.533,226.133 80.800,225.600 80.800 C 225.067 80.800,224.800 81.067,224.800 81.600 C 224.800 82.133,224.533 82.400,224.000 82.400 C 223.467 82.400,223.200 82.667,223.200 83.200 C 223.200 83.733,222.933 84.000,222.400 84.000 C 221.867 84.000,221.600 84.267,221.600 84.800 C 221.600 85.333,221.333 85.600,220.800 85.600 C 220.267 85.600,220.000 85.867,220.000 86.400 C 220.000 86.933,219.733 87.200,219.200 87.200 C 218.667 87.200,218.400 87.467,218.400 88.000 C 218.400 88.533,218.133 88.800,217.600 88.800 C 217.067 88.800,216.800 89.067,216.800 89.600 C 216.800 90.133,216.533 90.400,216.000 90.400 C 215.467 90.400,215.200 90.667,215.200 91.200 C 215.200 91.733,214.933 92.000,214.400 92.000 C 213.867 92.000,213.600 92.267,213.600 92.800 C 213.600 93.333,213.333 93.600,212.800 93.600 C 212.267 93.600,212.000 93.867,212.000 94.400 C 212.000 94.933,211.733 95.200,211.200 95.200 C 210.667 95.200,210.400 95.467,210.400 96.000 C 210.400 96.533,210.133 96.800,209.600 96.800 C 209.067 96.800,208.800 97.067,208.800 97.600 C 208.800 98.133,208.533 98.400,208.000 98.400 C 207.467 98.400,207.200 98.667,207.200 99.200 C 207.200 99.733,206.933 100.000,206.400 100.000 C 205.867 100.000,205.600 100.267,205.600 100.800 C 205.600 101.333,205.333 101.600,204.800 101.600 C 204.267 101.600,204.000 101.867,204.000 102.400 C 204.000 102.933,203.733 103.200,203.200 103.200 C 202.667 103.200,202.400 103.467,202.400 104.000 C 202.400 104.533,202.133 104.800,201.600 104.800 C 201.067 104.800,200.800 105.067,200.800 105.600 C 200.800 106.133,200.533 106.400,200.000 106.400 C 199.467 106.400,199.200 106.667,199.200 107.200 C 199.200 107.733,198.933 108.000,198.400 108.000 C 197.867 108.000,197.600 108.267,197.600 108.800 C 197.600 109.333,197.333 109.600,196.800 109.600 C 196.267 109.600,196.000 109.867,196.000 110.400 C 196.000 110.933,195.733 111.200,195.200 111.200 C 194.667 111.200,194.400 111.467,194.400 112.000 C 194.400 112.533,194.133 112.800,193.600 112.800 C 193.067 112.800,192.800 113.067,192.800 113.600 C 192.800 114.133,192.533 114.400,192.000 114.400 C 191.467 114.400,191.200 114.667,191.200 115.200 C 191.200 115.733,190.933 116.000,190.400 116.000 C 189.867 116.000,189.600 116.267,189.600 116.800 C 189.600 117.333,189.333 117.600,188.800 117.600 C 188.267 117.600,188.000 117.867,188.000 118.400 C 188.000 118.933,187.733 119.200,187.200 119.200 C 186.667 119.200,186.400 119.467,186.400 120.000 C 186.400 120.533,186.133 120.800,185.600 120.800 C 185.067 120.800,184.800 121.067,184.800 121.600 C 184.800 122.133,184.533 122.400,184.000 122.400 C 183.467 122.400,183.200 122.667,183.200 123.200 C 183.200 123.733,182.933 124.000,182.400 124.000 C 181.867 124.000,181.600 124.267,181.600 124.800 C 181.600 125.333,181.333 125.600,180.800 125.600 C 180.267 125.600,180.000 125.867,180.000 126.400 C 180.000 126.933,179.733 127.200,179.200 127.200 C 178.667 127.200,178.400 127.467,178.400 128.000 C 178.400 128.533,178.133 128.800,177.600 128.800 C 177.067 128.800,176.800 129.067,176.800 129.600 C 176.800 130.133,176.533 130.400,176.000 130.400 C 175.467 130.400,175.200 130.667,175.200 131.200 C 175.200 131.733,174.933 132.000,174.400 132.000 C 173.867 132.000,173.600 132.267,173.600 132.800 C 173.600 133.333,173.333 133.600,172.800 133.600 C 172.267 133.600,172.000 133.867,172.000 134.400 C 172.000 134.933,171.733 135.200,171.200 135.200 C 170.667 135.200,170.400 135.467,170.400 136.000 C 170.400 136.533,170.133 136.800,169.600 136.800 C 169.067 136.800,168.800 137.067,168.800 137.600 C 168.800 138.133,168.533 138.400,168.000 138.400 C 167.483 138.400,167.200 138.667,167.200 139.153 C 167.200 139.570,166.843 140.000,166.400 140.116 C 165.960 140.231,165.600 140.591,165.600 140.916 C 165.600 141.241,165.240 141.601,164.800 141.716 C 164.360 141.831,164.000 142.191,164.000 142.516 C 164.000 142.841,163.640 143.201,163.200 143.316 C 162.760 143.431,162.400 143.791,162.400 144.116 C 162.400 144.441,162.040 144.801,161.600 144.916 C 161.160 145.031,160.800 145.391,160.800 145.716 C 160.800 146.041,160.440 146.401,160.000 146.516 C 159.560 146.631,159.200 146.991,159.200 147.316 C 159.200 147.641,158.840 148.001,158.400 148.116 C 157.960 148.231,157.600 148.591,157.600 148.916 C 157.600 149.241,157.240 149.601,156.800 149.716 C 156.360 149.831,156.000 150.191,156.000 150.516 C 156.000 150.841,155.640 151.201,155.200 151.316 C 154.760 151.431,154.400 151.791,154.400 152.116 C 154.400 152.866,153.453 153.101,151.300 152.886 C 149.958 152.752,149.600 152.556,149.600 151.958 C 149.600 151.467,149.319 151.200,148.800 151.200 C 148.267 151.200,148.000 150.933,148.000 150.400 C 148.000 149.867,147.733 149.600,147.200 149.600 C 146.667 149.600,146.400 149.333,146.400 148.800 C 146.400 148.133,146.133 148.000,144.800 148.000 C 143.467 148.000,143.200 147.867,143.200 147.200 C 143.200 146.667,142.933 146.400,142.400 146.400 C 141.867 146.400,141.600 146.133,141.600 145.600 C 141.600 145.067,141.333 144.800,140.800 144.800 C 140.267 144.800,140.000 144.533,140.000 144.000 C 140.000 143.483,139.733 143.200,139.247 143.200 C 138.830 143.200,138.400 142.843,138.284 142.400 C 138.124 141.787,137.738 141.600,136.637 141.600 C 135.467 141.600,135.200 141.452,135.200 140.800 C 135.200 140.267,134.933 140.000,134.400 140.000 C 133.867 140.000,133.600 139.733,133.600 139.200 C 133.600 138.667,133.333 138.400,132.800 138.400 C 132.267 138.400,132.000 138.133,132.000 137.600 C 132.000 136.933,131.733 136.800,130.400 136.800 C 129.067 136.800,128.800 136.667,128.800 136.000 C 128.800 135.467,128.533 135.200,128.000 135.200 C 127.467 135.200,127.200 134.933,127.200 134.400 C 127.200 133.867,126.933 133.600,126.400 133.600 C 125.867 133.600,125.600 133.333,125.600 132.800 C 125.600 132.283,125.333 132.000,124.847 132.000 C 124.430 132.000,124.000 131.643,123.884 131.200 C 123.724 130.587,123.338 130.400,122.237 130.400 C 121.067 130.400,120.800 130.252,120.800 129.600 C 120.800 129.067,120.533 128.800,120.000 128.800 C 119.467 128.800,119.200 128.533,119.200 128.000 C 119.200 127.467,118.933 127.200,118.400 127.200 C 117.867 127.200,117.600 126.933,117.600 126.400 C 117.600 125.900,117.333 125.600,116.889 125.600 C 116.498 125.600,115.870 125.240,115.493 124.800 C 115.116 124.360,114.356 124.000,113.804 124.000 C 113.067 124.000,112.800 123.787,112.800 123.200 C 112.800 122.667,112.533 122.400,112.000 122.400 C 111.467 122.400,111.200 122.133,111.200 121.600 C 111.200 121.083,110.933 120.800,110.447 120.800 C 110.030 120.800,109.600 120.443,109.484 120.000 C 109.324 119.387,108.938 119.200,107.837 119.200 C 106.667 119.200,106.400 119.052,106.400 118.400 C 106.400 117.867,106.133 117.600,105.600 117.600 C 105.067 117.600,104.800 117.333,104.800 116.800 C 104.800 116.267,104.533 116.000,104.000 116.000 C 103.467 116.000,103.200 115.733,103.200 115.200 C 103.200 114.683,102.933 114.400,102.447 114.400 C 102.030 114.400,101.600 114.043,101.484 113.600 C 101.324 112.987,100.938 112.800,99.837 112.800 C 98.667 112.800,98.400 112.652,98.400 112.000 C 98.400 111.467,98.133 111.200,97.600 111.200 C 97.067 111.200,96.800 110.933,96.800 110.400 C 96.800 109.867,96.533 109.600,96.000 109.600 C 95.467 109.600,95.200 109.333,95.200 108.800 C 95.200 108.133,94.933 108.000,93.600 108.000 C 92.267 108.000,92.000 107.867,92.000 107.200 C 92.000 106.667,91.733 106.400,91.200 106.400 C 90.667 106.400,90.400 106.133,90.400 105.600 C 90.400 105.067,90.133 104.800,89.600 104.800 C 89.067 104.800,88.800 104.533,88.800 104.000 C 88.800 103.483,88.533 103.200,88.047 103.200 C 87.630 103.200,87.200 102.843,87.084 102.400 C 86.924 101.787,86.538 101.600,85.437 101.600 C 84.267 101.600,84.000 101.452,84.000 100.800 C 84.000 100.267,83.733 100.000,83.200 100.000 C 82.667 100.000,82.400 99.733,82.400 99.200 C 82.400 98.683,82.133 98.400,81.647 98.400 C 81.230 98.400,80.800 98.043,80.684 97.600 C 80.506 96.920,80.138 96.800,78.237 96.800 C 76.267 96.800,76.000 96.705,76.000 96.000 C 76.000 95.289,75.733 95.200,73.600 95.200 C 71.467 95.200,71.200 95.289,71.200 96.000 C 71.200 96.705,70.933 96.800,68.963 96.800 C 67.062 96.800,66.694 96.920,66.516 97.600 C 66.357 98.206,65.970 98.400,64.916 98.400 C 63.862 98.400,63.475 98.594,63.316 99.200 C 63.157 99.806,62.770 100.000,61.716 100.000 C 60.662 100.000,60.275 100.194,60.116 100.800 C 59.957 101.406,59.570 101.600,58.516 101.600 C 57.462 101.600,57.075 101.794,56.916 102.400 C 56.757 103.006,56.370 103.200,55.316 103.200 C 54.262 103.200,53.875 103.394,53.716 104.000 C 53.557 104.606,53.170 104.800,52.116 104.800 C 51.062 104.800,50.675 104.994,50.516 105.600 C 50.357 106.206,49.970 106.400,48.916 106.400 C 47.862 106.400,47.475 106.594,47.316 107.200 C 47.157 107.806,46.770 108.000,45.716 108.000 C 44.662 108.000,44.275 108.194,44.116 108.800 C 43.957 109.406,43.570 109.600,42.516 109.600 C 41.462 109.600,41.075 109.794,40.916 110.400 C 40.757 111.006,40.370 111.200,39.316 111.200 C 38.262 111.200,37.875 111.394,37.716 112.000 C 37.600 112.443,37.170 112.800,36.753 112.800 C 36.267 112.800,36.000 113.083,36.000 113.600 C 36.000 114.133,35.733 114.400,35.200 114.400 C 34.683 114.400,34.400 114.667,34.400 115.153 C 34.400 115.570,34.043 116.000,33.600 116.116 C 32.335 116.447,32.335 282.400,33.600 282.400 C 34.267 282.400,34.400 282.667,34.400 284.000 C 34.400 285.333,34.533 285.600,35.200 285.600 C 35.733 285.600,36.000 285.867,36.000 286.400 C 36.000 287.067,36.267 287.200,37.600 287.200 C 38.933 287.200,39.200 287.333,39.200 288.000 C 39.200 288.667,39.467 288.800,40.800 288.800 C 42.133 288.800,42.400 288.933,42.400 289.600 C 42.400 290.267,42.667 290.400,44.000 290.400 C 45.333 290.400,45.600 290.533,45.600 291.200 C 45.600 291.867,45.867 292.000,47.200 292.000 C 48.533 292.000,48.800 292.133,48.800 292.800 C 48.800 293.467,49.067 293.600,50.400 293.600 C 51.733 293.600,52.000 293.733,52.000 294.400 C 52.000 295.067,52.267 295.200,53.600 295.200 C 54.933 295.200,55.200 295.333,55.200 296.000 C 55.200 296.667,55.467 296.800,56.800 296.800 C 58.133 296.800,58.400 296.933,58.400 297.600 C 58.400 298.267,58.667 298.400,60.000 298.400 C 61.333 298.400,61.600 298.533,61.600 299.200 C 61.600 299.867,61.867 300.000,63.200 300.000 C 64.533 300.000,64.800 300.133,64.800 300.800 C 64.800 301.467,65.067 301.600,66.400 301.600 C 67.733 301.600,68.000 301.733,68.000 302.400 C 68.000 303.108,68.267 303.200,70.311 303.200 C 72.127 303.200,72.769 303.371,73.307 304.000 C 74.169 305.007,74.631 305.007,75.493 304.000 C 75.953 303.462,76.673 303.200,77.689 303.200 C 78.933 303.200,79.200 303.059,79.200 302.400 C 79.200 301.748,79.467 301.600,80.637 301.600 C 81.738 301.600,82.124 301.413,82.284 300.800 C 82.400 300.357,82.830 300.000,83.247 300.000 C 83.733 300.000,84.000 299.717,84.000 299.200 C 84.000 298.667,84.267 298.400,84.800 298.400 C 85.333 298.400,85.600 298.133,85.600 297.600 C 85.600 297.067,85.867 296.800,86.400 296.800 C 86.933 296.800,87.200 296.533,87.200 296.000 C 87.200 295.348,87.467 295.200,88.637 295.200 C 89.738 295.200,90.124 295.013,90.284 294.400 C 90.400 293.957,90.830 293.600,91.247 293.600 C 91.733 293.600,92.000 293.317,92.000 292.800 C 92.000 292.267,92.267 292.000,92.800 292.000 C 93.333 292.000,93.600 291.733,93.600 291.200 C 93.600 290.578,93.867 290.400,94.797 290.400 C 95.560 290.400,96.174 290.110,96.493 289.600 C 96.768 289.160,97.309 288.800,97.696 288.800 C 98.133 288.800,98.400 288.497,98.400 288.000 C 98.400 287.467,98.667 287.200,99.200 287.200 C 99.733 287.200,100.000 286.933,100.000 286.400 C 100.000 285.867,100.267 285.600,100.800 285.600 C 101.333 285.600,101.600 285.333,101.600 284.800 C 101.600 284.148,101.867 284.000,103.037 284.000 C 104.138 284.000,104.524 283.813,104.684 283.200 C 104.800 282.757,105.230 282.400,105.647 282.400 C 106.133 282.400,106.400 282.117,106.400 281.600 C 106.400 281.067,106.667 280.800,107.200 280.800 C 107.733 280.800,108.000 280.533,108.000 280.000 C 108.000 279.489,108.267 279.200,108.738 279.200 C 109.144 279.200,109.802 278.840,110.200 278.400 C 110.598 277.960,111.346 277.600,111.862 277.600 C 112.533 277.600,112.800 277.373,112.800 276.800 C 112.800 276.267,113.067 276.000,113.600 276.000 C 114.133 276.000,114.400 275.733,114.400 275.200 C 114.400 274.667,114.667 274.400,115.200 274.400 C 115.733 274.400,116.000 274.133,116.000 273.600 C 116.000 272.948,116.267 272.800,117.437 272.800 C 118.538 272.800,118.924 272.613,119.084 272.000 C 119.200 271.557,119.630 271.200,120.047 271.200 C 120.533 271.200,120.800 270.917,120.800 270.400 C 120.800 269.867,121.067 269.600,121.600 269.600 C 122.133 269.600,122.400 269.333,122.400 268.800 C 122.400 268.267,122.667 268.000,123.200 268.000 C 123.733 268.000,124.000 267.733,124.000 267.200 C 124.000 266.548,124.267 266.400,125.437 266.400 C 126.538 266.400,126.924 266.213,127.084 265.600 C 127.200 265.157,127.630 264.800,128.047 264.800 C 128.533 264.800,128.800 264.517,128.800 264.000 C 128.800 263.467,129.067 263.200,129.600 263.200 C 130.133 263.200,130.400 262.933,130.400 262.400 C 130.400 261.778,130.667 261.600,131.597 261.600 C 132.360 261.600,132.974 261.310,133.293 260.800 C 133.568 260.360,134.109 260.000,134.496 260.000 C 134.933 260.000,135.200 259.697,135.200 259.200 C 135.200 258.667,135.467 258.400,136.000 258.400 C 136.533 258.400,136.800 258.133,136.800 257.600 C 136.800 257.067,137.067 256.800,137.600 256.800 C 138.133 256.800,138.400 256.533,138.400 256.000 C 138.400 255.348,138.667 255.200,139.837 255.200 C 140.938 255.200,141.324 255.013,141.484 254.400 C 141.600 253.957,142.030 253.600,142.447 253.600 C 142.933 253.600,143.200 253.317,143.200 252.800 C 143.200 252.267,143.467 252.000,144.000 252.000 C 144.533 252.000,144.800 251.733,144.800 251.200 C 144.800 250.617,145.067 250.400,145.784 250.400 C 146.326 250.400,147.109 250.035,147.525 249.588 C 149.013 247.991,156.000 248.021,156.000 249.625 C 156.000 250.133,156.275 250.400,156.800 250.400 C 157.333 250.400,157.600 250.667,157.600 251.200 C 157.600 251.733,157.867 252.000,158.400 252.000 C 158.933 252.000,159.200 252.267,159.200 252.800 C 159.200 253.333,159.467 253.600,160.000 253.600 C 160.533 253.600,160.800 253.867,160.800 254.400 C 160.800 254.933,161.067 255.200,161.600 255.200 C 162.133 255.200,162.400 255.467,162.400 256.000 C 162.400 256.533,162.667 256.800,163.200 256.800 C 163.733 256.800,164.000 257.067,164.000 257.600 C 164.000 258.133,164.267 258.400,164.800 258.400 C 165.333 258.400,165.600 258.667,165.600 259.200 C 165.600 259.733,165.867 260.000,166.400 260.000 C 166.933 260.000,167.200 260.267,167.200 260.800 C 167.200 261.333,167.467 261.600,168.000 261.600 C 168.533 261.600,168.800 261.867,168.800 262.400 C 168.800 262.933,169.067 263.200,169.600 263.200 C 170.133 263.200,170.400 263.467,170.400 264.000 C 170.400 264.533,170.667 264.800,171.200 264.800 C 171.733 264.800,172.000 265.067,172.000 265.600 C 172.000 266.133,172.267 266.400,172.800 266.400 C 173.333 266.400,173.600 266.667,173.600 267.200 C 173.600 267.733,173.867 268.000,174.400 268.000 C 174.933 268.000,175.200 268.267,175.200 268.800 C 175.200 269.333,175.467 269.600,176.000 269.600 C 176.533 269.600,176.800 269.867,176.800 270.400 C 176.800 270.933,177.067 271.200,177.600 271.200 C 178.133 271.200,178.400 271.467,178.400 272.000 C 178.400 272.533,178.667 272.800,179.200 272.800 C 179.733 272.800,180.000 273.067,180.000 273.600 C 180.000 274.133,180.267 274.400,180.800 274.400 C 181.333 274.400,181.600 274.667,181.600 275.200 C 181.600 275.733,181.867 276.000,182.400 276.000 C 182.933 276.000,183.200 276.267,183.200 276.800 C 183.200 277.333,183.467 277.600,184.000 277.600 C 184.533 277.600,184.800 277.867,184.800 278.400 C 184.800 278.933,185.067 279.200,185.600 279.200 C 186.133 279.200,186.400 279.467,186.400 280.000 C 186.400 280.533,186.667 280.800,187.200 280.800 C 187.733 280.800,188.000 281.067,188.000 281.600 C 188.000 282.133,188.267 282.400,188.800 282.400 C 189.333 282.400,189.600 282.667,189.600 283.200 C 189.600 283.733,189.867 284.000,190.400 284.000 C 190.933 284.000,191.200 284.267,191.200 284.800 C 191.200 285.333,191.467 285.600,192.000 285.600 C 192.533 285.600,192.800 285.867,192.800 286.400 C 192.800 286.933,193.067 287.200,193.600 287.200 C 194.133 287.200,194.400 287.467,194.400 288.000 C 194.400 288.533,194.667 288.800,195.200 288.800 C 195.733 288.800,196.000 289.067,196.000 289.600 C 196.000 290.133,196.267 290.400,196.800 290.400 C 197.333 290.400,197.600 290.667,197.600 291.200 C 197.600 291.733,197.867 292.000,198.400 292.000 C 198.933 292.000,199.200 292.267,199.200 292.800 C 199.200 293.333,199.467 293.600,200.000 293.600 C 200.533 293.600,200.800 293.867,200.800 294.400 C 200.800 294.933,201.067 295.200,201.600 295.200 C 202.133 295.200,202.400 295.467,202.400 296.000 C 202.400 296.533,202.667 296.800,203.200 296.800 C 203.733 296.800,204.000 297.067,204.000 297.600 C 204.000 298.133,204.267 298.400,204.800 298.400 C 205.333 298.400,205.600 298.667,205.600 299.200 C 205.600 299.733,205.867 300.000,206.400 300.000 C 206.933 300.000,207.200 300.267,207.200 300.800 C 207.200 301.333,207.467 301.600,208.000 301.600 C 208.533 301.600,208.800 301.867,208.800 302.400 C 208.800 302.933,209.067 303.200,209.600 303.200 C 210.133 303.200,210.400 303.467,210.400 304.000 C 210.400 304.533,210.667 304.800,211.200 304.800 C 211.733 304.800,212.000 305.067,212.000 305.600 C 212.000 306.133,212.267 306.400,212.800 306.400 C 213.333 306.400,213.600 306.667,213.600 307.200 C 213.600 307.733,213.867 308.000,214.400 308.000 C 214.933 308.000,215.200 308.267,215.200 308.800 C 215.200 309.333,215.467 309.600,216.000 309.600 C 216.533 309.600,216.800 309.867,216.800 310.400 C 216.800 310.933,217.067 311.200,217.600 311.200 C 218.133 311.200,218.400 311.467,218.400 312.000 C 218.400 312.533,218.667 312.800,219.200 312.800 C 219.733 312.800,220.000 313.067,220.000 313.600 C 220.000 314.133,220.267 314.400,220.800 314.400 C 221.333 314.400,221.600 314.667,221.600 315.200 C 221.600 315.733,221.867 316.000,222.400 316.000 C 222.933 316.000,223.200 316.267,223.200 316.800 C 223.200 317.333,223.467 317.600,224.000 317.600 C 224.533 317.600,224.800 317.867,224.800 318.400 C 224.800 318.933,225.067 319.200,225.600 319.200 C 226.133 319.200,226.400 319.467,226.400 320.000 C 226.400 320.533,226.667 320.800,227.200 320.800 C 227.733 320.800,228.000 321.067,228.000 321.600 C 228.000 322.133,228.267 322.400,228.800 322.400 C 229.333 322.400,229.600 322.667,229.600 323.200 C 229.600 323.733,229.867 324.000,230.400 324.000 C 230.933 324.000,231.200 324.267,231.200 324.800 C 231.200 325.333,231.467 325.600,232.000 325.600 C 232.533 325.600,232.800 325.867,232.800 326.400 C 232.800 326.933,233.067 327.200,233.600 327.200 C 234.133 327.200,234.400 327.467,234.400 328.000 C 234.400 328.533,234.667 328.800,235.200 328.800 C 235.733 328.800,236.000 329.067,236.000 329.600 C 236.000 330.133,236.267 330.400,236.800 330.400 C 237.333 330.400,237.600 330.667,237.600 331.200 C 237.600 331.733,237.867 332.000,238.400 332.000 C 238.933 332.000,239.200 332.267,239.200 332.800 C 239.200 333.333,239.467 333.600,240.000 333.600 C 240.533 333.600,240.800 333.867,240.800 334.400 C 240.800 334.933,241.067 335.200,241.600 335.200 C 242.133 335.200,242.400 335.467,242.400 336.000 C 242.400 336.533,242.667 336.800,243.200 336.800 C 243.733 336.800,244.000 337.067,244.000 337.600 C 244.000 338.133,244.267 338.400,244.800 338.400 C 245.333 338.400,245.600 338.667,245.600 339.200 C 245.600 339.733,245.867 340.000,246.400 340.000 C 246.933 340.000,247.200 340.267,247.200 340.800 C 247.200 341.333,247.467 341.600,248.000 341.600 C 248.533 341.600,248.800 341.867,248.800 342.400 C 248.800 342.933,249.067 343.200,249.600 343.200 C 250.133 343.200,250.400 343.467,250.400 344.000 C 250.400 344.533,250.667 344.800,251.200 344.800 C 251.733 344.800,252.000 345.067,252.000 345.600 C 252.000 346.133,252.267 346.400,252.800 346.400 C 253.333 346.400,253.600 346.667,253.600 347.200 C 253.600 347.733,253.867 348.000,254.400 348.000 C 254.933 348.000,255.200 348.267,255.200 348.800 C 255.200 349.333,255.467 349.600,256.000 349.600 C 256.533 349.600,256.800 349.867,256.800 350.400 C 256.800 350.933,257.067 351.200,257.600 351.200 C 258.133 351.200,258.400 351.467,258.400 352.000 C 258.400 352.533,258.667 352.800,259.200 352.800 C 259.733 352.800,260.000 353.067,260.000 353.600 C 260.000 354.133,260.267 354.400,260.800 354.400 C 261.333 354.400,261.600 354.667,261.600 355.200 C 261.600 355.733,261.867 356.000,262.400 356.000 C 262.933 356.000,263.200 356.267,263.200 356.800 C 263.200 357.333,263.467 357.600,264.000 357.600 C 264.533 357.600,264.800 357.867,264.800 358.400 C 264.800 358.933,265.067 359.200,265.600 359.200 C 266.133 359.200,266.400 359.467,266.400 360.000 C 266.400 360.533,266.667 360.800,267.200 360.800 C 267.733 360.800,268.000 361.067,268.000 361.600 C 268.000 362.133,268.267 362.400,268.800 362.400 C 269.333 362.400,269.600 362.667,269.600 363.200 C 269.600 363.733,269.867 364.000,270.400 364.000 C 270.933 364.000,271.200 364.267,271.200 364.800 C 271.200 365.467,271.467 365.600,272.800 365.600 C 273.867 365.600,274.667 365.867,275.200 366.400 C 275.867 367.067,276.533 367.200,279.200 367.200 C 281.867 367.200,282.533 367.067,283.200 366.400 C 283.733 365.867,284.533 365.600,285.600 365.600 C 286.933 365.600,287.200 365.467,287.200 364.800 C 287.200 364.133,287.467 364.000,288.800 364.000 C 290.133 364.000,290.400 363.867,290.400 363.200 C 290.400 362.489,290.667 362.400,292.800 362.400 C 294.933 362.400,295.200 362.311,295.200 361.600 C 295.200 360.933,295.467 360.800,296.800 360.800 C 298.133 360.800,298.400 360.667,298.400 360.000 C 298.400 359.289,298.667 359.200,300.800 359.200 C 302.933 359.200,303.200 359.111,303.200 358.400 C 303.200 357.733,303.467 357.600,304.800 357.600 C 306.133 357.600,306.400 357.467,306.400 356.800 C 306.400 356.089,306.667 356.000,308.800 356.000 C 310.933 356.000,311.200 355.911,311.200 355.200 C 311.200 354.533,311.467 354.400,312.800 354.400 C 314.133 354.400,314.400 354.267,314.400 353.600 C 314.400 352.895,314.667 352.800,316.637 352.800 C 318.538 352.800,318.906 352.680,319.084 352.000 C 319.248 351.373,319.630 351.200,320.847 351.200 C 322.133 351.200,322.400 351.063,322.400 350.400 C 322.400 349.695,322.667 349.600,324.637 349.600 C 326.538 349.600,326.906 349.480,327.084 348.800 C 327.248 348.173,327.630 348.000,328.847 348.000 C 330.133 348.000,330.400 347.863,330.400 347.200 C 330.400 346.495,330.667 346.400,332.637 346.400 C 334.538 346.400,334.906 346.280,335.084 345.600 C 335.248 344.973,335.630 344.800,336.847 344.800 C 338.133 344.800,338.400 344.663,338.400 344.000 C 338.400 343.295,338.667 343.200,340.637 343.200 C 342.538 343.200,342.906 343.080,343.084 342.400 C 343.248 341.773,343.630 341.600,344.847 341.600 C 346.133 341.600,346.400 341.463,346.400 340.800 C 346.400 340.095,346.667 340.000,348.637 340.000 C 350.538 340.000,350.906 339.880,351.084 339.200 C 351.248 338.573,351.630 338.400,352.847 338.400 C 354.133 338.400,354.400 338.263,354.400 337.600 C 354.400 336.895,354.667 336.800,356.637 336.800 C 358.538 336.800,358.906 336.680,359.084 336.000 C 359.243 335.394,359.630 335.200,360.684 335.200 C 361.738 335.200,362.125 335.006,362.284 334.400 C 362.400 333.957,362.830 333.600,363.247 333.600 C 363.718 333.600,364.000 333.318,364.000 332.847 C 364.000 332.430,364.357 332.000,364.800 331.884 C 366.066 331.553,366.066 69.600,364.800 69.600 C 364.133 69.600,364.000 69.333,364.000 68.000 C 364.000 66.667,363.867 66.400,363.200 66.400 C 362.667 66.400,362.400 66.133,362.400 65.600 C 362.400 64.937,362.133 64.800,360.847 64.800 C 359.630 64.800,359.248 64.627,359.084 64.000 C 358.906 63.320,358.538 63.200,356.637 63.200 C 354.667 63.200,354.400 63.105,354.400 62.400 C 354.400 61.737,354.133 61.600,352.847 61.600 C 351.630 61.600,351.248 61.427,351.084 60.800 C 350.924 60.187,350.538 60.000,349.437 60.000 C 348.533 60.000,347.703 59.703,347.200 59.200 C 346.667 58.667,345.867 58.400,344.800 58.400 C 343.467 58.400,343.200 58.267,343.200 57.600 C 343.200 56.941,342.933 56.800,341.689 56.800 C 340.673 56.800,339.953 56.538,339.493 56.000 C 338.996 55.420,338.313 55.200,337.004 55.200 C 335.467 55.200,335.200 55.082,335.200 54.400 C 335.200 53.741,334.933 53.600,333.689 53.600 C 332.673 53.600,331.953 53.338,331.493 52.800 C 330.996 52.220,330.313 52.000,329.004 52.000 C 327.467 52.000,327.200 51.882,327.200 51.200 C 327.200 50.542,326.933 50.400,325.696 50.400 C 324.626 50.400,324.049 50.170,323.693 49.600 C 323.302 48.974,322.760 48.800,321.197 48.800 C 319.467 48.800,319.200 48.693,319.200 48.000 C 319.200 47.342,318.933 47.200,317.696 47.200 C 316.626 47.200,316.049 46.970,315.693 46.400 C 315.302 45.774,314.760 45.600,313.197 45.600 C 311.467 45.600,311.200 45.493,311.200 44.800 C 311.200 44.137,310.933 44.000,309.647 44.000 C 308.430 44.000,308.048 43.827,307.884 43.200 C 307.706 42.520,307.338 42.400,305.437 42.400 C 303.467 42.400,303.200 42.305,303.200 41.600 C 303.200 40.937,302.933 40.800,301.647 40.800 C 300.430 40.800,300.048 40.627,299.884 40.000 C 299.706 39.320,299.338 39.200,297.437 39.200 C 295.467 39.200,295.200 39.105,295.200 38.400 C 295.200 37.737,294.933 37.600,293.647 37.600 C 292.430 37.600,292.048 37.427,291.884 36.800 C 291.706 36.120,291.338 36.000,289.437 36.000 C 287.467 36.000,287.200 35.905,287.200 35.200 C 287.200 34.537,286.933 34.400,285.647 34.400 C 284.430 34.400,284.048 34.227,283.884 33.600 C 283.691 32.860,283.338 32.800,279.200 32.800 C 275.062 32.800,274.709 32.860,274.516 33.600 M283.000 44.400 C 283.660 44.837,284.560 45.197,285.000 45.200 C 285.440 45.203,286.340 45.563,287.000 46.000 C 287.660 46.437,288.560 46.797,289.000 46.800 C 289.440 46.803,290.340 47.163,291.000 47.600 C 291.660 48.037,292.571 48.396,293.024 48.397 C 293.476 48.399,294.196 48.667,294.624 48.994 C 295.051 49.320,296.102 49.784,296.960 50.025 C 297.818 50.266,298.776 50.719,299.089 51.032 C 299.401 51.344,300.054 51.600,300.540 51.600 C 301.025 51.600,301.841 51.893,302.353 52.252 C 302.865 52.610,304.002 53.065,304.881 53.263 C 305.760 53.460,306.744 53.887,307.068 54.211 C 307.392 54.535,308.054 54.800,308.540 54.800 C 309.025 54.800,309.841 55.093,310.353 55.452 C 310.865 55.810,312.002 56.265,312.881 56.463 C 313.760 56.660,314.744 57.087,315.068 57.411 C 315.392 57.735,316.049 58.001,316.529 58.003 C 317.008 58.004,317.940 58.363,318.600 58.800 C 319.260 59.237,320.160 59.597,320.600 59.600 C 321.040 59.603,321.940 59.963,322.600 60.400 C 323.260 60.837,324.139 61.196,324.553 61.197 C 324.967 61.199,325.867 61.541,326.553 61.957 C 327.239 62.373,328.373 62.835,329.072 62.983 C 329.772 63.130,330.559 63.510,330.821 63.826 C 331.083 64.142,331.788 64.400,332.388 64.400 C 332.987 64.400,333.893 64.760,334.400 65.200 C 334.907 65.640,335.703 66.000,336.167 66.000 C 336.632 66.000,337.684 66.360,338.504 66.800 C 339.325 67.240,340.333 67.600,340.745 67.600 C 341.156 67.600,341.921 67.934,342.446 68.342 C 342.971 68.750,344.057 69.205,344.860 69.353 C 345.663 69.500,346.540 69.886,346.809 70.211 C 347.078 70.535,347.788 70.800,348.388 70.800 C 348.987 70.800,349.866 71.137,350.342 71.549 C 350.817 71.961,351.924 72.414,352.803 72.554 C 353.681 72.695,354.400 72.987,354.400 73.205 C 354.400 73.422,354.805 73.603,355.300 73.606 C 355.795 73.609,356.451 73.771,356.759 73.966 C 357.235 74.268,357.329 92.294,357.393 195.860 C 357.434 262.707,357.607 318.887,357.776 320.703 C 358.198 325.217,358.046 325.615,355.406 326.909 C 354.183 327.509,352.981 328.000,352.735 328.000 C 352.489 328.000,351.548 328.338,350.644 328.752 C 349.740 329.166,348.100 329.865,347.000 330.305 C 345.900 330.746,344.010 331.508,342.800 332.000 C 341.590 332.492,339.700 333.249,338.600 333.683 C 337.500 334.118,335.880 334.817,335.000 335.238 C 334.120 335.658,333.125 336.002,332.789 336.001 C 332.453 336.000,331.823 336.244,331.389 336.543 C 330.955 336.842,329.880 337.317,329.000 337.600 C 328.120 337.883,327.045 338.358,326.611 338.657 C 326.177 338.956,325.457 339.201,325.011 339.203 C 324.565 339.204,323.660 339.563,323.000 340.000 C 322.340 340.437,321.527 340.796,321.194 340.797 C 320.861 340.799,319.916 341.160,319.096 341.600 C 318.275 342.040,317.375 342.400,317.096 342.400 C 316.816 342.400,315.916 342.760,315.096 343.200 C 314.275 343.640,313.375 344.000,313.096 344.000 C 312.816 344.000,311.916 344.360,311.096 344.800 C 310.275 345.240,309.375 345.600,309.096 345.600 C 308.816 345.600,307.916 345.960,307.096 346.400 C 306.275 346.840,305.375 347.200,305.096 347.200 C 304.816 347.200,303.916 347.560,303.096 348.000 C 302.275 348.440,301.375 348.800,301.096 348.800 C 300.816 348.800,299.916 349.160,299.096 349.600 C 298.275 350.040,297.397 350.400,297.145 350.400 C 296.894 350.400,295.948 350.738,295.044 351.152 C 293.436 351.888,291.019 352.890,287.000 354.489 C 285.900 354.927,284.280 355.602,283.400 355.989 C 282.520 356.376,281.190 356.827,280.444 356.990 L 279.089 357.288 216.844 295.082 C 182.610 260.869,154.240 232.775,153.800 232.651 C 153.209 232.485,151.744 233.416,148.200 236.206 C 145.560 238.286,142.988 240.305,142.484 240.693 C 141.981 241.082,140.811 242.072,139.884 242.894 C 138.958 243.716,138.088 244.391,137.951 244.394 C 137.745 244.399,134.853 246.628,132.383 248.686 C 130.745 250.050,124.727 254.748,122.784 256.179 C 121.565 257.077,120.305 258.037,119.984 258.312 C 117.778 260.203,117.181 260.689,116.190 261.400 C 115.577 261.840,112.448 264.280,109.238 266.823 C 106.027 269.366,101.780 272.675,99.800 274.177 C 97.820 275.679,95.930 277.160,95.600 277.468 C 95.270 277.776,92.570 279.921,89.600 282.234 C 86.630 284.547,83.930 286.657,83.600 286.923 C 82.125 288.112,78.254 291.131,76.441 292.508 L 74.454 294.016 72.727 293.176 C 71.777 292.714,70.730 292.170,70.400 291.967 C 70.070 291.764,69.350 291.419,68.800 291.199 C 68.250 290.980,67.530 290.620,67.200 290.399 C 66.870 290.179,66.150 289.819,65.600 289.599 C 65.050 289.380,64.330 289.020,64.000 288.799 C 63.670 288.579,62.950 288.219,62.400 287.999 C 61.850 287.780,61.130 287.431,60.800 287.223 C 60.470 287.016,59.030 286.289,57.600 285.607 C 56.170 284.926,54.730 284.210,54.400 284.015 C 52.826 283.088,45.713 279.599,45.379 279.589 C 45.171 279.583,44.380 279.065,43.623 278.436 L 42.245 277.294 42.423 273.947 C 42.634 269.953,42.652 145.539,42.443 131.903 C 42.274 120.907,41.976 121.795,46.587 119.532 C 48.354 118.664,50.070 117.793,50.400 117.598 C 51.262 117.086,53.237 116.110,54.400 115.621 C 54.950 115.390,55.670 115.020,56.000 114.799 C 56.330 114.579,57.050 114.219,57.600 113.999 C 58.150 113.780,58.870 113.420,59.200 113.199 C 59.530 112.979,60.250 112.619,60.800 112.399 C 61.350 112.180,62.070 111.820,62.400 111.599 C 62.730 111.379,63.450 111.019,64.000 110.799 C 64.550 110.580,65.270 110.220,65.600 109.999 C 65.930 109.779,66.650 109.419,67.200 109.199 C 67.750 108.980,68.470 108.620,68.800 108.399 C 69.130 108.179,69.850 107.819,70.400 107.599 C 70.950 107.380,71.670 107.020,72.000 106.799 C 74.293 105.266,74.059 105.159,82.200 111.464 C 82.860 111.975,83.814 112.710,84.320 113.096 C 84.826 113.483,85.574 114.070,85.982 114.400 C 87.799 115.870,89.339 117.080,94.400 121.015 C 97.370 123.325,100.062 125.436,100.383 125.707 C 101.417 126.581,105.514 129.760,107.464 131.200 C 108.506 131.970,109.764 132.960,110.259 133.400 C 110.755 133.840,113.520 136.000,116.404 138.200 C 119.288 140.400,122.991 143.314,124.633 144.676 C 126.274 146.038,127.974 147.265,128.409 147.403 C 128.844 147.541,129.200 147.779,129.200 147.932 C 129.200 148.085,130.378 149.108,131.818 150.205 C 134.886 152.543,138.741 155.577,139.598 156.327 C 139.929 156.617,142.540 158.647,145.400 160.837 C 148.260 163.027,150.975 165.134,151.433 165.520 C 151.891 165.905,152.770 166.550,153.385 166.954 L 154.504 167.687 209.352 112.923 C 282.789 39.599,278.683 43.606,280.400 43.606 C 281.170 43.605,282.340 43.963,283.000 44.400 M275.063 136.609 C 273.778 137.814,272.641 138.800,272.536 138.800 C 272.344 138.800,268.308 141.936,267.200 142.945 C 266.870 143.246,264.980 144.714,263.000 146.206 C 259.323 148.979,258.483 149.670,257.297 150.900 C 256.926 151.285,256.476 151.600,256.296 151.600 C 255.821 151.600,250.800 155.685,250.800 156.072 C 250.800 156.252,250.608 156.400,250.373 156.400 C 250.138 156.400,248.923 157.216,247.673 158.214 C 246.423 159.212,244.988 160.337,244.484 160.714 C 243.981 161.091,243.261 161.686,242.884 162.036 C 242.508 162.386,241.181 163.416,239.934 164.323 C 238.688 165.231,237.219 166.385,236.670 166.887 C 236.120 167.389,235.273 168.070,234.788 168.400 C 234.302 168.730,231.901 170.570,229.452 172.488 C 227.004 174.407,224.586 176.297,224.081 176.688 C 223.575 177.080,222.738 177.760,222.220 178.200 C 221.701 178.640,220.855 179.320,220.339 179.712 C 216.557 182.581,214.180 184.522,214.067 184.834 C 213.993 185.035,213.767 185.200,213.564 185.200 C 213.361 185.200,210.901 187.012,208.097 189.227 C 205.294 191.442,202.492 193.647,201.871 194.127 C 201.250 194.607,200.327 195.360,199.819 195.800 C 199.311 196.240,198.245 197.125,197.450 197.767 L 196.005 198.935 196.703 200.057 C 197.321 201.052,216.120 216.386,216.750 216.409 C 216.887 216.414,217.648 216.999,218.439 217.709 C 219.230 218.419,220.478 219.450,221.212 220.000 C 223.733 221.890,232.601 228.835,233.400 229.545 C 233.840 229.936,235.280 231.043,236.600 232.005 C 237.920 232.967,241.610 235.836,244.800 238.381 C 247.990 240.926,251.320 243.535,252.200 244.178 C 253.080 244.822,256.320 247.350,259.400 249.795 C 262.480 252.241,266.080 255.026,267.400 255.984 C 268.720 256.943,270.085 258.014,270.433 258.364 C 270.781 258.714,271.668 259.450,272.405 260.000 C 273.141 260.550,274.620 261.686,275.692 262.525 C 276.905 263.474,277.972 264.003,278.520 263.925 L 279.400 263.800 279.501 200.032 C 279.619 125.948,280.038 131.943,275.063 136.609 M75.146 153.868 C 74.044 154.160,74.021 155.084,74.005 200.216 C 73.990 244.700,74.019 245.600,75.455 245.600 C 75.800 245.600,84.389 237.336,94.541 227.235 C 104.694 217.134,114.937 207.009,117.305 204.735 C 119.672 202.461,121.607 200.389,121.605 200.132 C 121.596 199.243,75.844 153.683,75.146 153.868 M268.000 200.600 C 268.000 243.733,267.995 244.000,267.200 244.000 C 266.667 244.000,266.400 243.733,266.400 243.200 C 266.400 242.667,266.133 242.400,265.600 242.400 C 265.067 242.400,264.800 242.133,264.800 241.600 C 264.800 241.083,264.533 240.800,264.047 240.800 C 263.630 240.800,263.200 240.443,263.084 240.000 C 262.924 239.387,262.538 239.200,261.437 239.200 C 260.267 239.200,260.000 239.052,260.000 238.400 C 260.000 237.867,259.733 237.600,259.200 237.600 C 258.667 237.600,258.400 237.333,258.400 236.800 C 258.400 236.267,258.133 236.000,257.600 236.000 C 257.067 236.000,256.800 235.733,256.800 235.200 C 256.800 234.533,256.533 234.400,255.200 234.400 C 253.867 234.400,253.600 234.267,253.600 233.600 C 253.600 233.067,253.333 232.800,252.800 232.800 C 252.267 232.800,252.000 232.533,252.000 232.000 C 252.000 231.467,251.733 231.200,251.200 231.200 C 250.667 231.200,250.400 230.933,250.400 230.400 C 250.400 229.883,250.133 229.600,249.647 229.600 C 249.230 229.600,248.800 229.243,248.684 228.800 C 248.524 228.187,248.138 228.000,247.037 228.000 C 245.867 228.000,245.600 227.852,245.600 227.200 C 245.600 226.667,245.333 226.400,244.800 226.400 C 244.267 226.400,244.000 226.133,244.000 225.600 C 244.000 225.067,243.733 224.800,243.200 224.800 C 242.667 224.800,242.400 224.533,242.400 224.000 C 242.400 223.503,242.133 223.200,241.696 223.200 C 241.309 223.200,240.768 222.840,240.493 222.400 C 240.174 221.890,239.560 221.600,238.797 221.600 C 237.867 221.600,237.600 221.422,237.600 220.800 C 237.600 220.267,237.333 220.000,236.800 220.000 C 236.267 220.000,236.000 219.733,236.000 219.200 C 236.000 218.683,235.733 218.400,235.247 218.400 C 234.830 218.400,234.400 218.043,234.284 217.600 C 234.124 216.987,233.738 216.800,232.637 216.800 C 231.467 216.800,231.200 216.652,231.200 216.000 C 231.200 215.467,230.933 215.200,230.400 215.200 C 229.867 215.200,229.600 214.933,229.600 214.400 C 229.600 213.867,229.333 213.600,228.800 213.600 C 228.267 213.600,228.000 213.333,228.000 212.800 C 228.000 212.283,227.733 212.000,227.247 212.000 C 226.830 212.000,226.400 211.643,226.284 211.200 C 226.124 210.587,225.738 210.400,224.637 210.400 C 223.467 210.400,223.200 210.252,223.200 209.600 C 223.200 209.067,222.933 208.800,222.400 208.800 C 221.867 208.800,221.600 208.533,221.600 208.000 C 221.600 207.467,221.333 207.200,220.800 207.200 C 220.267 207.200,220.000 206.933,220.000 206.400 C 220.000 205.733,219.733 205.600,218.400 205.600 C 217.067 205.600,216.800 205.467,216.800 204.800 C 216.800 204.267,216.533 204.000,216.000 204.000 C 215.467 204.000,215.200 203.733,215.200 203.200 C 215.200 202.667,214.933 202.400,214.400 202.400 C 213.867 202.400,213.600 202.133,213.600 201.600 C 213.600 201.077,213.333 200.800,212.829 200.800 C 212.002 200.800,211.670 199.949,211.931 198.500 C 212.063 197.770,212.356 197.600,213.484 197.600 C 214.538 197.600,214.925 197.407,215.084 196.800 C 215.200 196.357,215.630 196.000,216.047 196.000 C 216.533 196.000,216.800 195.717,216.800 195.200 C 216.800 194.667,217.067 194.400,217.600 194.400 C 218.133 194.400,218.400 194.133,218.400 193.600 C 218.400 192.978,218.667 192.800,219.597 192.800 C 220.360 192.800,220.974 192.510,221.293 192.000 C 221.568 191.560,222.109 191.200,222.496 191.200 C 222.933 191.200,223.200 190.897,223.200 190.400 C 223.200 189.867,223.467 189.600,224.000 189.600 C 224.533 189.600,224.800 189.333,224.800 188.800 C 224.800 188.267,225.067 188.000,225.600 188.000 C 226.133 188.000,226.400 187.733,226.400 187.200 C 226.400 186.548,226.667 186.400,227.837 186.400 C 228.938 186.400,229.324 186.213,229.484 185.600 C 229.600 185.157,230.030 184.800,230.447 184.800 C 230.933 184.800,231.200 184.517,231.200 184.000 C 231.200 183.467,231.467 183.200,232.000 183.200 C 232.533 183.200,232.800 182.933,232.800 182.400 C 232.800 181.867,233.067 181.600,233.600 181.600 C 234.133 181.600,234.400 181.333,234.400 180.800 C 234.400 180.133,234.667 180.000,236.000 180.000 C 237.333 180.000,237.600 179.867,237.600 179.200 C 237.600 178.667,237.867 178.400,238.400 178.400 C 238.933 178.400,239.200 178.133,239.200 177.600 C 239.200 177.067,239.467 176.800,240.000 176.800 C 240.533 176.800,240.800 176.533,240.800 176.000 C 240.800 175.348,241.067 175.200,242.237 175.200 C 243.338 175.200,243.724 175.013,243.884 174.400 C 244.000 173.957,244.430 173.600,244.847 173.600 C 245.333 173.600,245.600 173.317,245.600 172.800 C 245.600 172.267,245.867 172.000,246.400 172.000 C 246.933 172.000,247.200 171.733,247.200 171.200 C 247.200 170.667,247.467 170.400,248.000 170.400 C 248.533 170.400,248.800 170.133,248.800 169.600 C 248.800 168.948,249.067 168.800,250.237 168.800 C 251.338 168.800,251.724 168.613,251.884 168.000 C 252.000 167.557,252.430 167.200,252.847 167.200 C 253.333 167.200,253.600 166.917,253.600 166.400 C 253.600 165.867,253.867 165.600,254.400 165.600 C 254.933 165.600,255.200 165.333,255.200 164.800 C 255.200 164.213,255.467 164.000,256.204 164.000 C 256.756 164.000,257.516 163.640,257.893 163.200 C 258.270 162.760,258.898 162.400,259.289 162.400 C 259.733 162.400,260.000 162.100,260.000 161.600 C 260.000 161.067,260.267 160.800,260.800 160.800 C 261.333 160.800,261.600 160.533,261.600 160.000 C 261.600 159.467,261.867 159.200,262.400 159.200 C 262.925 159.200,263.200 158.933,263.200 158.423 C 263.200 157.800,263.536 157.616,264.900 157.493 C 265.835 157.409,266.915 157.308,267.300 157.270 C 267.963 157.204,268.000 159.507,268.000 200.600 M85.600 179.600 C 85.600 179.820,85.960 180.000,86.400 180.000 C 86.933 180.000,87.200 180.267,87.200 180.800 C 87.200 181.333,87.467 181.600,88.000 181.600 C 88.533 181.600,88.800 181.867,88.800 182.400 C 88.800 182.933,89.067 183.200,89.600 183.200 C 90.133 183.200,90.400 183.467,90.400 184.000 C 90.400 184.533,90.667 184.800,91.200 184.800 C 91.733 184.800,92.000 185.067,92.000 185.600 C 92.000 186.133,92.267 186.400,92.800 186.400 C 93.333 186.400,93.600 186.667,93.600 187.200 C 93.600 187.733,93.867 188.000,94.400 188.000 C 94.933 188.000,95.200 188.267,95.200 188.800 C 95.200 189.333,95.467 189.600,96.000 189.600 C 96.533 189.600,96.800 189.867,96.800 190.400 C 96.800 190.933,97.067 191.200,97.600 191.200 C 98.133 191.200,98.400 191.467,98.400 192.000 C 98.400 192.533,98.667 192.800,99.200 192.800 C 99.733 192.800,100.000 193.067,100.000 193.600 C 100.000 194.133,100.267 194.400,100.800 194.400 C 101.333 194.400,101.600 194.667,101.600 195.200 C 101.600 195.733,101.867 196.000,102.400 196.000 C 102.933 196.000,103.200 196.267,103.200 196.800 C 103.200 197.333,103.467 197.600,104.000 197.600 C 104.533 197.600,104.800 197.867,104.800 198.400 C 104.800 198.933,105.067 199.200,105.600 199.200 C 106.133 199.200,106.400 199.467,106.400 200.000 C 106.400 200.533,106.133 200.800,105.600 200.800 C 105.067 200.800,104.800 201.067,104.800 201.600 C 104.800 202.133,104.533 202.400,104.000 202.400 C 103.467 202.400,103.200 202.667,103.200 203.200 C 103.200 203.733,102.933 204.000,102.400 204.000 C 101.867 204.000,101.600 204.267,101.600 204.800 C 101.600 205.333,101.333 205.600,100.800 205.600 C 100.267 205.600,100.000 205.867,100.000 206.400 C 100.000 206.933,99.733 207.200,99.200 207.200 C 98.667 207.200,98.400 207.467,98.400 208.000 C 98.400 208.533,98.133 208.800,97.600 208.800 C 97.067 208.800,96.800 209.067,96.800 209.600 C 96.800 210.133,96.533 210.400,96.000 210.400 C 95.467 210.400,95.200 210.667,95.200 211.200 C 95.200 211.733,94.933 212.000,94.400 212.000 C 93.867 212.000,93.600 212.267,93.600 212.800 C 93.600 213.333,93.333 213.600,92.800 213.600 C 92.267 213.600,92.000 213.867,92.000 214.400 C 92.000 214.933,91.733 215.200,91.200 215.200 C 90.667 215.200,90.400 215.467,90.400 216.000 C 90.400 216.533,90.133 216.800,89.600 216.800 C 89.067 216.800,88.800 217.067,88.800 217.600 C 88.800 218.133,88.533 218.400,88.000 218.400 C 87.467 218.400,87.200 218.667,87.200 219.200 C 87.200 219.733,86.933 220.000,86.400 220.000 C 85.867 220.000,85.600 220.267,85.600 220.800 C 85.600 221.333,85.333 221.600,84.800 221.600 C 84.010 221.600,84.000 221.333,84.000 200.400 C 84.000 179.467,84.010 179.200,84.800 179.200 C 85.240 179.200,85.600 179.380,85.600 179.600 " stroke="none" fill="#faf9fb" fill-rule="evenodd"></path></g></svg>